<svg xmlns="http://www.w3.org/2000/svg" width="101.655" height="93.217" viewBox="0 0 101.655 93.217">
  <g id="morte_acidental" data-name="morte acidental" transform="translate(-28.11 -32.019)">
    <path id="Caminho_8505" data-name="Caminho 8505" d="M123.5,45.562v7.377c-.033,5.9-2.788,10.068-8.082,12.585-1.41.673-2.864,1.269-4.329,1.844a2.281,2.281,0,0,1-1.5.163,49.639,49.639,0,0,1-7.171-3.352C98.425,61.629,96.646,57.691,96.6,53c-.054-5.338-.022-10.686,0-16.024,0-1.7.825-2.376,2.474-2.116a13.417,13.417,0,0,0,9.5-1.877,2.54,2.54,0,0,1,2.994,0,13.407,13.407,0,0,0,9.7,1.833,1.741,1.741,0,0,1,2.213,1.9c.011,2.951,0,5.9,0,8.842ZM111.834,63.343c.542-.217.933-.38,1.324-.532,4.86-1.888,7.084-5.479,7.008-10.653-.065-4.188-.022-8.386-.022-12.574v-.8c-2.886-.5-5.609-.976-8.31-1.443V63.354Zm-11.717-24.9c-.022.325-.043.521-.043.705V53.3a11.922,11.922,0,0,0,.228,2.235c.705,3.667,4.524,7.29,8,7.648V36.97a17.743,17.743,0,0,1-8.191,1.475Z" transform="translate(5.769)" fill="#ffb306" stroke="#ffb306" stroke-miterlimit="10" stroke-width="1"/>
    <g id="Grupo_2748" data-name="Grupo 2748" transform="translate(28.61 38.455)">
      <path id="Caminho_8506" data-name="Caminho 8506" d="M28.61,115.458a2.571,2.571,0,0,1,2.43-1.128q47.908,0,95.806.011a4.446,4.446,0,0,1,1.258.152,1.53,1.53,0,0,1,1.15,1.53,1.49,1.49,0,0,1-1.085,1.573,4.034,4.034,0,0,1-1.248.174q-48.006,0-96,.022a2.458,2.458,0,0,1-2.311-1.161v-1.183Z" transform="translate(-28.61 -31.509)" fill="#ffb306" stroke="#ffb306" stroke-miterlimit="10" stroke-width="1"/>
      <path id="Caminho_8507" data-name="Caminho 8507" d="M57.662,51.2a29.536,29.536,0,0,1,8.267-1.475c3.461-.184,5.262-2.094,5.544-5.533a5.02,5.02,0,0,1,10.035.325A15.034,15.034,0,0,1,69.7,59.438c-.282.065-.575.141-1,.26,1.9,1.9,3.743,3.732,5.576,5.576s3.656,3.667,5.522,5.544c.293-.282.553-.51.8-.759q5.468-5.452,10.914-10.9c1.367-1.367,2.126-1.378,3.461-.033q8.1,8.088,16.2,16.2c3.07,3.081,2.951,7.4-.239,9.97a6.409,6.409,0,0,1-8.712-.716c-2.734-2.691-5.424-5.414-8.137-8.126-.25-.25-.51-.488-.727-.683-1.974,1.985-3.906,3.927-5.934,5.956.108.119.315.347.532.564,2.018,2.018,4.014,4.047,6.054,6.043a2.942,2.942,0,0,1,.966,2.257c-.011,6.585.022,13.17-.022,19.756-.022,3.591-1.888,6.1-5.077,6.943a9.867,9.867,0,0,1-2.332.271c-5.11.022-10.22.011-15.329.011h-.293c-1.356-.033-2.2-.716-2.181-1.758s.857-1.692,2.235-1.7H82.364c-1.1-1.942-.846-3.949-.857-5.934-.011-3.862,0-7.735,0-11.6a2.853,2.853,0,0,0-2.539-2.549H63.433c-.944,0-1.7-.25-1.974-1.237a1.648,1.648,0,0,1,1.758-2.116c3.472-.022,6.943,0,10.415,0h2.43Q64.572,79.15,53.084,67.64c-1.671,2.246-1.541,6.043.4,8.56.4.521.868.976,1.313,1.465A5.122,5.122,0,0,1,56.024,83.2a5.025,5.025,0,0,1-4.5,3.428,5.3,5.3,0,0,1-4.264-1.606,18.323,18.323,0,0,1-.911-25.95c.239-.26.477-.532.825-.922a10.05,10.05,0,0,1-8.3-5.728,9.645,9.645,0,0,1-.575-7.345,10.14,10.14,0,0,1,11.836-6.846,9.827,9.827,0,0,1,6.52,4.817c1.237,2.083,1.5,3.916,1,8.169ZM93.224,62.248c-3.938,3.938-7.8,7.811-11.662,11.673-1.345,1.345-2.094,1.345-3.461-.022-4.014-4-7.974-8.05-12.053-12a4.117,4.117,0,0,1-1.324-3.678,1.724,1.724,0,0,1,1.823-1.768c.553-.054,1.107-.087,1.66-.174A11.722,11.722,0,0,0,78.144,44.64a1.659,1.659,0,0,0-2.224-1.725,1.818,1.818,0,0,0-1.117,1.8,8.69,8.69,0,0,1-8.777,8.408,22.5,22.5,0,0,0-15.243,6.249c-4.09,3.765-6.488,8.169-5.869,13.876a14.756,14.756,0,0,0,4.882,9.46,1.862,1.862,0,0,0,2.582.043,1.829,1.829,0,0,0,0-2.647c-.315-.38-.673-.716-1-1.085a11.14,11.14,0,0,1-.391-14.494c1.41-1.747,2.257-1.8,3.83-.228,9.449,9.449,18.888,18.931,28.38,28.326a5.166,5.166,0,0,1,1.692,4.133c-.1,4.589-.054,9.178-.022,13.756a3.315,3.315,0,0,0,3.417,3.6c1.953-.022,3.244-1.465,3.244-3.645,0-6.325.011-12.65-.022-18.975a2.126,2.126,0,0,0-.575-1.345c-2.235-2.3-4.524-4.556-6.791-6.835-1.3-1.3-1.291-2.072.022-3.4,1.128-1.139,2.267-2.267,3.407-3.407,1.389-1.389,2.766-2.788,4.177-4.166,1.074-1.052,1.909-1.041,2.973-.033l.553.553c3.081,3.081,6.173,6.151,9.243,9.243a3.141,3.141,0,0,0,3.287,1.009,3.024,3.024,0,0,0,1.139-5.186q-7.616-7.665-15.286-15.3c-.108-.108-.239-.206-.456-.391ZM41.3,48.09a6.656,6.656,0,1,0,6.65-6.7A6.735,6.735,0,0,0,41.3,48.1Z" transform="translate(-27.828 -37.989)" fill="#ffb306" stroke="#ffb306" stroke-miterlimit="10" stroke-width="1"/>
      <path id="Caminho_8508" data-name="Caminho 8508" d="M54.414,109.25a1.659,1.659,0,0,1-2.408,1.779c-1.248-.564-2.419-1.291-3.667-1.866a1.628,1.628,0,0,0-1.237,0c-1.161.532-2.267,1.161-3.4,1.758a1.744,1.744,0,0,1-2.018-.043,1.836,1.836,0,0,1-.651-1.931c.217-1.258.488-2.506.651-3.765a1.556,1.556,0,0,0-.358-1.1c-.868-.933-1.823-1.79-2.734-2.69a1.759,1.759,0,0,1-.618-1.931A1.814,1.814,0,0,1,39.6,98.25c1.226-.174,2.452-.434,3.689-.542a1.233,1.233,0,0,0,1.15-.846c.521-1.128,1.1-2.235,1.638-3.352.347-.705.89-1.291,1.671-1.1a2.772,2.772,0,0,1,1.562,1.117c.694,1.1,1.161,2.343,1.79,3.482a1.585,1.585,0,0,0,.944.651c1.28.25,2.6.315,3.862.64a2.747,2.747,0,0,1,1.519,1.161,1.533,1.533,0,0,1-.51,1.855c-.933.879-1.866,1.758-2.723,2.7a1.981,1.981,0,0,0-.423,1.258,14.879,14.879,0,0,0,.325,2.029c.108.673.206,1.356.293,1.964Zm-3.971-2.9a3.792,3.792,0,0,1,1.779-5.077,9.152,9.152,0,0,1-2.9-.814,9.557,9.557,0,0,1-1.7-2.539,3.667,3.667,0,0,1-4.329,3.124c.759.9,1.627,1.53,1.888,2.354a9.645,9.645,0,0,1-.1,3.07A3.759,3.759,0,0,1,50.443,106.354Z" transform="translate(-27.823 -33.373)" fill="#ffb306" stroke="#ffb306" stroke-miterlimit="10" stroke-width="1"/>
      <path id="Caminho_8509" data-name="Caminho 8509" d="M61.331,108.111c.694.054,1.378.054,2.05.174a1.481,1.481,0,0,1,1.291,1.595,1.412,1.412,0,0,1-1.28,1.584,28.6,28.6,0,0,1-4.09,0,1.426,1.426,0,0,1-1.3-1.584,1.5,1.5,0,0,1,1.3-1.606c.673-.119,1.356-.119,2.04-.174Z" transform="translate(-26.115 -32.038)" fill="#ffb306" stroke="#ffb306" stroke-miterlimit="10" stroke-width="1"/>
      <path id="Caminho_8510" data-name="Caminho 8510" d="M53.615,89.892c-.586,0-1.183.033-1.768,0a1.66,1.66,0,0,1,0-3.32c1.172-.043,2.354-.043,3.526,0a1.66,1.66,0,0,1,0,3.32c-.586.033-1.172,0-1.768,0Z" transform="translate(-26.775 -33.868)" fill="#ffb306" stroke="#ffb306" stroke-miterlimit="10" stroke-width="1"/>
    </g>
  </g>
</svg>
