<svg xmlns="http://www.w3.org/2000/svg" xmlns:xlink="http://www.w3.org/1999/xlink" width="91.913" height="78.602" viewBox="0 0 91.913 78.602">
  <defs>
    <clipPath id="clip-path">
      <rect id="Retângulo_3427" data-name="Retângulo 3427" width="91.913" height="78.602" transform="translate(0 0)" fill="none"/>
    </clipPath>
  </defs>
  <g id="Grupo_2907" data-name="Grupo 2907" transform="translate(0 0)">
    <g id="Grupo_2906" data-name="Grupo 2906" clip-path="url(#clip-path)">
      <path id="Caminho_8559" data-name="Caminho 8559" d="M40.63,7.442c1.163-.879,2.27-1.813,3.47-2.609A22.754,22.754,0,0,1,72,6.878a25.168,25.168,0,0,1,8.21,15.535,26.4,26.4,0,0,1,.182,5.966,1.755,1.755,0,1,1-3.51,0c0-.019,0-.039,0-.058a1.872,1.872,0,0,1,.016-.212,22.806,22.806,0,0,0-2.345-12.2,19.873,19.873,0,0,0-10.45-9.9c-6.816-2.731-13.235-1.76-19.152,2.53a20.219,20.219,0,0,0-2.7,2.423,2.038,2.038,0,0,1-2.869.275,2.1,2.1,0,0,1-.26-.256A19.223,19.223,0,0,0,28.906,5.131,18.837,18.837,0,0,0,11.4,10.08,21.1,21.1,0,0,0,4.7,23.7a22.547,22.547,0,0,0,6.086,18.5q10.8,11.584,21.65,23.131,3.936,4.2,7.879,8.4c.425.455.433.451.849.008q5.151-5.5,10.305-10.991,6.931-7.4,13.862-14.816,2.409-2.573,4.809-5.149c.271-.291.5-.627.778-.9a1.749,1.749,0,0,1,2.408-.076,1.7,1.7,0,0,1,.22,2.36c-.958,1.141-1.965,2.244-2.983,3.333Q62.378,56.257,54.175,65q-5.333,5.685-10.661,11.377a3.755,3.755,0,0,1-5.3.247,3.918,3.918,0,0,1-.279-.283Q26.814,64.47,15.691,52.6c-2.577-2.744-5.165-5.48-7.719-8.248a25.719,25.719,0,0,1-6.632-13.9A26.012,26.012,0,0,1,3.531,15.068,23.251,23.251,0,0,1,17.454,2.391C25-.125,32.051,1.139,38.514,5.742c.743.53,1.427,1.143,2.118,1.7" fill="#f9b218"/>
      <path id="Caminho_8560" data-name="Caminho 8560" d="M40.63,7.442c1.163-.879,2.27-1.813,3.47-2.609A22.754,22.754,0,0,1,72,6.878a25.168,25.168,0,0,1,8.21,15.535,26.4,26.4,0,0,1,.182,5.966,1.755,1.755,0,1,1-3.51,0c0-.019,0-.039,0-.058a1.872,1.872,0,0,1,.016-.212,22.806,22.806,0,0,0-2.345-12.2,19.873,19.873,0,0,0-10.45-9.9c-6.816-2.731-13.235-1.76-19.152,2.53a20.219,20.219,0,0,0-2.7,2.423,2.038,2.038,0,0,1-2.869.275,2.1,2.1,0,0,1-.26-.256A19.223,19.223,0,0,0,28.906,5.131,18.837,18.837,0,0,0,11.4,10.08,21.1,21.1,0,0,0,4.7,23.7a22.547,22.547,0,0,0,6.086,18.5q10.8,11.584,21.65,23.131,3.936,4.2,7.879,8.4c.425.455.433.451.849.008q5.151-5.5,10.305-10.991,6.931-7.4,13.862-14.816,2.409-2.573,4.809-5.149c.271-.291.5-.627.778-.9a1.749,1.749,0,0,1,2.408-.076,1.7,1.7,0,0,1,.22,2.36c-.958,1.141-1.965,2.244-2.983,3.333Q62.378,56.257,54.175,65q-5.333,5.685-10.661,11.377a3.755,3.755,0,0,1-5.3.247,3.918,3.918,0,0,1-.279-.283Q26.814,64.47,15.691,52.6c-2.577-2.744-5.165-5.48-7.719-8.248a25.719,25.719,0,0,1-6.632-13.9A26.012,26.012,0,0,1,3.531,15.068,23.251,23.251,0,0,1,17.454,2.391C25-.125,32.051,1.139,38.514,5.742c.743.53,1.427,1.143,2.118,1.7" fill="none" stroke="#f9b218" stroke-miterlimit="10" stroke-width="2"/>
      <path id="Caminho_8561" data-name="Caminho 8561" d="M40.63,7.442c1.163-.879,2.27-1.813,3.47-2.609A22.754,22.754,0,0,1,72,6.878a25.168,25.168,0,0,1,8.21,15.535,26.4,26.4,0,0,1,.182,5.966,1.755,1.755,0,1,1-3.51,0c0-.019,0-.039,0-.058a1.872,1.872,0,0,1,.016-.212,22.806,22.806,0,0,0-2.345-12.2,19.873,19.873,0,0,0-10.45-9.9c-6.816-2.731-13.235-1.76-19.152,2.53a20.219,20.219,0,0,0-2.7,2.423,2.038,2.038,0,0,1-2.869.275,2.1,2.1,0,0,1-.26-.256A19.223,19.223,0,0,0,28.906,5.131,18.837,18.837,0,0,0,11.4,10.08,21.1,21.1,0,0,0,4.7,23.7a22.547,22.547,0,0,0,6.086,18.5q10.8,11.584,21.65,23.131,3.936,4.2,7.879,8.4c.425.455.433.451.849.008q5.151-5.5,10.305-10.991,6.931-7.4,13.862-14.816,2.409-2.573,4.809-5.149c.271-.291.5-.627.778-.9a1.749,1.749,0,0,1,2.408-.076,1.7,1.7,0,0,1,.22,2.36c-.958,1.141-1.965,2.244-2.983,3.333Q62.378,56.257,54.175,65q-5.333,5.685-10.661,11.377a3.755,3.755,0,0,1-5.3.247,3.918,3.918,0,0,1-.279-.283Q26.814,64.47,15.691,52.6c-2.577-2.744-5.165-5.48-7.719-8.248a25.719,25.719,0,0,1-6.632-13.9A26.012,26.012,0,0,1,3.531,15.068,23.251,23.251,0,0,1,17.454,2.391C25-.125,32.051,1.139,38.514,5.742c.743.53,1.427,1.143,2.118,1.7" fill="#f9b218"/>
      <path id="Caminho_8562" data-name="Caminho 8562" d="M40.63,7.442c1.163-.879,2.27-1.813,3.47-2.609A22.754,22.754,0,0,1,72,6.878a25.168,25.168,0,0,1,8.21,15.535,26.4,26.4,0,0,1,.182,5.966,1.755,1.755,0,1,1-3.51,0c0-.019,0-.039,0-.058a1.872,1.872,0,0,1,.016-.212,22.806,22.806,0,0,0-2.345-12.2,19.873,19.873,0,0,0-10.45-9.9c-6.816-2.731-13.235-1.76-19.152,2.53a20.219,20.219,0,0,0-2.7,2.423,2.038,2.038,0,0,1-2.869.275,2.1,2.1,0,0,1-.26-.256A19.223,19.223,0,0,0,28.906,5.131,18.837,18.837,0,0,0,11.4,10.08,21.1,21.1,0,0,0,4.7,23.7a22.547,22.547,0,0,0,6.086,18.5q10.8,11.584,21.65,23.131,3.936,4.2,7.879,8.4c.425.455.433.451.849.008q5.151-5.5,10.305-10.991,6.931-7.4,13.862-14.816,2.409-2.573,4.809-5.149c.271-.291.5-.627.778-.9a1.749,1.749,0,0,1,2.408-.076,1.7,1.7,0,0,1,.22,2.36c-.958,1.141-1.965,2.244-2.983,3.333Q62.378,56.257,54.175,65q-5.333,5.685-10.661,11.377a3.755,3.755,0,0,1-5.3.247,3.918,3.918,0,0,1-.279-.283Q26.814,64.47,15.691,52.6c-2.577-2.744-5.165-5.48-7.719-8.248a25.719,25.719,0,0,1-6.632-13.9A26.012,26.012,0,0,1,3.531,15.068,23.251,23.251,0,0,1,17.454,2.391C25-.125,32.051,1.139,38.514,5.742c.743.53,1.427,1.143,2.118,1.7" fill="none" stroke="#f9b218" stroke-miterlimit="10" stroke-width="2"/>
      <path id="Caminho_8563" data-name="Caminho 8563" d="M50.768,25.193c-.833,1.109-1.6,2.134-2.373,3.161l-6.4,8.552a1.837,1.837,0,0,1-1.544.806H27.95a1.754,1.754,0,0,1-.286-3.5l.056,0a1.874,1.874,0,0,1,.237,0h8.424c.931,0,1.862-.02,2.792,0a.791.791,0,0,0,.73-.373Q45,27,50.121,20.177a1.79,1.79,0,0,1,3.318.735Q55.5,30.256,57.586,39.59c.011.042.027.083.074.221.1-.169.175-.277.235-.392q2.97-5.843,5.938-11.687a1.763,1.763,0,0,1,3.043-.378,2.234,2.234,0,0,1,.3.636c.587,1.857,1.177,3.714,1.735,5.58a.529.529,0,0,0,.6.45h.024q9.756-.015,19.507-.01a1.718,1.718,0,0,1,1.687,1,1.667,1.667,0,0,1-.226,1.866,1.766,1.766,0,0,1-1.486.646q-7.271-.006-14.542,0H67.866a1.76,1.76,0,0,1-1.81-1.341c-.312-1-.619-2-.952-3.073a3.222,3.222,0,0,0-.22.323q-3.069,6.043-6.127,12.091A1.912,1.912,0,0,1,57.014,46.8,1.7,1.7,0,0,1,55.3,45.424q-.969-4.3-1.922-8.6-1.245-5.6-2.488-11.2c-.026-.111-.061-.22-.12-.433" fill="#f9b218"/>
      <path id="Caminho_8564" data-name="Caminho 8564" d="M50.768,25.193c-.833,1.109-1.6,2.134-2.373,3.161l-6.4,8.552a1.837,1.837,0,0,1-1.544.806H27.95a1.754,1.754,0,0,1-.286-3.5l.056,0a1.874,1.874,0,0,1,.237,0h8.424c.931,0,1.862-.02,2.792,0a.791.791,0,0,0,.73-.373Q45,27,50.121,20.177a1.79,1.79,0,0,1,3.318.735Q55.5,30.256,57.586,39.59c.011.042.027.083.074.221.1-.169.175-.277.235-.392q2.97-5.843,5.938-11.687a1.763,1.763,0,0,1,3.043-.378,2.234,2.234,0,0,1,.3.636c.587,1.857,1.177,3.714,1.735,5.58a.529.529,0,0,0,.6.45h.024q9.756-.015,19.507-.01a1.718,1.718,0,0,1,1.687,1,1.667,1.667,0,0,1-.226,1.866,1.766,1.766,0,0,1-1.486.646q-7.271-.006-14.542,0H67.866a1.76,1.76,0,0,1-1.81-1.341c-.312-1-.619-2-.952-3.073a3.222,3.222,0,0,0-.22.323q-3.069,6.043-6.127,12.091A1.912,1.912,0,0,1,57.014,46.8,1.7,1.7,0,0,1,55.3,45.424q-.969-4.3-1.922-8.6-1.245-5.6-2.488-11.2c-.026-.111-.061-.22-.12-.433" fill="none" stroke="#f9b218" stroke-miterlimit="10" stroke-width="2"/>
      <path id="Caminho_8565" data-name="Caminho 8565" d="M50.768,25.193c-.833,1.109-1.6,2.134-2.373,3.161l-6.4,8.552a1.837,1.837,0,0,1-1.544.806H27.95a1.754,1.754,0,0,1-.286-3.5l.056,0a1.874,1.874,0,0,1,.237,0h8.424c.931,0,1.862-.02,2.792,0a.791.791,0,0,0,.73-.373Q45,27,50.121,20.177a1.79,1.79,0,0,1,3.318.735Q55.5,30.256,57.586,39.59c.011.042.027.083.074.221.1-.169.175-.277.235-.392q2.97-5.843,5.938-11.687a1.763,1.763,0,0,1,3.043-.378,2.234,2.234,0,0,1,.3.636c.587,1.857,1.177,3.714,1.735,5.58a.529.529,0,0,0,.6.45h.024q9.756-.015,19.507-.01a1.718,1.718,0,0,1,1.687,1,1.667,1.667,0,0,1-.226,1.866,1.766,1.766,0,0,1-1.486.646q-7.271-.006-14.542,0H67.866a1.76,1.76,0,0,1-1.81-1.341c-.312-1-.619-2-.952-3.073a3.222,3.222,0,0,0-.22.323q-3.069,6.043-6.127,12.091A1.912,1.912,0,0,1,57.014,46.8,1.7,1.7,0,0,1,55.3,45.424q-.969-4.3-1.922-8.6-1.245-5.6-2.488-11.2c-.026-.111-.061-.22-.12-.433" fill="#f9b218"/>
      <path id="Caminho_8566" data-name="Caminho 8566" d="M50.768,25.193c-.833,1.109-1.6,2.134-2.373,3.161l-6.4,8.552a1.837,1.837,0,0,1-1.544.806H27.95a1.754,1.754,0,0,1-.286-3.5l.056,0a1.874,1.874,0,0,1,.237,0h8.424c.931,0,1.862-.02,2.792,0a.791.791,0,0,0,.73-.373Q45,27,50.121,20.177a1.79,1.79,0,0,1,3.318.735Q55.5,30.256,57.586,39.59c.011.042.027.083.074.221.1-.169.175-.277.235-.392q2.97-5.843,5.938-11.687a1.763,1.763,0,0,1,3.043-.378,2.234,2.234,0,0,1,.3.636c.587,1.857,1.177,3.714,1.735,5.58a.529.529,0,0,0,.6.45h.024q9.756-.015,19.507-.01a1.718,1.718,0,0,1,1.687,1,1.667,1.667,0,0,1-.226,1.866,1.766,1.766,0,0,1-1.486.646q-7.271-.006-14.542,0H67.866a1.76,1.76,0,0,1-1.81-1.341c-.312-1-.619-2-.952-3.073a3.222,3.222,0,0,0-.22.323q-3.069,6.043-6.127,12.091A1.912,1.912,0,0,1,57.014,46.8,1.7,1.7,0,0,1,55.3,45.424q-.969-4.3-1.922-8.6-1.245-5.6-2.488-11.2c-.026-.111-.061-.22-.12-.433" fill="none" stroke="#f9b218" stroke-miterlimit="10" stroke-width="2"/>
    </g>
  </g>
</svg>
