<svg xmlns="http://www.w3.org/2000/svg" width="82.811" height="109.797" viewBox="0 0 82.811 109.797">
  <g id="orientacao_pisco" data-name="orientacao pisco" transform="translate(-31.209 -20.91)">
    <path id="Caminho_8524" data-name="Caminho 8524" d="M81.446,33.213H73.734c-.312,0-.633,0-.945-.028a1.525,1.525,0,0,1-1.578-1.616A1.583,1.583,0,0,1,72.855,30c.775-.038,1.55-.009,2.325-.009h14.15c.284,0,.567-.009.841,0a1.693,1.693,0,0,1,1.72,1.645,1.607,1.607,0,0,1-1.682,1.541c-1.446.047-2.883.019-4.329.028H81.446Z" transform="translate(-2.165 -0.47)" fill="#ffb306" stroke="#ffb306" stroke-miterlimit="10" stroke-width="1"/>
    <path id="Caminho_8525" data-name="Caminho 8525" d="M81.456,40.5c-2.779,0-5.558.009-8.346,0-1.172,0-1.871-.586-1.89-1.531a1.429,1.429,0,0,1,1.314-1.616A9.444,9.444,0,0,1,73.9,37.29H89.216c.35,0,.709,0,1.059.019a1.63,1.63,0,0,1,1.626,1.6,1.68,1.68,0,0,1-1.786,1.588c-1.975.028-3.941.009-5.917.009H81.447Z" transform="translate(-2.165 -0.87)" fill="#ffb306" stroke="#ffb306" stroke-miterlimit="10" stroke-width="1"/>
    <path id="Caminho_8526" data-name="Caminho 8526" d="M95.509,21.419c.246.123.491.236.737.359a4.274,4.274,0,0,1,2.665,3.885c.057,2.051.047,4.1.028,6.153a1.554,1.554,0,0,1-1.56,1.758,1.615,1.615,0,0,1-1.645-1.805c-.019-1.805,0-3.611-.009-5.416,0-1.285-.435-1.749-1.711-1.749H66.832c-1.285,0-1.711.454-1.711,1.739V45.03c0,1.314.378,1.682,1.72,1.682,5.52,0,11.04.019,16.569-.009a4.535,4.535,0,0,1,3.941,1.862c.907,1.21,1.909,2.344,3.081,3.762,0-1.078-.009-1.871,0-2.656a2.68,2.68,0,0,1,2.958-2.958h.851c1.04-.038,1.474-.444,1.484-1.5.019-1.871,0-3.752.009-5.624,0-.832.369-1.541,1.2-1.626a2.585,2.585,0,0,1,1.654.567c.284.217.331.832.34,1.267q.057,2.708,0,5.416a4.416,4.416,0,0,1-4.263,4.735c-.274.038-.558.066-1,.123v2.713c0,.633.009,1.276,0,1.909-.038,1.4-.51,2.193-1.541,2.5a2.347,2.347,0,0,1-2.694-.974c-.548-.69-1.115-1.352-1.758-2.127-1.295,1.531-3.015,1.6-4.783,1.588-5.17-.019-10.34,0-15.5-.019a1.951,1.951,0,0,0-1.711.8c-1.4,1.777-2.845,3.526-4.282,5.274-1,1.219-1.862,1.55-2.911,1.153-1.295-.482-1.522-1.55-1.522-2.751V55.777c-.388-.057-.662-.1-.936-.132-2.684-.284-4.282-1.871-4.3-4.575q-.085-9.655,0-19.32c.028-2.911,1.862-4.594,4.792-4.622,1.73-.019,3.469,0,5.4,0-.284-2.779.8-4.745,3.45-5.718H95.528ZM61.9,30.333H56.85c-1.569,0-1.919.359-1.919,1.938V50.314c0,1.909.208,2.108,2.136,2.117,2.183.019,3.147.983,3.157,3.185v2.42c1.163-1.418,2.146-2.533,3.034-3.724a4.572,4.572,0,0,1,4.027-1.9c5.416.047,10.832.019,16.248.019a4.4,4.4,0,0,0,1.059-.047c.8-.189.964-.794.51-1.475a1.962,1.962,0,0,0-1.853-.945c-5.416.038-10.832.028-16.248.009-3.346-.009-5.095-1.768-5.1-5.113-.009-4.424,0-8.847,0-13.271V30.314Z" transform="translate(-1.095)" fill="#ffb306" stroke="#ffb306" stroke-miterlimit="10" stroke-width="1"/>
    <path id="Caminho_8527" data-name="Caminho 8527" d="M51.417,92.909a28.4,28.4,0,0,1-4.735-.681,26.071,26.071,0,0,1-4.1-2.164v10.35h1.1c3.677,0,7.363.057,11.04-.019a5.636,5.636,0,0,1,5.983,5.936c-.095,7.042-.028,14.083-.028,21.125a5.259,5.259,0,0,1-2.807,4.981,5,5,0,0,1-5.34-.151,4.819,4.819,0,0,1-2.5-4.178c-.047-5.17-.038-10.331-.047-15.5v-1.361c-.454-.019-.822-.057-1.2-.057-3.677,0-7.363-.057-11.04.009a5.692,5.692,0,0,1-6.021-6.011c.132-8.138.038-16.276.047-24.414,0-3.819,3.176-6.4,6.692-5.444a8.55,8.55,0,0,1,2.013.907c2.93,1.72,5.822,3.488,8.752,5.189a3.791,3.791,0,0,0,1.777.482c2.656.047,5.312.095,7.959,0A5.46,5.46,0,0,1,64.622,89a1.94,1.94,0,0,0,0,.416c1.134,0,2.259-.009,3.384,0a2.457,2.457,0,0,1,1.342.17,2.53,2.53,0,0,1,1.078,1.475c.028.463-.52,1.078-.974,1.437a2.415,2.415,0,0,1-1.333.208c-4.074.009-8.138,0-12.212,0H54.716v4.187H90.51V92.7H77.145a5.889,5.889,0,0,1-1.153-.113,1.445,1.445,0,0,1-1.238-1.5,1.411,1.411,0,0,1,1.295-1.55c.983-.095,1.975-.095,2.958-.113.52-.009,1.049,0,1.484,0a16.758,16.758,0,0,1,.038-3.318,5.246,5.246,0,0,1,5.321-4.159c2.76-.028,5.52.028,8.28-.028a4.256,4.256,0,0,0,1.975-.529c3.006-1.73,5.955-3.544,8.942-5.293,2.826-1.654,5.813-1.172,7.467,1.408a6.853,6.853,0,0,1,.955,3.488c.076,8.138.047,16.276.038,24.414a5.409,5.409,0,0,1-5.756,5.794c-3.819.028-7.647,0-11.465,0H95.274v1.181c0,5.132.028,10.265-.019,15.4a5.24,5.24,0,0,1-5.614,5.321,5.156,5.156,0,0,1-4.981-4.858q-.113-11.257-.028-22.505a5.252,5.252,0,0,1,5.567-5.3c3.752-.028,7.5,0,11.257,0h1.238V89.988c-2.675,1.815-5.369,3.318-8.847,2.618v3.639c0,2.873-1.1,3.951-3.979,3.951H74.31v23.337c.794.066,1.6.076,2.382.208a3.835,3.835,0,0,1,3.3,3.393,9.785,9.785,0,0,1-.019,2.628,3.9,3.9,0,0,1-3.809,3.337c-2.335.038-4.669.028-7,0a3.941,3.941,0,0,1-3.847-3.308,8.529,8.529,0,0,1-.123-1.9,4.2,4.2,0,0,1,4.329-4.282c.454-.019.917,0,1.456,0V100.2H55.037c-2.316,0-3.544-1.181-3.6-3.488-.038-1.267,0-2.543,0-3.771Zm58.857,7.458a4.789,4.789,0,0,0,.047-.51c0-6.333.019-12.656,0-18.989,0-2.221-1.682-3.129-3.62-1.985-3.166,1.862-6.295,3.79-9.48,5.6a5.253,5.253,0,0,1-2.372.652c-2.864.076-5.728.009-8.592.038-1.635.009-2.637.851-2.656,2.127-.019,1.295.974,2.1,2.628,2.117,1.522.019,3.062-.142,4.556.028a15.73,15.73,0,0,0,12.155-3.365l.085-.057a1.965,1.965,0,0,1,2.174-.312,2.027,2.027,0,0,1,.87,2.023c-.009,3.639,0,7.287,0,10.926v1.7h4.216Zm-71.06,0V87.54c0-1.834,1.248-2.552,2.817-1.635,1.645.955,3.261,1.985,4.934,2.892a4.782,4.782,0,0,0,2.089.586c3.289.057,6.579.028,9.868.028,1.749,0,2.76-.785,2.76-2.1s-1.04-2.127-2.741-2.164h-.633c-2.656,0-5.312.047-7.959-.028a4.979,4.979,0,0,1-2.278-.643c-3.214-1.843-6.38-3.79-9.575-5.662-1.862-1.087-3.5-.142-3.554,2.013V99.5c0,.274.038.539.066.851h4.206Zm-4.187,3.3c-.35,3.563.492,4.357,3.658,4.272,3.847-.113,7.713-.028,11.56-.028,2.637,0,2.958.312,2.958,2.892V127.03a5.107,5.107,0,0,0,.113,1.257,2.035,2.035,0,0,0,2.013,1.569,2,2,0,0,0,1.966-1.493A5.466,5.466,0,0,0,57.448,127V106.747c0-2.429-.643-3.081-3.072-3.081H35Zm75.294.095a5.789,5.789,0,0,0-.7-.085c-6.4,0-12.8-.019-19.2,0-1.871,0-2.6.794-2.6,2.694v17.288c0,1.342-.047,2.684.019,4.027a2.1,2.1,0,0,0,3.138,1.89,2.41,2.41,0,0,0,1.106-2.363V110.556c0-2.24.406-2.647,2.656-2.647h12.94c1.673,0,2.448-.633,2.618-2.127a17.837,17.837,0,0,0,.009-2.013ZM72.646,126.879c-1.021,0-2.051.019-3.072,0s-1.125.586-1.115,1.389-.028,1.626,1.115,1.635h6.144c1.144,0,1.115-.813,1.115-1.635,0-.8-.113-1.418-1.115-1.389C74.7,126.908,73.667,126.879,72.646,126.879Z" transform="translate(0 -2.944)" fill="#ffb306" stroke="#ffb306" stroke-miterlimit="10" stroke-width="1"/>
    <path id="Caminho_8528" data-name="Caminho 8528" d="M114.475,63.791a9.969,9.969,0,0,1-10.019,9.934,9.963,9.963,0,1,1,10.019-9.934Zm-16.664.019a6.721,6.721,0,1,0,6.664-6.815A6.767,6.767,0,0,0,97.811,63.81Z" transform="translate(-3.445 -1.775)" fill="#ffb306" stroke="#ffb306" stroke-miterlimit="10" stroke-width="1"/>
    <path id="Caminho_8529" data-name="Caminho 8529" d="M34.38,63.752a7.061,7.061,0,1,0,.009-.009Zm16.673.028a6.749,6.749,0,1,1-.009,0Z" transform="translate(-0.146 -1.775)" fill="#ffb306" stroke="#ffb306" stroke-miterlimit="10" stroke-width="1"/>
  </g>
</svg>
