<svg xmlns="http://www.w3.org/2000/svg" width="79.682" height="76.618" viewBox="0 0 79.682 76.618">
  <g id="descontos_farmacia" data-name="descontos farmacia" transform="translate(-31.002 -32.693)">
    <path id="Caminho_8517" data-name="Caminho 8517" d="M109.675,101.043c-.786,2.258-2.637,3.36-4.67,4.227a37.067,37.067,0,0,1-9.953,2.43,73.528,73.528,0,0,1-14.442.443,49.325,49.325,0,0,1-13.286-2.375,13.089,13.089,0,0,1-4.8-2.728c-1.274.939-2.448,1.942-3.757,2.728a17.184,17.184,0,0,1-10.423,2.448A17.692,17.692,0,0,1,34.547,81.462q11.164-19.292,22.3-38.6a17.7,17.7,0,1,1,30.6,17.784q-4.308,7.478-8.626,14.948l-.479.867c.93-.054,1.779-.1,2.619-.154a64.969,64.969,0,0,1,20.584,1.716,30.2,30.2,0,0,1,4.588,1.716,6.118,6.118,0,0,1,3.55,3.712v17.594ZM74.4,76.982a4.967,4.967,0,0,0,.325-.461q5.108-8.847,10.215-17.7a14.257,14.257,0,0,0,1.8-9.773A14.465,14.465,0,0,0,73.213,36.862c-5.5-.244-9.989,1.833-12.979,6.449C57.47,47.583,55.059,52.09,52.5,56.5c-1.129,1.933-2.24,3.875-3.4,5.88C57.534,67.246,65.924,72.087,74.4,76.982ZM47.6,65.06a1.95,1.95,0,0,0-.19.271C43.95,71.319,40.481,77.289,37.049,83.3a13.982,13.982,0,0,0-1.463,11.028c1.517,5.482,5.067,9.14,10.594,10.459,5.708,1.355,10.667-.289,14.65-4.679a1.937,1.937,0,0,0,.524-1.427c-.018-4.651,0-9.3-.018-13.945a4.317,4.317,0,0,1,1.517-3.559,9.831,9.831,0,0,1,1.987-1.364c1.563-.723,3.179-1.319,4.823-2q-11-6.354-22.065-12.744ZM64.452,88.417v.813c0,3.107.145,6.223-.054,9.321a3.32,3.32,0,0,0,2.421,3.721c.262.1.506.217.768.325a43.6,43.6,0,0,0,14.009,2.52c3.116.154,6.259.018,9.384-.117a40.679,40.679,0,0,0,9.836-1.535,35.407,35.407,0,0,0,4.67-1.906,2.027,2.027,0,0,0,1.183-2.086c-.063-3.414-.027-6.819-.027-10.233v-.831C99.885,91.515,92.767,92.1,85.569,92.12s-14.307-.6-21.117-3.694Zm27.62-8.77s-.018-.081-.027-.117c-.668-.054-1.337-.163-2.014-.154-3.559.027-7.117,0-10.667.163a37.222,37.222,0,0,0-10.739,1.978,17.727,17.727,0,0,0-3.378,1.653c-1.093.677-1.039,1.237,0,2.014a5.12,5.12,0,0,0,1.292.777c2.023.677,4.064,1.31,6.106,1.906a1.714,1.714,0,0,0,1.057-.117q7.722-3.373,15.418-6.792c.975-.434,1.96-.867,2.935-1.3ZM79.084,88.76c.605.072.975.126,1.355.154a73.251,73.251,0,0,0,14.28-.434,32.882,32.882,0,0,0,8.86-2.123,13.309,13.309,0,0,0,2.583-1.526c.614-.452.587-.867.009-1.364a5.593,5.593,0,0,0-1.626-1.075c-1.843-.668-3.721-1.219-5.573-1.843a2.132,2.132,0,0,0-1.662.145q-8.075,3.59-16.167,7.144c-.614.271-1.228.551-2.05.921Z" fill="#ffb306" stroke="#ffb306" stroke-miterlimit="10" stroke-width="2"/>
    <path id="Caminho_8518" data-name="Caminho 8518" d="M72.763,39.86a1.853,1.853,0,0,1,1.49,1.21,1.45,1.45,0,0,1-.632,1.707,5.268,5.268,0,0,1-.9.37A9.5,9.5,0,0,0,67.623,47a2.943,2.943,0,0,1-1.21,1.048,1.265,1.265,0,0,1-1.526-.542,1.558,1.558,0,0,1-.018-1.843,11.719,11.719,0,0,1,4.706-4.489c1.021-.515,2.123-.876,3.188-1.31Z" transform="translate(-3.153 -0.595)" fill="#ffb306" stroke="#ffb306" stroke-miterlimit="10" stroke-width="2"/>
    <path id="Caminho_8519" data-name="Caminho 8519" d="M77,41.252a1.5,1.5,0,0,1,1.5-1.472,1.578,1.578,0,0,1,1.535,1.544A1.518,1.518,0,1,1,77,41.252Z" transform="translate(-4.356 -0.588)" fill="#ffb306" stroke="#ffb306" stroke-miterlimit="10" stroke-width="2"/>
  </g>
</svg>
