<svg width="78" height="80" viewBox="0 0 78 80" fill="none" xmlns="http://www.w3.org/2000/svg">
<path d="M55.1229 28.1023H21.0609C20.4366 28.1037 19.8296 28.3084 19.332 28.6855C18.8344 29.0626 18.4731 29.5915 18.3029 30.1923L8.02295 66.7843H68.9389L57.8729 30.1413C57.6949 29.5522 57.3321 29.0359 56.8382 28.6688C56.3443 28.3016 55.7454 28.103 55.1299 28.1023M52.1759 52.5123H42.966V61.7223H34.0029V52.5123H24.7929V43.5533H34.0029V34.3423H42.9639V43.5523H52.174L52.1759 52.5123Z" stroke="#FFB306" stroke-width="5" stroke-miterlimit="10"/>
<path d="M3.00708 74.6963C3.00708 75.1806 3.19946 75.6451 3.5419 75.9875C3.88434 76.3299 4.34879 76.5223 4.83308 76.5223H72.1271C72.6121 76.5226 73.0774 76.3305 73.421 75.9882C73.7646 75.6459 73.9585 75.1813 73.9601 74.6963V70.3773H3.00708V74.6963Z" stroke="#FFB306" stroke-width="5" stroke-miterlimit="10"/>
<path d="M4.83007 66.7843C4.34506 66.784 3.87973 66.9761 3.53612 67.3184C3.19251 67.6607 2.99866 68.1253 2.99707 68.6103V70.3773H73.9551V68.6103C73.9551 68.1262 73.7628 67.6619 73.4206 67.3195C73.0784 66.9771 72.6142 66.7846 72.1301 66.7843H4.83007Z" stroke="#FFB306" stroke-width="5" stroke-miterlimit="10"/>
<path d="M55.6371 19.5083L55.4241 19.4933C55.2317 19.511 55.0542 19.6044 54.9304 19.7529C54.8067 19.9013 54.7469 20.0928 54.7641 20.2853L55.0061 22.9543C55.0207 23.1013 55.0797 23.2405 55.1753 23.3532C55.2709 23.4659 55.3985 23.5468 55.5411 23.5853C57.7093 24.1465 59.7346 25.1589 61.4847 26.5564C63.2347 27.9539 64.6702 29.705 65.6971 31.6953C65.7633 31.8207 65.8651 31.9237 65.9896 31.9915C66.1141 32.0592 66.2559 32.0888 66.3971 32.0763L69.1181 31.8273C69.214 31.8181 69.3072 31.7902 69.3922 31.745C69.4773 31.6999 69.5526 31.6384 69.6139 31.5641C69.6752 31.4898 69.7213 31.4041 69.7495 31.312C69.7776 31.2199 69.7874 31.1232 69.7781 31.0273C69.7697 30.9491 69.7499 30.8726 69.7191 30.8003C68.4215 27.9441 66.4704 25.4332 64.0233 23.4702C61.5762 21.5073 58.7018 20.1474 55.6321 19.5003" fill="#FFB306"/>
<path d="M55.7912 11.7493H55.6312C55.4387 11.7671 55.2612 11.8604 55.1375 12.0089C55.0137 12.1573 54.9539 12.3488 54.9712 12.5413L55.2132 15.1743C55.2276 15.3346 55.2955 15.4853 55.406 15.6023C55.5164 15.7193 55.663 15.7957 55.8222 15.8193C59.7356 16.4292 63.4186 18.0619 66.4984 20.5523C69.5782 23.0426 71.9456 26.3022 73.3612 30.0013C73.4171 30.1472 73.5187 30.271 73.6508 30.3543C73.7829 30.4375 73.9385 30.4758 74.0942 30.4633L76.7342 30.2213C76.8301 30.2122 76.9232 30.1842 77.0083 30.139C77.0933 30.0939 77.1687 30.0324 77.23 29.9581C77.2913 29.8838 77.3373 29.7981 77.3655 29.706C77.3937 29.6139 77.4034 29.5172 77.3942 29.4213C77.3933 29.3631 77.3807 29.3056 77.3572 29.2523C75.7207 24.6331 72.8415 20.5551 69.0365 17.4669C65.2315 14.3788 60.6482 12.4003 55.7912 11.7493Z" fill="#FFB306"/>
<path d="M19.2642 10.1513C18.9171 10.7143 18.5195 11.2445 18.0762 11.7353C17.4552 12.4216 16.7869 13.0635 16.0762 13.6563L11.9182 17.2713C11.7041 17.4491 11.5035 17.6427 11.3182 17.8503C11.1716 18.0168 11.0439 18.1989 10.9372 18.3933C10.8362 18.5916 10.767 18.8045 10.7322 19.0243C10.6904 19.306 10.6706 19.5905 10.6732 19.8753C10.6694 20.1637 10.6989 20.4516 10.7612 20.7333C10.7994 20.9236 10.891 21.0991 11.0252 21.2393C11.1601 21.3632 11.3284 21.4449 11.5092 21.4743C11.7397 21.5191 11.9744 21.5389 12.2092 21.5333H26.0182C26.133 21.5326 26.2461 21.5048 26.3482 21.4523C26.4562 21.3871 26.5408 21.2894 26.5902 21.1733C26.662 21.0127 26.7088 20.842 26.7292 20.6673C26.7644 20.4195 26.7814 20.1695 26.7802 19.9193C26.7827 19.676 26.763 19.433 26.7212 19.1933C26.6951 19.0179 26.6379 18.8486 26.5522 18.6933C26.4953 18.5806 26.4076 18.4863 26.2993 18.4215C26.1909 18.3567 26.0664 18.324 25.9402 18.3273H16.4782L19.2782 15.9953C20.4639 15.0591 21.5988 14.0603 22.6782 13.0033C23.4126 12.2824 24.0778 11.4943 24.6652 10.6493C25.0874 10.048 25.4024 9.37807 25.5962 8.66929C25.7452 8.05944 25.8214 7.43408 25.8232 6.80629C25.8244 6.10614 25.6689 5.41458 25.3682 4.78229C25.0437 4.13616 24.5683 3.57773 23.9822 3.15429C23.2772 2.65718 22.4867 2.29413 21.6502 2.08329C20.5795 1.81005 19.477 1.68191 18.3722 1.70229C17.6081 1.70095 16.8452 1.76215 16.0912 1.88529C15.416 1.99348 14.7481 2.14275 14.0912 2.33229C13.568 2.47701 13.0558 2.65846 12.5582 2.87529C12.2588 2.99849 11.9735 3.15337 11.7072 3.33729C11.5857 3.42444 11.477 3.5281 11.3842 3.64529C11.3179 3.73588 11.2682 3.83743 11.2372 3.94529C11.1941 4.07524 11.1646 4.20929 11.1492 4.34529C11.1286 4.53759 11.1189 4.7309 11.1202 4.92429C11.1202 5.21318 11.1349 5.50189 11.1642 5.78929C11.1883 5.9804 11.2274 6.16932 11.2812 6.35429C11.3176 6.47144 11.387 6.5756 11.4812 6.65429C11.5634 6.71599 11.6645 6.7471 11.7672 6.74229C12.0054 6.7198 12.2345 6.6391 12.4342 6.50729C12.7202 6.35329 13.0722 6.18429 13.4972 5.99429C13.9778 5.78967 14.4728 5.62055 14.9782 5.48829C15.6115 5.33208 16.2619 5.25582 16.9142 5.26129C17.3739 5.25107 17.8322 5.31557 18.2712 5.45229C18.6221 5.56228 18.9485 5.7392 19.2322 5.97329C19.4815 6.18347 19.6776 6.44974 19.8042 6.75029C19.9363 7.04568 20.0045 7.36569 20.0042 7.68929C20.0021 8.07612 19.9479 8.46091 19.8432 8.83329C19.71 9.29852 19.5125 9.74283 19.2562 10.1533" fill="#FFB306"/>
<path d="M19.2642 10.1513C18.9171 10.7143 18.5195 11.2445 18.0762 11.7353C17.4552 12.4216 16.7869 13.0635 16.0762 13.6563L11.9182 17.2713C11.7041 17.4491 11.5035 17.6427 11.3182 17.8503C11.1716 18.0168 11.0439 18.1989 10.9372 18.3933C10.8362 18.5916 10.767 18.8045 10.7322 19.0243C10.6904 19.306 10.6706 19.5905 10.6732 19.8753C10.6694 20.1637 10.6989 20.4516 10.7612 20.7333C10.7994 20.9236 10.891 21.0991 11.0252 21.2393C11.1601 21.3632 11.3284 21.4449 11.5092 21.4743C11.7397 21.5191 11.9744 21.5389 12.2092 21.5333H26.0182C26.133 21.5326 26.2461 21.5048 26.3482 21.4523C26.4562 21.3871 26.5408 21.2894 26.5902 21.1733C26.662 21.0127 26.7088 20.842 26.7292 20.6673C26.7644 20.4195 26.7814 20.1695 26.7802 19.9193C26.7827 19.676 26.763 19.433 26.7212 19.1933C26.6951 19.0179 26.6379 18.8486 26.5522 18.6933C26.4953 18.5806 26.4076 18.4863 26.2993 18.4215C26.1909 18.3567 26.0664 18.324 25.9402 18.3273H16.4782L19.2782 15.9953C20.4639 15.0591 21.5988 14.0603 22.6782 13.0033C23.4126 12.2824 24.0778 11.4943 24.6652 10.6493C25.0874 10.048 25.4024 9.37807 25.5962 8.66929C25.7452 8.05944 25.8214 7.43408 25.8232 6.80629C25.8244 6.10614 25.6689 5.41458 25.3682 4.78229C25.0437 4.13616 24.5683 3.57773 23.9822 3.15429C23.2772 2.65718 22.4867 2.29413 21.6502 2.08329C20.5795 1.81005 19.477 1.68191 18.3722 1.70229C17.6081 1.70095 16.8452 1.76215 16.0912 1.88529C15.416 1.99348 14.7481 2.14275 14.0912 2.33229C13.568 2.47701 13.0558 2.65846 12.5582 2.87529C12.2588 2.99849 11.9735 3.15337 11.7072 3.33729C11.5857 3.42444 11.477 3.5281 11.3842 3.64529C11.3179 3.73588 11.2682 3.83743 11.2372 3.94529C11.1941 4.07524 11.1646 4.20929 11.1492 4.34529C11.1286 4.53759 11.1189 4.7309 11.1202 4.92429C11.1202 5.21318 11.1349 5.50189 11.1642 5.78929C11.1883 5.9804 11.2274 6.16932 11.2812 6.35429C11.3176 6.47144 11.387 6.5756 11.4812 6.65429C11.5634 6.71599 11.6645 6.7471 11.7672 6.74229C12.0054 6.7198 12.2345 6.6391 12.4342 6.50729C12.7202 6.35329 13.0722 6.18429 13.4972 5.99429C13.9778 5.78967 14.4728 5.62055 14.9782 5.48829C15.6115 5.33208 16.2619 5.25582 16.9142 5.26129C17.3739 5.25107 17.8322 5.31557 18.2712 5.45229C18.6221 5.56228 18.9485 5.7392 19.2322 5.97329C19.4815 6.18347 19.6776 6.44974 19.8042 6.75029C19.9363 7.04568 20.0045 7.36569 20.0042 7.68929C20.0021 8.07612 19.9479 8.46091 19.8432 8.83329C19.71 9.29852 19.5125 9.74283 19.2562 10.1533" stroke="#FFB306" stroke-width="2" stroke-miterlimit="10"/>
<path d="M39.3351 21.2753C39.4404 21.3714 39.5696 21.4374 39.7091 21.4663C39.947 21.5278 40.19 21.567 40.4351 21.5833C40.7431 21.6053 41.1171 21.6203 41.5641 21.6203C42.0331 21.6203 42.4151 21.6053 42.7151 21.5833C42.9579 21.5664 43.1986 21.5272 43.4341 21.4663C43.5772 21.4345 43.7106 21.3691 43.8231 21.2753L43.9401 21.0113V17.4913H46.0741C46.1919 17.4846 46.305 17.443 46.3991 17.3717C46.4931 17.3005 46.5638 17.2029 46.6021 17.0913C46.749 16.7209 46.8141 16.3232 46.7931 15.9253C46.8223 15.5057 46.7492 15.0854 46.5801 14.7003C46.5366 14.5979 46.4656 14.5095 46.3752 14.4448C46.2847 14.3801 46.1781 14.3415 46.0671 14.3333H43.9331V2.61729C43.9315 2.55647 43.9127 2.49735 43.8789 2.44676C43.8451 2.39616 43.7977 2.35613 43.7421 2.33129C43.5621 2.2307 43.3664 2.16139 43.1631 2.12629C42.8094 2.06157 42.4515 2.02247 42.0921 2.00929C41.6521 1.98729 41.1091 1.97229 40.4791 1.97229C39.9001 1.97229 39.4081 1.97929 38.9981 2.00129C38.6593 2.01642 38.3214 2.0498 37.9861 2.10129C37.7723 2.13167 37.563 2.18843 37.3631 2.27029C37.2369 2.3151 37.1271 2.39701 37.0481 2.50529L29.5811 13.1653C29.4697 13.3397 29.3695 13.5211 29.2811 13.7083C29.1984 13.8812 29.1369 14.0635 29.0981 14.2513C29.0545 14.4617 29.0251 14.6749 29.0101 14.8893C28.9881 15.1243 28.9811 15.4023 28.9811 15.7253C28.9773 16.0396 28.9994 16.3536 29.0471 16.6643C29.0745 16.8582 29.1445 17.0437 29.2521 17.2073C29.3348 17.3263 29.4571 17.4121 29.5971 17.4493C29.7486 17.4843 29.9037 17.5015 30.0591 17.5003H39.2471V21.0273L39.3471 21.2913L39.3351 21.2753ZM32.8671 14.3313L39.1951 5.37729H39.2321V14.3313H32.8671Z" fill="#FFB306" stroke="#FFB306" stroke-width="2" stroke-miterlimit="10"/>
</svg>
