<svg xmlns="http://www.w3.org/2000/svg" width="76.595" height="88.891" viewBox="0 0 76.595 88.891">
  <g id="assistencia_funeral" data-name="assistencia funeral" transform="translate(-33.24 -21.514)">
    <path id="Caminho_8503" data-name="Caminho 8503" d="M100.6,91.735v3.934h2.324a1.156,1.156,0,0,1,1.162,1.162V103.8a1.156,1.156,0,0,1-1.162,1.162h-1.162v4.648a1.162,1.162,0,0,1-2.324,0v-4.648H78.516v4.648a1.162,1.162,0,0,1-2.324,0v-4.648H75.03a1.164,1.164,0,0,1-1.162-1.162V96.831a1.164,1.164,0,0,1,1.162-1.162h2.324V83a1.173,1.173,0,0,1,.229-.7L88.352,67.936a5.352,5.352,0,0,1,3.907-2.123L83.539,46a5.2,5.2,0,0,1,9.378-4.474l14.475,28.1a12.036,12.036,0,0,1-.448,11.766l-6.359,10.33ZM101.766,98H76.192v4.648h25.573ZM98.28,95.678V91.414a1.192,1.192,0,0,1,.174-.613l6.533-10.614h0a9.688,9.688,0,0,0,.357-9.488L90.868,42.61a2.837,2.837,0,0,0-1.061-1.144,2.88,2.88,0,0,0-4.136,3.623l9.388,21.337h0a5.3,5.3,0,0,1,2.077,7.631L90.072,85.046a1.165,1.165,0,0,1-1.958-1.263l7.064-10.989a3.02,3.02,0,1,0-4.959-3.449L79.678,83.4V95.678ZM69.22,96.84v6.972a1.156,1.156,0,0,1-1.162,1.162H66.9v4.648a1.162,1.162,0,0,1-2.324,0v-4.648H43.647v4.648a1.162,1.162,0,1,1-2.324,0v-4.648H40.161A1.164,1.164,0,0,1,39,103.812V96.84a1.164,1.164,0,0,1,1.162-1.162h2.324V91.744l-6.359-10.33a12.06,12.06,0,0,1-.448-11.766l14.475-28.1a5.178,5.178,0,0,1,4.273-2.8,5.2,5.2,0,0,1,5.124,7.274l-8.72,19.809a5.322,5.322,0,0,1,3.907,2.123L65.505,82.31a1.133,1.133,0,0,1,.229.7V95.678h2.324A1.156,1.156,0,0,1,69.22,96.84h0ZM44.809,91.405v4.264h18.6V83.39L52.87,69.336a3.02,3.02,0,1,0-4.959,3.449l7.064,10.989a1.165,1.165,0,0,1-1.958,1.263L45.953,74.048a5.3,5.3,0,0,1,2.077-7.631L57.417,45.08a2.88,2.88,0,0,0-5.2-2.48L37.745,70.69a9.735,9.735,0,0,0,.357,9.488l6.533,10.6a1.192,1.192,0,0,1,.174.613h0ZM66.9,98H41.323v4.648H66.9Z" transform="translate(0 -1.379)" fill="#ffb306" stroke="#ffb306" stroke-miterlimit="10" stroke-width="2"/>
    <path id="Caminho_8504" data-name="Caminho 8504" d="M85.541,56.474a.629.629,0,0,0-.512-.183c-.091.009-7.466.833-10.476,6.4v-18.3c6.011-.3,8.18-4.8,8.18-8.674V26.381a.637.637,0,0,0-.265-.512.615.615,0,0,0-.576-.082,25.611,25.611,0,0,0-3.019,1.226,10.867,10.867,0,0,0-4.721-4.447.636.636,0,0,0-.485,0,10.854,10.854,0,0,0-4.73,4.465,25.912,25.912,0,0,0-3.01-1.235.68.68,0,0,0-.576.082.637.637,0,0,0-.265.512v9.333c0,3.879,2.168,8.381,8.189,8.674V62.7c-3.01-5.563-10.385-6.386-10.476-6.4a.635.635,0,0,0-.7.7c.009.119,1.281,11.748,11.648,11.748h.329c10.367,0,11.638-11.638,11.648-11.748a.629.629,0,0,0-.183-.512h0ZM73.912,23.837a9.857,9.857,0,0,1,3.834,3.724A21.834,21.834,0,0,0,73.9,30.187a22.126,22.126,0,0,0-3.834-2.617,9.9,9.9,0,0,1,3.843-3.733h0ZM66.363,35.7V27.268a22.091,22.091,0,0,1,6.588,3.779,17,17,0,0,0-4.236,6.158.638.638,0,0,0,1.208.412c.027-.073,2.452-6.963,11.538-10.348V35.7c0,1.244-.366,7.439-7.548,7.439s-7.548-6.194-7.548-7.439ZM63.49,57.673c2.452.448,9.488,2.37,9.781,9.781-7.393-.293-9.333-7.329-9.781-9.781Zm11.071,9.781c.293-7.393,7.329-9.333,9.781-9.781C83.894,60.116,81.973,67.161,74.562,67.454Z" transform="translate(-2.359 0)" fill="#ffb306" stroke="#ffb306" stroke-miterlimit="10" stroke-width="2"/>
  </g>
</svg>
