<svg xmlns="http://www.w3.org/2000/svg" width="79.355" height="83.703" viewBox="0 0 79.355 83.703">
  <g id="cesta_basica" data-name="cesta basica" transform="translate(-20.06 -14.535)">
    <rect id="Retângulo_3293" data-name="Retângulo 3293" width="69.388" height="2.627" transform="translate(25.037 53.75)" fill="none" stroke="#ffb306" stroke-miterlimit="10" stroke-width="5"/>
    <path id="Caminho_9503" data-name="Caminho 9503" d="M93.067,46.845a1.324,1.324,0,0,0-.177-.157,12.325,12.325,0,0,0-3.036-7.567,11.035,11.035,0,0,0-6.932-3.691,11.731,11.731,0,0,1,.471-3.3c.5,1.972,2.415,4.728,4.885,4.53a8.835,8.835,0,0,0,4.66-1.733,1.325,1.325,0,0,0,.5-1.29c-.334-2.531-2.415-7.58-7.212-5.82h0a9.55,9.55,0,0,1,3.3-1.706,1.234,1.234,0,0,0,.737-.621,1.364,1.364,0,0,0,.1-1,1.243,1.243,0,0,0-1.5-.914h-.02a11.141,11.141,0,0,0-6.181,4.353,12.274,12.274,0,0,0-2.231,7.505,10.6,10.6,0,0,0-2.7.71l2.524-4.646c.443-.641-.287-2.3-.382-3,1.064-.327,1.849-2.456,2.4-3.35h0a2.766,2.766,0,0,0,.246-1.992,2.651,2.651,0,0,0-1.146-1.6l-4.3-2.627a2.353,2.353,0,0,0-1.876-.259A2.549,2.549,0,0,0,73.69,19.9c-.443.962-1.794,2.743-1.549,3.889-.655.266-2.32.409-2.627,1.139l-2.142,3.95c-3.4-5.356-7.621-8.065-11.142-7.055h0a4.8,4.8,0,0,0-5.09-.246,4.865,4.865,0,0,0-4.51-1.9,4.967,4.967,0,0,0-3.411-2.545,4.743,4.743,0,0,0-4.039,1.126,5.384,5.384,0,0,0-1.794,4,4.825,4.825,0,0,0-3.548,1.59,5.418,5.418,0,0,0-1.4,3.8,5.381,5.381,0,0,0-1.5,3.753,4.83,4.83,0,0,0-3.6,1.685,5.464,5.464,0,0,0-1.31,3.93,5.355,5.355,0,0,0,1.8,3.7,5.234,5.234,0,0,0-.212,4.489l-4.728,6.216a1.7,1.7,0,0,0-.334.982V86.547a9.478,9.478,0,0,0,2.545,6.5,8.43,8.43,0,0,0,6.134,2.7h57a8.453,8.453,0,0,0,6.134-2.7,9.49,9.49,0,0,0,2.545-6.5V52.406a1.953,1.953,0,0,0-.321-.982l-3.521-4.612h0ZM92.5,50.277l.655.853h-.907c.1-.28.171-.566.246-.853h0Zm-36.987.853H50.977c-2.067-.614-3.753-3.111-4.906-5.513a5.017,5.017,0,0,0,2.681-2.183,5.514,5.514,0,0,0,.737-3.5,4.9,4.9,0,0,0,1.6-1.535,38.824,38.824,0,0,0,4.421,12.738h0ZM38.464,25.2a1.2,1.2,0,0,0,1.412-.252,1.386,1.386,0,0,0,.259-1.494,2.787,2.787,0,0,1-.075-2.108,2.569,2.569,0,0,1,1.419-1.481,2.344,2.344,0,0,1,1.992.116,2.61,2.61,0,0,1,1.262,1.637,1.285,1.285,0,0,0,.641.826,1.165,1.165,0,0,0,1.01.041,2.311,2.311,0,0,1,1.924.041,2.566,2.566,0,0,1,1.31,1.5,1.28,1.28,0,0,0,.921.826,1.2,1.2,0,0,0,1.146-.389,2.434,2.434,0,0,1,1.822-.853,13.728,13.728,0,0,0-2.791,8.269,4.894,4.894,0,0,0-2.825-1.658,4.72,4.72,0,0,0-3.186.553,4.783,4.783,0,0,0-4.483-1.9,5.121,5.121,0,0,0-2.1-2.122,4.65,4.65,0,0,0-2.866-.5,2.437,2.437,0,0,1,1.412-1.2,2.3,2.3,0,0,1,1.8.164h0ZM29.2,47.364A4.63,4.63,0,0,0,31.8,48.5a4.524,4.524,0,0,0,2.75-.641,4.848,4.848,0,0,0,3.582,1.931,11.054,11.054,0,0,1,.184,1.337H26.34L29.2,47.371h0ZM73.376,89.194H46.112a4.917,4.917,0,0,1-4.257-2.64,5.54,5.54,0,0,1,0-5.226,4.93,4.93,0,0,1,4.257-2.64H73.376a4.923,4.923,0,0,1,4.257,2.647,5.54,5.54,0,0,1,0,5.226,4.93,4.93,0,0,1-4.257,2.64h0Z" transform="translate(0 0)" fill="none" stroke="#ffb306" stroke-miterlimit="10" stroke-width="5"/>
  </g>
</svg>
