<svg xmlns="http://www.w3.org/2000/svg" width="82.389" height="82.423" viewBox="0 0 82.389 82.423">
  <g id="diaria_internação" data-name="diaria internação" transform="translate(-33.55 -33.55)">
    <path id="Caminho_8530" data-name="Caminho 8530" d="M86.892,41.48a2.283,2.283,0,0,1,.964,2.237c-.07.7-.01,1.411-.01,2.187H90.58a1.524,1.524,0,0,1,1.68,1.65c.01,2.058.01,4.105,0,6.163a1.536,1.536,0,0,1-1.68,1.66c-.885.01-1.779,0-2.743,0V58.12a1.536,1.536,0,0,1-1.66,1.68c-2.058.01-4.105.01-6.163,0a1.529,1.529,0,0,1-1.65-1.68c-.01-.885,0-1.779,0-2.734H75.62a1.536,1.536,0,0,1-1.68-1.66c-.01-2.058-.01-4.105,0-6.163a1.532,1.532,0,0,1,1.69-1.65c.865-.01,1.74,0,2.734,0,0-.746.06-1.471-.01-2.187a2.283,2.283,0,0,1,.964-2.237H86.9Z" transform="translate(-0.239 -0.045)" fill="#ffb306" stroke="#ffb306" stroke-miterlimit="10" stroke-width="1"/>
    <path id="Caminho_8531" data-name="Caminho 8531" d="M59.178,34.05c.189.169.477.318.537.527a3.772,3.772,0,0,1,.278,1.62,1.3,1.3,0,0,1-1.352,1.024c-.954.02-1.9,0-2.912,0v3.767h2.425c1.441.02,1.968.547,1.968,1.968v8.817A5.964,5.964,0,0,1,56.375,57.6c-.119.05-.229.129-.368.2a3.017,3.017,0,0,0,2.773,1.69h5.01A6.278,6.278,0,0,1,70.291,66v8.459h31.957a13,13,0,0,1,12.942,10.407,11.021,11.021,0,0,1,.239,2.286q.03,13.2.01,26.381c0,1.322-.557,1.889-1.879,1.889h-6.839c-1.61,0-2.1-.477-2.1-2.058V96.672H88.631a1.593,1.593,0,0,1-1.8-1.4,1.571,1.571,0,0,1,1.74-1.769h17.485a1.563,1.563,0,0,1,1.749,1.769v16.948H112.2V89.1H50.3v23.1h4.413V95.46c0-1.431.527-1.958,1.958-1.958H73.92a1.617,1.617,0,0,1,1.62.9,1.342,1.342,0,0,1-.229,1.68,2.463,2.463,0,0,1-1.471.567c-5.01.04-10.01.02-15.019.02H57.9V113.5c0,1.382-.547,1.928-1.908,1.928h-7c-1.362,0-1.9-.547-1.9-1.938V87.905c0-1.3.239-1.64,1.481-2.127a7.941,7.941,0,0,1-1.123-7.1,7.839,7.839,0,0,1,7.545-5.5,15.981,15.981,0,0,1,3.837.408,7.34,7.34,0,0,1,4.175,3.191c1.342-.775,2.654-1.521,4.115-2.366V65.928a3.039,3.039,0,0,0-3.071-3.161c-1.61-.05-3.231,0-4.851-.02a6.308,6.308,0,0,1-6.441-4.423,1.072,1.072,0,0,0-.577-.547,6.015,6.015,0,0,1-4.135-6.034v-8.9a1.587,1.587,0,0,1,1.779-1.829c.825-.03,1.64-.02,2.465-.03.05,0,.089-.05.169-.089V37.31H43.592v75.942c0,1.769-.437,2.2-2.207,2.2-1.7,0-3.39-.05-5.089.02a2.4,2.4,0,0,1-2.246-.974V34.05H59.169Zm52.9,51.8a9.555,9.555,0,0,0-9.3-8.091c-11.361-.05-22.713-.02-34.075-.01a4.344,4.344,0,0,0-4.145,3.012c-.557,1.67-.209,3.39-.278,5.089ZM37.271,112.219h3.1V37.281h-3.1v74.928ZM55.63,85.868c.268,0,.527.01.8,0a4.791,4.791,0,0,0,4.612-4.234,4.621,4.621,0,0,0-2.982-4.9,8.867,8.867,0,0,0-3.28-.348,4.708,4.708,0,0,0-4.344,5.855c.507,2.246,2.495,3.638,5.2,3.638ZM51.266,50.61c-.129,1.6-.06,3.052,1.471,3.9a2.653,2.653,0,0,0,3.052-.229C57.041,53.334,57.031,52,56.9,50.62H51.266Zm5.626-3.3V44.258H51.286V47.31Z" transform="translate(0 0)" fill="#ffb306" stroke="#ffb306" stroke-miterlimit="10" stroke-width="1"/>
    <path id="Caminho_8532" data-name="Caminho 8532" d="M81.55,97.031a1.586,1.586,0,1,1,1.58-1.61,1.555,1.555,0,0,1-1.58,1.61Z" transform="translate(-0.275 -0.359)" fill="#ffb306" stroke="#ffb306" stroke-miterlimit="10" stroke-width="1"/>
  </g>
</svg>
