<svg width="68" height="84" viewBox="0 0 68 84" fill="none" xmlns="http://www.w3.org/2000/svg">
<path d="M12.031 1H45.651C45.9176 0.999897 46.1815 1.0529 46.4274 1.15592C46.6732 1.25894 46.8961 1.4099 47.083 1.6L65.813 20.33C65.9988 20.5148 66.1462 20.7345 66.2468 20.9765C66.3473 21.2185 66.3991 21.478 66.399 21.74V72.463C66.3948 75.2573 65.2824 77.9359 63.306 79.9112C61.3295 81.8866 58.6503 82.9974 55.856 83H12.041C9.24633 82.9968 6.56703 81.8852 4.5909 79.9091C2.61476 77.933 1.50318 75.2537 1.5 72.459V11.541C1.50318 8.74633 2.61476 6.06703 4.5909 4.0909C6.56703 2.11476 9.24633 1.00318 12.041 1H12.031ZM33.58 27.21C33.0739 27.176 32.5997 26.951 32.2532 26.5805C31.9068 26.21 31.7141 25.7217 31.7141 25.2145C31.7141 24.7073 31.9068 24.219 32.2532 23.8485C32.5997 23.478 33.0739 23.253 33.58 23.219H54.78C55.2861 23.253 55.7603 23.478 56.1068 23.8485C56.4532 24.219 56.6459 24.7073 56.6459 25.2145C56.6459 25.7217 56.4532 26.21 56.1068 26.5805C55.7603 26.951 55.2861 27.176 54.78 27.21H33.58ZM33.58 35.41C33.0739 35.376 32.5997 35.151 32.2532 34.7805C31.9068 34.41 31.7141 33.9217 31.7141 33.4145C31.7141 32.9073 31.9068 32.419 32.2532 32.0485C32.5997 31.678 33.0739 31.453 33.58 31.419H54.78C55.2861 31.453 55.7603 31.678 56.1068 32.0485C56.4532 32.419 56.6459 32.9073 56.6459 33.4145C56.6459 33.9217 56.4532 34.41 56.1068 34.7805C55.7603 35.151 55.2861 35.376 54.78 35.41H33.58ZM11.716 31.94C11.5256 31.7613 11.3722 31.5468 11.2647 31.3088C11.1572 31.0708 11.0976 30.814 11.0893 30.5529C11.0811 30.2919 11.1243 30.0318 11.2165 29.7875C11.3088 29.5432 11.4483 29.3194 11.627 29.129C11.8057 28.9386 12.0202 28.7852 12.2582 28.6777C12.4962 28.5702 12.753 28.5106 13.0141 28.5023C13.2751 28.4941 13.5352 28.5373 13.7795 28.6295C14.0238 28.7218 14.2476 28.8613 14.438 29.04L17.919 32.315L24.784 25.45C25.158 25.076 25.6651 24.866 26.194 24.866C26.7228 24.866 27.23 25.076 27.604 25.45C27.978 25.824 28.188 26.3311 28.188 26.86C28.188 27.3889 27.978 27.896 27.604 28.27L19.373 36.51C19.0083 36.8759 18.5153 37.085 17.9987 37.0931C17.4822 37.1011 16.9829 36.9073 16.607 36.553L11.716 31.953V31.94ZM33.58 45.292C33.3067 45.3104 33.0325 45.2724 32.7745 45.1804C32.5164 45.0884 32.28 44.9444 32.0799 44.7574C31.8798 44.5703 31.7203 44.344 31.6112 44.0928C31.5022 43.8415 31.4459 43.5704 31.4459 43.2965C31.4459 43.0226 31.5022 42.7515 31.6112 42.5002C31.7203 42.249 31.8798 42.0227 32.0799 41.8357C32.28 41.6486 32.5164 41.5046 32.7745 41.4126C33.0325 41.3206 33.3067 41.2826 33.58 41.301H54.78C55.0533 41.2826 55.3275 41.3206 55.5855 41.4126C55.8436 41.5046 56.08 41.6486 56.2801 41.8357C56.4802 42.0227 56.6397 42.249 56.7488 42.5002C56.8578 42.7515 56.9141 43.0226 56.9141 43.2965C56.9141 43.5704 56.8578 43.8415 56.7488 44.0928C56.6397 44.344 56.4802 44.5703 56.2801 44.7574C56.08 44.9444 55.8436 45.0884 55.5855 45.1804C55.3275 45.2724 55.0533 45.3104 54.78 45.292H33.58ZM33.58 53.492C33.0739 53.458 32.5997 53.233 32.2532 52.8625C31.9068 52.492 31.7141 52.0037 31.7141 51.4965C31.7141 50.9893 31.9068 50.501 32.2532 50.1305C32.5997 49.76 33.0739 49.535 33.58 49.501H54.78C55.2861 49.535 55.7603 49.76 56.1068 50.1305C56.4532 50.501 56.6459 50.9893 56.6459 51.4965C56.6459 52.0037 56.4532 52.492 56.1068 52.8625C55.7603 53.233 55.2861 53.458 54.78 53.492H33.58ZM11.716 50.02C11.5256 49.8413 11.3722 49.6268 11.2647 49.3888C11.1572 49.1508 11.0976 48.894 11.0893 48.6329C11.0811 48.3719 11.1243 48.1118 11.2165 47.8675C11.3088 47.6232 11.4483 47.3994 11.627 47.209C11.8057 47.0186 12.0202 46.8652 12.2582 46.7577C12.4962 46.6502 12.753 46.5906 13.0141 46.5823C13.2751 46.5741 13.5352 46.6173 13.7795 46.7095C14.0238 46.8018 14.2476 46.9413 14.438 47.12L17.92 50.4L24.785 43.535C25.159 43.161 25.6662 42.951 26.195 42.951C26.7239 42.951 27.231 43.161 27.605 43.535C27.979 43.909 28.189 44.4162 28.189 44.945C28.189 45.4739 27.979 45.981 27.605 46.355L19.374 54.586C19.0093 54.9519 18.5163 55.161 17.9997 55.1691C17.4832 55.1771 16.9839 54.9833 16.608 54.629L11.717 50.029L11.716 50.02ZM33.58 63.36C33.0739 63.326 32.5997 63.101 32.2532 62.7305C31.9068 62.36 31.7141 61.8717 31.7141 61.3645C31.7141 60.8573 31.9068 60.369 32.2532 59.9985C32.5997 59.628 33.0739 59.403 33.58 59.369H54.78C55.2861 59.403 55.7603 59.628 56.1068 59.9985C56.4532 60.369 56.6459 60.8573 56.6459 61.3645C56.6459 61.8717 56.4532 62.36 56.1068 62.7305C55.7603 63.101 55.2861 63.326 54.78 63.36H33.58ZM33.58 71.56C33.3067 71.5784 33.0325 71.5404 32.7745 71.4484C32.5164 71.3565 32.28 71.2125 32.0799 71.0254C31.8798 70.8383 31.7203 70.612 31.6112 70.3608C31.5022 70.1095 31.4459 69.8384 31.4459 69.5645C31.4459 69.2906 31.5022 69.0196 31.6112 68.7683C31.7203 68.517 31.8798 68.2908 32.0799 68.1037C32.28 67.9166 32.5164 67.7726 32.7745 67.6806C33.0325 67.5886 33.3067 67.5506 33.58 67.569H54.78C55.0533 67.5506 55.3275 67.5886 55.5855 67.6806C55.8436 67.7726 56.08 67.9166 56.2801 68.1037C56.4802 68.2908 56.6397 68.517 56.7488 68.7683C56.8578 69.0196 56.9141 69.2906 56.9141 69.5645C56.9141 69.8384 56.8578 70.1095 56.7488 70.3608C56.6397 70.612 56.4802 70.8383 56.2801 71.0254C56.08 71.2125 55.8436 71.3565 55.5855 71.4484C55.3275 71.5404 55.0533 71.5784 54.78 71.56H33.58ZM11.716 68.09C11.5256 67.9113 11.3722 67.6968 11.2647 67.4588C11.1572 67.2208 11.0976 66.964 11.0893 66.7029C11.0811 66.4419 11.1243 66.1818 11.2165 65.9375C11.3088 65.6932 11.4483 65.4694 11.627 65.279C11.8057 65.0886 12.0202 64.9352 12.2582 64.8277C12.4962 64.7202 12.753 64.6606 13.0141 64.6523C13.2751 64.6441 13.5352 64.6873 13.7795 64.7795C14.0238 64.8718 14.2476 65.0113 14.438 65.19L17.919 68.465L24.784 61.6C24.9692 61.4148 25.189 61.268 25.4309 61.1678C25.6728 61.0675 25.9321 61.016 26.194 61.016C26.4559 61.016 26.7152 61.0675 26.9571 61.1678C27.199 61.268 27.4188 61.4148 27.604 61.6C27.7892 61.7852 27.936 62.005 28.0363 62.2469C28.1365 62.4888 28.188 62.7481 28.188 63.01C28.188 63.2719 28.1365 63.5312 28.0363 63.7731C27.936 64.015 27.7892 64.2348 27.604 64.42L19.373 72.651C19.0083 73.0169 18.5153 73.226 17.9987 73.2341C17.4822 73.2421 16.9829 73.0484 16.607 72.694L11.716 68.094V68.09ZM44.826 4.99H12.026C10.2883 4.99789 8.62411 5.69167 7.39539 6.92039C6.16667 8.14911 5.47289 9.81335 5.465 11.551V72.47C5.47289 74.2077 6.16667 75.8719 7.39539 77.1006C8.62411 78.3293 10.2883 79.0231 12.026 79.031H55.845C57.5833 79.0242 59.2486 78.3309 60.4782 77.102C61.7078 75.8732 62.4021 74.2084 62.41 72.47V22.57L44.83 4.99H44.826Z" fill="#FFB306" stroke="#FFB306" stroke-width="2" stroke-miterlimit="10"/>
</svg>
