<svg xmlns="http://www.w3.org/2000/svg" width="90.386" height="90.423" viewBox="0 0 90.386 90.423">
  <g id="diaria_internação" data-name="diaria internação" transform="translate(-33.55 -33.55)">
    <path id="Caminho_8530" data-name="Caminho 8530" d="M88.165,41.48a2.507,2.507,0,0,1,1.059,2.456c-.076.764-.011,1.55-.011,2.4h3A1.674,1.674,0,0,1,94.06,48.15c.011,2.26.011,4.509,0,6.768a1.687,1.687,0,0,1-1.845,1.823c-.972.011-1.954,0-3.013,0v3.013A1.687,1.687,0,0,1,87.379,61.6c-2.26.011-4.509.011-6.768,0A1.679,1.679,0,0,1,78.8,59.755c-.011-.972,0-1.954,0-3H75.786a1.687,1.687,0,0,1-1.845-1.823c-.011-2.26-.011-4.509,0-6.768A1.682,1.682,0,0,1,75.8,46.349c.95-.011,1.91,0,3,0,0-.819.065-1.616-.011-2.4a2.507,2.507,0,0,1,1.059-2.456h8.329Z" transform="translate(3.656 0.681)" fill="#ffb306" stroke="#ffb306" stroke-miterlimit="10" stroke-width="1"/>
    <path id="Caminho_8531" data-name="Caminho 8531" d="M61.647,34.05c.207.186.524.349.59.579a4.143,4.143,0,0,1,.306,1.779,1.426,1.426,0,0,1-1.485,1.124c-1.048.022-2.085,0-3.2,0V41.67h2.664c1.583.022,2.161.6,2.161,2.162v9.683a6.55,6.55,0,0,1-4.116,6.4c-.131.055-.251.142-.4.218a3.313,3.313,0,0,0,3.046,1.856h5.5a6.9,6.9,0,0,1,7.14,7.15v9.29h35.1a14.276,14.276,0,0,1,14.214,11.43,12.1,12.1,0,0,1,.262,2.511q.033,14.492.011,28.973c0,1.452-.611,2.074-2.063,2.074h-7.511c-1.769,0-2.3-.524-2.3-2.26V102.825H93.994a1.749,1.749,0,0,1-1.976-1.539,1.725,1.725,0,0,1,1.91-1.943h19.2a1.717,1.717,0,0,1,1.921,1.943V119.9h4.825V94.507H51.9v25.37h4.847V101.493c0-1.572.579-2.151,2.151-2.151h18.94a1.776,1.776,0,0,1,1.779.993,1.474,1.474,0,0,1-.251,1.845,2.7,2.7,0,0,1-1.616.622c-5.5.044-10.993.022-16.5.022H60.239v18.482c0,1.517-.6,2.118-2.1,2.118H50.458c-1.5,0-2.085-.6-2.085-2.129V93.2c0-1.43.262-1.8,1.627-2.336a8.721,8.721,0,0,1-1.234-7.795,8.609,8.609,0,0,1,8.286-6.037,17.551,17.551,0,0,1,4.214.448,8.061,8.061,0,0,1,4.585,3.5c1.474-.851,2.915-1.67,4.52-2.6V69.06A3.338,3.338,0,0,0,67,65.588c-1.769-.055-3.548,0-5.327-.022-3.548-.022-5.753-1.55-7.074-4.858a1.177,1.177,0,0,0-.633-.6,6.606,6.606,0,0,1-4.541-6.626v-9.77A1.743,1.743,0,0,1,51.375,41.7c.906-.033,1.8-.022,2.707-.033.055,0,.1-.055.186-.1V37.631H44.53v83.4c0,1.943-.48,2.413-2.424,2.413-1.867,0-3.723-.055-5.589.022a2.632,2.632,0,0,1-2.467-1.07V34.05H61.637Zm58.1,56.887a10.494,10.494,0,0,0-10.218-8.886C97.05,82,84.583,82.029,72.106,82.04a4.771,4.771,0,0,0-4.552,3.308c-.611,1.834-.229,3.723-.306,5.589ZM37.587,119.9h3.406V37.6H37.587v82.29ZM57.75,90.959c.295,0,.579.011.873,0a5.261,5.261,0,0,0,5.065-4.651,5.075,5.075,0,0,0-3.275-5.382,9.739,9.739,0,0,0-3.6-.382,5.171,5.171,0,0,0-4.771,6.43c.557,2.467,2.74,4,5.709,4ZM52.958,52.237c-.142,1.758-.065,3.351,1.616,4.279a2.913,2.913,0,0,0,3.351-.251c1.376-1.037,1.365-2.5,1.223-4.017h-6.19Zm6.179-3.624V45.261H52.98v3.351Z" transform="translate(0 0)" fill="#ffb306" stroke="#ffb306" stroke-miterlimit="10" stroke-width="1"/>
    <path id="Caminho_8532" data-name="Caminho 8532" d="M81.707,97.342a1.742,1.742,0,1,1,1.736-1.769,1.707,1.707,0,0,1-1.736,1.769Z" transform="translate(4.209 5.483)" fill="#ffb306" stroke="#ffb306" stroke-miterlimit="10" stroke-width="1"/>
  </g>
</svg>
