<svg xmlns="http://www.w3.org/2000/svg" width="66.897" height="84" viewBox="0 0 66.897 84">
  <path id="sem_pre_aprovacao" data-name="sem pre aprovacao" d="M55.621,37.19h33.62a2.007,2.007,0,0,1,1.432.6l18.73,18.73a1.988,1.988,0,0,1,.586,1.41v50.723A10.553,10.553,0,0,1,99.446,119.19H55.631A10.553,10.553,0,0,1,45.09,108.649V47.731A10.553,10.553,0,0,1,55.631,37.19h0ZM77.17,63.4a2,2,0,0,1,0-3.991h21.2a2,2,0,0,1,0,3.991Zm0,8.2a2,2,0,0,1,0-3.991h21.2a2,2,0,0,1,0,3.991Zm-21.864-3.47a1.987,1.987,0,1,1,2.722-2.9l3.481,3.275,6.865-6.865a1.994,1.994,0,0,1,2.82,2.82L62.963,72.7h0a1.984,1.984,0,0,1-2.766.043l-4.891-4.6h0ZM77.17,81.482a2,2,0,1,1,0-3.991h21.2a2,2,0,1,1,0,3.991Zm0,8.2a2,2,0,0,1,0-3.991h21.2a2,2,0,0,1,0,3.991ZM55.306,86.21a1.987,1.987,0,1,1,2.722-2.9L61.51,86.59l6.865-6.865a1.994,1.994,0,0,1,2.82,2.82l-8.231,8.231h0a1.984,1.984,0,0,1-2.766.043l-4.891-4.6h0ZM77.17,99.55a2,2,0,0,1,0-3.991h21.2a2,2,0,0,1,0,3.991Zm0,8.2a2,2,0,1,1,0-3.991h21.2a2,2,0,1,1,0,3.991Zm-21.864-3.47a1.987,1.987,0,1,1,2.722-2.9l3.481,3.275,6.865-6.865a1.994,1.994,0,0,1,2.82,2.82l-8.231,8.231h0a1.984,1.984,0,0,1-2.766.043l-4.891-4.6h0Zm33.11-63.1h-32.8a6.591,6.591,0,0,0-6.561,6.561V108.66a6.591,6.591,0,0,0,6.561,6.561H99.435A6.591,6.591,0,0,0,106,108.66v-49.9l-17.58-17.58Z" transform="translate(-44.09 -36.19)" fill="#ffb306" stroke="#ffb306" stroke-miterlimit="10" stroke-width="2"/>
</svg>
