<svg width="85" height="84" viewBox="0 0 85 84" fill="none" xmlns="http://www.w3.org/2000/svg">
<path d="M53.1661 48.6447C53.5301 50.2681 53.4897 51.9561 53.0485 53.5602C52.6074 55.1644 51.779 56.6356 50.6361 57.8447C49.3473 59.3668 47.6119 60.4444 45.6761 60.9247L45.6361 63.3047C45.6215 64.221 45.2435 65.094 44.5853 65.7316C43.927 66.3693 43.0424 66.7193 42.1261 66.7047C41.2098 66.6901 40.3368 66.3121 39.6992 65.6539C39.0615 64.9956 38.7115 64.111 38.7261 63.1947L38.7661 60.4047C36.7941 59.7308 34.9462 58.7376 33.2961 57.4647C32.6084 56.8827 32.1749 56.0555 32.0877 55.1588C32.0006 54.2621 32.2667 53.3669 32.8295 52.6634C33.3923 51.9599 34.2073 51.5038 35.1012 51.392C35.9951 51.2802 36.8974 51.5215 37.6161 52.0647C37.7461 52.1547 42.9261 56.1547 45.4161 53.3047C45.8381 52.9362 46.1554 52.4631 46.3363 51.9329C46.5171 51.4027 46.555 50.8342 46.4461 50.2847C45.9606 49.1881 45.2422 48.2105 44.3407 47.4195C43.4393 46.6286 42.3765 46.0435 41.2261 45.7047C39.0356 44.9891 37.0441 43.7681 35.4129 42.1403C33.7817 40.5125 32.5564 38.5237 31.8361 36.3347C31.4722 34.7113 31.5126 33.0233 31.9537 31.4192C32.3948 29.815 33.2232 28.3437 34.3661 27.1347C35.6529 25.6041 37.3878 24.5162 39.3261 24.0247L39.3661 21.6747C39.3807 20.7584 39.7587 19.8854 40.417 19.2477C41.0752 18.6101 41.9598 18.2601 42.8761 18.2747C43.7924 18.2893 44.6654 18.6673 45.3031 19.3255C45.9407 19.9838 46.2907 20.8684 46.2761 21.7847L46.2361 24.5247C48.2145 25.2115 50.0635 26.2256 51.7061 27.5247C52.078 27.8028 52.3901 28.1529 52.6238 28.5541C52.8575 28.9554 53.008 29.3996 53.0663 29.8603C53.1247 30.3209 53.0897 30.7887 52.9634 31.2355C52.8372 31.6824 52.6222 32.0992 52.3314 32.4612C52.0406 32.8232 51.6798 33.123 51.2707 33.3426C50.8616 33.5622 50.4124 33.6972 49.95 33.7395C49.4876 33.7818 49.0214 33.7306 48.5792 33.5889C48.1369 33.4472 47.7278 33.2179 47.3761 32.9147C47.3361 32.8847 42.0861 28.7847 39.5761 31.6847C39.155 32.0516 38.838 32.523 38.6572 33.0515C38.4764 33.5799 38.4381 34.1467 38.5461 34.6947C39.0316 35.7912 39.7501 36.7689 40.6515 37.5598C41.5529 38.3507 42.6157 38.9359 43.7661 39.2747C45.9561 39.9883 47.9474 41.2075 49.5787 42.8336C51.21 44.4597 52.4355 46.447 53.1561 48.6347L53.1661 48.6447ZM83.9961 43.1847C83.8465 52.7958 80.3684 62.0575 74.1547 69.3913C67.9409 76.7251 59.3761 81.677 49.9201 83.403C40.4641 85.1289 30.7022 83.5222 22.2982 78.8565C13.8942 74.1909 7.36839 66.7552 3.83297 57.8167C0.297548 48.8783 -0.0286173 38.9904 2.91007 29.8384C5.84875 20.6864 11.8704 12.8367 19.9486 7.6274C28.0269 2.41807 37.6617 0.171485 47.2109 1.27056C56.7601 2.36963 65.6326 6.74634 72.3161 13.6547C76.1071 17.5685 79.0898 22.1909 81.0939 27.2577C83.098 32.3246 84.0842 37.7366 83.9961 43.1847ZM43.0761 7.92469C35.0648 7.7833 27.2524 10.4248 20.9706 15.3988C14.6889 20.3729 10.3267 27.3716 8.62758 35.2019C6.92848 43.0323 7.99769 51.2096 11.6529 58.3398C15.3082 65.4701 21.3232 71.1119 28.6726 74.3037C36.0221 77.4954 44.251 78.0394 51.9567 75.843C59.6623 73.6465 66.3677 68.8456 70.9298 62.2586C75.4919 55.6716 77.6283 47.7062 76.9748 39.7204C76.3213 31.7345 72.9184 24.2224 67.3461 18.4647C60.9728 11.8735 52.2433 8.08242 43.0761 7.92469Z" fill="#FFB306"/>
</svg>
