<?xml version="1.0" encoding="UTF-8"?>
<svg id="Camada_1" data-name="Camada 1" xmlns="http://www.w3.org/2000/svg" xmlns:xlink="http://www.w3.org/1999/xlink" viewBox="0 0 168 150">
  <defs>
    <style>
      .cls-1 {
        fill: #fff;
      }

      .cls-2 {
        letter-spacing: -.02em;
      }

      .cls-3 {
        stroke-linecap: square;
      }

      .cls-3, .cls-4 {
        stroke-width: .38px;
      }

      .cls-3, .cls-4, .cls-5, .cls-6, .cls-7, .cls-8 {
        fill: none;
      }

      .cls-3, .cls-4, .cls-5, .cls-7, .cls-8 {
        stroke: #000;
      }

      .cls-9 {
        letter-spacing: 0em;
      }

      .cls-10 {
        fill: #525353;
        font-family: Calibri-Bold, Calibri;
        font-size: 20.04px;
        font-weight: 700;
      }

      .cls-11 {
        clip-path: url(#clippath-1);
      }

      .cls-12 {
        letter-spacing: -.02em;
      }

      .cls-4, .cls-7, .cls-8 {
        stroke-linecap: round;
        stroke-linejoin: round;
      }

      .cls-13 {
        letter-spacing: 0em;
      }

      .cls-14 {
        clip-path: url(#clippath);
      }

      .cls-5 {
        stroke-width: .18px;
      }

      .cls-15 {
        letter-spacing: 0em;
      }

      .cls-7 {
        stroke-width: .49px;
      }

      .cls-16 {
        fill: #019a39;
      }

      .cls-17 {
        letter-spacing: 0em;
      }

      .cls-8 {
        stroke-width: .33px;
      }

      .cls-18 {
        fill: #fdde01;
      }

      .cls-19 {
        fill-rule: evenodd;
      }
    </style>
    <clipPath id="clippath">
      <rect class="cls-6" x="42.51" y="13.12" width="82.92" height="96.24"/>
    </clipPath>
    <clipPath id="clippath-1">
      <rect class="cls-6" x="42.51" y="13.12" width="82.93" height="96.24"/>
    </clipPath>
  </defs>
  <g class="cls-14">
    <g class="cls-11">
      <path class="cls-1" d="m84,14.6v93.34c14.02-9.23,27.59-15.31,40.06-13.76-29.07-9.19-34.51-44.45-40.06-79.58Zm0,0c-5.55,35.13-10.99,70.39-40.06,79.58,12.48-1.55,26.05,4.53,40.06,13.76V14.6Z"/>
      <path class="cls-16" d="m84.04,98.44l.02-5.03,17.36-.07c11.07-.04,16.99-.02,17.29,0,.26.02,1.02.08,1.25.11l1.56.32-1.56.09c-9.93.12-20.49,3.98-34.37,13.02-.22.14-1.58,1.01-1.59,1.01-.01,0,.03-3.75.03-7.58v-1.87Z"/>
      <path class="cls-18" d="m83.54,17.96c-.68,3.25-1.23,7.31-1.78,10.53-.96,5.59-2.7,13.99-2.7,13.99l-.42,1.89s-2.89,11.42-4.7,16.39c-.16.45-.64,1.85-.64,1.86s2.61.03,5.38.03h5.03l.26-9.44c-.08-6.24-.03-12.59-.04-17.83l.02-8.41.02-4.52c0-2.48-.07-5.72-.17-5.89l-.26,1.41Z"/>
      <path class="cls-16" d="m84.12,16.32l-.13,6.08c.18,4.56.09,9.12.07,13.69-.08,3.49.05,7.02-.02,10.51v7.5l-.17,8.55h10.5l-.05-.11c-.15-.35-.62-2.34-1-3.5-.88-2.63-1.65-5.02-2.43-7.9-.56-2.52-.96-4.09-1.52-6.45-1.11-4.9-2.25-10.68-3.32-17.04-.1-.85-.3-1.78-.43-2.53-.14-.87-.37-2.48-.55-3.59-.18-1.11-.34-2.32-.4-2.7l-.55-2.49Z"/>
      <path class="cls-18" d="m77.58,93.49l-14.34-.19h-13.55s-1.19.13-1.19.13c-.47.06-1.85.3-1.88.37-.03.06,1.13.09,1.59.1,1.2.02,2.28.09,3.44.21,5.14.54,10.57,2.16,16.58,4.9,2.72,1.24,5.87,2.87,8.62,4.48.89.54.44.25,1.63.96,1.54.92,2.95,1.83,4.48,2.82.43.28.86.57.97.56-.03-.24.04-7.4.04-7.4l-.22-6.94h-6.16Z"/>
      <path class="cls-8" d="m84,14.6v93.34c14.02-9.23,27.59-15.31,40.06-13.76-29.07-9.19-34.51-44.45-40.06-79.58Zm0,0c-5.55,35.13-10.99,70.39-40.06,79.58,12.48-1.55,26.05,4.53,40.06,13.76V14.6Z"/>
      <line class="cls-4" x1="73.36" y1="62.89" x2="94.62" y2="62.89"/>
      <path class="cls-8" d="m83.89,93.23h-33.41c-2.17-.08-3.64.4-5.1.58"/>
      <path class="cls-8" d="m84.14,93.23h33.41c2.16-.08,3.68.46,5.14.65"/>
      <path class="cls-1" d="m70.85,100.23c-.58-.27-1.36-.47-1.41-.66-.03-.12-.06-6.15-.06-13.91v-14.11s.58-1.17.58-1.17c1.23-2.45,2.78-6.2,4-9.65l.6-1.7,9.41.02,9.41.03.74,2.05c1.31,3.63,2.38,6.21,3.67,8.87l.8,1.66v14.25c0,12.91-.02,14.26-.15,14.31-.15.06-26.25.03-27.59-.03-.72-.3.4.03,0,.02Z"/>
      <path class="cls-8" d="m70.85,100.23c-.54-.29-1.17-.46-1.43-.73-.02-1.65-.04-7.27-.04-13.84v-14.11s.58-1.17.58-1.17c1.23-2.45,2.78-6.2,4-9.65l.65-1.7,9.36.02,9.41.03.74,2.05c1.31,3.63,2.38,6.21,3.67,8.87l.8,1.66v14.25c0,8.9-.06,13.65-.06,13.65,0,0-.49.24-1.38.68-5.47.03-24.87.02-26.02-.03h-.29Z"/>
      <polyline class="cls-18" points="77.14 60.42 79.4 60.42 79.4 64.1 77.14 64.1 77.14 60.42"/>
      <polyline class="cls-3" points="77.14 60.42 79.4 60.42 79.4 64.1 77.14 64.1 77.14 60.42"/>
      <polyline class="cls-18" points="90.84 60.42 88.59 60.42 88.59 64.1 90.84 64.1 90.84 60.42"/>
      <polyline class="cls-3" points="90.84 60.42 88.59 60.42 88.59 64.1 90.84 64.1 90.84 60.42"/>
      <rect class="cls-18" x="81.77" y="60.42" width="4.44" height="3.67"/>
      <rect class="cls-3" x="81.77" y="60.42" width="4.44" height="3.67"/>
      <rect class="cls-18" x="76.67" y="63.03" width="14.65" height="3.21"/>
      <rect class="cls-3" x="76.67" y="63.03" width="14.65" height="3.21"/>
      <polyline class="cls-18" points="76.34 62.07 76.34 63.27 74.9 64.4 74.9 65.88 78.12 65.88 78.12 62.07 76.34 62.07"/>
      <polyline class="cls-3" points="76.34 62.07 76.34 63.27 74.9 64.4 74.9 65.88 78.12 65.88 78.12 62.07 76.34 62.07"/>
      <rect class="cls-18" x="74.45" y="65.72" width="4.13" height=".53"/>
      <rect class="cls-3" x="74.45" y="65.72" width="4.13" height=".53"/>
      <polyline class="cls-18" points="91.62 62.07 91.62 63.27 93.06 64.4 93.06 65.88 89.84 65.88 89.84 62.07 91.62 62.07"/>
      <polyline class="cls-3" points="91.62 62.07 91.62 63.27 93.06 64.4 93.06 65.88 89.84 65.88 89.84 62.07 91.62 62.07"/>
      <rect class="cls-18" x="89.41" y="65.72" width="4.13" height=".53"/>
      <rect class="cls-3" x="89.41" y="65.72" width="4.13" height=".53"/>
      <rect class="cls-18" x="84.49" y="62.07" width="2.85" height="4.04"/>
      <rect class="cls-3" x="84.49" y="62.07" width="2.85" height="4.04"/>
      <rect class="cls-18" x="84.49" y="64.38" width="2.85" height="1.73"/>
      <rect class="cls-3" x="84.49" y="64.38" width="2.85" height="1.73"/>
      <rect class="cls-18" x="80.65" y="62.07" width="2.85" height="4.04"/>
      <rect class="cls-3" x="80.65" y="62.07" width="2.85" height="4.04"/>
      <rect class="cls-18" x="80.65" y="64.38" width="2.85" height="1.73"/>
      <rect class="cls-3" x="80.65" y="64.38" width="2.85" height="1.73"/>
      <rect class="cls-18" x="80.14" y="65.73" width="7.7" height=".51"/>
      <rect class="cls-3" x="80.14" y="65.73" width="7.7" height=".51"/>
      <rect class="cls-16" x="73.82" y="66.59" width="20.34" height="27.72"/>
      <rect class="cls-7" x="73.82" y="66.59" width="20.34" height="27.72"/>
      <path class="cls-18" d="m85.41,79.03l1.42,1.42-1.42,1.42h4.03l.99-.99h1.85v.99l1.42-1.42-1.42-1.42v.99h-1.85l-.99-.99h-4.03Zm-1.42-8.29l-1.42,1.42h.99v1.85l-.99.99v4.03h-4.03l-.99.99h-1.85v-.99l-1.42,1.42,1.42,1.42v-.99h1.85l.99.99h4.03v4.03l.99.99v1.85h-.99l1.42,1.42,1.42-1.42h-.99v-1.85l.99-.99v-4.03l-1.42,1.42-1.42-1.42h0l-1.42-1.42,1.42-1.42h0l1.42-1.42,1.42,1.42v-4.03l-.99-.99v-1.85h.99l-1.42-1.42Z"/>
      <path class="cls-19" d="m71.48,98.57l-.84-2.77h.31l.56,2.01c.04.16.08.31.11.45.03-.15.07-.3.12-.45l.58-2.01h.29l-.85,2.77h-.29Z"/>
      <path class="cls-5" d="m71.48,98.57l-.84-2.77h.31l.56,2.01c.04.16.08.31.11.45.03-.15.07-.3.12-.45l.58-2.01h.29l-.85,2.77h-.29Z"/>
      <polygon class="cls-19" points="72.89 98.57 72.89 95.8 74.45 95.8 74.45 96.13 73.17 96.13 73.17 96.98 74.37 96.98 74.37 97.3 73.17 97.3 73.17 98.24 74.5 98.24 74.5 98.57 72.89 98.57"/>
      <polygon class="cls-5" points="72.89 98.57 72.89 95.8 74.45 95.8 74.45 96.13 73.17 96.13 73.17 96.98 74.37 96.98 74.37 97.3 73.17 97.3 73.17 98.24 74.5 98.24 74.5 98.57 72.89 98.57"/>
      <polygon class="cls-19" points="74.9 98.57 74.9 95.8 75.19 95.8 76.33 97.97 76.33 95.8 76.6 95.8 76.6 98.57 76.31 98.57 75.17 96.39 75.17 98.57 74.9 98.57"/>
      <polygon class="cls-5" points="74.9 98.57 74.9 95.8 75.19 95.8 76.33 97.97 76.33 95.8 76.6 95.8 76.6 98.57 76.31 98.57 75.17 96.39 75.17 98.57 74.9 98.57"/>
      <polygon class="cls-19" points="77.63 98.57 77.63 96.13 76.92 96.13 76.92 95.8 78.63 95.8 78.63 96.13 77.92 96.13 77.92 98.57 77.63 98.57"/>
      <polygon class="cls-5" points="77.63 98.57 77.63 96.13 76.92 96.13 76.92 95.8 78.63 95.8 78.63 96.13 77.92 96.13 77.92 98.57 77.63 98.57"/>
      <path class="cls-19" d="m79.54,98.57l-.84-2.77h.31l.56,2.01c.04.16.08.31.11.45.03-.15.07-.3.12-.45l.58-2.01h.29l-.85,2.77h-.29Z"/>
      <path class="cls-5" d="m79.54,98.57l-.84-2.77h.31l.56,2.01c.04.16.08.31.11.45.03-.15.07-.3.12-.45l.58-2.01h.29l-.85,2.77h-.29Z"/>
      <path class="cls-19" d="m81.23,97.02h.61c.13,0,.23-.02.31-.05.07-.04.13-.09.17-.17.04-.08.06-.16.06-.25,0-.13-.04-.24-.11-.32-.07-.08-.19-.13-.35-.13h-.68v.92Zm-.29,1.54v-2.77h.96c.19,0,.34.03.44.08.1.05.18.14.24.26.06.13.09.26.09.42,0,.2-.05.36-.15.5-.1.13-.25.22-.46.26.08.05.13.09.17.14.08.1.16.22.24.37l.38.75h-.36l-.28-.58c-.08-.17-.15-.29-.21-.38-.05-.09-.1-.15-.15-.18-.04-.04-.09-.06-.13-.07-.03,0-.09-.01-.16-.01h-.33v1.23h-.29Z"/>
      <path class="cls-5" d="m81.23,97.02h.61c.13,0,.23-.02.31-.05.07-.04.13-.09.17-.17.04-.08.06-.16.06-.25,0-.13-.04-.24-.11-.32-.07-.08-.19-.13-.35-.13h-.68v.92Zm-.29,1.54v-2.77h.96c.19,0,.34.03.44.08.1.05.18.14.24.26.06.13.09.26.09.42,0,.2-.05.36-.15.5-.1.13-.25.22-.46.26.08.05.13.09.17.14.08.1.16.22.24.37l.38.75h-.36l-.28-.58c-.08-.17-.15-.29-.21-.38-.05-.09-.1-.15-.15-.18-.04-.04-.09-.06-.13-.07-.03,0-.09-.01-.16-.01h-.33v1.23h-.29Z"/>
      <rect x="83.17" y="95.8" width=".29" height="2.77"/>
      <rect class="cls-5" x="83.17" y="95.8" width=".29" height="2.77"/>
      <path class="cls-19" d="m83.87,97.68l.27-.03c.01.14.04.25.09.34.05.09.12.16.22.22.1.05.21.08.33.08.11,0,.21-.02.29-.06.08-.04.14-.1.19-.17.04-.07.06-.15.06-.24s-.02-.16-.06-.23c-.04-.07-.1-.12-.19-.16-.06-.03-.19-.07-.38-.13-.2-.06-.34-.12-.42-.17-.1-.07-.18-.15-.23-.26-.05-.1-.07-.22-.07-.35,0-.14.03-.27.09-.39.06-.12.15-.21.27-.28.12-.06.25-.09.4-.09.16,0,.3.03.42.1.12.07.22.16.28.29.07.13.1.27.11.44l-.27.03c-.02-.18-.07-.31-.15-.4-.08-.09-.21-.13-.38-.13s-.3.04-.38.12c-.08.08-.12.18-.12.29,0,.1.03.18.08.24.06.06.2.13.43.2.23.07.39.13.48.18.13.07.22.17.28.28.06.11.09.24.09.39s-.03.29-.1.42c-.07.13-.16.23-.28.3-.12.07-.26.11-.42.11-.2,0-.36-.04-.49-.11-.13-.07-.23-.18-.31-.33-.08-.15-.11-.31-.12-.5Z"/>
      <path class="cls-5" d="m83.87,97.68l.27-.03c.01.14.04.25.09.34.05.09.12.16.22.22.1.05.21.08.33.08.11,0,.21-.02.29-.06.08-.04.14-.1.19-.17.04-.07.06-.15.06-.24s-.02-.16-.06-.23c-.04-.07-.1-.12-.19-.16-.06-.03-.19-.07-.38-.13-.2-.06-.34-.12-.42-.17-.1-.07-.18-.15-.23-.26-.05-.1-.07-.22-.07-.35,0-.14.03-.27.09-.39.06-.12.15-.21.27-.28.12-.06.25-.09.4-.09.16,0,.3.03.42.1.12.07.22.16.28.29.07.13.1.27.11.44l-.27.03c-.02-.18-.07-.31-.15-.4-.08-.09-.21-.13-.38-.13s-.3.04-.38.12c-.08.08-.12.18-.12.29,0,.1.03.18.08.24.06.06.2.13.43.2.23.07.39.13.48.18.13.07.22.17.28.28.06.11.09.24.09.39s-.03.29-.1.42c-.07.13-.16.23-.28.3-.12.07-.26.11-.42.11-.2,0-.36-.04-.49-.11-.13-.07-.23-.18-.31-.33-.08-.15-.11-.31-.12-.5Z"/>
      <path class="cls-19" d="m87.43,98.57l-.84-2.77h.31l.56,2.01c.05.16.08.31.11.45.03-.15.07-.3.12-.45l.58-2.01h.29l-.85,2.77h-.29Z"/>
      <path class="cls-5" d="m87.43,98.57l-.84-2.77h.31l.56,2.01c.05.16.08.31.11.45.03-.15.07-.3.12-.45l.58-2.01h.29l-.85,2.77h-.29Z"/>
      <polygon class="cls-19" points="88.84 98.57 88.84 95.8 90.4 95.8 90.4 96.13 89.12 96.13 89.12 96.98 90.32 96.98 90.32 97.3 89.12 97.3 89.12 98.24 90.45 98.24 90.45 98.57 88.84 98.57"/>
      <polygon class="cls-5" points="88.84 98.57 88.84 95.8 90.4 95.8 90.4 96.13 89.12 96.13 89.12 96.98 90.32 96.98 90.32 97.3 89.12 97.3 89.12 98.24 90.45 98.24 90.45 98.57 88.84 98.57"/>
      <polygon class="cls-19" points="90.85 98.57 90.85 95.8 91.14 95.8 92.27 97.97 92.27 95.8 92.55 95.8 92.55 98.57 92.26 98.57 91.12 96.39 91.12 98.57 90.85 98.57"/>
      <polygon class="cls-5" points="90.85 98.57 90.85 95.8 91.14 95.8 92.27 97.97 92.27 95.8 92.55 95.8 92.55 98.57 92.26 98.57 91.12 96.39 91.12 98.57 90.85 98.57"/>
      <polygon class="cls-19" points="93.58 98.57 93.58 96.13 92.87 96.13 92.87 95.8 94.58 95.8 94.58 96.13 93.87 96.13 93.87 98.57 93.58 98.57"/>
      <polygon class="cls-5" points="93.58 98.57 93.58 96.13 92.87 96.13 92.87 95.8 94.58 95.8 94.58 96.13 93.87 96.13 93.87 98.57 93.58 98.57"/>
      <rect x="94.93" y="95.8" width=".29" height="2.77"/>
      <rect class="cls-5" x="94.93" y="95.8" width=".29" height="2.77"/>
      <path class="cls-19" d="m95.62,97.68l.27-.03c.01.14.04.25.09.34.05.09.12.16.22.22.1.05.21.08.33.08.11,0,.21-.02.29-.06.08-.04.14-.1.19-.17.04-.07.06-.15.06-.24s-.02-.16-.06-.23c-.04-.07-.1-.12-.19-.16-.06-.03-.19-.07-.38-.13-.2-.06-.34-.12-.42-.17-.1-.07-.18-.15-.23-.26-.05-.1-.07-.22-.07-.35,0-.14.03-.27.09-.39.06-.12.15-.21.27-.28.12-.06.25-.09.4-.09.16,0,.3.03.42.1.12.07.22.16.28.29.07.13.1.27.11.44l-.27.03c-.02-.18-.07-.31-.15-.4-.08-.09-.21-.13-.38-.13s-.3.04-.38.12c-.08.08-.12.18-.12.29,0,.1.03.18.08.24.06.06.2.13.43.2.23.07.39.13.48.18.13.07.22.17.28.28.06.11.09.24.09.39s-.03.29-.1.42c-.07.13-.16.23-.28.3-.12.07-.26.11-.42.11-.2,0-.36-.04-.49-.11-.13-.07-.23-.18-.31-.33-.08-.15-.11-.31-.12-.5Z"/>
      <path class="cls-5" d="m95.62,97.68l.27-.03c.01.14.04.25.09.34.05.09.12.16.22.22.1.05.21.08.33.08.11,0,.21-.02.29-.06.08-.04.14-.1.19-.17.04-.07.06-.15.06-.24s-.02-.16-.06-.23c-.04-.07-.1-.12-.19-.16-.06-.03-.19-.07-.38-.13-.2-.06-.34-.12-.42-.17-.1-.07-.18-.15-.23-.26-.05-.1-.07-.22-.07-.35,0-.14.03-.27.09-.39.06-.12.15-.21.27-.28.12-.06.25-.09.4-.09.16,0,.3.03.42.1.12.07.22.16.28.29.07.13.1.27.11.44l-.27.03c-.02-.18-.07-.31-.15-.4-.08-.09-.21-.13-.38-.13s-.3.04-.38.12c-.08.08-.12.18-.12.29,0,.1.03.18.08.24.06.06.2.13.43.2.23.07.39.13.48.18.13.07.22.17.28.28.06.11.09.24.09.39s-.03.29-.1.42c-.07.13-.16.23-.28.3-.12.07-.26.11-.42.11-.2,0-.36-.04-.49-.11-.13-.07-.23-.18-.31-.33-.08-.15-.11-.31-.12-.5Z"/>
    </g>
  </g>
  <text class="cls-10" transform="translate(6.85 133.42)"><tspan x="0" y="0">DI</tspan><tspan class="cls-15" x="17.98" y="0">S</tspan><tspan x="27.25" y="0">TR</tspan><tspan class="cls-13" x="48.45" y="0">I</tspan><tspan class="cls-2" x="53.85" y="0">T</tspan><tspan class="cls-17" x="63.34" y="0">O</tspan><tspan class="cls-12" x="76.89" y="0"> </tspan><tspan x="81.1" y="0">FED</tspan><tspan class="cls-9" x="112.7" y="0">E</tspan><tspan x="122.4" y="0">RAL</tspan></text>
</svg>