<?xml version="1.0" encoding="UTF-8"?>
<svg id="Camada_1" data-name="Camada 1" xmlns="http://www.w3.org/2000/svg" xmlns:xlink="http://www.w3.org/1999/xlink" viewBox="0 0 150 150">
  <defs>
    <style>
      .cls-1 {
        clip-path: url(#clippath-20);
      }

      .cls-2 {
        clip-path: url(#clippath-11);
      }

      .cls-3 {
        clip-path: url(#clippath-16);
      }

      .cls-4 {
        stroke-miterlimit: 22.93;
      }

      .cls-4, .cls-5, .cls-6, .cls-7, .cls-8, .cls-9, .cls-10, .cls-11, .cls-12, .cls-13, .cls-14, .cls-15, .cls-16, .cls-17, .cls-18, .cls-19, .cls-20, .cls-21, .cls-22 {
        fill: none;
      }

      .cls-4, .cls-5, .cls-6, .cls-7, .cls-8, .cls-9, .cls-10, .cls-11, .cls-12, .cls-13, .cls-14, .cls-16, .cls-18, .cls-20, .cls-21, .cls-22 {
        stroke: #221f20;
      }

      .cls-4, .cls-13, .cls-14, .cls-15 {
        stroke-width: .24px;
      }

      .cls-5 {
        stroke-width: .51px;
      }

      .cls-5, .cls-6, .cls-7, .cls-8, .cls-10, .cls-11, .cls-13, .cls-16, .cls-18, .cls-21 {
        stroke-miterlimit: 10;
      }

      .cls-23 {
        fill: #fff;
      }

      .cls-23, .cls-24, .cls-25, .cls-26, .cls-27, .cls-28, .cls-29, .cls-30 {
        fill-rule: evenodd;
      }

      .cls-6 {
        stroke-width: .32px;
      }

      .cls-24 {
        fill: #d3d1d1;
      }

      .cls-31 {
        clip-path: url(#clippath-2);
      }

      .cls-32 {
        clip-path: url(#clippath-13);
      }

      .cls-33 {
        clip-path: url(#clippath-25);
      }

      .cls-7 {
        stroke-width: .31px;
      }

      .cls-34 {
        clip-path: url(#clippath-15);
      }

      .cls-35 {
        clip-path: url(#clippath-6);
      }

      .cls-8 {
        stroke-width: .61px;
      }

      .cls-9, .cls-10, .cls-12, .cls-22 {
        stroke-linecap: round;
      }

      .cls-9, .cls-12, .cls-14, .cls-15, .cls-20, .cls-22 {
        stroke-linejoin: round;
      }

      .cls-9, .cls-16 {
        stroke-width: .64px;
      }

      .cls-10, .cls-11 {
        stroke-width: .49px;
      }

      .cls-36 {
        clip-path: url(#clippath-7);
      }

      .cls-37 {
        clip-path: url(#clippath-21);
      }

      .cls-38 {
        fill: #525353;
        font-family: Calibri-Bold, Calibri;
        font-size: 20.04px;
        font-weight: 700;
      }

      .cls-39 {
        clip-path: url(#clippath-1);
      }

      .cls-40 {
        clip-path: url(#clippath-4);
      }

      .cls-41 {
        clip-path: url(#clippath-12);
      }

      .cls-25 {
        fill: #01a550;
      }

      .cls-12 {
        stroke-width: 1.02px;
      }

      .cls-42 {
        clip-path: url(#clippath-24);
      }

      .cls-43 {
        clip-path: url(#clippath-22);
      }

      .cls-15 {
        stroke: #01a550;
      }

      .cls-26 {
        fill: #008cc6;
      }

      .cls-27 {
        fill: #221f20;
      }

      .cls-28 {
        fill: #027b38;
      }

      .cls-44 {
        clip-path: url(#clippath-9);
      }

      .cls-45 {
        clip-path: url(#clippath);
      }

      .cls-17 {
        clip-rule: evenodd;
      }

      .cls-18, .cls-20 {
        stroke-width: .61px;
      }

      .cls-46 {
        clip-path: url(#clippath-19);
      }

      .cls-47 {
        clip-path: url(#clippath-3);
      }

      .cls-29 {
        fill: #f9e925;
      }

      .cls-48 {
        clip-path: url(#clippath-8);
      }

      .cls-49 {
        clip-path: url(#clippath-18);
      }

      .cls-50 {
        clip-path: url(#clippath-14);
      }

      .cls-51 {
        clip-path: url(#clippath-17);
      }

      .cls-52 {
        clip-path: url(#clippath-5);
      }

      .cls-21 {
        stroke-width: .27px;
      }

      .cls-22 {
        stroke-width: .27px;
      }

      .cls-53 {
        clip-path: url(#clippath-10);
      }

      .cls-54 {
        clip-path: url(#clippath-23);
      }

      .cls-30 {
        fill: #008840;
      }
    </style>
    <clipPath id="clippath">
      <rect class="cls-19" x="41.28" y="21.12" width="67.44" height="79.08"/>
    </clipPath>
    <clipPath id="clippath-1">
      <rect class="cls-19" x="41.28" y="21.12" width="67.44" height="79.08"/>
    </clipPath>
    <clipPath id="clippath-2">
      <polyline class="cls-17" points="41.43 21.27 108.62 21.27 108.62 100.1 41.43 100.1"/>
    </clipPath>
    <clipPath id="clippath-3">
      <polyline class="cls-17" points="41.43 21.27 108.62 21.27 108.62 100.1 41.43 100.1"/>
    </clipPath>
    <clipPath id="clippath-4">
      <polyline class="cls-17" points="41.43 21.27 108.62 21.27 108.62 100.1 41.43 100.1"/>
    </clipPath>
    <clipPath id="clippath-5">
      <polyline class="cls-17" points="41.43 21.27 108.62 21.27 108.62 100.1 41.43 100.1"/>
    </clipPath>
    <clipPath id="clippath-6">
      <polyline class="cls-17" points="41.43 21.27 108.62 21.27 108.62 100.1 41.43 100.1"/>
    </clipPath>
    <clipPath id="clippath-7">
      <polyline class="cls-17" points="41.43 21.27 108.62 21.27 108.62 100.1 41.43 100.1"/>
    </clipPath>
    <clipPath id="clippath-8">
      <polyline class="cls-17" points="41.43 21.27 108.62 21.27 108.62 100.1 41.43 100.1"/>
    </clipPath>
    <clipPath id="clippath-9">
      <polyline class="cls-17" points="41.43 21.27 108.62 21.27 108.62 100.1 41.43 100.1"/>
    </clipPath>
    <clipPath id="clippath-10">
      <polyline class="cls-17" points="41.43 21.27 108.62 21.27 108.62 100.1 41.43 100.1"/>
    </clipPath>
    <clipPath id="clippath-11">
      <polyline class="cls-17" points="41.43 21.27 108.62 21.27 108.62 100.1 41.43 100.1"/>
    </clipPath>
    <clipPath id="clippath-12">
      <polyline class="cls-17" points="41.43 21.27 108.62 21.27 108.62 100.1 41.43 100.1"/>
    </clipPath>
    <clipPath id="clippath-13">
      <polyline class="cls-17" points="41.43 21.27 108.62 21.27 108.62 100.1 41.43 100.1"/>
    </clipPath>
    <clipPath id="clippath-14">
      <polyline class="cls-17" points="41.43 21.27 108.62 21.27 108.62 100.1 41.43 100.1"/>
    </clipPath>
    <clipPath id="clippath-15">
      <polyline class="cls-17" points="41.43 21.27 108.62 21.27 108.62 100.1 41.43 100.1"/>
    </clipPath>
    <clipPath id="clippath-16">
      <polyline class="cls-17" points="41.43 21.27 108.62 21.27 108.62 100.1 41.43 100.1"/>
    </clipPath>
    <clipPath id="clippath-17">
      <polyline class="cls-17" points="41.43 21.27 108.62 21.27 108.62 100.1 41.43 100.1"/>
    </clipPath>
    <clipPath id="clippath-18">
      <polyline class="cls-17" points="41.43 21.27 108.62 21.27 108.62 100.1 41.43 100.1"/>
    </clipPath>
    <clipPath id="clippath-19">
      <polyline class="cls-17" points="41.43 21.27 108.62 21.27 108.62 100.1 41.43 100.1"/>
    </clipPath>
    <clipPath id="clippath-20">
      <polyline class="cls-17" points="41.43 21.27 108.62 21.27 108.62 100.1 41.43 100.1"/>
    </clipPath>
    <clipPath id="clippath-21">
      <polyline class="cls-17" points="41.43 21.27 108.62 21.27 108.62 100.1 41.43 100.1"/>
    </clipPath>
    <clipPath id="clippath-22">
      <polyline class="cls-17" points="41.43 21.27 108.62 21.27 108.62 100.1 41.43 100.1"/>
    </clipPath>
    <clipPath id="clippath-23">
      <polyline class="cls-17" points="41.43 21.27 108.62 21.27 108.62 100.1 41.43 100.1"/>
    </clipPath>
    <clipPath id="clippath-24">
      <polyline class="cls-17" points="41.43 21.27 108.62 21.27 108.62 100.1 41.43 100.1"/>
    </clipPath>
    <clipPath id="clippath-25">
      <polyline class="cls-17" points="41.43 21.27 108.62 21.27 108.62 100.1 41.43 100.1"/>
    </clipPath>
  </defs>
  <text class="cls-38" transform="translate(8.65 133.42)"><tspan x="0" y="0">PONTA GROSSA</tspan></text>
  <g class="cls-45">
    <g class="cls-39">
      <path class="cls-23" d="m47.78,62.38c.22,1.28.42,2.02,1.44,3.28,1.27-1.56,3.16-3.35,4.85-4.8,0-.16-.02-.44-.03-.59,2.13-.83,3.77-2.12,4.09-5.33-4.48,1.9-7.54,4.35-10.36,7.45m48.23,14.73h.05c.23,0,.39-.1.39-.31,0-.53.23.11.5.11.35,0,.66-1.04.81-.43.04.21.62-.11.62-.18,0-.57-.35-.93.35-.29.35.32.04-1.18.66-.61.5.47.39-.04.58-.04.12,0,.19.18.27.25.04.04.58.11.58.11,0-.29-.23-1-.43-1.18-.5-.47-.39-.54.12-.07.27.25,1.28,1.07.74.04-.39-.75,1.04.39.43-.79-.43-.82.12-.54.89-.18,0,0,.74.54.74.47,0-.22-.31-.93-.16-.93.7,0-.58-.68-.04-.68.08,0,.54.04.62,0,.16-.07,1.24-.29,1.35-.29v-.93h-.27l-.08-.03h-.81v-.11l.04-.03v-.07l.08-.04.04-.03.04-.04h.08l.08-.04s.08-.03.12-.03h.12c.08,0,.04,0,.08-.04.04-.04.04.04.12-.04.08-.07.08,0,.12-.04l.04-.07s.25-.07.47-.11l-.02,6-.18.14c-3.4,2.69-6.29,3.88-8.95,4.28l-.14.09v-3.87Zm-1.94-25.71c.1-.07.21-.13.32-.19-.11.06-.22.12-.32.19Zm-.08.06s.05-.03.07-.05c-.03.02-.05.03-.07.05Zm-.08.05s.04-.03.07-.05c-.02.02-.05.03-.07.05Zm-.24.18c.07-.06.14-.11.22-.17-.08.06-.15.11-.22.17Zm-.22.18s.05-.04.07-.06l-.07.06Zm-.06.06s.04-.04.06-.06c-.02.02-.04.04-.06.06Zm-.2.2s.03-.03.05-.05c-.02.02-.03.03-.05.05Zm-.1.11s.06-.07.09-.1c-.03.03-.06.07-.09.1Zm-.19.23s.03-.04.05-.06c-.02.02-.03.04-.05.06Zm-.05.07s.03-.04.05-.06l-.05.06Zm-.45.74s.04-.09.06-.13c-.02.04-.04.09-.06.13Zm3.61,19.34v-3.75l.02.05c1.89-.62,3.3-1.71,4.37-3.13,4.19-4.81,2.38-13.23-5.4-14.86.31-.13.65-.24,1.01-.34v-5.77l-.64-.35,1.81-1.55,5.84-8.16,2.34-5.37-.04,36.06c-.4-.16-1.21-.46-1.05-.17.12.25.43.46.43.75,0,.36-.16.36-.54.36-.5,0-.31.21-.19.46.12.22-.23.22-.23.29,0,.14.16.14.16.36,0,.36-.85-.72-.85.21,0,.25.27.5.16.89-.04.11-.66-.54-.74-.57-.62-.29-.08.25.12.43.27.25.27,1.07-.19.43-.08-.11-.7-.36-.7-.11,0,.07.08.71.04.75-.16.14-.54-.79-.54-.25v.39c0,.25-.47-.14-.66-.18v.25h.04v.07s.04-.04.08.11c0,.04.08.18.08.21v.36l-.04.07v.07h-.04v.03h-.08v.04l-.04.04h-.04l-.04-.04-.04-.07-.04-.07-.04-.04v-.21s-.08-.07-.08-.11q0-.07-.08-.07c-.12,0-.08,0-.23.11,0,.28-.08.64-.08.89,0,.11-.19.82-.39.64-.08-.07-.04-.54-.04-.68,0-.29.04-.64-.23-.82-.16-.07-.08,1.07-.08,1.18,0,.14.04.64-.16.25l-.12-.28s-.27-.61-.27-.36v.82c0,.79-.19-.21-.54-.21,0,0-.31.39-.31.28,0-.07-.31-.28-.31-.28,0,.18.08.43.08.61,0,.07.11.73-.12.57-.47-.32-1.1-1.19-1.36-.22Zm-11.07-30.95c-2.05-2.34-4.45-5.34-5.05-8.29-.4-1.98-.68-2.69-1.88-2.7-.98-.01-1.51,1.18-2.22,1.4.62.28,1.43.76,1.44,1.36.01,1.17-1.28,1.26-1.25,2.54.06,2.06,2.69,3.58,4.45,4.55v2.42s1-.17,1-.17v-1.71l1.55,1.23,1.97-.64Zm-19.34.1c2.04-2.34,4.53-5.44,5.13-8.39.4-1.98.68-2.8,1.88-2.81.98-.01,1.45,1.29,2.17,1.51-.62.28-1.38.79-1.38,1.39-.01,1.17,1.28,1.23,1.25,2.52-.06,2.06-2.63,3.61-4.39,4.58l-.06,2.48-1-.24.08-1.92-1.76,1.49-1.92-.61Zm7.7,32.83c.49-.01,1.25.19,1.53.8-.25.49-.87.81-1.54.79-.59-.02-1.19-.32-1.4-.79.21-.43.73-.78,1.41-.8Zm2.97,3.53l.04.03s-.05.02-.07.03l.03-.06Zm1.47-2.14h-.3l.04-.07c.13,0,.21.02.26.07Zm3.21-.18l-1.69-.8c0,.12-.02.26-.04.39-.37-.07-.85.1-.97.59h6.27c-.01.22-.02.43-.03.65-1.43-.03-2.24.48-2.78,1.3-.36.56.26,1.34.51,1.98h0s.02.07.03.09h0l.15.49-6,.06.4-.59c.13-.25.27-.57.29-.8-.38-.12-.8.02-1.15.45-.01-.04-.02-.08-.03-.12-.37.14-.77.25-1.13.35-.04,0-.03,0-.08.01,0,.41,0,.51,0,.92-.2-.43-.52-.61-.89-.62-.39,0-.66.19-.93.58v-1h0c-.01.06-.01.13-.01.2-.29-.03-.69-.1-1-.16-.03.12-.06.25-.09.37-.24-.4-.6-.53-.91-.51-.43.04-.71.23-.92.76v-1.45l.02-.04c-.31-.19-.59-.46-.85-.67,0-.06,0-.07,0-.11-.45-.06-.7-.03-1.05.11v-1.53c-.15-.3-.27-.53-.34-.86v-.03c0-.6.03-1.1.03-1.7,0-.06,0-.06,0-.09.06-.34.19-.76.3-1.06.47.33,1.1.15,1.36-.25.24-.38.08-.89-.35-1.23.23-.24.51-.5.86-.7.25.28.78.62,1.28.34.44-.24.6-.56.47-1.15.39-.11.9-.2,1.35-.23,0,.61.33.9.82.95.59.06.93-.15,1.09-.8.4.1.88.24,1.21.42-.18.44-.13.84.25,1.11.42.29.85.28,1.32-.07.3.36.62.62.87,1.07-.42.22-.6.5-.5.86.02.08.04.15.07.22l3.25,1.52-.44.77Z"/>
      <path class="cls-21" d="m47.78,62.38c.22,1.28.42,2.02,1.44,3.28,1.27-1.56,3.16-3.35,4.85-4.8,0-.16-.02-.44-.03-.59,2.13-.83,3.77-2.12,4.09-5.33-4.48,1.9-7.54,4.35-10.36,7.45Zm48.23,14.73h.05c.23,0,.39-.1.39-.31,0-.53.23.11.5.11.35,0,.66-1.04.81-.43.04.21.62-.11.62-.18,0-.57-.35-.93.35-.29.35.32.04-1.18.66-.61.5.47.39-.04.58-.04.12,0,.19.18.27.25.04.04.58.11.58.11,0-.29-.23-1-.43-1.18-.5-.47-.39-.54.12-.07.27.25,1.28,1.07.74.04-.39-.75,1.04.39.43-.79-.43-.82.12-.54.89-.18,0,0,.74.54.74.47,0-.22-.31-.93-.16-.93.7,0-.58-.68-.04-.68.08,0,.54.04.62,0,.16-.07,1.24-.29,1.35-.29v-.93h-.27l-.08-.03h-.81v-.11l.04-.03v-.07l.08-.04.04-.03.04-.04h.08l.08-.04s.08-.03.12-.03h.12c.08,0,.04,0,.08-.04.04-.04.04.04.12-.04.08-.07.08,0,.12-.04l.04-.07s.25-.07.47-.11l-.02,6-.18.14c-3.4,2.69-6.29,3.88-8.95,4.28l-.14.09v-3.87Zm-1.94-25.71c.1-.07.21-.13.32-.19-.11.06-.22.12-.32.19Zm-.08.06s.05-.03.07-.05c-.03.02-.05.03-.07.05Zm-.08.05s.04-.03.07-.05c-.02.02-.05.03-.07.05Zm-.24.18c.07-.06.14-.11.22-.17-.08.06-.15.11-.22.17Zm-.22.18s.05-.04.07-.06m-.13.12s.04-.04.06-.06c-.02.02-.04.04-.06.06Zm-.2.2s.03-.03.05-.05c-.02.02-.03.03-.05.05Zm-.1.11s.06-.07.09-.1c-.03.03-.06.07-.09.1Zm-.19.23s.03-.04.05-.06c-.02.02-.03.04-.05.06Zm-.05.07s.03-.04.05-.06l-.05.06Zm-.45.74s.04-.09.06-.13c-.02.04-.04.09-.06.13Zm3.61,19.34v-3.75l.02.05c1.89-.62,3.3-1.71,4.37-3.13,4.19-4.81,2.38-13.23-5.4-14.86.31-.13.65-.24,1.01-.34v-5.77l-.64-.35,1.81-1.55,5.84-8.16,2.34-5.37-.04,36.06c-.4-.16-1.21-.46-1.05-.17.12.25.43.46.43.75,0,.36-.16.36-.54.36-.5,0-.31.21-.19.46.12.22-.23.22-.23.29,0,.14.16.14.16.36,0,.36-.85-.72-.85.21,0,.25.27.5.16.89-.04.11-.66-.54-.74-.57-.62-.29-.08.25.12.43.27.25.27,1.07-.19.43-.08-.11-.7-.36-.7-.11,0,.07.08.71.04.75-.16.14-.54-.79-.54-.25v.39c0,.25-.47-.14-.66-.18v.25h.04v.07s.04-.04.08.11c0,.04.08.18.08.21v.36l-.04.07v.07h-.04v.03h-.08v.04l-.04.04h-.04l-.04-.04-.04-.07-.04-.07-.04-.04v-.21s-.08-.07-.08-.11q0-.07-.08-.07c-.12,0-.08,0-.23.11,0,.28-.08.64-.08.89,0,.11-.19.82-.39.64-.08-.07-.04-.54-.04-.68,0-.29.04-.64-.23-.82-.16-.07-.08,1.07-.08,1.18,0,.14.04.64-.16.25l-.12-.28s-.27-.61-.27-.36v.82c0,.79-.19-.21-.54-.21,0,0-.31.39-.31.28,0-.07-.31-.28-.31-.28,0,.18.08.43.08.61,0,.07.11.73-.12.57-.47-.32-1.1-1.19-1.36-.22Zm-11.07-30.95c-2.05-2.34-4.45-5.34-5.05-8.29-.4-1.98-.68-2.69-1.88-2.7-.98-.01-1.51,1.18-2.22,1.4.62.28,1.43.76,1.44,1.36.01,1.17-1.28,1.26-1.25,2.54.06,2.06,2.69,3.58,4.45,4.55v2.42s1-.17,1-.17v-1.71l1.55,1.23,1.97-.64Zm-19.34.1c2.04-2.34,4.53-5.44,5.13-8.39.4-1.98.68-2.8,1.88-2.81.98-.01,1.45,1.29,2.17,1.51-.62.28-1.38.79-1.38,1.39-.01,1.17,1.28,1.23,1.25,2.52-.06,2.06-2.63,3.61-4.39,4.58l-.06,2.48-1-.24.08-1.92-1.76,1.49-1.92-.61Zm7.7,32.83c.49-.01,1.25.19,1.53.8-.25.49-.87.81-1.54.79-.59-.02-1.19-.32-1.4-.79.21-.43.73-.78,1.41-.8Zm2.97,3.53l.04.03s-.05.02-.07.03l.03-.06Zm1.47-2.14h-.3l.04-.07c.13,0,.21.02.26.07Zm3.21-.18l-1.69-.8c0,.12-.02.26-.04.39-.37-.07-.85.1-.97.59h6.27c-.01.22-.02.43-.03.65-1.43-.03-2.24.48-2.78,1.3-.36.56.26,1.34.51,1.98h0s.02.07.03.09h0l.15.49-6,.06.4-.59c.13-.25.27-.57.29-.8-.38-.12-.8.02-1.15.45-.01-.04-.02-.08-.03-.12-.37.14-.77.25-1.13.35-.04,0-.03,0-.08.01,0,.41,0,.51,0,.92-.2-.43-.52-.61-.89-.62-.39,0-.66.19-.93.58v-1h0c-.01.06-.01.13-.01.2-.29-.03-.69-.1-1-.16-.03.12-.06.25-.09.37-.24-.4-.6-.53-.91-.51-.43.04-.71.23-.92.76v-1.45l.02-.04c-.31-.19-.59-.46-.85-.67,0-.06,0-.07,0-.11-.45-.06-.7-.03-1.05.11v-1.53c-.15-.3-.27-.53-.34-.86v-.03c0-.6.03-1.1.03-1.7,0-.06,0-.06,0-.09.06-.34.19-.76.3-1.06.47.33,1.1.15,1.36-.25.24-.38.08-.89-.35-1.23.23-.24.51-.5.86-.7.25.28.78.62,1.28.34.44-.24.6-.56.47-1.15.39-.11.9-.2,1.35-.23,0,.61.33.9.82.95.59.06.93-.15,1.09-.8.4.1.88.24,1.21.42-.18.44-.13.84.25,1.11.42.29.85.28,1.32-.07.3.36.62.62.87,1.07-.42.22-.6.5-.5.86.02.08.04.15.07.22l3.25,1.52-.44.77Z"/>
      <path class="cls-25" d="m77.74,75.98h-.3l.04-.07h.07s0,0,0,0h.01s0,0,0,0h.01s0,0,0,0h.01c.06.01.11.03.15.06m-1.47,2.14l.04.03s-.05.02-.07.03l.03-.06Zm11.39-3.57h-7.27l1.01.47-.44.77-1.69-.8h0v.02h0s0,0,0,0h0v.02h0v.02h0v.02h0s0,.02,0,.02h0s0,.03,0,.03h0s0,.02,0,.02h0s0,.04,0,.04h0s0,.07,0,.07h0s0,.03,0,.03h0s0,.06,0,.06h0s0,.01,0,.01h0s0,.01,0,.01h0s0,.01,0,.01h0s-.02,0-.02,0h-.02s-.02,0-.02,0h-.02s-.02,0-.02,0h-.02s-.02,0-.02,0h-.04c-.34,0-.7.18-.81.61h6.27c-.01.22-.02.43-.03.65h-.07s-.07,0-.07,0h-.07s-.06,0-.06,0h-.06s-.06,0-.06,0h-.06s-.06,0-.06,0h-.06s-.06.01-.06.01h-.06s-.06.01-.06.01h-.06s-.06.02-.06.02h-.06s-.05.02-.05.02h-.05s-.05.02-.05.02h-.05s-.05.03-.05.03h-.05s-.05.03-.05.03l-.05.02-.05.02-.05.02-.05.02-.05.02-.04.02-.04.02-.04.02-.04.02-.04.02-.04.02-.04.02-.04.02-.04.02-.04.02-.04.02-.04.03-.04.03-.04.03-.04.03-.04.03-.03.03-.03.03-.03.03-.03.03-.03.03-.03.03-.03.03-.03.03-.03.03-.03.03-.03.03-.03.03-.03.03-.03.04-.03.03-.03.04-.03.04-.03.04-.03.04-.03.04-.03.04c-.1.15-.12.32-.1.5.06.47.48.99.64,1.46h-.03v.02s.01.01.01.01c.01.03.02.06.03.08h0l.15.49-6,.06.4-.59c.13-.24.27-.56.29-.78h0c-.38-.13-.8,0-1.15.44-.01-.04-.02-.08-.03-.12l-.07.02-.07.03h0c-.14.05-.28.09-.43.14h0s-.02,0-.02,0h-.01s-.02,0-.02,0h-.01s0,0,0,0h-.01s0,0,0,0h-.01s0,0,0,0h-.03s0,0,0,0h0s-.02,0-.02,0h-.02s0,0,0,0h-.03s0,.01,0,.01h0s-.03.01-.03.01h-.04s0,.01,0,.01l-.07.02h0s0,0,0,0h-.02s-.01,0-.01,0h0s-.02,0-.02,0h0s-.01,0-.01,0h0s-.01,0-.01,0h0s-.01,0-.01,0h0s-.01,0-.01,0h0s-.02,0-.02,0h0s-.02,0-.02,0h-.02s-.02.01-.02.01c-.04,0-.03,0-.08.01,0,.41,0,.51,0,.92-.2-.43-.52-.61-.89-.62-.39,0-.66.19-.93.58v-1h0s0,0,0,0c0,.05-.01.1-.01.15h0v.02h0v.02h0v.02h0s-.01,0-.01,0h-.01s0,0,0,0h-.03s-.02,0-.02,0h-.02s-.02,0-.02,0h-.02s-.01,0-.01,0h-.02s0,0,0,0h-.05s0,0,0,0h-.02s-.06-.01-.06-.01h-.03s0,0,0,0h-.02s0,0,0,0h-.01s0,0,0,0h-.03s0,0,0,0h-.01s-.03,0-.03,0h0s-.01,0-.01,0h0s0,0,0,0h-.02s0,0,0,0h-.02s0,0,0,0h-.01s0,0,0,0h0s-.13-.02-.13-.02h0s-.06-.01-.06-.01h-.03s0,0,0,0h-.01s0,0,0,0c-.06-.01-.12-.02-.18-.03h-.02s0,0,0,0c-.03.12-.06.25-.09.37-.24-.4-.6-.53-.91-.51-.43.04-.71.23-.92.76v-1.45l.02-.04h0s-.03-.02-.03-.02h0c-.3-.19-.57-.45-.81-.65h0s0,0,0,0c0-.06,0-.07,0-.11-.45-.06-.7-.03-1.05.11v-1.55s-.01,0-.01,0h0c-.14-.29-.25-.52-.32-.83v-.03c0-.46.01-.85.03-1.28h-5.25c2.1,5.33,7.43,8.18,12.54,8.18,5.14,0,10.43-2.77,12.61-8.18Zm-3.71-2.34c0-.65-.9-.09-1.17-.09-.29,0-.14-.36.04-.69-.03-.01-.05-.03-.08-.06-.34-.31-.47.22-.77.22-.97,0,.33-1.24.43-1.33.05-.05-.6.79-1.02.87-.13.02-.29.17-.35,0-.17-.18-.51-.04-.51-.57,0-.25-.8,0-.8-.34,0-.22-.5.4-.5-.28,0-.06.1-.43.1-.53,0-.4.34-.25.54-.43.1-.09.3,0,.3-.22s-.2-.03-.2-.31c-.07-.4-.07-.28.13-.46.03-.03.03-.15.1-.18.17-.06.67-.19.8-.31.03-.03.27.09.33.03s.37-.22.37-.22c0,0,.3-.09.4-.12.07,0,.47-.25.5-.18,0,0-.1.52-.1.62.07.16.53.25.64.34.23.22-.03.15-.03.49,0,.02.2,0,.36.02.18-.14.48-.46.54-.46,0,0,.64.31.64,0,0-.06.23.28.27.34.27.49.57-.16.57.83,0,.09.27.25.23.31-.1.19-.17.28.27.28.74,0,.27.31.27.68s.03.65.03.99c-.13.06-.4.22-.47.25s-.67,1.45-.97.9c-.07-.16,0-.22-.17-.28s-.4-.56-.07-.56c.27,0,.33-.37.33-.49v-.31c0-.22.23.03-.07.31,0,0-.3.46-.3.49-.27.53-.5-.15-.5-.46,0-.37.3-.53.54-.74.1-.09-.2.12-.23.16-.23.22-.6-.4-.47-.46.2-.12-.13-.09-.27-.16-.03,0,0-.25,0,.09,0,.28.23.31.37.43.23.22.13,1.17-.3.77-.37-.34.34.3.34.43-.04.17,0,.14-.1.38Z"/>
      <path class="cls-29" d="m105.45,28.87c.27-.81.32-1.7.9-2.36.48-.54,1.29-.63,1.98-.9.02-.75.03-1.5.05-2.25-.78.28-1.56.55-2.34.83-.1.64-.04,1.31-.43,1.85-.49.68-1.29,1.06-2,1.55.61.43,1.23.86,1.84,1.28"/>
      <path class="cls-29" d="m44.45,28.57c-.27-.82-.33-1.72-.91-2.38-.48-.55-1.3-.63-2-.91-.02-.76-.03-1.52-.05-2.27.79.28,1.57.56,2.36.84.1.65.04,1.33.44,1.87.5.69,1.3,1.07,2.02,1.56-.62.43-1.24.87-1.86,1.3"/>
      <g class="cls-31">
        <polygon class="cls-8" points="80.03 22.18 80.33 23.49 79.53 23.8 80.07 24.51 79.15 25.46 81.21 25.21 80.33 25.95 81.59 25.84 82.2 26.3 82.85 26.06 83.96 26.69 83.27 25.39 85.18 26.62 84.87 25.56 85.86 25.28 85.14 24.47 86.05 23.49 83.88 23.8 84.72 22.92 83.54 22.96 83.16 22.15 82.39 22.85 81.44 22.15 81.63 23.38 80.03 22.18"/>
      </g>
      <polyline class="cls-29" points="80.03 22.18 80.33 23.49 79.53 23.8 80.07 24.51 79.15 25.46 81.21 25.21 80.33 25.95 81.59 25.84 82.2 26.3 82.85 26.06 83.96 26.69 83.27 25.39 85.18 26.62 84.87 25.56 85.86 25.28 85.14 24.47 86.05 23.49 83.88 23.8 84.72 22.92 83.54 22.96 83.16 22.15 82.39 22.85 81.44 22.15 81.63 23.38 80.03 22.18"/>
      <path class="cls-30" d="m96.03,72.62c.23-.96.84-.1,1.34.22.23.14.12-.5.12-.57,0-.18-.08-.43-.08-.61,0,0,.31.21.31.28,0,.11.31-.28.31-.28.35,0,.54,1,.54.21v-.82c0-.25.27.36.27.36l.12.28c.19.39.16-.11.16-.25,0-.11-.08-1.25.08-1.18.27.18.23.54.23.82,0,.14-.04.61.04.68.19.18.39-.54.39-.64,0-.25.08-.61.08-.89.16-.11.12-.11.23-.11q.08,0,.08.07s.08.07.08.11v.21l.04.04.04.07.04.07.04.04h.04l.04-.04v-.04h.08v-.03h.04v-.07l.04-.07v-.36s-.08-.18-.08-.21c-.04-.14-.04-.07-.08-.11v-.07h-.04v-.25c.19.04.66.43.66.18v-.39c0-.54.39.39.54.25.04-.04-.04-.68-.04-.75,0-.25.62,0,.7.11.47.64.47-.18.19-.43-.19-.18-.73-.71-.12-.43.08.03.7.68.74.57.12-.39-.16-.64-.16-.89,0-.93.85.14.85-.21,0-.22-.16-.22-.16-.36,0-.07.35-.07.23-.29-.12-.25-.31-.46.19-.46.39,0,.54,0,.54-.36,0-.29-.31-.5-.43-.75-.19-.36,1.1.18,1.25.25l.16,4.9s-.8.13-.84.17l-.04.07s-.04-.03-.12.04c-.08.07-.08,0-.12.04-.04.04,0,.04-.08.04h-.12s-.08,0-.12.03l-.08.04h-.08l-.04.04-.04.03-.08.04v.07l-.04.03v.11h.81l.08.03h.27v.93c-.12,0-1.2.22-1.35.29-.08.04-.54,0-.62,0-.54,0,.74.68.04.68-.15,0,.16.71.16.93,0,.07-.74-.47-.74-.47-.77-.36-1.31-.64-.89.18.62,1.18-.81.04-.43.79.54,1.04-.47.21-.74-.04-.5-.46-.62-.39-.12.07.19.18.43.89.43,1.18,0,0-.54-.07-.58-.11-.08-.07-.16-.25-.27-.25-.19,0-.08.5-.58.04-.62-.57-.31.93-.66.61-.7-.64-.35-.28-.35.29,0,.07-.58.39-.62.18-.16-.61-.47.43-.81.43-.27,0-.5-.64-.5-.11,0,.22-.18.32-.41.32v-4.5"/>
      <g class="cls-47">
        <path class="cls-16" d="m105.1,76.61c-3.4,2.69-6.29,3.88-8.95,4.28-4.57,2.94-9.13,5.87-13.7,8.81,3.14,3.82,6.78,5.45,10.9,5.38,6.65-.12,11.81-5.56,11.83-10.64.01-2.71-.08-5.21-.08-7.82Z"/>
      </g>
      <path class="cls-28" d="m105.1,76.61c-3.4,2.69-6.29,3.88-8.95,4.28-4.57,2.94-9.13,5.87-13.7,8.81,3.14,3.82,6.78,5.45,10.9,5.38,6.65-.12,11.81-5.56,11.83-10.64.01-2.71-.08-5.21-.08-7.82"/>
      <g class="cls-40">
        <polygon class="cls-8" points="67.29 22.15 66.91 22.96 65.73 22.92 66.57 23.8 64.39 23.49 65.31 24.47 64.58 25.28 65.57 25.56 65.27 26.62 67.18 25.39 66.49 26.69 67.59 26.06 68.24 26.3 68.85 25.84 70.11 25.95 69.23 25.21 71.29 25.46 70.38 24.51 70.91 23.8 70.11 23.49 70.42 22.18 68.82 23.38 69.01 22.15 68.05 22.85 67.29 22.15"/>
      </g>
      <polyline class="cls-29" points="67.29 22.15 66.91 22.96 65.73 22.92 66.57 23.8 64.39 23.49 65.31 24.47 64.58 25.28 65.57 25.56 65.27 26.62 67.18 25.39 66.49 26.69 67.6 26.06 68.24 26.3 68.85 25.84 70.11 25.95 69.23 25.21 71.29 25.46 70.38 24.51 70.91 23.8 70.11 23.49 70.42 22.18 68.82 23.38 69.01 22.15 68.05 22.85 67.29 22.15"/>
      <g class="cls-52">
        <path class="cls-8" d="m75.22,25.62c-.97-1.24-.97-2.49,0-3.73.97,1.24.97,2.49,0,3.73Zm0,0c-1.59-.8-2.67-.75-3.24.14-1.07-1.16-.46-2.1.34-2.11.99-.02,2.12,1.07,2.9,1.97,1.59-.8,2.67-.75,3.24.14,1.07-1.16.46-2.1-.34-2.11-.99-.02-2.12,1.07-2.9,1.97Z"/>
      </g>
      <path class="cls-29" d="m75.22,25.62c-.97-1.24-.97-2.49,0-3.73.97,1.24.97,2.49,0,3.73m0,0c-1.59-.8-2.67-.75-3.24.14-1.07-1.16-.46-2.1.34-2.11.99-.02,2.12,1.07,2.9,1.97,1.59-.8,2.67-.75,3.24.14,1.07-1.16.46-2.1-.34-2.11-.99-.02-2.12,1.07-2.9,1.97Z"/>
      <g class="cls-35">
        <path class="cls-20" d="m96,44.8h0Zm8.8-15.51c-1.14,3.15-2.33,5.71-4.33,8.2-2.24,2.77-4.85,4.68-7.39,5.71l2.42,1.33.05.02.13.07h.01s.05.03.05.03l.04.03.07.04.07.04.04.03.05.02c5.16-3.1,7.93-8.73,9.23-15.27.03-.17-.22-.35-.42-.23Z"/>
      </g>
      <path class="cls-28" d="m96,44.8h0m8.8-15.51c-1.14,3.15-2.33,5.71-4.33,8.2-2.24,2.77-4.85,4.68-7.39,5.71l2.42,1.33.05.02.13.07h.01s.05.03.05.03l.04.03.07.04.07.04.04.03.05.02c5.16-3.1,7.93-8.73,9.23-15.27.03-.17-.22-.35-.42-.23Z"/>
      <path class="cls-27" d="m75.22,29c-4.17,0-8.52,1.02-11.75,2.19,2.01.75,4.71,1.22,7.41,1.46.34-1.46.68-2.07,1.73-2.09.98-.01,1.45,1.29,2.17,1.51-.38.17-.81.43-1.09.75.53.02,1.04.02,1.54.02.55,0,1.12,0,1.7-.02-.29-.31-.76-.57-1.14-.74.72-.22,1.25-1.41,2.22-1.4,1.04.01,1.39.54,1.72,1.96,2.65-.24,5.28-.72,7.25-1.45-3.23-1.17-7.58-2.19-11.75-2.19"/>
      <g class="cls-36">
        <path class="cls-8" d="m75.22,25.83c-3.48.01-6.78.58-9.89,1.3-1.09-1.53-2.11-2.15-3.41-2.48.59,2,.85,3.88,1.44,5.88,3.27-1.1,8-2.14,11.87-2.15,3.86.01,8.6,1.06,11.86,2.15.59-2,.84-3.88,1.44-5.88-1.3.34-2.33.95-3.41,2.48-3.1-.72-6.41-1.29-9.89-1.3Z"/>
      </g>
      <path class="cls-29" d="m75.22,25.83c-3.48.01-6.78.58-9.89,1.3-1.09-1.53-2.11-2.15-3.41-2.48.59,2,.85,3.88,1.44,5.88,3.27-1.1,8-2.14,11.87-2.15,3.86.01,8.6,1.06,11.86,2.15.59-2,.84-3.88,1.44-5.88-1.3.34-2.33.95-3.41,2.48-3.1-.72-6.41-1.29-9.89-1.3"/>
      <path class="cls-27" d="m72.78,26.98c.81-.11,1.63-.12,2.44-.12s1.63.01,2.44.12v.47c-.8-.05-1.63-.12-2.44-.12s-1.63.07-2.44.12v-.47"/>
      <path class="cls-27" d="m65.52,28.17c1.5-.39,3.22-.7,4.74-.92l.13.5c-1.69.31-3.1.59-4.75,1.01l-.12-.59"/>
      <path class="cls-27" d="m84.97,28.17c-1.5-.39-3.22-.7-4.74-.92l-.13.5c1.69.31,3.1.59,4.75,1.01l.12-.59"/>
      <path class="cls-27" d="m78.92,26.98l-.48.37.4.45.48-.37-.4-.45m.06-.55l-1.14.86.93,1.05,1.14-.86-.93-1.05Z"/>
      <path class="cls-27" d="m71.52,26.98l.49.37-.4.45-.48-.37.4-.45m-.06-.55l1.14.86-.93,1.05-1.14-.86.93-1.05Z"/>
      <g class="cls-48">
        <path class="cls-9" d="m50.06,92.87c-3.23-2.2-4.98-5.88-4.99-9.34l-.05-53.94c0-.5.35-.11.43.13,1.8,5.49,6.53,11.85,11.62,13.48l-2.98,1.6v2.72c-2.78,2.33-5.3,5.4-7.7,8.81-.26,6.65.55,13.96,2.65,22.06.83.63,1.67,1.27,2.5,1.9l2.55-2.42v3.38l13.6,8.48c-3.2,4.09-7.19,5.25-10.42,5.27-1.87.01-3.82-.38-5.35-1.11l-1.86-1.02Z"/>
      </g>
      <path class="cls-28" d="m50.06,92.87c-3.23-2.2-4.98-5.88-4.99-9.34l-.05-53.94c0-.5.35-.11.43.13,1.8,5.49,6.53,11.85,11.62,13.47l-2.98,1.6v2.72c-2.78,2.33-5.3,5.4-7.7,8.81-.26,6.65.55,13.96,2.65,22.06.83.63,1.67,1.27,2.5,1.9l2.55-2.42v3.38l13.6,8.48c-3.2,4.09-7.19,5.25-10.42,5.27-1.87.01-3.82-.38-5.35-1.11l-1.86-1.02"/>
      <g class="cls-44">
        <path class="cls-18" d="m54.83,51.09c-6.86,1.43-7.57,6.08-6.89,11.12-.05.06-.1.11-.15.17.22,1.28.42,2.02,1.44,3.28v-.02c1.09,1.41,2.97,2.64,4.85,3.26,0-2.52-.31-5.25-.32-7.77.11-.09.21-.19.32-.28,0-.16-.02-.44-.03-.59,2.13-.83,3.77-2.12,4.09-5.33l-.18.08c-.16-1.88-1.61-3.2-3.12-3.92Zm-.74,26.78l-2.55,2.42c-.83-.63-1.67-1.27-2.5-1.9-2.1-8.1-2.9-15.41-2.65-22.06,2.4-3.41,4.91-6.48,7.7-8.81v3.05c2.94.75,4.08,2.78,4.08,4.82s-1.14,4.15-4.08,4.87v17.61Z"/>
      </g>
      <path class="cls-29" d="m54.83,51.09c-6.86,1.43-7.57,6.08-6.89,11.12-.05.06-.1.11-.15.17.22,1.28.42,2.02,1.44,3.28v-.02c1.09,1.41,2.97,2.64,4.85,3.26,0-2.51-.31-5.24-.32-7.77.11-.09.21-.19.32-.28,0-.16-.02-.44-.03-.59,2.13-.83,3.77-2.12,4.09-5.33l-.18.08c-.16-1.88-1.61-3.2-3.12-3.92m-.74,26.78l-2.55,2.42c-.83-.63-1.67-1.27-2.5-1.9-2.1-8.1-2.9-15.41-2.65-22.06,2.4-3.41,4.91-6.48,7.7-8.81v3.05c2.94.75,4.08,2.78,4.08,4.82s-1.14,4.15-4.08,4.87v17.61Z"/>
      <path class="cls-26" d="m73.29,74.59c.49-.01,1.25.19,1.53.8-.25.49-.87.81-1.54.79-.59-.02-1.19-.32-1.4-.79.21-.43.73-.78,1.41-.8m15.04-4.56c0,.13,0,.27,0,.4,0,1.44-.27,2.82-.77,4.11h0,0s.03-.09.03-.09h0s.01-.05.01-.05l.03-.09h0s.02-.06.02-.06l.02-.07h0s0,0,0,0l.03-.1v-.02s.01-.01.01-.01l.02-.07.02-.07.02-.07v-.03s.01-.01.01-.01l.03-.1v-.02s0-.02,0-.02l.03-.11h0s.03-.11.03-.11v-.05s.03-.09.03-.09h0s0-.04,0-.04l.02-.09v-.03s.03-.11.03-.11h0s.03-.13.03-.13c.04-.2.09-.4.12-.61v-.06s.02-.08.02-.08v-.03s.02-.11.02-.11h0s0-.03,0-.03v-.08s.02-.03.02-.03c.01-.07.02-.15.03-.23h0c.01-.09.02-.17.03-.25v-.02s.01-.12.01-.12h0s.01-.12.01-.12h0s0-.03,0-.03c0-.07.01-.15.02-.23h0s0-.03,0-.03c0-.08,0-.16.01-.23h0c0-.17,0-.33,0-.5h0s0-.11,0-.11Zm-25.84,4.51c-.5-1.28-.77-2.67-.77-4.11,0-6.77,5.98-12.29,13.31-12.29,5.85,0,10.84,3.52,12.62,8.38-.01,0-.02,0-.03,0h0s-.02,0-.03,0h0s-.04.01-.07.02h0s0,0,0,0h0s-.01,0-.01,0h-.02s0,0,0,0h-.02s-.02.02-.02.02h0s-.02.01-.02.01h-.02s0,.01,0,.01h0s-.02.01-.02.01h0s-.02.01-.02.01h0s-.02.01-.02.01c-.02.01-.04.03-.06.04h0s0,0,0,0h-.01s0,.02,0,.02h-.01s0,.02,0,.02h-.01s-.02.03-.02.03h0s-.01.02-.01.02c-.05.04-.1.09-.14.14h0s0,.02,0,.02c-.02.02-.03.04-.05.06h-.01s0,.02,0,.02c-.02.03-.04.05-.06.08h0s-.01.02-.01.02v.02s-.01,0-.01,0h0s0,.02,0,.02v.02s-.01,0-.01,0h0s0,.02,0,.02h0s0,.02,0,.02h0s0,.02,0,.02h0s0,.02,0,.02h0s0,.02,0,.02h0s0,.02,0,.02h0s0,.02,0,.02h0s0,.02,0,.02h0s0,.02,0,.02h0s0,.02,0,.02h0s0,.02,0,.02h0s0,.02,0,.02h0s0,.02,0,.02v.02s0,0,0,0v.02s0,.02,0,.02v.02s0,.01,0,.01c0,.15-.03-.25-.03-.31,0-.27-.08-.44-.23-.6-.84-.89-1.85-.03-2.14.35-.1.13-.11.21.01.12v-.12s-.03-.16-.03-.16c-.01-.16-.3-.55-.48-.55-.2,0-.3.24-.3,0,0-.25-.04-.24-.23-.35-.7-.11-1.7.18-1.85.29-.02.02-.03.03,0,.04.05.02.04,0,0-.04-.1-.1-.42-.33-.53-.39-.34-.18-.9,0-.96.2-.01.04-.38,1.22-.38.68,0-.24-.3-.49-.3-.71,0-.43-1.67-.84-1.9-.63-.5.46-1.75.81-2.5,1.16-.42.19-.32.59-.4,1.04-.12,0-.4.21-.4.33,0,.25.19.41.11.63-.04.12,0,.19-.09.28-.07.06-.31,0-.31.17,0,.25,0,.47-.06.72,0,.05-.02.3-.02.16,0-.2-.24-.42-.33-.58-.02-.03-.02-.13-.03-.16-.05-.14-.21-.3-.24-.39-.05-.19-.19-.33-.19-.49,0-.02.14-.15.17-.19.09-.13-.07-.19,0-.33-.18,0-.05-.57-.1-.66-.16-.3.1-.44.23-.55.1-.09,0-.52,0-.64,0-.44-.44-.12-.09-.44.11-.1-.19-.87-.27-.91l-.07.11-.06.1c-.1.09.03.18.03.03,0-.03.02-.08.03-.13.03-.13.07-.3-.1-.3-.7,0-.5-.34-.9-.52-.04-.02-.11.15-.17.32-.05.14-.1.28-.1.3,0,.06.03.46.03.22,0-.2.04-.37.06-.52.03-.21.03-.38-.16-.57-.27-.25-1.17-.06-1.61-.06-.01,0-.02,0-.03.02-.04.08-.05.33-.04.53,0,.13,0,.24,0,.28,0,.16-.34.71-.44.71s.13-.4.13-.4c.12-.11.23-.34.3-.59.04-.16.07-.33.07-.46,0-.03-.01-.05-.03-.07-.09-.1-.41-.05-.58-.05-.3,0-.44.25-.44.25-.07-.09-.5.31-.5.31-.13.28-.37.28-.3.71,0,.18.07.46-.2.34-.13-.06-.64,0-.7.06-.03.03-.13.22-.13.22q-.07-.06-.17-.06h-.23c-.2,0-.4.16-.47.16-.2,0-.3.56-.4.53-.07-.03-.44.09-.44.09-.07.06-.17.31-.23.37-.17.16.17.43.2.46.2.19.47.03.67.03s-.1.03-.1.09c0,.09.2.22.3.22.07,0,.17.16.33.16.03,0,.2-.12.44-.12.07,0,.2,0,.23.03.1.09.17,0,.37,0,.17,0,.4.06.5.16.13.12.4-.34.54-.22.4.37.3-.03.44-.15.13-.12.27.03.44.12.12,0,.38,0,.58-.01.23,0,.39-.02.19-.02-.08,0-.14,0-.19.02-.42.09.09.53.09.66,0,.34-.3.12-.3-.25,0-.09-.3-.25-.37-.31-.34-.31-.7.71-.97.22-.1-.19-.5.15-.57.15-.33.09-.17.25-.17.49,0,.12,0,.31.03.4.1.22.37.43.17.62-.1.09-.3.06-.3.31v1.3c0,.74.03.46-.5.46h-.37s-.17-.71-.4-.49c-.1.09-.17.74-.17.43,0-.09.1-.31.07-.37-.1-.22-.57-.37-.77-.37s-.33-.03-.33.16c0,.22-.34.06-.44.16-.12.11-.22.23-.27.38-.04.1-.06.21-.06.33,0,.06.02.11.05.14.04.04.09.06.14.06.07,0,.13-.01.08-.01-.03,0-.06,0-.08.01-.21.08-.16.45-.16.17,0-.07,0-.15.01-.23.01-.16.03-.34.01-.47-.01-.13-.06-.22-.16-.22-.2,0-.4.09-.57.09-.3,0-.3.06-.3.34,0,.06-.2.71.03.71.2,0,.3.71.24.77-.13.12-.17.56-.17.84v.04s0,.02,0,.02v.02h0s0,.02,0,.02h0v.02h0s0,.02,0,.02v.02s0,0,0,0h0v.03s0,.02,0,.02c0,.02,0,.04.01.06h0v.02h0s0,.03,0,.03h0s0,.01,0,.01h0s0,.01,0,.01h0s0,.01,0,.01h0s0,.01,0,.01h0s0,.01,0,.01h0s0,.01,0,.01h0s0,.01,0,.01h0s0,.01,0,.01h0s0,.01,0,.01h0s0,.01,0,.01h0s0,.03,0,.03h0s0,.02,0,.02h0s0,.02,0,.02h0s0,.01,0,.01h0s0,.02,0,.02h0s0,.01,0,.01h0s0,.01,0,.01h0s0,.01,0,.01h0s0,.01,0,.01h0s0,.01,0,.01h0s0,.01,0,.01h0s0,.01,0,.01h0s0,.01,0,.01h0s0,.01,0,.01h0s0,.01,0,.01h0s0,.01,0,.01h0s0,.02,0,.02h0s0,.02,0,.02h0s0,.02,0,.02h0s0,.01,0,.01h0s0,.02,0,.02h0s0,.02,0,.02h0s0,.02,0,.02v.02s.01,0,.01,0l.03.06h0s.03.07.03.07h0s-1.31,0-1.31,0Zm-13.27-8.92c1.23-1.55,2.65-3.17,4.53-4.62,0,2.56.32,5.34.32,7.9-1.89-.62-3.78-1.86-4.85-3.28Zm5.6-14.53c-6.88,1.44-7.58,6.11-6.89,11.18,3.23-3.61,6.12-5.43,10.02-7.05-.06-2-1.57-3.38-3.14-4.13Zm45.57,14.68c4.19-4.81,2.38-13.23-5.4-14.86-2.19.92-3.07,2.7-3.07,4.48,0,2.05,1.14,4.15,4.08,4.87v8.59l.02.05c1.89-.62,3.3-1.71,4.37-3.13Z"/>
      <g class="cls-53">
        <path class="cls-5" d="m73.29,74.59c.49-.01,1.24.19,1.53.8-.25.49-.87.81-1.54.79-.59-.02-1.19-.32-1.4-.79.21-.43.73-.78,1.41-.8Zm15.04-4.56c0,.13,0,.27,0,.4,0,1.44-.27,2.82-.77,4.11h0,0s.03-.09.03-.09h0s.01-.05.01-.05l.03-.09h0s.02-.06.02-.06l.02-.07h0s0,0,0,0l.03-.1v-.02s.01-.01.01-.01l.02-.07.02-.07.02-.07v-.03s.01-.01.01-.01l.03-.1v-.02s0-.02,0-.02l.03-.11h0s.03-.11.03-.11v-.05s.03-.09.03-.09h0s0-.04,0-.04l.02-.09v-.03s.03-.11.03-.11h0s.03-.13.03-.13c.04-.2.09-.4.12-.61v-.06s.02-.08.02-.08v-.03s.02-.11.02-.11h0s0-.03,0-.03v-.08s.02-.03.02-.03c.01-.08.02-.15.03-.23h0s0-.01,0-.01c0-.08.02-.16.03-.24v-.02s.01-.12.01-.12h0s0-.12,0-.12h0s0-.03,0-.03c0-.07.01-.15.02-.23h0v-.03c0-.08,0-.16.01-.23h0c0-.17.01-.33.01-.5h0s0-.11,0-.11Zm-25.84,4.51c-.5-1.28-.77-2.67-.77-4.11,0-6.77,5.98-12.29,13.31-12.29,5.85,0,10.84,3.52,12.62,8.38-.01,0-.02,0-.03,0h0s-.02,0-.03,0h0s-.04.01-.07.02h0s0,0,0,0h0s-.01,0-.01,0h-.02s0,0,0,0h-.02s-.02.02-.02.02h0s-.02.01-.02.01h-.02s0,.01,0,.01h0s-.02.01-.02.01h0s-.02.01-.02.01h0s-.02.01-.02.01c-.02.01-.04.03-.05.04h0s0,0,0,0h-.01s0,.02,0,.02h-.01s0,.02,0,.02h-.01s-.02.03-.02.03h0s-.01.02-.01.02c-.05.04-.1.09-.14.14h0s0,.02,0,.02c-.02.02-.03.04-.05.06h-.01s0,.02,0,.02c-.02.03-.04.05-.06.08h0s-.01.02-.01.02v.02s-.01,0-.01,0h0s0,.02,0,.02v.02s-.01,0-.01,0h0s0,.02,0,.02h0s0,.02,0,.02h0s0,.02,0,.02h0s0,.02,0,.02h0s0,.02,0,.02h0s0,.02,0,.02h0s0,.02,0,.02h0s0,.02,0,.02h0s0,.02,0,.02h0s0,.02,0,.02h0s0,.02,0,.02h0s0,.02,0,.02h0s0,.02,0,.02v.02s0,0,0,0v.02s0,.02,0,.02v.02s0,.01,0,.01c0,.15-.03-.25-.03-.31,0-.27-.08-.44-.23-.6-.84-.89-1.85-.03-2.14.35-.1.13-.11.21.01.12v-.12s-.03-.16-.03-.16c-.01-.16-.3-.55-.48-.55-.2,0-.3.24-.3,0,0-.25-.04-.24-.23-.35-.7-.11-1.7.18-1.85.29-.02.02-.03.03,0,.04.05.02.04,0,0-.04-.1-.1-.42-.33-.53-.39-.34-.18-.9,0-.96.2-.01.04-.38,1.22-.38.68,0-.24-.29-.49-.29-.71,0-.43-1.67-.84-1.9-.63-.5.46-1.75.81-2.5,1.16-.42.19-.32.59-.4,1.04-.12,0-.4.21-.4.33,0,.25.19.41.11.63-.04.12,0,.19-.09.28-.07.06-.31,0-.31.17,0,.25,0,.47-.06.72,0,.05-.02.3-.02.16,0-.2-.24-.42-.33-.58-.02-.03-.02-.13-.03-.16-.05-.14-.21-.3-.24-.39-.05-.19-.19-.33-.19-.49,0-.02.14-.15.17-.19.09-.13-.07-.19,0-.33-.18,0-.05-.57-.1-.66-.16-.3.1-.44.23-.55.1-.09,0-.52,0-.64,0-.44-.44-.12-.09-.44.11-.1-.19-.87-.27-.91l-.07.11-.06.1c-.1.09.03.19.03.03,0-.03.01-.08.03-.13.03-.13.07-.3-.1-.3-.7,0-.5-.34-.9-.52-.04-.02-.11.15-.17.32-.05.14-.1.28-.1.3,0,.06.03.46.03.22,0-.2.04-.37.06-.52.03-.21.04-.38-.16-.57-.27-.25-1.17-.06-1.61-.06-.01,0-.02,0-.03.02-.04.08-.05.33-.04.53,0,.13,0,.24,0,.28,0,.16-.34.71-.44.71s.13-.4.13-.4c.12-.11.23-.34.3-.59.04-.16.07-.33.07-.46,0-.03-.01-.05-.03-.07-.09-.1-.41-.05-.58-.05-.3,0-.44.25-.44.25-.07-.09-.5.31-.5.31-.13.28-.37.28-.3.71,0,.19.07.47-.2.34-.13-.06-.64,0-.7.06-.03.03-.13.22-.13.22q-.07-.06-.17-.06h-.23c-.2,0-.4.16-.47.16-.2,0-.3.56-.4.53-.07-.03-.44.09-.44.09-.07.06-.17.31-.23.37-.17.16.17.43.2.46.2.19.47.03.67.03s-.1.03-.1.09c0,.09.2.22.3.22.07,0,.17.16.33.16.03,0,.2-.12.44-.12.07,0,.2,0,.23.03.1.09.17,0,.37,0,.17,0,.4.06.5.16.13.12.4-.34.54-.22.4.37.3-.03.44-.15.13-.12.27.03.44.12.12,0,.38,0,.58-.01.23,0,.39-.02.19-.02-.08,0-.14,0-.19.02-.42.09.09.53.09.66,0,.34-.3.12-.3-.25,0-.09-.3-.25-.37-.31-.34-.31-.7.71-.97.22-.1-.19-.5.15-.57.15-.33.09-.17.25-.17.49,0,.12,0,.31.03.4.1.22.37.43.17.62-.1.09-.3.06-.3.31v1.3c0,.74.03.46-.5.46h-.37s-.17-.71-.4-.49c-.1.09-.17.74-.17.43,0-.09.1-.31.07-.37-.1-.22-.57-.37-.77-.37s-.33-.03-.33.16c0,.22-.34.06-.44.16-.12.11-.22.23-.27.38-.04.1-.06.21-.06.33,0,.06.02.11.05.14.04.04.09.06.14.06.07,0,.13-.01.08-.01-.03,0-.06,0-.08.01-.21.08-.16.45-.16.17,0-.07,0-.15.01-.23.01-.16.03-.34.01-.47-.01-.13-.06-.22-.16-.22-.2,0-.4.09-.57.09-.3,0-.3.06-.3.34,0,.06-.2.71.03.71.2,0,.3.71.24.77-.13.12-.17.56-.17.84v.04s0,.02,0,.02v.02h0s0,.02,0,.02h0v.02h0s0,.02,0,.02v.02s0,0,0,0h0v.03s0,.02,0,.02c0,.02,0,.04.01.06h0v.02h0s0,.03,0,.03h0s0,.01,0,.01h0s0,.01,0,.01h0s0,.01,0,.01h0s0,.01,0,.01h0s0,.01,0,.01h0s0,.01,0,.01h0s0,.01,0,.01h0s0,.01,0,.01h0s0,.01,0,.01h0s0,.01,0,.01h0s0,.03,0,.03h0s0,.02,0,.02h0s0,.02,0,.02h0s0,.01,0,.01h0s0,.02,0,.02h0s0,.01,0,.01h0s0,.01,0,.01h0s0,.01,0,.01h0s0,.01,0,.01h0s0,.01,0,.01h0s0,.01,0,.01h0s0,.01,0,.01h0s0,.01,0,.01h0s0,.01,0,.01h0s0,.01,0,.01h0s0,.01,0,.01h0s0,.02,0,.02h0s0,.02,0,.02h0s0,.02,0,.02h0s0,.01,0,.01h0s0,.02,0,.02h0s0,.02,0,.02h0s0,.02,0,.02v.02s.01,0,.01,0l.03.06h0s.03.07.03.07h0s-1.31,0-1.31,0Zm-13.27-8.92c1.23-1.55,2.65-3.17,4.53-4.62,0,2.56.32,5.34.32,7.9-1.89-.62-3.78-1.86-4.85-3.28Zm5.6-14.53c-6.88,1.44-7.58,6.11-6.89,11.18,3.23-3.61,6.12-5.43,10.02-7.05-.06-2-1.57-3.38-3.14-4.13Zm45.57,14.68c4.19-4.81,2.38-13.23-5.4-14.86-2.19.92-3.07,2.7-3.07,4.48,0,2.05,1.14,4.15,4.08,4.87v8.59l.02.05c1.89-.62,3.3-1.71,4.37-3.13Z"/>
      </g>
      <g class="cls-2">
        <path class="cls-22" d="m76.64,35.32c-.29,2.32,2.36,3.91,5.61,5.61"/>
      </g>
      <g class="cls-41">
        <path class="cls-22" d="m73.91,35.24c.29,2.32-2.38,3.93-5.64,5.64"/>
      </g>
      <path class="cls-28" d="m45.79,98.1l-.65.8,1.76,1.11,1.56-1.91h-2.67m3.69-4.52l-1.95,2.38h2.67l-.27.34,2.22-2.72h-2.67Zm3.69-4.52l-1.95,2.38h2.67l1.95-2.38h-2.67Zm4.53-5.55l-3.8,4.65,1.03-1.24h2.65l1.88-2.31-1.76-1.11Zm46.63,14.58l.65.8-1.76,1.11-1.56-1.91h2.67Zm-3.69-4.52l1.95,2.38h-2.67l.28.34-2.23-2.73h2.67Zm-3.69-4.52l1.95,2.38h-2.67l-1.95-2.38h2.67Zm-4.53-5.55l3.8,4.66-1.03-1.25h-2.65l-1.88-2.31,1.76-1.11Zm-.57-41.93l-.55.64,1.74.95,1.32-1.54-2.51-.05Zm3.58-4.18l-1.89,2.2,2.51.05-.26.31,2.15-2.51-2.51-.05Zm3.58-4.18l-1.89,2.2,2.51.05,1.89-2.2-2.51-.05Zm4.4-5.13l-3.69,4.31,1-1.15,2.5.05,1.83-2.13-.11-.07-2.33-.05.82-.95h0Zm-45.13,13.48l.56.66-1.76.95-1.33-1.56,2.53-.05Zm-3.58-4.18l1.89,2.2-2.52.05-1.89-2.2,2.52-.05Zm-3.58-4.18l1.88,2.2-2.51.05-1.89-2.2,2.52-.05Zm-3.53-4.12l1.82,2.15-2.5.05-1.83-2.13h0s2.5-.07,2.5-.07Zm-.87-1.01h0s-.4.26-.4.26l.4-.26Z"/>
      <path class="cls-29" d="m44.28,28.46l2.06-1.41c.28-.19.68-.14.88.12.21.26.15.62-.13.81l-2.06,1.41c-.28.19-.68.14-.88-.12-.21-.26-.15-.62.13-.81"/>
      <path class="cls-29" d="m105.98,28.34l-1.99-1.36c-.27-.18-.65-.13-.85.12-.2.25-.21.7.06.88l1.99,1.36c.27.18.72.04.92-.21.2-.25.14-.6-.13-.79"/>
      <path class="cls-29" d="m47.61,29.11l-2.58.07,1.7-1.09.88,1.02Zm3.5,4.12l-2.58.05-1.67-1.97,2.53-.05,1.72,1.97Zm3.6,4.18l-2.58.06-1.67-1.97,2.53-.05,1.72,1.97Zm3.6,4.18l-2.58.05-1.67-1.97,2.53-.05,1.72,1.97Zm44.28-12.53l2.48.05-1.65-1.02-.83.96Zm-3.6,4.18l2.58.05,1.67-1.97-2.53-.05-1.72,1.97Zm-3.6,4.18l2.58.06,1.67-1.97-2.53-.05-1.72,1.97Zm-3.59,4.18l2.58.05,1.67-1.97-2.53-.05-1.72,1.97Zm12.58,56.51h-2.74l-1.72-2.13h2.69l1.77,2.13Zm-3.71-4.52h-2.74l-1.72-2.13h2.69l1.77,2.13Zm-3.71-4.52h-2.74l-1.72-2.13h2.69l1.77,2.13Zm-43.81,0h2.74l1.72-2.13h-2.69l-1.77,2.13Zm-3.71,4.52h2.74l1.72-2.13h-2.69l-1.77,2.13Zm-3.71,4.52h2.74l1.72-2.13h-2.69l-1.77,2.13Z"/>
      <path class="cls-23" d="m97.48,64.2l.34.65-.27.57.66-.02.5.54.07-.66.58-.23-.62-.39-.14-.69-.45.42-.67-.19m.46-5.28l.6,1.15-.48,1.01,1.17-.04.9.97.12-1.17,1.04-.41-1.1-.69-.26-1.22-.8.75-1.19-.34Zm-3.64-5.82l.52.99-.41.87,1-.03.77.83.1-1.01.89-.35-.94-.59-.22-1.05-.68.64-1.02-.29Zm-43.97,1.94l.75.7,1.12-.32-.57,1.08.45.95-1.09-.03-.84.91-.11-1.1-.97-.39,1.03-.64.24-1.14Zm1.69,8.32l.56.34.61-.24-.16.63.43.49-.66.05-.35.55-.25-.59-.64-.15.51-.42-.05-.64Zm-.55,2.2l.54.32.58-.23-.15.6.41.47-.63.05-.33.52-.24-.57-.61-.14.48-.4-.05-.61Z"/>
      <g class="cls-32">
        <path class="cls-11" d="m55.11,50.91c-6.88,1.44-7.86,6.3-7.17,11.36,3.23-3.61,6.2-5.62,10.36-7.18"/>
      </g>
      <g class="cls-50">
        <path class="cls-10" d="m54.08,68.9c-1.89-.62-3.7-1.97-4.77-3.39,1.21-1.56,3.03-3.38,4.77-4.84"/>
      </g>
      <g class="cls-34">
        <path class="cls-12" d="m75.04,58.14c7.33,0,13.31,5.52,13.31,12.29s-5.98,12.29-13.31,12.29-13.31-5.52-13.31-12.29,5.98-12.29,13.31-12.29Zm0,36.18l-20.96-13.08v-20.98c2.94-.72,4.08-2.82,4.08-4.87s-1.14-4.07-4.08-4.82v-5.77l8.14-4.38c3.78,1.79,9.28,3.22,12.82,3.22s9.2-1.43,12.97-3.22l7.99,4.38v5.77c-2.94.75-4.08,2.78-4.08,4.82s1.14,4.15,4.08,4.87v20.98l-20.96,13.08Z"/>
      </g>
      <path class="cls-29" d="m75.04,58.14c7.33,0,13.31,5.52,13.31,12.29s-5.98,12.29-13.31,12.29-13.31-5.52-13.31-12.29,5.98-12.29,13.31-12.29m0,36.18l-20.96-13.08v-20.98c2.94-.72,4.08-2.82,4.08-4.87s-1.14-4.07-4.08-4.82v-5.77l8.14-4.38c3.78,1.79,9.28,3.22,12.82,3.22s9.2-1.43,12.97-3.22l7.99,4.38v5.77c-2.94.75-4.08,2.78-4.08,4.82s1.14,4.15,4.08,4.87v20.98l-20.96,13.08Z"/>
      <path class="cls-27" d="m82.42,44.59l.4-1.12,1.06.05-.88,1.11-.58-.04m.59,2.32l-.44-1.09-.43,1.09h.87Zm1.18,1.16h-.7l-.28-.67h-1.27l-.26.67h-.68l1.24-2.93h.68l1.27,2.93Zm-6.06,0v-2.93h.62l1.3,1.96v-2.18h.59v3.15h-.64l-1.28-1.91v1.91h-.6Zm-1.52-1.16l-.44-1.09-.43,1.09h.86Zm1.18,1.16h-.7l-.28-.67h-1.27l-.26.67h-.68l1.23-2.93h.68l1.27,2.93Zm-5.42-1.69h.47c.31,0,.5-.01.58-.03.07-.02.14-.07.18-.12.04-.06.07-.13.07-.22,0-.1-.03-.18-.09-.24-.06-.06-.14-.1-.24-.12-.05,0-.21,0-.47,0h-.5v.74Zm-.64,1.69v-2.93h1.35c.34,0,.59.03.74.08.15.05.28.15.37.28.09.13.14.29.14.46,0,.22-.07.4-.21.54-.14.14-.35.23-.63.27.14.08.25.16.34.25.09.09.21.25.37.48l.39.57h-.77l-.46-.64c-.17-.23-.28-.37-.34-.43-.06-.06-.12-.1-.19-.12-.07-.02-.18-.03-.32-.03h-.13v1.22h-.64Zm-1.52-1.16l-.44-1.09-.43,1.09h.86Zm1.18,1.16h-.7l-.28-.67h-1.27l-.26.67h-.68l1.24-2.93h.68l1.27,2.93Zm-4.85-2.43v.83h.35c.25,0,.42-.02.51-.05.08-.03.15-.08.2-.14.05-.07.07-.14.07-.23,0-.11-.03-.19-.1-.27-.07-.07-.16-.11-.26-.13-.08-.01-.23-.02-.46-.02h-.31Zm-.64,2.43v-2.93h1.03c.39,0,.64.02.76.04.18.04.33.14.46.29.12.15.18.34.18.57,0,.18-.04.33-.11.45-.07.12-.16.22-.27.29-.11.07-.22.12-.33.14-.15.03-.37.04-.67.04h-.42v1.11h-.64Z"/>
      <path class="cls-24" d="m81.02,71.13c-.17-.18-.51-.04-.51-.57,0-.25-.8,0-.8-.34,0-.22-.5.4-.5-.28,0-.06.1-.43.1-.53,0-.4.34-.25.54-.43.1-.09.3,0,.3-.22s-.2-.03-.2-.31c-.07-.4-.07-.28.13-.46.03-.03.03-.15.1-.18.17-.06.67-.19.8-.31.03-.03.27.09.33.03s.37-.22.37-.22c0,0,.3-.09.4-.12.07,0,.47-.25.5-.18,0,0-.1.52-.1.62.07.16.53.25.64.34.23.22-.03.15-.03.49,0,.02.2,0,.36.02.18-.14.48-.46.54-.46,0,0,.64.31.64,0,0-.06.23.28.27.34.27.49.57-.16.57.83,0,.09.27.25.23.31-.1.19-.17.28.27.28.74,0,.27.31.27.68s.03.65.03.99c-.13.06-.4.22-.47.25s-.67,1.45-.97.9c-.07-.16,0-.22-.17-.28s-.4-.56-.07-.56c.27,0,.33-.37.33-.49v-.31c0-.22.23.03-.07.31,0,0-.3.46-.3.49-.27.53-.5-.15-.5-.46,0-.37.3-.53.54-.74.1-.09-.2.12-.23.16-.23.22-.6-.4-.47-.46.2-.12-.13-.09-.27-.16-.03,0,0-.25,0,.09,0,.28.23.31.37.43.23.22.13,1.17-.3.77-.37-.34.27.31.27.43,0,.81.2,1.86.2,2.72,0-.9-.23-1.45-.23-2.35,0-.65-.9-.09-1.17-.09-.29,0-.14-.36.04-.69-.03-.01-.05-.03-.08-.06-.34-.31-.47.22-.77.22-.97,0,.33-1.24.43-1.33.05-.05-.6.79-1.02.87-.13.02-.29.17-.35,0m.09.33c-.15-.32.49-2.43,1-2.2.47-.43-.54.28-.57.31-.1.09-.3-.31-.3-.4,0-.06.17-.16.17-.22,0-.09-.24-.53-.24,3.09,0,.46-.07.9-.07,1.36,0,.19.17.49.17.71,0,.28-.42.29-.27.43.4-.59,0-.68,0-1.18,0-.56.1-1.48.1-1.92Zm-17.31,3.09c-.17-.4-.3-.56-.3-.96,0-.28.03-.71.17-.84.07-.06-.03-.77-.24-.77-.23,0-.03-.65-.03-.71,0-.28,0-.34.3-.34.17,0,.37-.09.57-.09.27,0,.13.62.13.93s-.07-.18.23-.18c.1,0-.27.09-.27-.19,0-.31.13-.53.33-.71.1-.09.44.06.44-.16,0-.19.13-.16.33-.16s.67.16.77.37c.03.06-.07.28-.07.37,0,.31.07-.34.17-.43.23-.22.4.49.4.49h.37c.54,0,.5.28.5-.46v-1.3c0-.25.2-.22.3-.31.2-.19-.07-.4-.17-.62-.03-.09-.03-.28-.03-.4,0-.25-.17-.4.17-.49.07,0,.47-.34.57-.15.27.49.64-.53.97-.22.07.06.37.22.37.31,0,.37.3.59.3.25,0-.16-.64-.68.1-.68.37,0-.5.03-.77.03-.17-.09-.3-.25-.44-.12-.13.12-.03.52-.44.15-.13-.12-.4.34-.54.22-.1-.09-.33-.16-.5-.16-.2,0-.27.09-.37,0-.03-.03-.17-.03-.23-.03-.23,0-.4.12-.44.12-.17,0-.27-.16-.33-.16-.1,0-.3-.12-.3-.22,0-.06.3-.09.1-.09s-.47.16-.67-.03c-.03-.03-.37-.31-.2-.46.07-.06.17-.31.23-.37,0,0,.37-.12.44-.09.1.03.2-.53.4-.53.07,0,.27-.16.47-.16h.23q.1,0,.17.06s.1-.18.13-.22c.07-.06.57-.12.7-.06.27.12.2-.16.2-.34-.07-.43.17-.43.3-.71,0,0,.43-.4.5-.31,0,0,.13-.25.44-.25.2,0,.6-.06.6.12,0,.34-.17.87-.37,1.05,0,0-.23.4-.13.4s.44-.56.44-.71c0-.12-.03-.83.07-.83.43,0,1.34-.19,1.61.06.33.31.1.59.1,1.08,0,.25-.03-.16-.03-.22,0-.03.2-.65.27-.62.4.18.2.52.9.52.23,0,.07.34.07.43,0,.16-.13.06-.03-.03l.13-.22c.07.05.38.81.27.91-.35.32.09,0,.09.44,0,.12.09.55,0,.64-.13.12-.39.26-.23.55.05.09-.08.66.1.66-.08.14.08.2,0,.33-.02.04-.17.17-.17.19,0,.16.14.3.19.49.03.09.19.25.24.39,0,.03,0,.13.03.16.08.16.33.38.33.58,0,.14,0-.12.02-.16.05-.25.06-.47.06-.72,0-.17.24-.11.31-.17.09-.09.05-.16.09-.28.08-.22-.11-.38-.11-.63,0-.12.28-.33.4-.33.08-.46-.01-.85.4-1.04.75-.35,2-.7,2.5-1.16.23-.21,1.9.2,1.9.63,0,.22.3.47.3.71,0,.53.37-.65.38-.68.06-.2.62-.38.96-.2.16.08.7.5.52.44-.17-.06,1.05-.46,1.86-.34.19.11.23.1.23.35s.09,0,.3,0c.19,0,.47.39.48.55,0,.09.02.19.03.29-.46.32.98-1.67,2.12-.47.15.16.23.32.23.6,0,.06.03.46.03.31,0-.31.59-.96.93-.96,1.01,2.64.8,5.33-.1,8.05h-7.15s-2.28-1.07-2.28-1.07c-.03-.07-.05-.14-.07-.22-.1-.36.09-.64.5-.86-.25-.44-.57-.71-.87-1.07-.47.36-.9.36-1.32.07-.38-.26-.43-.67-.25-1.11-.33-.18-.82-.32-1.21-.42-.16.65-.49.86-1.09.8-.49-.05-.81-.34-.82-.95-.45.04-.96.13-1.35.23.13.59-.03.91-.47,1.15-.49.28-1.03-.06-1.28-.34-.34.2-.62.46-.86.7.43.34.59.85.35,1.23-.26.4-.89.58-1.36.25-.11.3-.24.72-.3,1.06,0,.03,0,.03,0,.09,0,.15,0,.29,0,.43h-3.94Z"/>
      <g class="cls-3">
        <path class="cls-7" d="m81.02,71.13c-.17-.18-.51-.04-.51-.57,0-.25-.8,0-.8-.34,0-.22-.5.4-.5-.28,0-.06.1-.43.1-.52,0-.4.34-.25.54-.43.1-.09.3,0,.3-.22s-.2-.03-.2-.31c-.07-.4-.07-.28.13-.46.03-.03.03-.15.1-.18.17-.06.67-.19.8-.31.03-.03.27.09.33.03.07-.06.37-.22.37-.22,0,0,.3-.09.4-.12.07,0,.47-.25.5-.18,0,0-.1.53-.1.62.07.16.54.25.64.34.23.22-.03.15-.03.49,0,.02.2,0,.36.02.18-.14.48-.46.54-.46,0,0,.64.31.64,0,0-.06.23.28.27.34.27.49.57-.16.57.83,0,.09.27.25.24.31-.1.19-.17.28.27.28.74,0,.27.31.27.68s.03.65.03.99c-.13.06-.4.22-.47.25s-.67,1.45-.97.9c-.07-.16,0-.22-.17-.28s-.4-.56-.07-.56c.27,0,.33-.37.33-.49v-.31c0-.22.23.03-.07.31,0,0-.3.46-.3.49-.27.53-.5-.15-.5-.46,0-.37.3-.52.54-.74.1-.09-.2.12-.23.16-.23.22-.6-.4-.47-.46.2-.12-.13-.09-.27-.16-.03,0,0-.25,0,.09,0,.28.23.31.37.43.23.22.13,1.17-.3.77-.37-.34.27.31.27.43,0,.81.2,1.86.2,2.72,0-.9-.23-1.45-.23-2.35,0-.65-.9-.09-1.17-.09-.29,0-.14-.36.04-.69-.02-.01-.05-.03-.08-.06-.34-.31-.47.22-.77.22-.97,0,.33-1.24.43-1.33.05-.05-.6.79-1.02.87-.13.02-.29.17-.35,0Zm.09.33c-.15-.32.49-2.43,1-2.2.47-.43-.54.28-.57.31-.1.09-.3-.31-.3-.4,0-.06.17-.16.17-.22,0-.09-.23-.53-.23,3.09,0,.46-.07.9-.07,1.36,0,.19.17.49.17.71,0,.28-.42.29-.27.43.4-.59,0-.68,0-1.18,0-.56.1-1.48.1-1.92Zm-17.31,3.09c-.17-.4-.3-.56-.3-.96,0-.28.03-.71.17-.84.07-.06-.03-.77-.23-.77-.24,0-.03-.65-.03-.71,0-.28,0-.34.3-.34.17,0,.37-.09.57-.09.27,0,.13.62.13.93s-.07-.18.23-.18c.1,0-.27.09-.27-.19,0-.31.13-.53.33-.71.1-.09.44.06.44-.16,0-.19.13-.16.33-.16s.67.16.77.37c.03.06-.07.28-.07.37,0,.31.07-.34.17-.43.24-.22.4.49.4.49h.37c.53,0,.5.28.5-.46v-1.3c0-.25.2-.22.3-.31.2-.19-.07-.4-.17-.62-.03-.09-.03-.28-.03-.4,0-.25-.17-.4.17-.49.07,0,.47-.34.57-.15.27.49.64-.53.97-.22.07.06.37.22.37.31,0,.37.3.59.3.25,0-.16-.64-.68.1-.68.37,0-.5.03-.77.03-.17-.09-.3-.25-.44-.12-.13.12-.03.53-.44.15-.13-.12-.4.34-.54.22-.1-.09-.33-.16-.5-.16-.2,0-.27.09-.37,0-.03-.03-.17-.03-.23-.03-.23,0-.4.12-.44.12-.17,0-.27-.16-.33-.16-.1,0-.3-.12-.3-.22,0-.06.3-.09.1-.09s-.47.16-.67-.03c-.03-.03-.37-.31-.2-.46.07-.06.17-.31.23-.37,0,0,.37-.12.44-.09.1.03.2-.53.4-.53.07,0,.27-.16.47-.16h.23q.1,0,.17.06s.1-.18.13-.22c.07-.06.57-.12.7-.06.27.12.2-.16.2-.34-.07-.43.17-.43.3-.71,0,0,.43-.4.5-.31,0,0,.13-.25.44-.25.2,0,.6-.06.6.12,0,.34-.17.87-.37,1.05,0,0-.23.4-.13.4s.44-.56.44-.71c0-.12-.03-.83.07-.83.43,0,1.34-.18,1.61.06.33.31.1.59.1,1.08,0,.25-.03-.16-.03-.22,0-.03.2-.65.27-.62.4.18.2.52.9.52.23,0,.07.34.07.43,0,.16-.13.06-.03-.03l.13-.22c.07.05.38.81.27.91-.35.32.09,0,.09.44,0,.12.09.55,0,.64-.13.12-.39.26-.23.55.05.09-.08.66.1.66-.08.14.08.2,0,.33-.02.04-.17.17-.17.19,0,.16.14.3.19.49.03.09.19.25.24.39,0,.03,0,.13.03.16.08.16.33.38.33.58,0,.14,0-.12.02-.16.05-.25.06-.47.06-.72,0-.17.24-.11.31-.17.09-.09.05-.16.09-.28.08-.22-.11-.38-.11-.63,0-.12.28-.33.4-.33.08-.46-.01-.85.4-1.04.75-.35,2-.7,2.5-1.16.23-.21,1.9.2,1.9.63,0,.22.3.47.3.71,0,.53.37-.65.38-.68.06-.2.62-.38.96-.2.16.08.7.5.52.44-.17-.06,1.05-.46,1.86-.34.19.11.23.1.23.35s.09,0,.3,0c.19,0,.47.39.48.55,0,.09.02.19.03.29-.46.32.98-1.67,2.12-.47.15.16.23.32.23.6,0,.06.03.46.03.31,0-.31.59-.96.93-.96,1.01,2.64.8,5.33-.1,8.05h-7.15s-2.28-1.07-2.28-1.07c-.03-.07-.05-.14-.07-.22-.1-.36.09-.64.5-.86-.25-.44-.57-.71-.87-1.07-.47.36-.9.36-1.32.07-.38-.26-.43-.67-.25-1.11-.33-.18-.82-.32-1.21-.42-.16.65-.49.86-1.09.8-.49-.05-.81-.34-.82-.95-.45.04-.96.13-1.35.23.13.59-.03.91-.47,1.15-.49.28-1.03-.06-1.28-.34-.34.2-.62.46-.86.7.43.34.59.85.35,1.23-.26.4-.89.58-1.36.25-.11.3-.24.72-.3,1.06,0,.03,0,.03,0,.09,0,.15,0,.29,0,.43h-3.94Z"/>
      </g>
      <path class="cls-27" d="m65.95,72.64c0,.15-.03.34-.03.49v.12s-.23.03-.23.03c0,0-.07-.06-.1-.06-.07-.03-.3.25-.4.25-.07,0-.13.12-.13.18v.16c0,.12,0,.06,0-.03v-.18l.03-.06c0-.06.07-.12.07-.16.1-.12.2-.19.2-.37v-.96s0-.34,0-.06v.93s.03.25.1.25h.23s.17-.25.17-.25c0-.06.03-.16.03-.19,0-.06.07-.06.07-.09"/>
      <path class="cls-27" d="m67.52,72.95c.03-.28,0-.49,0-.77v-.09c0-.19-.03.09-.03.09,0,.22-.17.18-.33.25-.1.03-.1,0-.13.09-.07.16-.1.46-.1.68,0,.16.03.31.03.46,0,.06.2.12.27.09.03,0,.07-.09.1-.09s.03-.06.07-.06c.1-.03-.03-.09-.1-.09-.2,0-.27-.22-.27-.34,0-.15-.07-.65.13-.65.1,0,.1.09.2.09.03,0,.03.22.03.25,0,.16.13.06.13.09"/>
      <path class="cls-27" d="m69.2,68.34c0,.25.07.99-.03,1.21l-.1.09c0,.06-.13.19-.13.31,0,.06,0,.16.03.19.13.12.13.22.13.4,0,0,.07.43-.07.25-.17-.25-.2-.46-.2-.77v-.16s.07-.06.07-.06c.03-.03-.03-.22-.03-.22-.07-.03-.17-.19-.17-.19-.3,0-.17.28-.3.4-.07.06-.03.37-.03.46,0,.06-.07-.09-.07-.09-.03-.03-.03-.28-.03-.37,0-.22.13-.37.13-.53,0-.09.03-.12.07-.16,0,0,.13-.12.13-.16,0,0,0-.15,0-.12.03.09.17.43.3.43.23,0,.17-.28.23-.4,0,0,.03-.25.03-.28,0,0,0-.22.03-.25"/>
      <path class="cls-27" d="m70.27,69.36v-.71h-.03l-.03.03h-.03v.03h-.03v.68s.13,0,.13-.03"/>
      <path class="cls-27" d="m76.77,68.4c-.1,0-.23,0-.27-.03h-.13l-.1.06c-.07.03-.07.09-.13.09-.03,0-.07.03-.1-.03v-.12s-.03-.06-.03-.09v-.06l.03-.06.03-.03h.27l.07-.03.03-.03v-.03l.03-.06v-.03l.03-.03v-.12h.03v.06c0,.06.03.12.03.18s.03.12.03.16.03.03.07.03l.03.03.03.03v.06c0,.06,0,.12.03.06"/>
      <path class="cls-27" d="m83.86,66.57c-.03.06-.13.12-.13.22,0,.06-.03.16-.03.19,0,.06.03.18.03.22.03.06.07.09.07.09v.28s-.03.12-.07.12l-.1-.06-.07-.06-.03-.03-.03-.09-.03-.06v-.06l-.03-.06v-.19l-.03-.03v-.31c0-.09.03-.09.03-.09v-.09h.23v.03h.03s.07.03.17,0"/>
      <path class="cls-27" d="m87.08,69.88c0,.53.07,1.95-.23,2.23-.4.37-.37.8-.37,1.48,0,.12.07.87-.03.46-.1-.46-.03-1.02-.13-1.48-.03-.28.23-.46.34-.56.33-.31.17-.56.17-1.05,0-.46.1-.71.27-1.08"/>
      <path class="cls-27" d="m78.64,67.94v.46s-.03,0-.03.06l-.03.06-.07.03s-.07.19-.07.19c0,.03-.03.06-.03.09v.06s.07.06.07.09l.03.03h.07l.03-.06.03-.06v-.06l.03-.03v-.03h.03v-.06l.03-.03v-.03l.03-.03.03-.06h.03v-.06h.03v-.31l-.07-.03h-.07v-.09c0-.06-.03-.09-.1-.12"/>
      <path class="cls-27" d="m70.54,69.88c0,.06,0,.16-.03.16h-.27l-.03.06v.12h.13v-.03h.07v-.03h.07s.07-.06.07-.06c.03-.03.07-.03.1-.03v-.06l.03-.03v-.09s-.03-.03-.13,0"/>
      <path class="cls-27" d="m71.94,64.81v.31s.07.03.07.09c0,.03.03.03.07.03l.03-.03.03-.03s.03.09.03.09c0,0,.03.06.03.09s.07.03.07.03l.03.03s.07-.06.07-.06l.07-.03h.03l.03-.03v-.09h-.03l-.03-.03-.03-.03h-.1v-.03s-.07.03-.07-.06c0-.03,0-.09-.03-.09-.07,0-.03,0-.07-.03l-.03-.03v-.06h-.03s.03-.12-.13-.03"/>
      <path class="cls-27" d="m86.51,67.47c0,.06.03.16.03.22s.03.16.03.22l.03.18v.49s-.07.03-.07.06v.12l.03.03.03-.03.03-.03v-.34h-.03v-.03l-.03-.03v-.77s-.03,0-.07-.09"/>
      <path class="cls-27" d="m68.63,65.28c0,.19.03.4.07.59,0,.06.03.09.03.16,0,.09-.33.18-.37.25l-.17.09c-.1.09-.2.4-.07.53.03.03.03.09.13.09.07,0,.3.09.34.06,0,0,.07-.22,0-.22-.03,0-.34-.03-.34-.03-.03-.03-.07-.09-.07-.19,0-.03,0-.18.03-.18s.07-.03.1-.03c.1,0,.1-.06.13-.06.1,0,.17-.09.2-.16.07-.09.24-.34.24-.46,0-.03-.1-.15-.1-.15-.03-.03-.07-.12-.17-.28"/>
      <path class="cls-27" d="m77.67,67.53c.17.09.13.09.17.19,0,.06.07,0,.07.09v.12l-.07.06-.03.06h-.1v.09s.07.03.07.06.07.03.1.03l.03.03.03.06v.06s.07-.06.07-.06c0-.03.07-.12.07-.16v-.12s-.03-.06-.03-.06h-.03l-.03-.03v-.19h.13s.1-.06.03-.06l-.1-.03-.1-.03-.03-.03h-.03l-.03-.03h-.03s-.03-.09-.13-.06"/>
      <path class="cls-27" d="m79.64,66.77s-.02.08-.02.13c0,.02-.02.02-.02.04s-.04.1-.04.12c0,.04-.02.04-.04.08l-.02.04v.25l.02.04h.04v-.04h.02v-.08h.02v-.02l.02-.02v-.02l.02-.04v-.04s.04-.04.04-.08v-.23s-.04-.06-.04-.13"/>
      <path class="cls-27" d="m83.46,66.62v-.31s0-.04.02-.04h.47v.08s-.02.04-.02.06l-.02.02h-.02v.04l-.02.02v.02h-.02v.04h-.02l-.02.02v.04l-.04.04h-.22v-.02s-.04-.02-.07-.02"/>
      <path class="cls-27" d="m67.05,65.43c-.11.28-.5.34-.5.65,0,.19-.19.34-.3.45-.04.04-.08.13-.12.17-.15.14-.27,0-.27-.14s-.04-.31-.04-.41c0-.41.14.27.14.38,0,0,.03.27.03.15,0,0,.14-.09.15-.1.04-.04.03-.11.1-.14.1-.04.17-.15.21-.24.08-.17.06-.37.21-.51.06-.05.11-.14.21-.17.06-.01.22-.09.21-.09"/>
      <path class="cls-27" d="m73.02,81.55v-1.47c-.52-.07-1.03-.16-1.55-.23,0,.47,0,.94,0,1.41.49.16,1,.26,1.55.28"/>
      <path class="cls-27" d="m69.9,80.56l.16-1.57-.05-.76-1.09.09v1.39c.36.34.6.57.99.84"/>
      <path class="cls-27" d="m67.98,78.42c-.17-.2-.3-.48-.4-.85l-.04-1.95.45,1.09v1.71"/>
      <path class="cls-27" d="m74.6,81.47v-1.51c.52-.07,1.06-.34,1.57-.41,0,.47,0,1,0,1.46-.49.19-.93.35-1.58.46"/>
      <polyline class="cls-27" points="77.33 75.85 79.48 72.3 78.74 71.96 77.33 73.07 76.13 75.17 77.33 75.85"/>
      <polyline class="cls-27" points="75.42 75.92 74.65 75.92 74.65 52.9 75.42 52.9 75.42 75.92"/>
      <path class="cls-27" d="m92.86,72.4l-1.03.21.93.46.1-.66Zm1.18-.77l-.08.54-.63.13-.15.97.57.28-.08.52-2.49-1.29.08-.52,2.78-.63Zm-1.86,4.3l.09-.48c.18.02.32,0,.43-.07.11-.06.18-.17.23-.31.05-.15.05-.28,0-.38-.04-.1-.12-.16-.21-.18-.06-.02-.12-.01-.17,0-.05.02-.11.07-.17.14-.04.05-.12.17-.23.35-.15.24-.29.39-.42.47-.18.11-.38.13-.58.08-.13-.03-.24-.1-.33-.2-.09-.1-.15-.22-.17-.36-.02-.14,0-.31.06-.49.09-.3.23-.5.42-.61.19-.11.4-.14.64-.09l-.13.48c-.14-.02-.25,0-.32.06-.08.05-.14.14-.18.28-.04.14-.05.26,0,.35.02.06.07.1.13.12.06.02.12,0,.18-.03.07-.05.18-.18.31-.39.13-.22.25-.37.34-.47.1-.09.21-.16.34-.19.13-.03.27-.03.44.01.15.04.27.11.38.22.1.11.17.24.19.39.02.15,0,.33-.07.54-.09.3-.24.51-.44.63-.2.12-.45.16-.74.11Zm-.96,1.95l.18-.46c.17.04.32.04.43,0s.21-.14.28-.28c.07-.14.09-.27.07-.37s-.09-.17-.18-.21c-.06-.03-.11-.03-.17-.02-.06.01-.12.05-.19.12-.05.04-.14.15-.29.32-.19.21-.35.35-.49.4-.2.08-.4.08-.59,0-.12-.05-.22-.13-.3-.24-.08-.11-.11-.24-.11-.38,0-.15.05-.3.14-.48.14-.28.31-.46.52-.54.21-.08.42-.08.64,0l-.21.46c-.13-.03-.24-.03-.33,0-.09.04-.16.12-.23.25-.07.13-.09.24-.07.34.01.06.05.11.11.13.06.03.12.02.18,0,.08-.03.2-.15.37-.34s.31-.33.42-.41c.11-.08.24-.13.37-.14.13-.02.28.01.43.08.14.06.25.15.33.27.08.12.12.26.12.42,0,.15-.06.33-.16.52-.14.28-.32.47-.54.56-.22.09-.47.09-.75,0Zm-1.52,1.53c.25.15.48.21.69.18.21-.03.37-.13.49-.29.12-.17.15-.34.09-.52-.05-.18-.21-.35-.47-.51-.26-.15-.48-.22-.68-.19-.2.03-.36.13-.48.3-.12.17-.16.35-.1.53.06.18.21.35.47.5Zm-.29.44c-.23-.14-.4-.28-.51-.44-.08-.12-.14-.24-.17-.38-.03-.14-.04-.26-.01-.39.03-.16.11-.33.22-.5.21-.31.49-.49.82-.55.33-.06.68.02,1.04.24.36.22.58.48.66.78.08.3,0,.61-.21.91-.22.31-.49.49-.82.55-.33.06-.67-.02-1.03-.23Zm-1.37,1.18l.26-.28c.17-.18.27-.3.29-.36.02-.06.03-.12.01-.17-.02-.06-.05-.11-.11-.16-.07-.06-.14-.08-.21-.08s-.14.03-.21.08c-.03.03-.12.12-.26.27l-.27.29.51.41Zm.81,1.31l-2.01-1.61.74-.79c.19-.2.34-.33.46-.39s.25-.08.4-.06c.14.02.27.08.39.17.15.12.24.26.26.42.02.16-.03.33-.16.52.13-.04.25-.06.36-.06.11,0,.29.01.53.05l.6.09-.42.45-.69-.08c-.25-.03-.41-.04-.48-.04-.07,0-.14.02-.19.04-.05.03-.12.08-.2.17l-.07.07.84.67-.35.38Zm-1.8.35l-.29-.32.89-.69.68.75c-.02.14-.08.31-.19.49-.11.19-.25.34-.42.47-.21.17-.44.27-.67.31-.23.04-.46.01-.68-.08-.22-.09-.41-.23-.58-.41-.18-.2-.29-.41-.34-.63-.05-.22-.03-.44.07-.65.07-.16.21-.32.4-.47.25-.2.5-.3.73-.31.23-.01.45.05.64.19l-.34.39c-.11-.07-.23-.1-.36-.09-.13,0-.25.06-.37.15-.18.14-.27.3-.29.49-.01.19.08.38.27.59.2.22.41.35.62.38.21.03.4-.03.57-.16.09-.07.16-.15.22-.25.06-.1.1-.19.12-.29l-.22-.24-.47.37Zm-2.77,1.77l-.8-.63.16.96.64-.33Zm1.38.41l-.51.26-.5-.38-.93.48.1.59-.5.26-.38-2.62.5-.25,2.22,1.67Zm-3.37,1.6l-.79-1.91-.74.26-.16-.39,1.97-.7.16.39-.74.26.79,1.91-.5.18Zm-3.12.94l-.69-2.38.51-.13,1.51,1.33-.46-1.59.48-.12.69,2.38-.52.13-1.49-1.29.45,1.55-.48.12Zm-2.57-.89c.04.28.13.48.29.61.16.13.34.18.55.15.21-.02.38-.11.49-.27.12-.16.16-.38.12-.66-.04-.28-.13-.48-.28-.6-.15-.12-.34-.17-.56-.15-.22.02-.39.12-.5.27-.12.15-.16.37-.12.65Zm-.55.08c-.03-.25-.02-.46.04-.64.04-.13.11-.25.2-.36.09-.11.19-.2.31-.26.16-.08.34-.14.56-.16.39-.04.71.03.98.23.26.2.42.49.47.89.05.39-.02.72-.23.96-.2.25-.5.4-.89.44-.39.04-.72-.03-.98-.23-.26-.19-.42-.49-.47-.88Zm-1.63-.84v.7s.28,0,.28,0c.21,0,.35,0,.43-.03.07-.03.13-.06.17-.12.04-.05.06-.12.07-.19,0-.09-.03-.16-.08-.22-.06-.06-.13-.1-.21-.11-.07-.01-.19-.02-.39-.02h-.26Zm-.58,2.03l.05-2.46h.86c.33.02.54.04.64.06.15.04.28.12.38.25.1.13.15.29.15.48,0,.15-.04.28-.1.38-.06.1-.14.18-.23.24-.09.06-.19.09-.28.11-.13.02-.32.03-.56.03h-.35s-.02.92-.02.92h-.54Zm-3.48-.48l.46-2.42,1.94.32-.08.41-1.41-.23-.1.54,1.32.21-.08.41-1.32-.21-.13.66,1.46.24-.08.41-2-.32Zm-1.35-2.58l-.55,1.55.38.11c.14.04.25.07.32.07.09,0,.17,0,.24-.04.07-.03.14-.09.21-.19.07-.09.14-.23.2-.41s.09-.32.09-.43-.02-.2-.07-.27c-.04-.07-.11-.13-.2-.18-.07-.04-.2-.09-.41-.15l-.23-.07Zm-.37-.55l.93.28c.21.06.37.13.47.19.13.09.24.19.3.33.07.14.11.29.11.45,0,.17-.03.36-.11.58-.07.19-.15.35-.25.47-.12.15-.26.26-.42.33-.12.05-.26.08-.43.08-.12,0-.28-.03-.47-.09l-.96-.29.82-2.34Zm-3.25-.25c-.14.24-.19.46-.15.65.04.19.16.33.35.43.19.1.38.11.57.05.19-.06.37-.22.52-.47.15-.25.2-.46.16-.64-.04-.18-.16-.32-.36-.42-.19-.1-.39-.12-.58-.06-.19.06-.36.22-.51.46Zm-.49-.23c.13-.22.28-.38.44-.5.12-.08.25-.14.39-.18.14-.04.28-.05.42-.04.18.02.36.07.55.17.34.18.56.41.65.72.09.3.03.63-.18.98-.21.35-.47.57-.8.66-.32.09-.65.05-1-.13-.35-.18-.56-.42-.65-.72-.09-.3-.03-.62.18-.96Zm-1.38.47l1.53-2.01.44.28-1.53,2.01-.44-.28Zm-.05-2.7l-.49.53.23.17c.16.13.28.2.35.22.07.02.14.02.21,0,.07-.02.13-.06.18-.11.06-.07.09-.14.09-.22,0-.08-.03-.15-.09-.21-.04-.05-.14-.13-.29-.24l-.2-.16Zm-1.83,1.25l1.71-1.88.66.51c.25.19.4.33.46.41.09.12.13.26.13.41,0,.16-.08.31-.22.46-.11.12-.22.19-.33.24-.12.04-.23.06-.34.05-.11-.01-.21-.03-.29-.08-.11-.06-.27-.16-.45-.3l-.27-.21-.64.71-.41-.32Zm1.29-2.6l.57-.18.4.38-.74.02-.23-.22Zm-1.98,1.85l1.91-1.71.37.36-1.92,1.71-.37-.36Zm.14-1.24l.2.47c-.28.11-.53.14-.75.09s-.43-.18-.61-.38c-.22-.25-.31-.53-.27-.84s.23-.58.55-.82c.34-.26.68-.38,1.02-.35.34.02.62.17.85.43.21.23.3.48.27.74-.01.15-.08.31-.21.48l-.43-.31c.09-.1.13-.21.13-.33,0-.12-.05-.23-.14-.33-.12-.14-.28-.22-.47-.22-.19,0-.4.08-.65.27-.26.2-.41.38-.44.55-.04.17,0,.32.13.46.09.1.2.16.34.18.13.02.29,0,.47-.09Zm-2.34-1.51l2.23-1.34.29.42-2.23,1.34-.29-.42Zm-1.24-2.17l2.35-1.16.24.43-1.06,1.66,1.57-.77.23.41-2.35,1.15-.25-.44,1.03-1.63-1.53.75-.23-.41Zm1.65-3.16l.17.47-1.36.43c-.22.07-.35.12-.41.15-.1.05-.16.13-.19.22-.03.1-.03.21.02.34.05.13.12.22.2.27.08.05.17.07.26.05.09-.01.24-.05.44-.12l1.39-.44.17.47-1.32.42c-.3.1-.52.15-.66.17-.13.01-.26,0-.37-.04-.11-.04-.21-.11-.31-.21-.09-.1-.18-.24-.24-.42-.08-.22-.12-.4-.1-.53.01-.13.05-.24.11-.34.06-.09.14-.17.23-.22.13-.08.34-.16.62-.25l1.34-.43Zm-3.09-2.05l2.61-.47.15.73-1.69.76,1.87.11.16.73-2.61.47-.1-.45,2.06-.37-2.16-.11-.1-.47,1.96-.85-2.06.37-.09-.45Z"/>
      <g class="cls-51">
        <path class="cls-6" d="m65.68,53.02c1.94,1.86,4.93,2.92,9.46,2.81"/>
      </g>
      <g class="cls-49">
        <path class="cls-6" d="m74.93,55.29c-2.85-.09-5.03-.83-6.41-2.34"/>
      </g>
      <g class="cls-46">
        <path class="cls-6" d="m71.13,53.41c.67.69,1.88,1.22,3.88,1.5"/>
      </g>
      <g class="cls-1">
        <path class="cls-6" d="m84.29,53.02c-1.94,1.86-4.93,2.92-9.46,2.81"/>
      </g>
      <g class="cls-37">
        <path class="cls-6" d="m75.05,55.29c2.85-.09,5.03-.83,6.41-2.34"/>
      </g>
      <g class="cls-43">
        <path class="cls-6" d="m78.85,53.41c-.67.69-1.88,1.22-3.88,1.5"/>
      </g>
      <g class="cls-54">
        <line class="cls-6" x1="75.23" y1="56.51" x2="76.88" y2="56.51"/>
      </g>
      <g class="cls-42">
        <line class="cls-6" x1="74.76" y1="56.86" x2="73.49" y2="56.86"/>
      </g>
      <path class="cls-28" d="m65.62,50.05c.6,0,1.13.29,1.44.72.3-.43.84-.72,1.44-.72.43,0,.83.15,1.13.4.38-.46.98-.75,1.65-.75.54,0,1.04.19,1.41.51.5-.71,1.37-1.17,2.35-1.17s1.84.47,2.35,1.17c.37-.32.87-.51,1.41-.51.67,0,1.27.29,1.65.75.3-.25.7-.4,1.14-.4.6,0,1.13.29,1.44.72.3-.43.84-.72,1.44-.72.94,0,1.71.71,1.71,1.58s-.77,1.58-1.71,1.58c-.6,0-1.13-.29-1.44-.72-.3.43-.84.72-1.44.72-.44,0-.83-.15-1.14-.4-.38.46-.98.75-1.65.75-.54,0-1.04-.19-1.41-.51-.5.71-1.37,1.17-2.35,1.17s-1.84-.47-2.35-1.17c-.37.32-.87.51-1.41.51-.67,0-1.27-.29-1.65-.75-.3.25-.7.4-1.13.4-.6,0-1.13-.29-1.44-.72-.3.43-.84.72-1.44.72-.94,0-1.71-.71-1.71-1.58s.77-1.58,1.71-1.58"/>
      <g class="cls-33">
        <path class="cls-6" d="m65.62,50.05c.6,0,1.13.29,1.44.72.3-.43.84-.72,1.44-.72.44,0,.83.15,1.14.4.38-.46.98-.75,1.65-.75.54,0,1.04.19,1.41.51.5-.71,1.37-1.17,2.35-1.17s1.84.47,2.35,1.17c.37-.32.87-.51,1.41-.51.67,0,1.27.29,1.65.75.3-.25.7-.4,1.14-.4.6,0,1.13.29,1.44.72.3-.43.84-.72,1.44-.72.94,0,1.71.71,1.71,1.58s-.77,1.58-1.71,1.58c-.6,0-1.13-.29-1.44-.72-.3.43-.84.72-1.44.72-.44,0-.83-.15-1.14-.4-.38.46-.98.75-1.65.75-.54,0-1.04-.19-1.41-.51-.5.71-1.37,1.17-2.35,1.17s-1.85-.47-2.35-1.17c-.37.32-.87.51-1.41.51-.67,0-1.27-.29-1.65-.75-.3.25-.7.4-1.14.4-.6,0-1.13-.29-1.44-.72-.3.43-.84.72-1.44.72-.94,0-1.71-.71-1.71-1.58s.77-1.58,1.71-1.58Z"/>
      </g>
      <polyline class="cls-13" points="64.07 65.5 63.95 64.75 65.39 65.72"/>
      <polyline class="cls-13" points="65.38 65.08 65.63 65.08 65.95 64.81 65.98 64.51 65.84 64.26 65.48 64.1 65.24 64.18 65.11 64.4 65.04 64.7 64.54 64.11 64.99 63.58"/>
      <polygon class="cls-13" points="66.62 63.91 67.15 63.43 67.23 63.13 67.15 62.84 66.85 62.48 66.6 62.27 66.28 62.27 65.96 62.47 65.71 62.73 65.61 62.84 66.62 63.91"/>
      <polyline class="cls-13" points="68.54 62.34 67.59 63.02 66.63 61.84 67.52 61.14 66.67 61.89 67.18 62.48 67.95 61.77"/>
      <polyline class="cls-13" points="70.71 60.38 69.78 60.72 70.07 61.45 71.15 61.02 70.1 61.51 69.57 60.08 70.58 59.69 69.55 60.08 69.31 60.56 69 60.37 68.8 60.42 68.42 60.71 68.39 61 68.7 61.2 69.13 61.08 69.58 61.11 69.71 61.37 69.79 61.67 69.48 61.89 69.12 61.98 68.82 61.87 68.66 61.76"/>
      <polyline class="cls-14" points="73.46 59.76 72.5 59.95 72.36 59.26 73.52 59.06 72.36 59.18 72.61 60.68 73.75 60.49 72.6 60.73 71.73 60.91 71.36 59.45 71.21 59.48 71.01 59.57 70.83 59.58 70.69 59.62 70.85 59.52 71.08 59.47 71.29 59.4 71.48 59.34 71.72 59.29 71.94 59.22 71.86 59.29 71.7 59.36 71.52 59.39 71.43 59.43"/>
      <polyline class="cls-4" points="73.9 60.53 73.77 58.9 74.06 58.9 74.54 60.44 74.93 58.83 75.22 58.83 75.2 60.54"/>
      <polygon class="cls-4" points="75.3 60.37 75.42 58.73 76.21 58.88 76.4 59.07 76.4 59.36 76.21 59.48 75.6 59.54 75.35 59.54 76.23 59.55 76.4 59.84 76.4 60.09 76.23 60.32 75.85 60.36 75.3 60.37"/>
      <polyline class="cls-14" points="76.54 60.51 76.79 58.94 77.77 59.15 77.79 59.38 77.77 59.63 77.56 59.9 77.09 59.88 76.75 59.78 77.39 59.87 77.59 60.29 77.68 60.56 77.68 60.7"/>
      <polygon class="cls-4" points="78.32 60.93 78.16 60.74 78 60.45 78.04 60.04 78.22 59.62 78.7 59.45 79 59.49 79.21 59.71 79.39 60.1 79.35 60.44 79.23 60.77 78.98 60.95 78.54 60.97 78.32 60.93"/>
      <polygon class="cls-4" points="79.84 61.62 80.51 60.3 80.89 60.48 81.33 60.74 81.39 61.14 81.17 61.49 80.89 61.96 80.5 61.96 80.14 61.8 79.84 61.62"/>
      <polyline class="cls-14" points="82.01 62.94 81.09 62.26 81.93 60.96 82.85 61.58 81.91 60.94 81.52 61.69 82.35 62.17"/>
      <polyline class="cls-4" points="83.04 62.25 83.78 62.27 82.66 63.51"/>
      <polygon class="cls-4" points="84.3 63.61 84.5 63.6 84.66 63.53 84.64 63.2 84.48 62.96 84.09 62.94 83.92 63.16 84.01 63.52 83.66 63.42 83.48 63.53 83.32 63.84 83.44 64.14 83.75 64.3 84.03 64.06 84.1 63.85 84.03 63.51 84.3 63.61"/>
      <polyline class="cls-4" points="84.98 63.86 85.25 63.87 85.53 64.06 85.6 64.34 85.44 64.62 85.04 64.65 84.64 64.64 84.13 64.63 84.64 65.31"/>
      <polyline class="cls-4" points="85.08 65.28 84.91 65.56 84.96 65.75 85.25 66 85.67 65.96 85.79 65.78 85.67 65.31 85.97 65.51 86.21 65.46 86.37 65.22 86.26 64.97 86.08 64.83 85.82 64.82"/>
      <polygon class="cls-15" points="48.31 63.27 48.6 63.09 48.96 63.02 49.36 63.1 49.59 63.57 49.56 63.89 49.29 64.18 48.75 64.27 48.38 64.02 48.26 63.81 48.2 63.52 48.31 63.27"/>
      <polyline class="cls-15" points="50.24 63.23 50.05 63.06 49.54 62.64 49.17 62.31 49.36 62.11 49.65 61.85 49.88 61.8 50.07 61.93 50.17 62.16 50.07 62.38 49.91 62.57 49.76 62.71 50.07 62.48 50.29 62.33 51.03 62.46"/>
      <polygon class="cls-15" points="51.34 62.11 50.86 61.72 50.57 61.4 50.33 61.19 50.69 60.77 51.12 60.67 51.52 60.89 51.74 61.07 51.74 61.58 51.55 61.84 51.34 62.11"/>
      <polyline class="cls-15" points="52.26 59.43 51.8 59.82 51.61 60.02 51.97 60.45 52.3 60.77 52.55 60.99 53.26 60.35 52.55 60.9 52.18 60.65 51.98 60.42 52.71 59.87"/>
      <polyline class="cls-15" points="53.7 60.12 53.05 59.38 52.81 59.1 53 58.98 53.58 59.29 54.14 59.68 53.63 58.46 53.82 58.32 54.11 58.68 54.7 59.35"/>
      <polyline class="cls-15" points="55.9 57.09 55.5 57.27 54.99 57.6 55.39 58.11 55.75 58.74 56.59 58.21 55.73 58.72 55.38 58.05 55.65 57.93 56.15 57.66"/>
    </g>
  </g>
</svg>