<?xml version="1.0" encoding="UTF-8"?>
<svg id="Camada_1" data-name="Camada 1" xmlns="http://www.w3.org/2000/svg" xmlns:xlink="http://www.w3.org/1999/xlink" viewBox="0 0 150 150">
  <defs>
    <style>
      .cls-1 {
        fill: #0971b7;
      }

      .cls-1, .cls-2, .cls-3 {
        fill-rule: evenodd;
      }

      .cls-4 {
        stroke-width: .1px;
      }

      .cls-4, .cls-5, .cls-6, .cls-7, .cls-8, .cls-9, .cls-10, .cls-11, .cls-12 {
        fill: none;
      }

      .cls-4, .cls-8 {
        stroke: #e2e3e4;
      }

      .cls-13 {
        clip-path: url(#clippath-20);
      }

      .cls-14 {
        clip-path: url(#clippath-11);
      }

      .cls-15 {
        clip-path: url(#clippath-16);
      }

      .cls-5, .cls-6, .cls-7, .cls-8 {
        stroke-width: .08px;
      }

      .cls-5, .cls-6, .cls-7, .cls-11, .cls-12 {
        stroke: #000;
      }

      .cls-5, .cls-12 {
        stroke-linejoin: round;
      }

      .cls-16 {
        clip-path: url(#clippath-2);
      }

      .cls-17 {
        clip-path: url(#clippath-13);
      }

      .cls-18 {
        clip-path: url(#clippath-25);
      }

      .cls-19 {
        clip-path: url(#clippath-15);
      }

      .cls-20 {
        clip-path: url(#clippath-6);
      }

      .cls-21 {
        clip-path: url(#clippath-26);
      }

      .cls-22 {
        clip-path: url(#clippath-7);
      }

      .cls-23 {
        clip-path: url(#clippath-21);
      }

      .cls-24 {
        fill: #525353;
        font-family: Calibri-Bold, Calibri;
        font-size: 20.04px;
        font-weight: 700;
      }

      .cls-25 {
        clip-path: url(#clippath-1);
      }

      .cls-26 {
        clip-path: url(#clippath-4);
      }

      .cls-27 {
        fill: #edc101;
      }

      .cls-28 {
        clip-path: url(#clippath-27);
      }

      .cls-29 {
        clip-path: url(#clippath-12);
      }

      .cls-30 {
        fill: #e2e3e4;
      }

      .cls-31 {
        clip-path: url(#clippath-24);
      }

      .cls-7 {
        stroke-miterlimit: 10;
      }

      .cls-32 {
        clip-path: url(#clippath-22);
      }

      .cls-33 {
        clip-path: url(#clippath-9);
      }

      .cls-34 {
        clip-path: url(#clippath);
      }

      .cls-9 {
        clip-rule: evenodd;
      }

      .cls-35 {
        clip-path: url(#clippath-19);
      }

      .cls-36 {
        clip-path: url(#clippath-3);
      }

      .cls-37 {
        clip-path: url(#clippath-8);
      }

      .cls-2 {
        fill: #008f4c;
      }

      .cls-11 {
        stroke-width: .08px;
      }

      .cls-38 {
        clip-path: url(#clippath-18);
      }

      .cls-39 {
        clip-path: url(#clippath-14);
      }

      .cls-40 {
        clip-path: url(#clippath-17);
      }

      .cls-41 {
        clip-path: url(#clippath-5);
      }

      .cls-42 {
        clip-path: url(#clippath-10);
      }

      .cls-43 {
        clip-path: url(#clippath-23);
      }

      .cls-12 {
        stroke-width: .31px;
      }
    </style>
    <clipPath id="clippath">
      <rect class="cls-10" x="35.44" y="24.21" width="79.93" height="73.79"/>
    </clipPath>
    <clipPath id="clippath-1">
      <rect class="cls-10" x="35.44" y="24.21" width="79.92" height="73.79"/>
    </clipPath>
    <clipPath id="clippath-2">
      <rect class="cls-10" x="35.49" y="24.26" width="79.85" height="73.71"/>
    </clipPath>
    <clipPath id="clippath-3">
      <polyline class="cls-9" points="35.49 24.26 115.34 24.26 115.34 97.98 35.49 97.98"/>
    </clipPath>
    <clipPath id="clippath-4">
      <polyline class="cls-9" points="35.49 24.26 115.34 24.26 115.34 97.98 35.49 97.98"/>
    </clipPath>
    <clipPath id="clippath-5">
      <polyline class="cls-9" points="35.49 24.26 115.34 24.26 115.34 97.98 35.49 97.98"/>
    </clipPath>
    <clipPath id="clippath-6">
      <polyline class="cls-9" points="35.49 24.26 115.34 24.26 115.34 97.98 35.49 97.98"/>
    </clipPath>
    <clipPath id="clippath-7">
      <polyline class="cls-9" points="35.49 24.26 115.34 24.26 115.34 97.98 35.49 97.98"/>
    </clipPath>
    <clipPath id="clippath-8">
      <polyline class="cls-9" points="35.49 24.26 115.34 24.26 115.34 97.98 35.49 97.98"/>
    </clipPath>
    <clipPath id="clippath-9">
      <polyline class="cls-9" points="35.49 24.26 115.34 24.26 115.34 97.98 35.49 97.98"/>
    </clipPath>
    <clipPath id="clippath-10">
      <polyline class="cls-9" points="35.49 24.26 115.34 24.26 115.34 97.98 35.49 97.98"/>
    </clipPath>
    <clipPath id="clippath-11">
      <polyline class="cls-9" points="35.49 24.26 115.34 24.26 115.34 97.98 35.49 97.98"/>
    </clipPath>
    <clipPath id="clippath-12">
      <polyline class="cls-9" points="35.49 24.26 115.34 24.26 115.34 97.98 35.49 97.98"/>
    </clipPath>
    <clipPath id="clippath-13">
      <polyline class="cls-9" points="35.49 24.26 115.34 24.26 115.34 97.98 35.49 97.98"/>
    </clipPath>
    <clipPath id="clippath-14">
      <polyline class="cls-9" points="35.49 24.26 115.34 24.26 115.34 97.98 35.49 97.98"/>
    </clipPath>
    <clipPath id="clippath-15">
      <polyline class="cls-9" points="35.49 24.26 115.34 24.26 115.34 97.98 35.49 97.98"/>
    </clipPath>
    <clipPath id="clippath-16">
      <polyline class="cls-9" points="35.49 24.26 115.34 24.26 115.34 97.98 35.49 97.98"/>
    </clipPath>
    <clipPath id="clippath-17">
      <polyline class="cls-9" points="35.49 24.26 115.34 24.26 115.34 97.98 35.49 97.98"/>
    </clipPath>
    <clipPath id="clippath-18">
      <polyline class="cls-9" points="35.49 24.26 115.34 24.26 115.34 97.98 35.49 97.98"/>
    </clipPath>
    <clipPath id="clippath-19">
      <polyline class="cls-9" points="35.49 24.26 115.34 24.26 115.34 97.98 35.49 97.98"/>
    </clipPath>
    <clipPath id="clippath-20">
      <polyline class="cls-9" points="35.49 24.26 115.34 24.26 115.34 97.98 35.49 97.98"/>
    </clipPath>
    <clipPath id="clippath-21">
      <polyline class="cls-9" points="35.49 24.26 115.34 24.26 115.34 97.98 35.49 97.98"/>
    </clipPath>
    <clipPath id="clippath-22">
      <polyline class="cls-9" points="35.49 24.26 115.34 24.26 115.34 97.98 35.49 97.98"/>
    </clipPath>
    <clipPath id="clippath-23">
      <polyline class="cls-9" points="35.49 24.26 115.34 24.26 115.34 97.98 35.49 97.98"/>
    </clipPath>
    <clipPath id="clippath-24">
      <polyline class="cls-9" points="35.49 24.26 115.34 24.26 115.34 97.98 35.49 97.98"/>
    </clipPath>
    <clipPath id="clippath-25">
      <polyline class="cls-9" points="35.49 24.26 115.34 24.26 115.34 97.98 35.49 97.98"/>
    </clipPath>
    <clipPath id="clippath-26">
      <polyline class="cls-9" points="35.49 24.26 115.34 24.26 115.34 97.98 35.49 97.98"/>
    </clipPath>
    <clipPath id="clippath-27">
      <rect class="cls-10" x="35.49" y="24.26" width="79.85" height="73.71"/>
    </clipPath>
  </defs>
  <text class="cls-24" transform="translate(15.1 133.42)"><tspan x="0" y="0">PORTO VELHO</tspan></text>
  <g class="cls-34">
    <g class="cls-25">
      <polygon class="cls-27" points="75.42 96.84 71.89 93.94 67.84 96.05 65 92.48 60.59 93.71 58.56 89.63 53.99 89.92 52.86 85.51 48.33 84.84 48.14 80.29 43.85 78.71 44.62 74.22 40.75 71.78 42.44 67.55 39.17 64.37 41.7 60.58 39.17 56.79 42.44 53.6 40.75 49.37 44.62 46.93 43.85 42.44 48.14 40.86 48.33 36.31 52.86 35.65 53.99 31.24 58.56 31.52 60.59 27.44 65 28.67 67.84 25.1 71.89 27.21 75.42 24.31 78.94 27.21 83 25.1 85.84 28.67 90.24 27.44 92.28 31.52 96.84 31.24 97.98 35.65 102.51 36.31 102.69 40.86 106.98 42.44 106.22 46.93 110.09 49.37 108.4 53.6 111.67 56.79 109.14 60.58 111.67 64.37 108.4 67.55 110.09 71.78 106.22 74.22 106.98 78.71 102.69 80.29 102.51 84.84 97.98 85.51 96.84 89.92 92.28 89.63 90.24 93.71 85.84 92.48 83 96.05 78.94 93.94 75.42 96.84"/>
      <polygon class="cls-7" points="75.42 96.84 71.89 93.94 67.84 96.05 65 92.48 60.59 93.71 58.56 89.63 53.99 89.92 52.86 85.51 48.33 84.84 48.14 80.29 43.85 78.71 44.62 74.22 40.75 71.78 42.44 67.55 39.17 64.37 41.7 60.58 39.17 56.79 42.44 53.6 40.75 49.37 44.62 46.93 43.85 42.44 48.14 40.86 48.33 36.31 52.86 35.65 53.99 31.24 58.56 31.52 60.59 27.44 65 28.67 67.84 25.1 71.89 27.21 75.42 24.31 78.94 27.21 83 25.1 85.84 28.67 90.24 27.44 92.28 31.52 96.84 31.24 97.98 35.65 102.51 36.31 102.69 40.86 106.98 42.44 106.22 46.93 110.09 49.37 108.4 53.6 111.67 56.79 109.14 60.58 111.67 64.37 108.4 67.55 110.09 71.78 106.22 74.22 106.98 78.71 102.69 80.29 102.51 84.84 97.98 85.51 96.84 89.92 92.28 89.63 90.24 93.71 85.84 92.48 83 96.05 78.94 93.94 75.42 96.84"/>
      <g class="cls-16">
        <path class="cls-7" d="m75.42,96.89v-36.31l-7.59,35.52,7.59-35.52-14.84,33.17,14.84-33.17-21.45,29.38,21.45-29.38-27.12,24.3,27.12-24.3-31.6,18.16,31.6-18.16-34.71,11.22,34.71-11.22-36.29,3.8,36.29-3.8-36.29-3.8,36.29,3.8-34.71-11.22,34.71,11.22-31.6-18.16,31.6,18.16-27.12-24.3,27.12,24.3-21.45-29.38,21.45,29.38-14.84-33.17,14.84,33.17-7.59-35.52,7.59,35.52V24.26v36.32l7.59-35.52-7.59,35.52,14.84-33.17-14.84,33.17,21.45-29.38-21.45,29.38,27.12-24.3-27.12,24.3,31.61-18.16-31.61,18.16,34.71-11.22-34.71,11.22,36.29-3.8-36.29,3.8,36.29,3.8-36.29-3.8,34.71,11.22-34.71-11.22,31.61,18.16-31.61-18.16,27.12,24.3-27.12-24.3,21.45,29.38-21.45-29.38,14.84,33.17-14.84-33.17,7.59,35.52-7.59-35.52v36.31Zm-33.57-36.31h33.57l-32.84-7.02,32.84,7.02-30.67-13.74,30.67,13.74-27.16-19.85,27.16,19.85-22.47-25.1,22.47,25.1-16.79-29.25,16.79,29.25-10.38-32.12,10.38,32.12-3.51-33.59,3.51,33.59,3.51-33.59-3.51,33.59,10.37-32.12-10.37,32.12,16.79-29.25-16.79,29.25,22.46-25.1-22.46,25.1,27.16-19.85-27.16,19.85,30.67-13.74-30.67,13.74,32.84-7.02-32.84,7.02h33.58-33.58l32.84,7.02-32.84-7.02,30.67,13.74-30.67-13.74,27.16,19.85-27.16-19.85,22.46,25.1-22.46-25.1,16.79,29.25-16.79-29.25,10.37,32.12-10.37-32.12,3.51,33.59-3.51-33.59-3.51,33.59,3.51-33.59-10.38,32.12,10.38-32.12-16.79,29.25,16.79-29.25-22.47,25.1,22.47-25.1-27.16,19.85,27.16-19.85-30.67,13.74,30.67-13.74-32.84,7.02,32.84-7.02h-33.57Z"/>
      </g>
      <polyline class="cls-12" points="75.58 83.42 82.73 54.55 89.78 83.42"/>
      <path d="m75.45,70.9s4.82,1.62,7.23,1.62,7.23-1.62,7.23-1.62v-18.59h-14.45v18.59Z"/>
      <path class="cls-8" d="m75.45,70.9s4.82,1.62,7.23,1.62,7.23-1.62,7.23-1.62v-18.59h-14.45v18.59Z"/>
      <rect x="75.45" y="52.71" width="14.45" height="1.54"/>
      <rect class="cls-8" x="75.45" y="52.71" width="14.45" height="1.54"/>
      <polygon points="91.66 53.05 73.69 53.05 82.68 45.01 91.66 53.05"/>
      <polygon class="cls-4" points="91.66 53.05 73.69 53.05 82.68 45.01 91.66 53.05"/>
      <polyline class="cls-12" points="68.32 83.42 75.47 54.55 82.52 83.42"/>
      <path d="m68.19,70.9s4.82,1.62,7.23,1.62,7.23-1.62,7.23-1.62v-18.59h-14.45v18.59Z"/>
      <path class="cls-8" d="m68.19,70.9s4.82,1.62,7.23,1.62,7.23-1.62,7.23-1.62v-18.59h-14.45v18.59Z"/>
      <rect x="68.19" y="52.71" width="14.45" height="1.54"/>
      <rect class="cls-8" x="68.19" y="52.71" width="14.45" height="1.54"/>
      <polygon points="84.41 53.05 66.43 53.05 75.42 45.01 84.41 53.05"/>
      <polygon class="cls-4" points="84.41 53.05 66.43 53.05 75.42 45.01 84.41 53.05"/>
      <polyline class="cls-12" points="61.06 83.42 68.21 54.55 75.26 83.42"/>
      <path d="m60.93,70.9s4.82,1.62,7.23,1.62,7.23-1.62,7.23-1.62v-18.59h-14.45v18.59Z"/>
      <path class="cls-8" d="m60.93,70.9s4.82,1.62,7.23,1.62,7.23-1.62,7.23-1.62v-18.59h-14.45v18.59Z"/>
      <rect x="60.93" y="52.71" width="14.45" height="1.54"/>
      <rect class="cls-8" x="60.93" y="52.71" width="14.45" height="1.54"/>
      <polygon points="77.15 53.05 59.17 53.05 68.16 45.01 77.15 53.05"/>
      <polygon class="cls-4" points="77.15 53.05 59.17 53.05 68.16 45.01 77.15 53.05"/>
      <path class="cls-2" d="m99.1,44.26c-.44,3.13.24,4.25.47,6.19l-.41,2.09c-1.16-2.97-2.74-6.79-5.91-10.09,1.48,1.13,3.72,2.69,5.57,6.81-.45-3.22.03-4.23.28-5Z"/>
      <path class="cls-6" d="m99.1,44.26c-.44,3.13.24,4.25.47,6.19l-.41,2.09c-1.16-2.97-2.74-6.79-5.91-10.09,1.48,1.13,3.72,2.69,5.57,6.81-.45-3.22.03-4.23.28-5Z"/>
      <path class="cls-2" d="m100.84,46.28c-.73,2.98-.43,4.97-.57,7.42l-1.61,2.85c-.06-3.27-1.17-6.04-4.73-9.54,1,.46,2.68,1.88,5.07,5.26.51-2.36.96-4.49,1.85-5.99Z"/>
      <path class="cls-6" d="m100.84,46.28c-.73,2.98-.43,4.97-.57,7.42l-1.61,2.85c-.06-3.27-1.17-6.04-4.73-9.54,1,.46,2.68,1.88,5.07,5.26.51-2.36.96-4.49,1.85-5.99Z"/>
      <path class="cls-2" d="m102.93,49.16c-1.13,2.76-2.33,5.3-2.06,7.52l-1.28,3.87-1.09-1.92c-.04-2.08-.99-5.18-2.55-7.68,1.29,1.14,2.22,2.47,2.99,5.07,1.29-2.59,2.5-5.62,3.99-6.85Z"/>
      <path class="cls-6" d="m102.93,49.16c-1.13,2.76-2.33,5.3-2.06,7.52l-1.28,3.87-1.09-1.92c-.04-2.08-.99-5.18-2.55-7.68,1.29,1.14,2.22,2.47,2.99,5.07,1.29-2.59,2.5-5.62,3.99-6.85Z"/>
      <path class="cls-2" d="m103.21,53.2c-1.95,3.77-2.61,7.55-2.77,11.32l-.59.57-1.65-4.05c-.22-2.67-1.67-4.78-2.69-6.71,1.32,1.59,2.64,2.27,3.96,5.89.49-2.97,2.11-5,3.73-7.02Z"/>
      <path class="cls-6" d="m103.21,53.2c-1.95,3.77-2.61,7.55-2.77,11.32l-.59.57-1.65-4.05c-.22-2.67-1.67-4.78-2.69-6.71,1.32,1.59,2.64,2.27,3.96,5.89.49-2.97,2.11-5,3.73-7.02Z"/>
      <path class="cls-2" d="m104.43,59.56c-2.13,1.13-4.16,4.73-4.4,5.26-.64-3.31-3.28-5.79-5.23-7.45,1.77,2.26,3.03,5.21,3.61,7.78-.9-1.29-1.8-2.73-3.02-3.51,3.18,4.04,2.51,7.9,2.31,9.83l1.89-2.82c.84-3.1,2.64-6.5,4.83-9.11Z"/>
      <path class="cls-6" d="m104.43,59.56c-2.13,1.13-4.16,4.73-4.4,5.26-.64-3.31-3.28-5.79-5.23-7.45,1.77,2.26,3.03,5.21,3.61,7.78-.9-1.29-1.8-2.73-3.02-3.51,3.18,4.04,2.51,7.9,2.31,9.83l1.89-2.82c.84-3.1,2.64-6.5,4.83-9.11Z"/>
      <path class="cls-2" d="m103.15,65.45c-2.56,1.57-4.15,3.49-5.48,5.93-.27-2.96-.99-6.74-2.83-8.54,2.5,4.75,2.46,10.43.81,12.22l-.03.79,1.87-1.85c.4-1.77,2.36-5.75,4.71-6.88-.04.58-.33,1.52-.75,2.9,1.44-1.9,1.94-4.77,1.71-4.57Z"/>
      <path class="cls-6" d="m103.15,65.45c-2.56,1.57-4.15,3.49-5.48,5.93-.27-2.96-.99-6.74-2.83-8.54,2.5,4.75,2.46,10.43.81,12.22l-.03.79,1.87-1.85c.4-1.77,2.36-5.75,4.71-6.88-.04.58-.33,1.52-.75,2.9,1.44-1.9,1.94-4.77,1.71-4.57Z"/>
      <path class="cls-2" d="m99.57,78.63c-1.7.19-5.95,2.19-7.47,4.37l-4.7,1.42c1.49-1.88,4.26-2.77,4.3-8.21.96,4.04-.68,4.83-1.47,6.69,2.85-2.33,5.94-4.51,9.34-4.27Z"/>
      <path class="cls-6" d="m99.57,78.63c-1.7.19-5.95,2.19-7.47,4.37l-4.7,1.42c1.49-1.88,4.26-2.77,4.3-8.21.96,4.04-.68,4.83-1.47,6.69,2.85-2.33,5.94-4.51,9.34-4.27Z"/>
      <path class="cls-2" d="m90.71,83.98c-3.48,1.72-5.23,1.5-10.48,2.07-7.17.87-10.32,1.29-11.78,3.03h-3.57c.32-.65,2.03-1.58,2.73-1.76.79-.34,8.08-1.21,11.04-1.84,3.33-.63,6.4-1.4,7.54-2.19,1.03-.51,2.6-2.14,4.37-4.23-1.67,3.09-3.02,4.15-4.36,5.16,2.57.19,7.4-2.36,10.46-2.12-.92.2-2.84.05-5.96,1.87Z"/>
      <path class="cls-6" d="m90.71,83.98c-3.48,1.72-5.23,1.5-10.48,2.07-7.17.87-10.32,1.29-11.78,3.03h-3.57c.32-.65,2.03-1.58,2.73-1.76.79-.34,8.08-1.21,11.04-1.84,3.33-.63,6.4-1.4,7.54-2.19,1.03-.51,2.6-2.14,4.37-4.23-1.67,3.09-3.02,4.15-4.36,5.16,2.57.19,7.4-2.36,10.46-2.12-.92.2-2.84.05-5.96,1.87Z"/>
      <path class="cls-2" d="m101.76,70.9c-3.29,1.15-4.41,3.03-6.02,4.55.66-3.85-.03-7.28-1.37-9.04,1.31,4.32.62,9.42-.62,10.3l-.46,2.95,2.8-2.32c1.25-1.91,2.24-3.73,5.67-6.43Z"/>
      <path class="cls-6" d="m101.76,70.9c-3.29,1.15-4.41,3.03-6.02,4.55.66-3.85-.03-7.28-1.37-9.04,1.31,4.32.62,9.42-.62,10.3l-.46,2.95,2.8-2.32c1.25-1.91,2.24-3.73,5.67-6.43Z"/>
      <path class="cls-2" d="m97.61,77.25c-.71.52-2.2,1.83-3.3,2.76l-3.11,2.15-1.22.96,1.54-2.45c.41-.75.73-1.34,1.48-3.91.5-1.84.7-4.74.28-6.65,1.41,2.11.9,5.92.23,9.2,1.87-1.79,3.24-2.85,4.79-3.95.82-.41-.48,3.97-.79,5.14.06-1.5.33-3.25.1-3.26Z"/>
      <path class="cls-6" d="m97.61,77.25c-.71.52-2.2,1.83-3.3,2.76l-3.11,2.15-1.22.96,1.54-2.45c.41-.75.73-1.34,1.48-3.91.5-1.84.7-4.74.28-6.65,1.41,2.11.9,5.92.23,9.2,1.87-1.79,3.24-2.85,4.79-3.95.82-.41-.48,3.97-.79,5.14.06-1.5.33-3.25.1-3.26Z"/>
      <path class="cls-2" d="m53.93,70.3c-.26-.73-.67-1.31-.7-2.92,0,0-.43-.16-.41.44.05,1.17.75,2.99.86,2.92.17-.11.04-.33.26-.44Z"/>
      <path class="cls-6" d="m53.93,70.3c-.26-.73-.67-1.31-.7-2.92,0,0-.43-.16-.41.44.05,1.17.75,2.99.86,2.92.17-.11.04-.33.26-.44Z"/>
      <path class="cls-2" d="m50.98,54.98c.09-1.6-.13-4.25-1.53-6.01-.94,3.07-.17,4.57,1.53,6.01Z"/>
      <path class="cls-6" d="m50.98,54.98c.09-1.6-.13-4.25-1.53-6.01-.94,3.07-.17,4.57,1.53,6.01Z"/>
      <path class="cls-2" d="m52.13,55.14c1.56-.98,4.58-2.68,4.11-5.3-1.85.89-4.48,2.3-4.11,5.3Z"/>
      <path class="cls-6" d="m52.13,55.14c1.56-.98,4.58-2.68,4.11-5.3-1.85.89-4.48,2.3-4.11,5.3Z"/>
      <path class="cls-2" d="m52.32,54.08c.46-1.05,1.61-.83,3.08-2.98"/>
      <path class="cls-6" d="m52.32,54.08c.46-1.05,1.61-.83,3.08-2.98"/>
      <g class="cls-36">
        <path class="cls-2" d="m50.95,54.28c-1.29-1.45-1.1-2.09-1.31-4.27"/>
      </g>
      <g class="cls-26">
        <path class="cls-6" d="m50.95,54.28c-1.29-1.45-1.1-2.09-1.31-4.27"/>
      </g>
      <path class="cls-2" d="m50.98,55.05c.64-1.45,1.09-3.92.41-6.11-1.94,2.48-1.49,4.1-.41,6.11Z"/>
      <path class="cls-6" d="m50.98,55.05c.64-1.45,1.09-3.92.41-6.11-1.94,2.48-1.49,4.1-.41,6.11Z"/>
      <g class="cls-41">
        <path class="cls-2" d="m51.13,54.37c-.45-1.68-.07-2.29.03-4.04"/>
      </g>
      <g class="cls-20">
        <path class="cls-6" d="m51.13,54.37c-.45-1.68-.07-2.29.03-4.04"/>
      </g>
      <path class="cls-2" d="m53.34,50.45c2.33-1.58,2.6-4.91,2.18-7.81-3.06,2.33-2.45,4.23-2.18,7.81Z"/>
      <path class="cls-6" d="m53.34,50.45c2.33-1.58,2.6-4.91,2.18-7.81-3.06,2.33-2.45,4.23-2.18,7.81Z"/>
      <path class="cls-2" d="m53.87,48.31c.18-2.12.37-2.27,1.12-4.27"/>
      <path class="cls-6" d="m53.87,48.31c.18-2.12.37-2.27,1.12-4.27"/>
      <path class="cls-2" d="m53.45,50.76c1.09-2.7.76-4.94-.9-7.97-.89,3.46-1.23,5.18.9,7.97Z"/>
      <path class="cls-6" d="m53.45,50.76c1.09-2.7.76-4.94-.9-7.97-.89,3.46-1.23,5.18.9,7.97Z"/>
      <g class="cls-22">
        <path class="cls-2" d="m53.49,49.58c-.56-2.06-.55-2.58-.77-4.72"/>
      </g>
      <g class="cls-37">
        <path class="cls-6" d="m53.49,49.58c-.56-2.06-.55-2.58-.77-4.72"/>
      </g>
      <path class="cls-2" d="m53.42,50.8c2.39-1.48,3.39-3.47,3.76-6.96-2.66,2.21-3.9,3.36-3.76,6.96Z"/>
      <path class="cls-6" d="m53.42,50.8c2.39-1.48,3.39-3.47,3.76-6.96-2.66,2.21-3.9,3.36-3.76,6.96Z"/>
      <path class="cls-2" d="m54.15,50.06c.61-2.32.81-2.6,2.09-4.5"/>
      <path class="cls-6" d="m54.15,50.06c.61-2.32.81-2.6,2.09-4.5"/>
      <path class="cls-2" d="m51.99,54.68c1.32-1.32,3.4-3.4,2.41-5.85-1.63,1.3-3.15,3.67-2.41,5.85Z"/>
      <path class="cls-6" d="m51.99,54.68c1.32-1.32,3.4-3.4,2.41-5.85-1.63,1.3-3.15,3.67-2.41,5.85Z"/>
      <path class="cls-2" d="m51.01,60.9c2.15-1.49,2.06-4.33.65-7.4-1.78,2.92-2.17,4.18-.65,7.4Z"/>
      <path class="cls-6" d="m51.01,60.9c2.15-1.49,2.06-4.33.65-7.4-1.78,2.92-2.17,4.18-.65,7.4Z"/>
      <path class="cls-2" d="m52.21,63.99c-.21-.74-.59-1.36-.51-2.97,0,0-.42-.19-.44.41-.03,1.17.55,3.04.66,2.98.17-.1.06-.33.29-.42Z"/>
      <path class="cls-6" d="m52.21,63.99c-.21-.74-.59-1.36-.51-2.97,0,0-.42-.19-.44.41-.03,1.17.55,3.04.66,2.98.17-.1.06-.33.29-.42Z"/>
      <path class="cls-2" d="m51.56,61.28c-.23-2.22-.28-3.89-.12-6.06"/>
      <path class="cls-6" d="m51.56,61.28c-.23-2.22-.28-3.89-.12-6.06"/>
      <path class="cls-2" d="m51.73,61.81c-.5-3.26-2.22-5.44-5.3-6.39.67,3.51,2.05,5.42,5.3,6.39Z"/>
      <path class="cls-6" d="m51.73,61.81c-.5-3.26-2.22-5.44-5.3-6.39.67,3.51,2.05,5.42,5.3,6.39Z"/>
      <path class="cls-2" d="m51.12,61.18c-1.5-1.45-2.52-2.76-3.86-4.83"/>
      <path class="cls-6" d="m51.12,61.18c-1.5-1.45-2.52-2.76-3.86-4.83"/>
      <path class="cls-2" d="m51.43,61.77c2.88-1.25,3.64-2.49,3.81-5.91-2.89,1.63-3.66,2.31-3.81,5.91Z"/>
      <path class="cls-6" d="m51.43,61.77c2.88-1.25,3.64-2.49,3.81-5.91-2.89,1.63-3.66,2.31-3.81,5.91Z"/>
      <path class="cls-2" d="m53.27,68.79c-.5-3.26-2.22-5.44-5.3-6.39.67,3.51,2.05,5.42,5.3,6.39Z"/>
      <path class="cls-6" d="m53.27,68.79c-.5-3.26-2.22-5.44-5.3-6.39.67,3.51,2.05,5.42,5.3,6.39Z"/>
      <path class="cls-2" d="m62.17,83.74c2.29.6,4.04,1.13,8.01,2.07,6.78,1.85,10.45,2.04,11.91,3.78h3.56c-.32-.65-2.03-1.58-2.73-1.77-3.21-.24-9.44-1.96-12.4-2.59-3.55-.87-6.8-1.49-7.93-1.95-2-.99-.95.96-.42.45Z"/>
      <path class="cls-6" d="m62.17,83.74c2.29.6,4.04,1.13,8.01,2.07,6.78,1.85,10.45,2.04,11.91,3.78h3.56c-.32-.65-2.03-1.58-2.73-1.77-3.21-.24-9.44-1.96-12.4-2.59-3.55-.87-6.8-1.49-7.93-1.95-2-.99-.95.96-.42.45Z"/>
      <path class="cls-2" d="m62.41,83.9c-2.87-1.69-3.65-1.31-6.47-.38,4.04,2.53,4.37-.03,6.47.38Z"/>
      <path class="cls-6" d="m62.41,83.9c-2.87-1.69-3.65-1.31-6.47-.38,4.04,2.53,4.37-.03,6.47.38Z"/>
      <g class="cls-33">
        <path class="cls-2" d="m60.85,83.45c-2.07.32-1.65.28-3.38.14"/>
      </g>
      <g class="cls-42">
        <path class="cls-6" d="m60.85,83.45c-2.07.32-1.65.28-3.38.14"/>
      </g>
      <path class="cls-2" d="m57.59,79.36c-.58-.47-1.23-.73-2.05-2.08,0,0-.45.11-.13.6.63.97,2.12,2.12,2.18,1.99.09-.19-.13-.3,0-.52Z"/>
      <path class="cls-6" d="m57.59,79.36c-.58-.47-1.23-.73-2.05-2.08,0,0-.45.11-.13.6.63.97,2.12,2.12,2.18,1.99.09-.19-.13-.3,0-.52Z"/>
      <path class="cls-2" d="m62.82,83.97c-1.12-3.22-3.02-4.59-5.79-5.69.44,3.66,1.74,5,5.79,5.69Z"/>
      <path class="cls-6" d="m62.82,83.97c-1.12-3.22-3.02-4.59-5.79-5.69.44,3.66,1.74,5,5.79,5.69Z"/>
      <g class="cls-14">
        <path class="cls-2" d="m62.18,83.4c-2.19-1.75-3.06-2.44-4.17-3.85"/>
      </g>
      <g class="cls-29">
        <path class="cls-6" d="m62.18,83.4c-2.19-1.75-3.06-2.44-4.17-3.85"/>
      </g>
      <path class="cls-2" d="m62.75,83.87c-.68-3.44-.94-4.12-3.03-6.35-.3,3.66.22,3.86,3.03,6.35Z"/>
      <path class="cls-6" d="m62.75,83.87c-.68-3.44-.94-4.12-3.03-6.35-.3,3.66.22,3.86,3.03,6.35Z"/>
      <path class="cls-2" d="m53.7,70.68c-1-2.25-2.38-2.36-4.81-3.16.86,2,1.09,3.19,4.81,3.16Z"/>
      <path class="cls-6" d="m53.7,70.68c-1-2.25-2.38-2.36-4.81-3.16.86,2,1.09,3.19,4.81,3.16Z"/>
      <path class="cls-2" d="m51.88,61.21c.86-1.79,1.65-2.66,2.71-4.07"/>
      <path class="cls-6" d="m51.88,61.21c.86-1.79,1.65-2.66,2.71-4.07"/>
      <path class="cls-2" d="m53.33,68.8c2.01-3.08.9-5.54-1.34-7.99-.96,3.36-.43,5.49,1.34,7.99Z"/>
      <path class="cls-6" d="m53.33,68.8c2.01-3.08.9-5.54-1.34-7.99-.96,3.36-.43,5.49,1.34,7.99Z"/>
      <path class="cls-2" d="m55.25,76c2.4-2.06,2.02-5.12,1.31-8.18-2.03,2.97-2.12,4.31-1.31,8.18Z"/>
      <path class="cls-6" d="m55.25,76c2.4-2.06,2.02-5.12,1.31-8.18-2.03,2.97-2.12,4.31-1.31,8.18Z"/>
      <g class="cls-17">
        <path class="cls-2" d="m55.44,74.76c.27-1.52.74-3.76.81-5.27"/>
      </g>
      <g class="cls-39">
        <path class="cls-6" d="m55.44,74.76c.27-1.52.74-3.76.81-5.27"/>
      </g>
      <g class="cls-19">
        <path class="cls-2" d="m52.79,70.68c-1.21-1.59-1.83-1.09-3.06-2.52"/>
      </g>
      <g class="cls-15">
        <path class="cls-6" d="m52.79,70.68c-1.21-1.59-1.83-1.09-3.06-2.52"/>
      </g>
      <path class="cls-2" d="m53.7,70.58c-2.57-1.04-2.93.19-4.59,1.11,1.98.66,2.91.73,4.59-1.11Z"/>
      <path class="cls-6" d="m53.7,70.58c-2.57-1.04-2.93.19-4.59,1.11,1.98.66,2.91.73,4.59-1.11Z"/>
      <path class="cls-2" d="m55.66,78.21c.25-2.8-.28-5.78-1.92-8.41-1.24,3.2-1.03,5.29,1.92,8.41Z"/>
      <path class="cls-6" d="m55.66,78.21c.25-2.8-.28-5.78-1.92-8.41-1.24,3.2-1.03,5.29,1.92,8.41Z"/>
      <g class="cls-40">
        <path class="cls-2" d="m52.62,68.14c-1.36-1.56-2.3-2.38-3.38-4.32"/>
      </g>
      <g class="cls-38">
        <path class="cls-6" d="m52.62,68.14c-1.36-1.56-2.3-2.38-3.38-4.32"/>
      </g>
      <g class="cls-35">
        <path class="cls-2" d="m53.3,68.04c.02-2.51-.38-3.73-1.05-5.5"/>
      </g>
      <g class="cls-13">
        <path class="cls-6" d="m53.3,68.04c.02-2.51-.38-3.73-1.05-5.5"/>
      </g>
      <path class="cls-2" d="m52.19,53.6c.68-.83.86-.97,1.96-3.94"/>
      <path class="cls-6" d="m52.19,53.6c.68-.83.86-.97,1.96-3.94"/>
      <g class="cls-23">
        <path class="cls-2" d="m53.95,71.65c.21,2.24.55,3.61,1.32,5.3"/>
      </g>
      <g class="cls-32">
        <path class="cls-6" d="m53.95,71.65c.21,2.24.55,3.61,1.32,5.3"/>
      </g>
      <g class="cls-43">
        <path class="cls-2" d="m62.32,83.16c-1.21-1.82-1.24-2.08-1.91-3.78"/>
      </g>
      <g class="cls-31">
        <path class="cls-6" d="m62.32,83.16c-1.21-1.82-1.24-2.08-1.91-3.78"/>
      </g>
      <g class="cls-18">
        <path class="cls-2" d="m53.2,70.69c-2.01.64-1.23.61-2.95.74"/>
      </g>
      <g class="cls-21">
        <path class="cls-6" d="m53.2,70.69c-2.01.64-1.23.61-2.95.74"/>
      </g>
      <path d="m42.96,75.27c1.33-.28,2.67-.57,4-.85-.2-.69-.37-1.39-.51-2.11-1.33.18-2.67.37-4,.55.14.81.31,1.62.51,2.41Zm64.84.32c.22-.76.42-1.53.59-2.32-1.31-.2-2.63-.41-3.94-.61-.15.69-.32,1.37-.52,2.04,1.29.3,2.58.59,3.87.89Zm-63.57,3.55c1.32-.46,2.63-.91,3.94-1.37-.28-.62-.53-1.26-.76-1.9-1.33.36-2.66.72-3.99,1.07.24.74.5,1.47.8,2.2Zm62.17.16c.31-.69.6-1.39.87-2.1-1.27-.36-2.54-.72-3.81-1.08-.23.63-.48,1.25-.76,1.85,1.24.44,2.47.89,3.71,1.33Zm-60.41,3.34c1.27-.62,2.53-1.23,3.8-1.85-.35-.56-.67-1.13-.98-1.71-1.3.53-2.6,1.05-3.9,1.58.33.67.69,1.34,1.07,1.98Zm58.58.02c.4-.62.77-1.25,1.11-1.9-1.21-.5-2.42-1.01-3.62-1.51-.31.57-.63,1.13-.98,1.68,1.17.58,2.33,1.16,3.49,1.74Zm-2.23,3.03c.47-.55.91-1.13,1.34-1.71-1.13-.63-2.26-1.26-3.38-1.89-.37.52-.76,1.02-1.17,1.51,1.08.7,2.15,1.4,3.22,2.09Zm-54.13.08c1.18-.76,2.36-1.51,3.53-2.27-.41-.5-.8-1.01-1.17-1.53-1.23.68-2.47,1.36-3.7,2.03.42.6.86,1.19,1.34,1.76Zm51.53,2.62c.54-.49,1.06-1,1.55-1.52-1.03-.75-2.06-1.49-3.09-2.23-.44.46-.89.91-1.36,1.34.97.8,1.94,1.61,2.9,2.41Zm-48.88.12c1.06-.87,2.11-1.74,3.17-2.6-.47-.44-.92-.89-1.36-1.35-1.13.81-2.26,1.61-3.39,2.42.5.53,1.02,1.04,1.58,1.54Zm45.94,2.25c.6-.42,1.19-.87,1.75-1.33-.92-.85-1.84-1.69-2.76-2.54-.49.41-1.01.8-1.54,1.17.85.9,1.7,1.79,2.55,2.69Zm-42.92.1c.91-.95,1.82-1.9,2.73-2.86-.53-.38-1.04-.77-1.53-1.18-1,.91-1.99,1.81-2.99,2.72.57.45,1.16.89,1.79,1.31Zm39.65,1.91c.66-.35,1.3-.73,1.93-1.12-.79-.93-1.59-1.86-2.39-2.8-.55.35-1.12.68-1.7.99.72.98,1.44,1.95,2.15,2.93Zm-36.32.05c.75-1.01,1.5-2.02,2.26-3.04-.58-.31-1.14-.64-1.68-.99-.84.98-1.69,1.96-2.53,2.94.64.38,1.29.75,1.96,1.09Zm3.58,1.58c.59-1.06,1.19-2.11,1.78-3.17-.62-.25-1.23-.51-1.82-.8-.68,1.03-1.37,2.06-2.05,3.1.69.31,1.39.6,2.1.87Zm29.19,0c.71-.28,1.41-.58,2.09-.9-.66-1-1.32-2.01-1.98-3.01-.6.28-1.21.55-1.83.79.58,1.04,1.15,2.08,1.73,3.12Zm-25.42,1.21c.43-1.09.87-2.18,1.3-3.27-.66-.18-1.3-.38-1.93-.6-.53,1.07-1.05,2.14-1.58,3.21.73.24,1.46.46,2.2.65Zm21.65.03c.75-.2,1.49-.43,2.21-.67-.51-1.06-1.03-2.12-1.54-3.18-.63.22-1.28.41-1.94.59.43,1.09.85,2.17,1.28,3.26Zm-17.73.8c.28-1.12.55-2.24.83-3.35-.68-.11-1.35-.25-2.01-.39-.37,1.1-.74,2.21-1.1,3.31.75.17,1.51.31,2.28.44Zm13.8.04c.78-.12,1.54-.27,2.29-.44-.36-1.1-.72-2.21-1.08-3.31-.66.15-1.33.28-2.02.39.27,1.12.54,2.24.81,3.36Zm-9.79.43c.12-1.14.24-2.27.35-3.41-.69-.05-1.38-.11-2.05-.19-.21,1.13-.42,2.25-.63,3.38.77.1,1.55.17,2.33.22Zm5.76.01c.79-.05,1.57-.12,2.34-.21-.2-1.13-.41-2.26-.61-3.39-.68.08-1.36.14-2.06.18.11,1.14.22,2.28.33,3.41Zm-2.71.09c.24,0,.49,0,.73,0,.09,0,.18,0,.27,0-.04-1.14-.09-2.28-.13-3.42-.32,0-.63.01-.95.01-.38,0-.75,0-1.12-.02-.05,1.14-.1,2.28-.15,3.42.45.01.9.02,1.35.02Zm-1.39.91c-.14,0-.23,0-.34-.01h0c-.12,0-.21,0-.3,0-.13,0-.3-.01-.43-.02-.11,0-.21,0-.34-.02,0,0,0,0,0,0-.12,0-.21-.01-.34-.02.02-.2.04-.4.06-.6-.79-.05-1.57-.13-2.36-.23-.04.2-.08.4-.11.6-.14-.02-.22-.03-.34-.04h0c-.15-.02-.26-.03-.38-.05-.09-.01-.21-.03-.3-.04-.12-.02-.23-.03-.38-.06t0,0c-.11-.02-.2-.03-.34-.05.05-.2.1-.4.15-.61-.77-.13-1.54-.27-2.31-.44-.07.2-.13.4-.2.6-.13-.03-.22-.05-.33-.07t0,0c-.12-.03-.21-.05-.3-.07-.14-.03-.31-.07-.45-.11-.09-.02-.17-.04-.28-.07,0,0,0,0,0,0-.11-.03-.2-.05-.33-.08.08-.2.16-.4.24-.6-.75-.2-1.49-.42-2.23-.66-.1.2-.19.4-.29.59-.13-.04-.21-.07-.32-.11h0c-.09-.03-.15-.05-.22-.07-.18-.06-.39-.14-.57-.2-.07-.02-.12-.04-.21-.07,0,0,0,0,0,0-.11-.04-.19-.07-.31-.12.11-.19.22-.39.33-.58-.72-.27-1.43-.57-2.12-.88-.12.19-.25.38-.37.57-.12-.05-.2-.09-.3-.14,0,0,0,0,0,0-.13-.06-.22-.1-.31-.15-.1-.05-.23-.11-.34-.16-.09-.04-.17-.08-.29-.14,0,0,0,0,0,0-.1-.05-.18-.09-.29-.15.14-.18.27-.37.41-.55-.68-.35-1.34-.71-1.98-1.1-.15.18-.3.35-.45.53-.11-.07-.18-.11-.28-.17,0,0,0,0,0,0-.1-.06-.16-.1-.24-.15-.12-.07-.27-.17-.39-.25-.08-.05-.14-.09-.24-.16,0,0,0,0,0,0-.09-.06-.16-.11-.27-.18.16-.17.32-.34.48-.5-.63-.43-1.23-.87-1.81-1.33-.17.16-.35.32-.52.48-.52-.41-.78-.63-1.28-1.07.18-.15.37-.3.55-.46-.56-.5-1.1-1.02-1.6-1.56-.2.14-.4.29-.6.43-.46-.48-.68-.73-1.12-1.24.21-.14.42-.27.64-.41-.48-.58-.93-1.18-1.36-1.78-.23.13-.46.25-.69.38-.39-.55-.58-.83-.93-1.4.24-.12.49-.24.73-.35-.39-.66-.75-1.32-1.09-2.01-.26.11-.52.21-.78.32-.31-.62-.45-.93-.72-1.57.27-.09.54-.19.81-.28-.3-.73-.57-1.47-.81-2.22-.28.08-.56.15-.84.23-.22-.68-.32-1.03-.49-1.74.28-.06.57-.12.85-.18-.2-.8-.37-1.62-.51-2.44-.28.04-.57.08-.85.12-.12-.75-.17-1.13-.24-1.91.28-.02.55-.04.83-.07-.1-.92-.18-1.85-.21-2.78.16,0,.24,0,.39,0,.03.92.1,1.84.21,2.75,1.33-.11,2.66-.21,4-.32-.11-.79-.18-1.6-.22-2.42.16,0,.24,0,.39,0,.04.81.11,1.6.21,2.39.18-.01.36-.03.54-.04.02.24.04.42.06.6.01.12.03.27.05.39.02.18.05.35.08.58-.16.02-.32.04-.48.07.14.7.31,1.4.5,2.08.13-.03.26-.06.39-.08.06.22.1.39.15.55.03.11.06.23.09.33.05.17.1.33.17.54-.11.03-.23.06-.34.09.22.64.47,1.26.75,1.88.1-.03.19-.07.29-.1.09.22.16.37.23.54.03.07.07.16.1.23.08.16.15.32.26.53-.09.03-.17.07-.26.1.3.58.62,1.14.96,1.69.08-.04.15-.07.23-.11.11.17.18.29.27.42.07.11.15.23.23.34.08.12.16.24.27.39-.07.04-.15.08-.22.12.37.52.75,1.02,1.16,1.51.07-.05.15-.09.22-.14.13.15.22.25.32.37.09.11.2.22.29.32.09.1.18.2.3.33-.07.05-.15.11-.23.16.43.46.87.91,1.34,1.34.08-.07.16-.13.24-.2.14.13.25.22.36.31.1.09.21.18.32.27.11.09.22.18.37.3-.08.08-.17.15-.25.23.49.4.99.79,1.51,1.16.09-.09.18-.18.26-.28.16.11.28.19.41.27.1.06.21.13.3.19.14.09.27.17.46.28-.09.1-.18.21-.27.31.54.34,1.09.67,1.66.98.09-.12.18-.25.27-.37.21.11.36.18.52.26.06.03.14.07.21.1.16.08.32.15.53.25-.09.13-.18.27-.27.41.58.28,1.18.54,1.79.79.09-.15.17-.3.26-.46.23.09.4.15.58.21.06.02.13.04.18.06.17.06.34.12.57.19-.08.16-.16.33-.24.49.62.21,1.25.41,1.9.59.07-.18.14-.35.21-.53.21.06.37.1.54.14.11.03.23.06.34.08.16.04.31.07.52.12-.06.18-.12.37-.18.55.65.15,1.31.28,1.98.39.05-.19.09-.38.14-.57.2.03.34.05.49.07.15.02.31.04.46.06.15.02.29.04.48.06-.04.2-.07.39-.11.59.66.08,1.34.14,2.03.19.02-.2.04-.4.06-.6.2.01.34.02.49.03.13,0,.28.01.4.02.17,0,.33.01.55.02,0,.2-.02.4-.03.6.37.01.73.02,1.1.02.32,0,.63,0,.94-.01,0-.2-.02-.41-.02-.61.16,0,.27,0,.4-.01.21,0,.4-.02.6-.03.14,0,.27-.01.44-.03.02.21.04.41.06.62.69-.04,1.36-.1,2.03-.18-.04-.21-.08-.42-.11-.63.2-.02.34-.04.5-.06.14-.02.29-.04.42-.06.16-.02.31-.05.51-.08.05.21.1.42.15.63.68-.11,1.34-.24,1.99-.38-.07-.21-.13-.41-.2-.62.23-.05.4-.09.57-.13.09-.02.19-.05.28-.07.17-.04.32-.08.54-.14.08.2.16.4.24.61.65-.18,1.29-.37,1.92-.58-.09-.19-.19-.38-.28-.58.18-.06.31-.1.44-.15.16-.06.33-.11.5-.17.13-.05.24-.09.4-.15.1.18.2.37.3.55.62-.24,1.22-.5,1.81-.78l-.33-.5c.15-.07.26-.12.38-.17.17-.08.33-.15.49-.24.12-.06.23-.11.39-.19l.34.46c.57-.31,1.13-.63,1.68-.98-.12-.14-.23-.27-.35-.41.18-.1.3-.18.44-.27.1-.06.21-.13.3-.19.13-.09.26-.17.43-.28.11.12.23.24.34.36.52-.37,1.03-.76,1.52-1.16l-.33-.31c.16-.13.28-.22.4-.32.09-.07.18-.15.27-.22.12-.1.23-.19.38-.32.11.09.21.18.32.27.47-.43.91-.87,1.34-1.33-.1-.07-.21-.15-.31-.22.12-.12.21-.21.3-.31.11-.12.23-.25.34-.37.09-.1.18-.19.28-.32.1.06.21.13.3.19.41-.48.79-.98,1.16-1.49-.1-.06-.19-.11-.29-.16.12-.17.21-.29.3-.42.06-.09.13-.19.19-.27.08-.13.17-.26.28-.44.1.05.2.1.3.15.34-.54.67-1.09.96-1.65-.1-.04-.21-.09-.32-.13.11-.21.19-.36.26-.52.04-.07.07-.15.1-.21.07-.16.15-.31.24-.53.11.04.22.08.34.12.28-.6.53-1.21.76-1.83-.13-.04-.27-.08-.41-.11.07-.19.11-.33.15-.47.04-.13.08-.27.12-.4.04-.16.08-.31.14-.52.15.04.3.07.46.11.19-.66.36-1.33.51-2.01-.18-.03-.36-.06-.54-.09.03-.19.05-.33.07-.48.02-.17.05-.35.07-.52.02-.16.04-.31.05-.51.21.02.42.04.63.06.14-.93.23-1.87.27-2.83.16,0,.24,0,.39,0-.04.97-.14,1.93-.28,2.87,1.32.13,2.64.27,3.97.4.16-1.07.26-2.15.3-3.26.16,0,.24,0,.39,0-.04,1.12-.15,2.22-.31,3.29.25.03.51.05.77.08-.08.75-.13,1.12-.25,1.85-.28-.04-.56-.09-.83-.13-.17.79-.37,1.58-.59,2.35.3.07.61.14.91.21-.18.69-.28,1.03-.5,1.69-.32-.09-.64-.18-.96-.27-.27.72-.56,1.43-.88,2.13.33.12.66.24.99.35-.27.63-.42.93-.73,1.53-.33-.14-.65-.27-.98-.41-.34.66-.72,1.3-1.12,1.93.31.16.64.32.96.47-.07.1-.12.19-.18.27,0,0,0,0-.01.02-.25.38-.44.65-.75,1.09l-.93-.52c-.42.59-.88,1.17-1.35,1.73.28.19.57.37.86.56-.35.4-.57.64-.88.97,0,0-.01,0-.01.01h0c-.07.07-.14.14-.22.23-.27-.19-.54-.38-.8-.58-.5.53-1.02,1.05-1.57,1.54.24.2.48.4.71.59-.1.08-.16.14-.24.21h0c-.08.07-.14.12-.21.17-.11.1-.25.21-.37.31-.07.05-.13.1-.21.17h0c-.08.07-.15.12-.25.2-.22-.2-.44-.4-.65-.59-.57.47-1.16.91-1.77,1.34.19.2.38.39.56.59-.1.07-.18.12-.27.18,0,0,0,0,0,0-.1.07-.18.11-.26.16-.12.08-.27.17-.4.25-.07.04-.13.08-.21.13h0c-.1.06-.17.1-.28.17-.16-.19-.33-.39-.5-.58-.63.4-1.28.77-1.95,1.13.14.19.28.38.41.56-.12.06-.2.1-.3.15,0,0,0,0,0,0-.12.06-.2.1-.29.14-.11.05-.25.12-.36.17-.09.04-.17.08-.29.13,0,0,0,0,0,0-.1.05-.18.08-.3.14-.12-.18-.24-.37-.36-.55-.69.32-1.39.63-2.11.91.1.18.2.36.3.54-.12.05-.21.08-.31.11,0,0,0,0,0,0-.11.04-.19.07-.27.1-.13.05-.3.11-.44.15-.09.03-.17.06-.28.1,0,0,0,0,0,0-.11.04-.19.07-.32.11-.09-.18-.17-.36-.26-.53-.73.25-1.47.47-2.23.68.07.18.14.35.21.53-.13.03-.22.06-.33.08h0c-.08.02-.14.04-.2.05-.18.05-.4.1-.58.14-.08.02-.15.04-.25.06,0,0,0,0,0,0-.11.03-.2.05-.33.08-.06-.18-.12-.36-.17-.53-.76.17-1.53.32-2.32.44.04.18.09.36.13.54-.13.02-.22.03-.34.05h0c-.11.02-.19.03-.28.04-.14.02-.32.05-.46.07-.1.01-.2.03-.33.04,0,0,0,0,0,0-.11.01-.2.03-.34.04-.03-.18-.07-.37-.1-.55-.78.09-1.56.16-2.36.21.02.19.04.38.06.57-.14,0-.23.01-.34.02h0c-.11,0-.18.01-.26.02-.16,0-.35.02-.51.03-.1,0-.18,0-.3.01h0c-.12,0-.21,0-.34.01,0-.19-.01-.39-.02-.58-.09,0-.18,0-.27,0-.7.01-1.4,0-2.1-.01,0,.2-.02.39-.03.59h0Z"/>
      <g class="cls-28">
        <path class="cls-6" d="m42.96,75.27c1.33-.28,2.67-.57,4-.85-.2-.69-.37-1.39-.51-2.11-1.33.18-2.67.37-4,.55.14.81.31,1.62.51,2.41Zm64.84.32c.22-.76.42-1.53.59-2.32-1.31-.2-2.63-.41-3.94-.61-.15.69-.32,1.37-.52,2.04,1.29.3,2.58.59,3.87.89Zm-63.57,3.55c1.32-.46,2.63-.91,3.94-1.37-.28-.62-.53-1.26-.76-1.9-1.33.36-2.66.72-3.99,1.07.24.74.5,1.47.8,2.2Zm62.17.16c.31-.69.6-1.39.87-2.1-1.27-.36-2.54-.72-3.81-1.08-.23.63-.48,1.25-.76,1.85,1.24.44,2.47.89,3.71,1.33Zm-60.41,3.34c1.27-.62,2.53-1.23,3.8-1.85-.35-.56-.67-1.13-.98-1.71-1.3.53-2.6,1.05-3.9,1.58.33.67.69,1.34,1.07,1.98Zm58.58.02c.4-.62.77-1.25,1.11-1.9-1.21-.5-2.42-1.01-3.62-1.51-.31.57-.63,1.13-.98,1.68,1.17.58,2.33,1.16,3.49,1.74Zm-2.23,3.03c.47-.55.91-1.13,1.34-1.71-1.13-.63-2.26-1.26-3.38-1.89-.37.52-.76,1.02-1.17,1.51,1.08.7,2.15,1.4,3.22,2.09Zm-54.13.08c1.18-.76,2.36-1.51,3.53-2.27-.41-.5-.8-1.01-1.17-1.53-1.23.68-2.47,1.36-3.7,2.03.42.6.86,1.19,1.34,1.76Zm51.53,2.62c.54-.49,1.06-1,1.55-1.52-1.03-.75-2.06-1.49-3.09-2.23-.44.46-.89.91-1.36,1.34.97.8,1.94,1.61,2.9,2.41Zm-48.88.12c1.06-.87,2.11-1.74,3.17-2.6-.47-.44-.92-.89-1.36-1.35-1.13.81-2.26,1.61-3.39,2.42.5.53,1.02,1.04,1.58,1.54Zm45.94,2.25c.6-.42,1.19-.87,1.75-1.33-.92-.85-1.84-1.69-2.76-2.54-.49.41-1.01.8-1.54,1.17.85.9,1.7,1.79,2.55,2.69Zm-42.92.1c.91-.95,1.82-1.9,2.73-2.86-.53-.38-1.04-.77-1.53-1.18-1,.91-1.99,1.81-2.99,2.72.57.45,1.16.89,1.79,1.31Zm39.65,1.91c.66-.35,1.3-.73,1.93-1.12-.79-.93-1.59-1.86-2.39-2.8-.55.35-1.12.68-1.7.99.72.98,1.44,1.95,2.15,2.93Zm-36.32.05c.75-1.01,1.5-2.02,2.26-3.04-.58-.31-1.14-.64-1.68-.99-.84.98-1.69,1.96-2.53,2.94.64.38,1.29.75,1.96,1.09Zm3.58,1.58c.59-1.06,1.19-2.11,1.78-3.17-.62-.25-1.23-.51-1.82-.8-.68,1.03-1.37,2.06-2.05,3.1.69.31,1.39.6,2.1.87Zm29.19,0c.71-.28,1.41-.58,2.09-.9-.66-1-1.32-2.01-1.98-3.01-.6.28-1.21.55-1.83.79.58,1.04,1.15,2.08,1.73,3.12Zm-25.42,1.21c.43-1.09.87-2.18,1.3-3.27-.66-.18-1.3-.38-1.93-.6-.53,1.07-1.05,2.14-1.58,3.21.73.24,1.46.46,2.2.65Zm21.65.03c.75-.2,1.49-.43,2.21-.67-.51-1.06-1.03-2.12-1.54-3.18-.63.22-1.28.41-1.94.59.43,1.09.85,2.17,1.28,3.26Zm-17.73.8c.28-1.12.55-2.24.83-3.35-.68-.11-1.35-.25-2.01-.39-.37,1.1-.74,2.21-1.1,3.31.75.17,1.51.31,2.28.44Zm13.8.04c.78-.12,1.54-.27,2.29-.44-.36-1.1-.72-2.21-1.08-3.31-.66.15-1.33.28-2.02.39.27,1.12.54,2.24.81,3.36Zm-9.79.43c.12-1.14.24-2.27.35-3.41-.69-.05-1.38-.11-2.05-.19-.21,1.13-.42,2.25-.63,3.38.77.1,1.55.17,2.33.22Zm5.76.01c.79-.05,1.57-.12,2.34-.21-.2-1.13-.41-2.26-.61-3.39-.68.08-1.36.14-2.06.18.11,1.14.22,2.28.33,3.41Zm-2.71.09c.24,0,.49,0,.73,0,.09,0,.18,0,.27,0-.04-1.14-.09-2.28-.13-3.42-.32,0-.63.01-.95.01-.38,0-.75,0-1.12-.02-.05,1.14-.1,2.28-.15,3.42.45.01.9.02,1.35.02Zm-1.39.91c-.14,0-.23,0-.34-.01h0c-.12,0-.21,0-.3,0-.13,0-.3-.01-.43-.02-.11,0-.21,0-.34-.02,0,0,0,0,0,0-.12,0-.21-.01-.34-.02.02-.2.04-.4.06-.6-.79-.05-1.57-.13-2.36-.23-.04.2-.08.4-.11.6-.14-.02-.22-.03-.34-.04h0c-.15-.02-.26-.03-.38-.05-.09-.01-.21-.03-.3-.04-.12-.02-.23-.03-.38-.06t0,0c-.11-.02-.2-.03-.34-.05.05-.2.1-.4.15-.61-.77-.13-1.54-.27-2.31-.44-.07.2-.13.4-.2.6-.13-.03-.22-.05-.33-.07t0,0c-.12-.03-.21-.05-.3-.07-.14-.03-.31-.07-.45-.11-.09-.02-.17-.04-.28-.07,0,0,0,0,0,0-.11-.03-.2-.05-.33-.08.08-.2.16-.4.24-.6-.75-.2-1.49-.42-2.23-.66-.1.2-.19.4-.29.59-.13-.04-.21-.07-.32-.11h0c-.09-.03-.15-.05-.22-.07-.18-.06-.39-.14-.57-.2-.07-.02-.12-.04-.21-.07,0,0,0,0,0,0-.11-.04-.19-.07-.31-.12.11-.19.22-.39.33-.58-.72-.27-1.43-.57-2.12-.88-.12.19-.25.38-.37.57-.12-.05-.2-.09-.3-.14,0,0,0,0,0,0-.13-.06-.22-.1-.31-.15-.1-.05-.23-.11-.34-.16-.09-.04-.17-.08-.29-.14,0,0,0,0,0,0-.1-.05-.18-.09-.29-.15.14-.18.27-.37.41-.55-.68-.35-1.34-.71-1.98-1.1-.15.18-.3.35-.45.53-.11-.07-.18-.11-.28-.17,0,0,0,0,0,0-.1-.06-.16-.1-.24-.15-.12-.07-.27-.17-.39-.25-.08-.05-.14-.09-.24-.16,0,0,0,0,0,0-.09-.06-.16-.11-.27-.18.16-.17.32-.34.48-.5-.63-.43-1.23-.87-1.81-1.33-.17.16-.35.32-.52.48-.52-.41-.78-.63-1.28-1.07.18-.15.37-.3.55-.46-.56-.5-1.1-1.02-1.6-1.56-.2.14-.4.29-.6.43-.46-.48-.68-.73-1.12-1.24.21-.14.42-.27.64-.41-.48-.58-.93-1.18-1.36-1.78-.23.13-.46.25-.69.38-.39-.55-.58-.83-.93-1.4.24-.12.49-.24.73-.35-.39-.66-.75-1.32-1.09-2.01-.26.11-.52.21-.78.32-.31-.62-.45-.93-.72-1.57.27-.09.54-.19.81-.28-.3-.73-.57-1.47-.81-2.22-.28.08-.56.15-.84.23-.22-.68-.32-1.03-.49-1.74.28-.06.57-.12.85-.18-.2-.8-.37-1.62-.51-2.44-.28.04-.57.08-.85.12-.12-.75-.17-1.13-.24-1.91.28-.02.55-.04.83-.07-.1-.92-.18-1.85-.21-2.78.16,0,.24,0,.39,0,.03.92.1,1.84.21,2.75,1.33-.11,2.66-.21,4-.32-.11-.79-.18-1.6-.22-2.42.16,0,.24,0,.39,0,.04.81.11,1.6.21,2.39.18-.01.36-.03.54-.04.02.24.04.42.06.6.01.12.03.27.05.39.02.18.05.35.08.58-.16.02-.32.04-.48.07.14.7.31,1.4.5,2.08.13-.03.26-.06.39-.08.06.22.1.39.15.55.03.11.06.23.09.33.05.17.1.33.17.54-.11.03-.23.06-.34.09.22.64.47,1.26.75,1.88.1-.03.19-.07.29-.1.09.22.16.37.23.54.03.07.07.16.1.23.08.16.15.32.26.53-.09.03-.17.07-.26.1.3.58.62,1.14.96,1.69.08-.04.15-.07.23-.11.11.17.18.29.27.42.07.11.15.23.23.34.08.12.16.24.27.39-.07.04-.15.08-.22.12.37.52.75,1.02,1.16,1.51.07-.05.15-.09.22-.14.13.15.22.25.32.37.09.11.2.22.29.32.09.1.18.2.3.33-.07.05-.15.11-.23.16.43.46.87.91,1.34,1.34.08-.07.16-.13.24-.2.14.13.25.22.36.31.1.09.21.18.32.27.11.09.22.18.37.3-.08.08-.17.15-.25.23.49.4.99.79,1.51,1.16.09-.09.18-.18.26-.28.16.11.28.19.41.27.1.06.21.13.3.19.14.09.27.17.46.28-.09.1-.18.21-.27.31.54.34,1.09.67,1.66.98.09-.12.18-.25.27-.37.21.11.36.18.52.26.06.03.14.07.21.1.16.08.32.15.53.25-.09.13-.18.27-.27.41.58.28,1.18.54,1.79.79.09-.15.17-.3.26-.46.23.09.4.15.58.21.06.02.13.04.18.06.17.06.34.12.57.19-.08.16-.16.33-.24.49.62.21,1.25.41,1.9.59.07-.18.14-.35.21-.53.21.06.37.1.54.14.11.03.23.06.34.08.16.04.31.07.52.12-.06.18-.12.37-.18.55.65.15,1.31.28,1.98.39.05-.19.09-.38.14-.57.2.03.34.05.49.07.15.02.31.04.46.06.15.02.29.04.48.06-.04.2-.07.39-.11.59.66.08,1.34.14,2.03.19.02-.2.04-.4.06-.6.2.01.34.02.49.03.13,0,.28.01.4.02.17,0,.33.01.55.02,0,.2-.02.4-.03.6.37.01.73.02,1.1.02.32,0,.63,0,.94-.01,0-.2-.02-.41-.02-.61.16,0,.27,0,.4-.01.21,0,.4-.02.6-.03.14,0,.27-.01.44-.03.02.21.04.41.06.62.69-.04,1.36-.1,2.03-.18-.04-.21-.08-.42-.11-.63.2-.02.34-.04.5-.06.14-.02.29-.04.42-.06.16-.02.31-.05.51-.08.05.21.1.42.15.63.68-.11,1.34-.24,1.99-.38-.07-.21-.13-.41-.2-.62.23-.05.4-.09.57-.13.09-.02.19-.05.28-.07.17-.04.32-.08.54-.14.08.2.16.4.24.61.65-.18,1.29-.37,1.92-.58-.09-.19-.19-.38-.28-.58.18-.06.31-.1.44-.15.16-.06.33-.11.5-.17.13-.05.24-.09.4-.15.1.18.2.37.3.55.62-.24,1.22-.5,1.81-.78l-.33-.5c.15-.07.26-.12.38-.17.17-.08.33-.15.49-.24.12-.06.23-.11.39-.19l.34.46c.57-.31,1.13-.63,1.68-.98-.12-.14-.23-.27-.35-.41.18-.1.3-.18.44-.27.1-.06.21-.13.3-.19.13-.09.26-.17.43-.28.11.12.23.24.34.36.52-.37,1.03-.76,1.52-1.16l-.33-.31c.16-.13.28-.22.4-.32.09-.07.18-.15.27-.22.12-.1.23-.19.38-.32.11.09.21.18.32.27.47-.43.91-.87,1.34-1.33-.1-.07-.21-.15-.31-.22.12-.12.21-.21.3-.31.11-.12.23-.25.34-.37.09-.1.18-.19.28-.32.1.06.21.13.3.19.41-.48.79-.98,1.16-1.49-.1-.06-.19-.11-.29-.16.12-.17.21-.29.3-.42.06-.09.13-.19.19-.27.08-.13.17-.26.28-.44.1.05.2.1.3.15.34-.54.67-1.09.96-1.65-.1-.04-.21-.09-.32-.13.11-.21.19-.36.26-.52.04-.07.07-.15.1-.21.07-.16.15-.31.24-.53.11.04.22.08.34.12.28-.6.53-1.21.76-1.83-.13-.04-.27-.08-.41-.11.07-.19.11-.33.15-.47.04-.13.08-.27.12-.4.04-.16.08-.31.14-.52.15.04.3.07.46.11.19-.66.36-1.33.51-2.01-.18-.03-.36-.06-.54-.09.03-.19.05-.33.07-.48.02-.17.05-.35.07-.52.02-.16.04-.31.05-.51.21.02.42.04.63.06.14-.93.23-1.87.27-2.83.16,0,.24,0,.39,0-.04.97-.14,1.93-.28,2.87,1.32.13,2.64.27,3.97.4.16-1.07.26-2.15.3-3.26.16,0,.24,0,.39,0-.04,1.12-.15,2.22-.31,3.29.25.03.51.05.77.08-.08.75-.13,1.12-.25,1.85-.28-.04-.56-.09-.83-.13-.17.79-.37,1.58-.59,2.35.3.07.61.14.91.21-.18.69-.28,1.03-.5,1.69-.32-.09-.64-.18-.96-.27-.27.72-.56,1.43-.88,2.13.33.12.66.24.99.35-.27.63-.42.93-.73,1.53-.33-.14-.65-.27-.98-.41-.34.66-.72,1.3-1.12,1.93.31.16.64.32.96.47-.07.1-.12.19-.18.27,0,0,0,0-.01.02-.25.38-.44.65-.75,1.09l-.93-.52c-.42.59-.88,1.17-1.35,1.73.28.19.57.37.86.56-.35.4-.57.64-.88.97,0,0-.01,0-.01.01h0c-.07.07-.14.14-.22.23-.27-.19-.54-.38-.8-.58-.5.53-1.02,1.05-1.57,1.54.24.2.48.4.71.59-.1.08-.16.14-.24.21h0c-.08.07-.14.12-.21.17-.11.1-.25.21-.37.31-.07.05-.13.1-.21.17h0c-.08.07-.15.12-.25.2-.22-.2-.44-.4-.65-.59-.57.47-1.16.91-1.77,1.34.19.2.38.39.56.59-.1.07-.18.12-.27.18,0,0,0,0,0,0-.1.07-.18.11-.26.16-.12.08-.27.17-.4.25-.07.04-.13.08-.21.13h0c-.1.06-.17.1-.28.17-.16-.19-.33-.39-.5-.58-.63.4-1.28.77-1.95,1.13.14.19.28.38.41.56-.12.06-.2.1-.3.15,0,0,0,0,0,0-.12.06-.2.1-.29.14-.11.05-.25.12-.36.17-.09.04-.17.08-.29.13,0,0,0,0,0,0-.1.05-.18.08-.3.14-.12-.18-.24-.37-.36-.55-.69.32-1.39.63-2.11.91.1.18.2.36.3.54-.12.05-.21.08-.31.11,0,0,0,0,0,0-.11.04-.19.07-.27.1-.13.05-.3.11-.44.15-.09.03-.17.06-.28.1,0,0,0,0,0,0-.11.04-.19.07-.32.11-.09-.18-.17-.36-.26-.53-.73.25-1.47.47-2.23.68.07.18.14.35.21.53-.13.03-.22.06-.33.08h0c-.08.02-.14.04-.2.05-.18.05-.4.1-.58.14-.08.02-.15.04-.25.06,0,0,0,0,0,0-.11.03-.2.05-.33.08-.06-.18-.12-.36-.17-.53-.76.17-1.53.32-2.32.44.04.18.09.36.13.54-.13.02-.22.03-.34.05h0c-.11.02-.19.03-.28.04-.14.02-.32.05-.46.07-.1.01-.2.03-.33.04,0,0,0,0,0,0-.11.01-.2.03-.34.04-.03-.18-.07-.37-.1-.55-.78.09-1.56.16-2.36.21.02.19.04.38.06.57-.14,0-.23.01-.34.02h0c-.11,0-.18.01-.26.02-.16,0-.35.02-.51.03-.1,0-.18,0-.3.01h0c-.12,0-.21,0-.34.01,0-.19-.01-.39-.02-.58-.09,0-.18,0-.27,0-.7.01-1.4,0-2.1-.01,0,.2-.02.39-.03.59h0Z"/>
      </g>
      <path class="cls-1" d="m43.37,86.31h21.52s0,2.96,0,2.96c-.11,1.49,3.96-.11,4.03,1.12.05.86-1.53.76-3.41.82l-21.91.02c-3.07.02-5.73,1.3-7.37,2.65.39-1.77,2.02-3.84,4.55-4.86-.86-.19-3.63-.36-5.2.13,1.59-2.09,5.09-2.9,7.78-2.85Z"/>
      <path class="cls-11" d="m43.37,86.31h21.52s0,2.96,0,2.96c-.11,1.49,3.96-.11,4.03,1.12.05.86-1.53.76-3.41.82l-21.91.02c-3.07.02-5.73,1.3-7.37,2.65.39-1.77,2.02-3.84,4.55-4.86-.86-.19-3.63-.36-5.2.13,1.59-2.09,5.09-2.9,7.78-2.85Z"/>
      <path class="cls-1" d="m107.7,86.31h-20.88s0,2.96,0,2.96c.11,1.49-3.85-.11-3.91,1.12-.05.86,1.48.76,3.31.82l21.25.02c2.98.02,5.55,1.3,7.15,2.65-.38-1.77-1.96-3.84-4.42-4.86.83-.19,3.52-.36,5.05.13-1.54-2.09-4.94-2.9-7.55-2.85Z"/>
      <path class="cls-11" d="m107.7,86.31h-20.88s0,2.96,0,2.96c.11,1.49-3.85-.11-3.91,1.12-.05.86,1.48.76,3.31.82l21.25.02c2.98.02,5.55,1.3,7.15,2.65-.38-1.77-1.96-3.84-4.42-4.86.83-.19,3.52-.36,5.05.13-1.54-2.09-4.94-2.9-7.55-2.85Z"/>
      <path class="cls-1" d="m59.41,84.36c.13-1.1,12.64-1.24,16.42-1.24s16.29.14,16.42,1.24v1.94s0,2.97,0,2.97c-.08-.68-4.86-.99-9.41-1.13-2.83-.09-5.56-.1-7.01-.1s-4.18.02-7.01.1c-4.54.14-9.33.45-9.41,1.13v-2.97s0-1.94,0-1.94Z"/>
      <path class="cls-11" d="m59.41,84.36c.13-1.1,12.64-1.24,16.42-1.24s16.29.14,16.42,1.24v1.94s0,2.97,0,2.97c-.08-.68-4.86-.99-9.41-1.13-2.83-.09-5.56-.1-7.01-.1s-4.18.02-7.01.1c-4.54.14-9.33.45-9.41,1.13v-2.97s0-1.94,0-1.94Z"/>
      <path class="cls-1" d="m82.83,90.39v-2.25c4.55.14,9.33.45,9.41,1.13.17,1.49-9.31-.11-9.41,1.12Z"/>
      <path class="cls-11" d="m82.83,90.39v-2.25c4.55.14,9.33.45,9.41,1.13.17,1.49-9.31-.11-9.41,1.12Z"/>
      <path class="cls-1" d="m68.82,88.14v2.25c-.1-1.23-9.58.37-9.41-1.12.08-.68,4.86-.99,9.41-1.13Z"/>
      <path class="cls-11" d="m68.82,88.14v2.25c-.1-1.23-9.58.37-9.41-1.12.08-.68,4.86-.99,9.41-1.13Z"/>
      <path class="cls-3" d="m47.14,89.81v.33h-1.83c0-.08.01-.16.04-.24.05-.12.12-.25.22-.37.1-.12.25-.26.45-.42.3-.25.51-.44.61-.59.11-.14.16-.28.16-.41s-.05-.25-.15-.34c-.1-.09-.22-.14-.38-.14-.16,0-.3.05-.39.15-.1.1-.15.23-.15.41l-.35-.04c.02-.26.11-.46.27-.6.16-.14.37-.21.63-.21s.48.07.63.22c.15.15.23.33.23.55,0,.11-.02.22-.07.33-.05.11-.12.22-.23.34-.1.12-.28.28-.52.49-.2.17-.34.29-.39.35-.06.06-.11.12-.14.18h1.36Z"/>
      <path class="cls-6" d="m47.14,89.81v.33h-1.83c0-.08.01-.16.04-.24.05-.12.12-.25.22-.37.1-.12.25-.26.45-.42.3-.25.51-.44.61-.59.11-.14.16-.28.16-.41s-.05-.25-.15-.34c-.1-.09-.22-.14-.38-.14-.16,0-.3.05-.39.15-.1.1-.15.23-.15.41l-.35-.04c.02-.26.11-.46.27-.6.16-.14.37-.21.63-.21s.48.07.63.22c.15.15.23.33.23.55,0,.11-.02.22-.07.33-.05.11-.12.22-.23.34-.1.12-.28.28-.52.49-.2.17-.34.29-.39.35-.06.06-.11.12-.14.18h1.36Z"/>
      <path class="cls-3" d="m49.09,89.81h.59c.18,0,.33-.02.43-.05.1-.03.19-.08.25-.14.09-.09.15-.2.2-.35.05-.15.07-.33.07-.54,0-.29-.05-.51-.14-.67-.09-.16-.21-.26-.35-.31-.1-.04-.26-.06-.47-.06h-.58v2.12Zm-.37.33v-2.77h.95c.22,0,.38.01.49.04.16.04.29.1.41.2.15.12.26.28.33.48.07.19.11.41.11.66,0,.21-.02.4-.07.56-.05.16-.11.3-.19.4-.08.11-.16.19-.25.25-.09.06-.2.11-.33.14-.13.03-.28.05-.44.05h-1Z"/>
      <path class="cls-6" d="m49.09,89.81h.59c.18,0,.33-.02.43-.05.1-.03.19-.08.25-.14.09-.09.15-.2.2-.35.05-.15.07-.33.07-.54,0-.29-.05-.51-.14-.67-.09-.16-.21-.26-.35-.31-.1-.04-.26-.06-.47-.06h-.58v2.12Zm-.37.33v-2.77h.95c.22,0,.38.01.49.04.16.04.29.1.41.2.15.12.26.28.33.48.07.19.11.41.11.66,0,.21-.02.4-.07.56-.05.16-.11.3-.19.4-.08.11-.16.19-.25.25-.09.06-.2.11-.33.14-.13.03-.28.05-.44.05h-1Z"/>
      <polygon class="cls-3" points="51.53 90.14 51.53 87.36 53.53 87.36 53.53 87.69 51.89 87.69 51.89 88.54 53.43 88.54 53.43 88.86 51.89 88.86 51.89 89.81 53.6 89.81 53.6 90.14 51.53 90.14"/>
      <polygon class="cls-6" points="51.53 90.14 51.53 87.36 53.53 87.36 53.53 87.69 51.89 87.69 51.89 88.54 53.43 88.54 53.43 88.86 51.89 88.86 51.89 89.81 53.6 89.81 53.6 90.14 51.53 90.14"/>
      <path class="cls-3" d="m98.96,90.09h-.34v-2.17c-.08.08-.19.16-.32.23s-.25.14-.36.18v-.33c.19-.09.36-.2.5-.33.15-.13.24-.25.3-.37h.22v2.78Z"/>
      <path class="cls-6" d="m98.96,90.09h-.34v-2.17c-.08.08-.19.16-.32.23s-.25.14-.36.18v-.33c.19-.09.36-.2.5-.33.15-.13.24-.25.3-.37h.22v2.78Z"/>
      <path class="cls-3" d="m101.28,88.22c0-.2-.05-.35-.16-.47-.1-.11-.22-.17-.37-.17s-.28.06-.4.19c-.11.12-.17.28-.17.48,0,.18.05.32.16.43.1.11.24.16.39.16s.28-.06.39-.16c.1-.11.15-.26.15-.46Zm-1.39,1.22l.33-.03c.03.15.08.27.16.34.08.07.18.1.3.1.1,0,.19-.02.27-.07.08-.05.15-.11.2-.19.05-.08.09-.19.12-.32.04-.14.05-.28.05-.42v-.07c-.07.11-.16.2-.28.26-.11.07-.24.1-.38.1-.23,0-.42-.08-.58-.25-.16-.17-.24-.39-.24-.66s.08-.51.25-.68c.16-.17.37-.26.62-.26.18,0,.34.05.49.15.15.1.27.24.34.42.08.18.12.44.12.78s-.04.64-.11.85c-.08.21-.19.37-.34.48-.15.11-.33.16-.53.16-.22,0-.39-.06-.53-.18-.14-.12-.22-.29-.25-.51Z"/>
      <path class="cls-6" d="m101.28,88.22c0-.2-.05-.35-.16-.47-.1-.11-.22-.17-.37-.17s-.28.06-.4.19c-.11.12-.17.28-.17.48,0,.18.05.32.16.43.1.11.24.16.39.16s.28-.06.39-.16c.1-.11.15-.26.15-.46Zm-1.39,1.22l.33-.03c.03.15.08.27.16.34.08.07.18.1.3.1.1,0,.19-.02.27-.07.08-.05.15-.11.2-.19.05-.08.09-.19.12-.32.04-.14.05-.28.05-.42v-.07c-.07.11-.16.2-.28.26-.11.07-.24.1-.38.1-.23,0-.42-.08-.58-.25-.16-.17-.24-.39-.24-.66s.08-.51.25-.68c.16-.17.37-.26.62-.26.18,0,.34.05.49.15.15.1.27.24.34.42.08.18.12.44.12.78s-.04.64-.11.85c-.08.21-.19.37-.34.48-.15.11-.33.16-.53.16-.22,0-.39-.06-.53-.18-.14-.12-.22-.29-.25-.51Z"/>
      <path class="cls-3" d="m103.27,90.09h-.34v-2.17c-.08.08-.19.16-.32.23s-.25.14-.36.18v-.33c.19-.09.36-.2.5-.33.15-.13.25-.25.3-.37h.22v2.78Z"/>
      <path class="cls-6" d="m103.27,90.09h-.34v-2.17c-.08.08-.19.16-.32.23s-.25.14-.36.18v-.33c.19-.09.36-.2.5-.33.15-.13.25-.25.3-.37h.22v2.78Z"/>
      <path class="cls-3" d="m105.23,89.11v-1.25l-.87,1.25h.87Zm0,.98v-.66h-1.2v-.31l1.26-1.8h.28v1.8h.38v.31h-.38v.66h-.34Z"/>
      <path class="cls-6" d="m105.23,89.11v-1.25l-.87,1.25h.87Zm0,.98v-.66h-1.2v-.31l1.26-1.8h.28v1.8h.38v.31h-.38v.66h-.34Z"/>
      <path class="cls-3" d="m66.23,85.59c0,.33.09.6.27.79.18.19.41.29.68.29s.5-.1.68-.29c.18-.19.27-.47.27-.83,0-.23-.04-.42-.12-.59-.08-.17-.19-.3-.33-.39-.15-.09-.31-.14-.49-.14-.26,0-.48.09-.67.27-.19.18-.28.48-.28.89Zm-.38,0c0-.46.12-.82.37-1.08.25-.26.57-.39.96-.39.26,0,.49.06.69.18.21.12.36.29.47.51.11.22.16.47.16.74s-.06.53-.17.75c-.11.22-.27.39-.48.51-.21.11-.43.17-.67.17-.26,0-.49-.06-.7-.19-.21-.13-.36-.3-.47-.52-.11-.22-.16-.45-.16-.69Z"/>
      <path class="cls-6" d="m66.23,85.59c0,.33.09.6.27.79.18.19.41.29.68.29s.5-.1.68-.29c.18-.19.27-.47.27-.83,0-.23-.04-.42-.12-.59-.08-.17-.19-.3-.33-.39-.15-.09-.31-.14-.49-.14-.26,0-.48.09-.67.27-.19.18-.28.48-.28.89Zm-.38,0c0-.46.12-.82.37-1.08.25-.26.57-.39.96-.39.26,0,.49.06.69.18.21.12.36.29.47.51.11.22.16.47.16.74s-.06.53-.17.75c-.11.22-.27.39-.48.51-.21.11-.43.17-.67.17-.26,0-.49-.06-.7-.19-.21-.13-.36-.3-.47-.52-.11-.22-.16-.45-.16-.69Z"/>
      <path class="cls-3" d="m70.79,84.17h.37v1.6c0,.28-.03.5-.1.66-.06.16-.18.3-.34.4-.16.1-.38.15-.65.15s-.47-.04-.64-.13-.28-.22-.35-.39c-.07-.17-.11-.4-.11-.7v-1.6h.37v1.6c0,.24.02.42.07.53.05.11.12.2.23.26.11.06.24.09.4.09.27,0,.46-.06.58-.18.11-.12.17-.36.17-.71v-1.6Z"/>
      <path class="cls-6" d="m70.79,84.17h.37v1.6c0,.28-.03.5-.1.66-.06.16-.18.3-.34.4-.16.1-.38.15-.65.15s-.47-.04-.64-.13-.28-.22-.35-.39c-.07-.17-.11-.4-.11-.7v-1.6h.37v1.6c0,.24.02.42.07.53.05.11.12.2.23.26.11.06.24.09.4.09.27,0,.46-.06.58-.18.11-.12.17-.36.17-.71v-1.6Z"/>
      <polygon class="cls-3" points="72.48 86.94 72.48 84.49 71.57 84.49 71.57 84.17 73.76 84.17 73.76 84.49 72.85 84.49 72.85 86.94 72.48 86.94"/>
      <polygon class="cls-6" points="72.48 86.94 72.48 84.49 71.57 84.49 71.57 84.17 73.76 84.17 73.76 84.49 72.85 84.49 72.85 86.94 72.48 86.94"/>
      <path class="cls-3" d="m75.97,84.17h.37v1.6c0,.28-.03.5-.09.66s-.18.3-.34.4c-.16.1-.38.15-.65.15s-.47-.04-.64-.13c-.16-.09-.28-.22-.35-.39-.07-.17-.11-.4-.11-.7v-1.6h.37v1.6c0,.24.02.42.07.53.05.11.12.2.23.26.11.06.24.09.4.09.27,0,.46-.06.58-.18.11-.12.17-.36.17-.71v-1.6Z"/>
      <path class="cls-6" d="m75.97,84.17h.37v1.6c0,.28-.03.5-.09.66s-.18.3-.34.4c-.16.1-.38.15-.65.15s-.47-.04-.64-.13c-.16-.09-.28-.22-.35-.39-.07-.17-.11-.4-.11-.7v-1.6h.37v1.6c0,.24.02.42.07.53.05.11.12.2.23.26.11.06.24.09.4.09.27,0,.46-.06.58-.18.11-.12.17-.36.17-.71v-1.6Z"/>
      <path class="cls-3" d="m77.31,86.61h.69c.12,0,.2,0,.25-.01.08-.02.15-.04.21-.08.06-.04.1-.09.14-.15.04-.07.06-.15.06-.23,0-.1-.03-.19-.08-.27-.05-.08-.13-.13-.22-.16-.09-.03-.23-.05-.4-.05h-.64v.95Zm0-1.28h.6c.16,0,.28-.01.35-.03.09-.03.16-.07.21-.14.05-.06.07-.14.07-.24,0-.09-.02-.17-.07-.24-.04-.07-.11-.12-.19-.14-.08-.03-.22-.04-.42-.04h-.55v.84Zm-.37,1.61v-2.77h1.04c.21,0,.38.03.51.08.13.06.23.14.3.26.07.12.11.24.11.36,0,.12-.03.23-.1.34-.06.1-.16.19-.29.25.17.05.3.13.39.25.09.12.14.26.14.42,0,.13-.03.25-.08.36-.05.11-.12.2-.2.26-.08.06-.18.11-.3.14-.12.03-.27.05-.45.05h-1.06Z"/>
      <path class="cls-6" d="m77.31,86.61h.69c.12,0,.2,0,.25-.01.08-.02.15-.04.21-.08.06-.04.1-.09.14-.15.04-.07.06-.15.06-.23,0-.1-.03-.19-.08-.27-.05-.08-.13-.13-.22-.16-.09-.03-.23-.05-.4-.05h-.64v.95Zm0-1.28h.6c.16,0,.28-.01.35-.03.09-.03.16-.07.21-.14.05-.06.07-.14.07-.24,0-.09-.02-.17-.07-.24-.04-.07-.11-.12-.19-.14-.08-.03-.22-.04-.42-.04h-.55v.84Zm-.37,1.61v-2.77h1.04c.21,0,.38.03.51.08.13.06.23.14.3.26.07.12.11.24.11.36,0,.12-.03.23-.1.34-.06.1-.16.19-.29.25.17.05.3.13.39.25.09.12.14.26.14.42,0,.13-.03.25-.08.36-.05.11-.12.2-.2.26-.08.06-.18.11-.3.14-.12.03-.27.05-.45.05h-1.06Z"/>
      <path class="cls-3" d="m79.91,85.39h.79c.17,0,.3-.02.39-.05.09-.04.17-.09.22-.17.05-.08.07-.16.07-.25,0-.13-.05-.24-.14-.32-.09-.08-.24-.13-.45-.13h-.88v.92Zm-.37,1.55v-2.77h1.23c.25,0,.43.02.56.08.13.05.23.14.31.26.08.13.12.27.12.42,0,.2-.06.36-.19.5s-.32.22-.59.26c.1.05.17.09.22.14.11.1.21.22.3.37l.48.75h-.46l-.37-.58c-.11-.17-.2-.29-.26-.38-.07-.09-.13-.15-.19-.19-.05-.04-.11-.06-.17-.07-.04,0-.11-.01-.2-.01h-.43v1.23h-.37Z"/>
      <path class="cls-6" d="m79.91,85.39h.79c.17,0,.3-.02.39-.05.09-.04.17-.09.22-.17.05-.08.07-.16.07-.25,0-.13-.05-.24-.14-.32-.09-.08-.24-.13-.45-.13h-.88v.92Zm-.37,1.55v-2.77h1.23c.25,0,.43.02.56.08.13.05.23.14.31.26.08.13.12.27.12.42,0,.2-.06.36-.19.5s-.32.22-.59.26c.1.05.17.09.22.14.11.1.21.22.3.37l.48.75h-.46l-.37-.58c-.11-.17-.2-.29-.26-.38-.07-.09-.13-.15-.19-.19-.05-.04-.11-.06-.17-.07-.04,0-.11-.01-.2-.01h-.43v1.23h-.37Z"/>
      <path class="cls-3" d="m82.6,85.59c0,.33.09.6.27.79.18.19.41.29.68.29s.5-.1.68-.29c.18-.19.27-.47.27-.83,0-.23-.04-.42-.12-.59-.08-.17-.19-.3-.33-.39-.15-.09-.31-.14-.49-.14-.26,0-.48.09-.67.27-.19.18-.28.48-.28.89Zm-.38,0c0-.46.12-.82.37-1.08.25-.26.57-.39.96-.39.26,0,.49.06.69.18.21.12.36.29.47.51.11.22.16.47.16.74s-.06.53-.17.75c-.11.22-.27.39-.48.51-.21.11-.43.17-.67.17-.26,0-.49-.06-.7-.19-.21-.13-.36-.3-.47-.52-.11-.22-.16-.45-.16-.69Z"/>
      <path class="cls-6" d="m82.6,85.59c0,.33.09.6.27.79.18.19.41.29.68.29s.5-.1.68-.29c.18-.19.27-.47.27-.83,0-.23-.04-.42-.12-.59-.08-.17-.19-.3-.33-.39-.15-.09-.31-.14-.49-.14-.26,0-.48.09-.67.27-.19.18-.28.48-.28.89Zm-.38,0c0-.46.12-.82.37-1.08.25-.26.57-.39.96-.39.26,0,.49.06.69.18.21.12.36.29.47.51.11.22.16.47.16.74s-.06.53-.17.75c-.11.22-.27.39-.48.51-.21.11-.43.17-.67.17-.26,0-.49-.06-.7-.19-.21-.13-.36-.3-.47-.52-.11-.22-.16-.45-.16-.69Z"/>
      <path d="m59.55,39.23l.73-.46c.24-.15.38-.3.43-.46.04-.15.02-.31-.09-.47-.07-.12-.17-.2-.28-.25-.11-.05-.23-.06-.34-.02-.07.02-.19.09-.36.19l-.72.45.63,1.01Zm.55,1.71l-1.76-2.82,1.06-.67c.19-.11.34-.19.45-.24.15-.06.3-.09.43-.08.13,0,.26.05.39.13.13.08.24.19.33.33.15.24.2.49.15.75-.05.26-.27.52-.67.77l-.72.45.72,1.15-.37.23Z"/>
      <path class="cls-6" d="m59.55,39.23l.73-.46c.24-.15.38-.3.43-.46.04-.15.02-.31-.09-.47-.07-.12-.17-.2-.28-.25-.11-.05-.23-.06-.34-.02-.07.02-.19.09-.36.19l-.72.45.63,1.01Zm.55,1.71l-1.76-2.82,1.06-.67c.19-.11.34-.19.45-.24.15-.06.3-.09.43-.08.13,0,.26.05.39.13.13.08.24.19.33.33.15.24.2.49.15.75-.05.26-.27.52-.67.77l-.72.45.72,1.15-.37.23Z"/>
      <path d="m62.32,37.72c.18.36.41.59.71.71.3.11.59.09.88-.05.3-.15.49-.37.58-.68.09-.31.04-.65-.15-1.03-.12-.24-.27-.43-.44-.57-.17-.15-.36-.22-.57-.24-.21-.02-.41.01-.6.11-.28.14-.47.36-.58.65-.11.29-.05.66.18,1.11Zm-.41.2c-.25-.49-.3-.95-.18-1.36.13-.41.4-.72.82-.93.28-.13.56-.19.84-.17.29.02.55.12.78.3.23.18.42.41.57.71.15.3.22.61.22.9,0,.3-.09.57-.25.8-.16.23-.37.41-.63.54-.28.14-.56.2-.85.17-.29-.03-.55-.13-.78-.31-.23-.18-.41-.4-.54-.66Z"/>
      <path class="cls-6" d="m62.32,37.72c.18.36.41.59.71.71.3.11.59.09.88-.05.3-.15.49-.37.58-.68.09-.31.04-.65-.15-1.03-.12-.24-.27-.43-.44-.57-.17-.15-.36-.22-.57-.24-.21-.02-.41.01-.6.11-.28.14-.47.36-.58.65-.11.29-.05.66.18,1.11Zm-.41.2c-.25-.49-.3-.95-.18-1.36.13-.41.4-.72.82-.93.28-.13.56-.19.84-.17.29.02.55.12.78.3.23.18.42.41.57.71.15.3.22.61.22.9,0,.3-.09.57-.25.8-.16.23-.37.41-.63.54-.28.14-.56.2-.85.17-.29-.03-.55-.13-.78-.31-.23-.18-.41-.4-.54-.66Z"/>
      <path d="m65.8,35.84l.89-.32c.19-.07.33-.14.42-.22.09-.08.15-.17.18-.27.02-.11.02-.21-.02-.31-.05-.15-.15-.25-.29-.31-.14-.05-.33-.04-.56.04l-.99.35.37,1.04Zm.21,1.9l-1.12-3.13,1.39-.5c.28-.1.5-.15.67-.15.17,0,.32.06.45.18.14.11.24.25.3.42.08.22.07.44-.01.64-.09.21-.28.38-.56.53.13.01.23.04.31.07.16.07.33.16.49.29l.85.66-.52.19-.65-.5c-.19-.15-.34-.25-.45-.33-.11-.07-.21-.11-.29-.13-.08-.02-.15-.02-.22-.02-.05.01-.13.03-.24.07l-.48.17.5,1.39-.41.15Z"/>
      <path class="cls-6" d="m65.8,35.84l.89-.32c.19-.07.33-.14.42-.22.09-.08.15-.17.18-.27.02-.11.02-.21-.02-.31-.05-.15-.15-.25-.29-.31-.14-.05-.33-.04-.56.04l-.99.35.37,1.04Zm.21,1.9l-1.12-3.13,1.39-.5c.28-.1.5-.15.67-.15.17,0,.32.06.45.18.14.11.24.25.3.42.08.22.07.44-.01.64-.09.21-.28.38-.56.53.13.01.23.04.31.07.16.07.33.16.49.29l.85.66-.52.19-.65-.5c-.19-.15-.34-.25-.45-.33-.11-.07-.21-.11-.29-.13-.08-.02-.15-.02-.22-.02-.05.01-.13.03-.24.07l-.48.17.5,1.39-.41.15Z"/>
      <polygon points="69.93 36.5 69.27 33.64 68.2 33.88 68.11 33.5 70.68 32.91 70.77 33.29 69.7 33.54 70.36 36.4 69.93 36.5"/>
      <polygon class="cls-6" points="69.93 36.5 69.27 33.64 68.2 33.88 68.11 33.5 70.68 32.91 70.77 33.29 69.7 33.54 70.36 36.4 69.93 36.5"/>
      <path d="m71.99,34.44c.04.4.17.7.41.91.24.21.52.3.84.27.33-.03.59-.17.78-.42.19-.25.27-.59.23-1.02-.03-.27-.09-.5-.2-.69-.11-.19-.26-.34-.44-.43-.18-.1-.39-.13-.6-.11-.31.03-.57.16-.77.4-.2.23-.28.6-.23,1.1Zm-.45.04c-.05-.55.06-.99.32-1.33s.63-.53,1.1-.57c.31-.03.59.02.85.14.26.13.46.31.62.56.15.25.25.54.28.87.03.33,0,.64-.12.92-.11.28-.28.5-.52.65-.24.16-.5.25-.79.28-.31.03-.6-.02-.86-.15s-.46-.31-.62-.56c-.15-.25-.24-.52-.27-.81Z"/>
      <path class="cls-6" d="m71.99,34.44c.04.4.17.7.41.91.24.21.52.3.84.27.33-.03.59-.17.78-.42.19-.25.27-.59.23-1.02-.03-.27-.09-.5-.2-.69-.11-.19-.26-.34-.44-.43-.18-.1-.39-.13-.6-.11-.31.03-.57.16-.77.4-.2.23-.28.6-.23,1.1Zm-.45.04c-.05-.55.06-.99.32-1.33s.63-.53,1.1-.57c.31-.03.59.02.85.14.26.13.46.31.62.56.15.25.25.54.28.87.03.33,0,.64-.12.92-.11.28-.28.5-.52.65-.24.16-.5.25-.79.28-.31.03-.6-.02-.86-.15s-.46-.31-.62-.56c-.15-.25-.24-.52-.27-.81Z"/>
      <path d="m77.65,35.95l-.92-3.45.47.05.6,2.49c.05.2.09.39.11.56.07-.18.15-.35.24-.52l1.16-2.31.45.05-1.66,3.17-.45-.05Z"/>
      <path class="cls-6" d="m77.65,35.95l-.92-3.45.47.05.6,2.49c.05.2.09.39.11.56.07-.18.15-.35.24-.52l1.16-2.31.45.05-1.66,3.17-.45-.05Z"/>
      <polygon points="79.8 36.24 80.58 33.01 82.92 33.58 82.83 33.96 80.92 33.49 80.68 34.48 82.47 34.91 82.37 35.29 80.59 34.86 80.32 35.96 82.3 36.44 82.21 36.83 79.8 36.24"/>
      <polygon class="cls-6" points="79.8 36.24 80.58 33.01 82.92 33.58 82.83 33.96 80.92 33.49 80.68 34.48 82.47 34.91 82.37 35.29 80.59 34.86 80.32 35.96 82.3 36.44 82.21 36.83 79.8 36.24"/>
      <polygon points="82.77 37.02 83.91 33.89 84.32 34.04 83.32 36.8 84.86 37.36 84.73 37.73 82.77 37.02"/>
      <polygon class="cls-6" points="82.77 37.02 83.91 33.89 84.32 34.04 83.32 36.8 84.86 37.36 84.73 37.73 82.77 37.02"/>
      <polygon points="85.23 37.93 86.67 34.94 87.07 35.12 86.48 36.36 88.03 37.1 88.63 35.88 89.02 36.07 87.58 39.06 87.18 38.87 87.86 37.46 86.31 36.71 85.63 38.12 85.23 37.93"/>
      <polygon class="cls-6" points="85.23 37.93 86.67 34.94 87.07 35.12 86.48 36.36 88.03 37.1 88.63 35.88 89.02 36.07 87.58 39.06 87.18 38.87 87.86 37.46 86.31 36.71 85.63 38.12 85.23 37.93"/>
      <path d="m89.34,38.21c-.21.34-.28.67-.22.98.06.31.23.55.51.72.28.17.57.22.88.13.3-.09.57-.31.79-.68.14-.23.23-.46.25-.68.03-.22,0-.42-.1-.61-.09-.19-.23-.34-.42-.45-.26-.16-.55-.21-.85-.15-.3.07-.58.31-.85.74Zm-.38-.24c.29-.47.64-.76,1.06-.87.42-.12.82-.05,1.22.2.26.16.46.37.59.62.13.25.19.53.16.82-.03.29-.13.58-.3.86-.18.29-.39.51-.65.66-.26.16-.53.23-.81.21-.28-.02-.55-.1-.79-.25-.27-.16-.47-.38-.6-.63-.13-.26-.18-.53-.15-.82.03-.29.12-.56.27-.81Z"/>
      <path class="cls-6" d="m89.34,38.21c-.21.34-.28.67-.22.98.06.31.23.55.51.72.28.17.57.22.88.13.3-.09.57-.31.79-.68.14-.23.23-.46.25-.68.03-.22,0-.42-.1-.61-.09-.19-.23-.34-.42-.45-.26-.16-.55-.21-.85-.15-.3.07-.58.31-.85.74Zm-.38-.24c.29-.47.64-.76,1.06-.87.42-.12.82-.05,1.22.2.26.16.46.37.59.62.13.25.19.53.16.82-.03.29-.13.58-.3.86-.18.29-.39.51-.65.66-.26.16-.53.23-.81.21-.28-.02-.55-.1-.79-.25-.27-.16-.47-.38-.6-.63-.13-.26-.18-.53-.15-.82.03-.29.12-.56.27-.81Z"/>
      <polygon class="cls-30" points="75.42 43.16 78.21 45.29 77.13 41.86 79.92 39.73 76.47 39.73 75.42 36.29 74.37 39.73 70.92 39.73 73.71 41.86 72.63 45.29 75.42 43.16"/>
      <polygon class="cls-5" points="75.42 43.16 78.21 45.29 77.13 41.86 79.92 39.73 76.47 39.73 75.42 36.29 74.37 39.73 70.92 39.73 73.71 41.86 72.63 45.29 75.42 43.16"/>
      <polygon class="cls-30" points="75.42 41.25 79.92 39.73 76.47 39.73 75.42 41.25"/>
      <polygon class="cls-5" points="75.42 41.25 79.92 39.73 76.47 39.73 75.42 41.25"/>
      <polygon class="cls-30" points="75.42 41.25 75.42 36.29 74.37 39.73 75.42 41.25"/>
      <polygon class="cls-5" points="75.42 41.25 75.42 36.29 74.37 39.73 75.42 41.25"/>
      <polygon class="cls-30" points="75.42 41.25 70.92 39.73 73.71 41.86 75.42 41.25"/>
      <polygon class="cls-5" points="75.42 41.25 70.92 39.73 73.71 41.86 75.42 41.25"/>
      <polygon class="cls-30" points="75.42 41.25 72.63 45.29 75.42 43.16 75.42 41.25"/>
      <polygon class="cls-5" points="75.42 41.25 72.63 45.29 75.42 43.16 75.42 41.25"/>
      <polygon class="cls-30" points="75.42 41.25 78.21 45.29 77.13 41.86 75.42 41.25"/>
      <polygon class="cls-5" points="75.42 41.25 78.21 45.29 77.13 41.86 75.42 41.25"/>
      <polygon class="cls-30" points="75.42 41.25 75.42 36.29 76.47 39.73 75.42 41.25"/>
      <polygon class="cls-5" points="75.42 41.25 75.42 36.29 76.47 39.73 75.42 41.25"/>
      <polygon class="cls-30" points="75.42 41.25 70.92 39.73 74.37 39.73 75.42 41.25"/>
      <polygon class="cls-5" points="75.42 41.25 70.92 39.73 74.37 39.73 75.42 41.25"/>
      <polygon class="cls-30" points="75.42 41.25 72.63 45.29 73.71 41.86 75.42 41.25"/>
      <polygon class="cls-5" points="75.42 41.25 72.63 45.29 73.71 41.86 75.42 41.25"/>
      <polygon class="cls-30" points="75.42 41.25 78.21 45.29 75.42 43.16 75.42 41.25"/>
      <polygon class="cls-5" points="75.42 41.25 78.21 45.29 75.42 43.16 75.42 41.25"/>
      <polygon class="cls-30" points="75.42 41.25 79.92 39.73 77.13 41.86 75.42 41.25"/>
      <polygon class="cls-5" points="75.42 41.25 79.92 39.73 77.13 41.86 75.42 41.25"/>
    </g>
  </g>
</svg>