<svg xmlns="http://www.w3.org/2000/svg" width="344.897" height="124.362" viewBox="0 0 344.897 124.362">
  <g id="Grupo_1161" data-name="Grupo 1161" transform="translate(-151.55 -94.762)">
    <path id="Caminho_5641" data-name="Caminho 5641" d="M3314.024,97.82h16.59a8.825,8.825,0,0,0,4.041-.931,9.038,9.038,0,0,0,3.085-2.567,12.852,12.852,0,0,0,2-3.795,14.362,14.362,0,0,0,.727-4.567,12.666,12.666,0,0,0-.84-4.657,13,13,0,0,0-2.247-3.772,9.994,9.994,0,0,0-3.291-2.475,9.216,9.216,0,0,0-3.972-.886h-16.091Zm-7.194,26.854V67.763h23.694a15.438,15.438,0,0,1,6.945,1.568,17.57,17.57,0,0,1,5.445,4.157,20.356,20.356,0,0,1,3.564,5.862,18.1,18.1,0,0,1,1.27,6.61,19.941,19.941,0,0,1-1.2,6.815,18.3,18.3,0,0,1-3.4,5.839,16.732,16.732,0,0,1-5.288,4.088,15.184,15.184,0,0,1-6.854,1.523h-16.977v20.446Zm-23.362-44.96a11.8,11.8,0,0,0-2.542-2.157,22.428,22.428,0,0,0-3.609-1.886,24.656,24.656,0,0,0-4.38-1.363,23.153,23.153,0,0,0-4.925-.523c-4.426,0-7.671.819-9.715,2.477a8.259,8.259,0,0,0-3.086,6.815,7.579,7.579,0,0,0,.885,3.84,7.11,7.11,0,0,0,2.747,2.612,19.954,19.954,0,0,0,4.7,1.886c1.861.523,4.062,1.091,6.627,1.682a66.608,66.608,0,0,1,7.966,2.2,24.025,24.025,0,0,1,6.1,3.09,12.441,12.441,0,0,1,3.836,4.475,14.405,14.405,0,0,1,1.318,6.5,14.855,14.855,0,0,1-1.589,7.088,14.018,14.018,0,0,1-4.38,4.976,18.733,18.733,0,0,1-6.513,2.885,34.486,34.486,0,0,1-8.171.932A37.6,37.6,0,0,1,3256.3,123.2a34.968,34.968,0,0,1-10.711-5.976l3.45-6.088a18.491,18.491,0,0,0,3.313,2.727,25.558,25.558,0,0,0,4.653,2.43,34.355,34.355,0,0,0,5.6,1.772,28.22,28.22,0,0,0,6.286.682c4.064,0,7.2-.727,9.442-2.181a7.154,7.154,0,0,0,3.358-6.475,7.425,7.425,0,0,0-1.066-4.066,9.2,9.2,0,0,0-3.154-2.84,24.353,24.353,0,0,0-5.174-2.114c-2.066-.613-4.4-1.249-7.013-1.885a74.314,74.314,0,0,1-7.6-2.25,20.747,20.747,0,0,1-5.492-2.885,10.661,10.661,0,0,1-3.313-4.09,13.469,13.469,0,0,1-1.113-5.771,16.223,16.223,0,0,1,1.521-7.2,15.069,15.069,0,0,1,4.244-5.294,18.746,18.746,0,0,1,6.491-3.249,31.772,31.772,0,0,1,18.564.682,29.4,29.4,0,0,1,8.237,4.726Zm-64.2,22.673L3209.033,76.1l-10.575,26.285Zm-13.277-34.623h6.083l23.215,56.911H3227.6L3220.88,108h-23.852l-6.649,16.676h-7.694Zm-70.615,6.249V93.027h18.11a7.911,7.911,0,0,0,3.518-.772,9.1,9.1,0,0,0,4.607-5.043,9.868,9.868,0,0,0,.681-3.658,10.858,10.858,0,0,0-.636-3.771,10.709,10.709,0,0,0-1.725-3.045,7.733,7.733,0,0,0-2.655-2,7.9,7.9,0,0,0-3.313-.727Zm29.139,34.713a10.93,10.93,0,0,0-.657-3.726,10.612,10.612,0,0,0-1.838-3.157,9.181,9.181,0,0,0-2.769-2.181,7.943,7.943,0,0,0-3.542-.8h-20.333v19.562h19.789a8.228,8.228,0,0,0,3.677-.819,10.144,10.144,0,0,0,2.973-2.112,9.784,9.784,0,0,0,2-3.09A9.563,9.563,0,0,0,3164.517,108.725Zm7.309,1.273a13.532,13.532,0,0,1-1.316,6.019,13.925,13.925,0,0,1-3.609,4.636,16.554,16.554,0,0,1-5.288,2.976,19.393,19.393,0,0,1-6.446,1.045h-26.983V67.763h28.255a11.448,11.448,0,0,1,5.378,1.273,13.874,13.874,0,0,1,4.085,3.34,15.5,15.5,0,0,1,2.61,4.634,15.82,15.82,0,0,1,.907,5.27,15.139,15.139,0,0,1-2.111,7.838,13.184,13.184,0,0,1-6.059,5.385,14.345,14.345,0,0,1,7.74,5.316A15.258,15.258,0,0,1,3171.826,110ZM3063.9,96.231a25.438,25.438,0,0,0,1.408,8.36,23.164,23.164,0,0,0,3.949,7.18,19,19,0,0,0,6.173,4.975,17.239,17.239,0,0,0,7.989,1.841,16.721,16.721,0,0,0,8.17-1.977,19.677,19.677,0,0,0,6.128-5.133,23.191,23.191,0,0,0,3.858-7.157,25.591,25.591,0,0,0-.092-16.471,22.377,22.377,0,0,0-3.993-7.133,19.934,19.934,0,0,0-6.174-4.929,18.1,18.1,0,0,0-16.044.068,20.04,20.04,0,0,0-6.128,5.043,23.355,23.355,0,0,0-3.882,7.133A25.4,25.4,0,0,0,3063.9,96.231Zm19.449,28.853a24.179,24.179,0,0,1-10.937-2.454,26.769,26.769,0,0,1-8.443-6.5,29.481,29.481,0,0,1-5.425-9.246,30.276,30.276,0,0,1-1.928-10.655,29.647,29.647,0,0,1,2.042-10.905,30.107,30.107,0,0,1,5.651-9.223,26.8,26.8,0,0,1,8.51-6.361,24.535,24.535,0,0,1,10.689-2.363A23.338,23.338,0,0,1,3094.4,69.9a27.8,27.8,0,0,1,8.4,6.61,30.778,30.778,0,0,1,5.447,9.247,30.074,30.074,0,0,1-5.719,30.6,26.656,26.656,0,0,1-8.488,6.337A24.238,24.238,0,0,1,3083.351,125.083Z" transform="translate(-2880.196 27.384)" fill="#512e12"/>
    <path id="Caminho_5642" data-name="Caminho 5642" d="M3333.609,143.351a4.126,4.126,0,0,0,1.653-.332,2.706,2.706,0,0,0,1.16-.872,1.055,1.055,0,0,0,.359-.74v-1.456a6.815,6.815,0,0,0-2.509-.471,3.542,3.542,0,0,0-2.026.53,1.6,1.6,0,0,0-.787,1.381,1.877,1.877,0,0,0,.161.771,1.8,1.8,0,0,0,.454.62,2.226,2.226,0,0,0,.691.418,2.3,2.3,0,0,0,.845.15m-.434,1.247a3.576,3.576,0,0,1-1.3-.235,3.187,3.187,0,0,1-1.05-.654,2.982,2.982,0,0,1-.695-.969,2.86,2.86,0,0,1-.258-1.221,2.536,2.536,0,0,1,.3-1.236,2.808,2.808,0,0,1,.855-.954,4.594,4.594,0,0,1,1.323-.626,5.851,5.851,0,0,1,1.668-.225,8.089,8.089,0,0,1,1.456.134,7.2,7.2,0,0,1,1.3.359v-.792a2.37,2.37,0,0,0-2.6-2.586,5.5,5.5,0,0,0-3.129,1.152l-.55-1.076a6.807,6.807,0,0,1,3.828-1.285,4.21,4.21,0,0,1,3.032,1.038,3.866,3.866,0,0,1,1.082,2.93v4.02c0,.391.176.589.529.606v1.435c-.176.027-.321.042-.433.059s-.235.015-.359.015a1.039,1.039,0,0,1-.781-.294,1.181,1.181,0,0,1-.353-.707l-.038-.7a4.21,4.21,0,0,1-1.668,1.345A5.1,5.1,0,0,1,3333.175,144.6Zm-6.867-11.9v-2.077h1.664V132.7Zm0,11.708V134.55h1.664v9.862Zm-11.108-4.948a5.366,5.366,0,0,1,.359-1.965,4.816,4.816,0,0,1,1.021-1.616,4.9,4.9,0,0,1,1.573-1.1,5.058,5.058,0,0,1,2.049-.4,4.8,4.8,0,0,1,2.54.647,4.2,4.2,0,0,1,1.609,1.751l-1.62.509a2.692,2.692,0,0,0-1.059-1.087,3,3,0,0,0-1.508-.385,3.086,3.086,0,0,0-1.284.273,3.054,3.054,0,0,0-1.036.767,3.671,3.671,0,0,0-.685,1.15,4.2,4.2,0,0,0,.005,2.907,3.825,3.825,0,0,0,.707,1.179,3.166,3.166,0,0,0,1.036.786,2.946,2.946,0,0,0,1.273.284,3.164,3.164,0,0,0,.862-.124,3.259,3.259,0,0,0,.775-.332,2.72,2.72,0,0,0,.615-.481,1.622,1.622,0,0,0,.374-.595l1.621.492a3.486,3.486,0,0,1-.631,1,3.928,3.928,0,0,1-.952.776,5.2,5.2,0,0,1-1.219.509,5.28,5.28,0,0,1-1.406.187,4.922,4.922,0,0,1-3.616-1.532,4.967,4.967,0,0,1-1.032-1.633A5.3,5.3,0,0,1,3315.2,139.464Zm-1.92,4.948h-1.663V138.9a4.283,4.283,0,0,0-.481-2.308,1.642,1.642,0,0,0-1.46-.717,2.752,2.752,0,0,0-1.017.2,4.114,4.114,0,0,0-.962.54,3.716,3.716,0,0,0-.792.814,3.385,3.385,0,0,0-.513,1.039v5.948h-1.664V134.55h1.513v2.119a4.375,4.375,0,0,1,1.69-1.665,4.822,4.822,0,0,1,2.4-.62,2.9,2.9,0,0,1,1.417.311,2.445,2.445,0,0,1,.91.866,3.938,3.938,0,0,1,.481,1.312,9.271,9.271,0,0,1,.139,1.644Zm-11.964-5.589a3.536,3.536,0,0,0-1.086-2.308,3.294,3.294,0,0,0-1.027-.648,3.424,3.424,0,0,0-2.492,0,3.163,3.163,0,0,0-1.027.658,3.4,3.4,0,0,0-.717,1.013,3.724,3.724,0,0,0-.331,1.285Zm-3.38,5.776a4.942,4.942,0,0,1-2.033-.406,4.77,4.77,0,0,1-1.583-1.1,4.98,4.98,0,0,1-1.032-1.631,5.354,5.354,0,0,1-.368-1.976,5.253,5.253,0,0,1,.368-1.965,5.091,5.091,0,0,1,1.038-1.629,4.944,4.944,0,0,1,1.593-1.1,5.068,5.068,0,0,1,2.038-.4,4.815,4.815,0,0,1,3.583,1.515,4.956,4.956,0,0,1,.995,1.606,5.369,5.369,0,0,1,.347,1.9c0,.141-.006.263-.01.376a2.68,2.68,0,0,1-.027.267h-8.173a3.834,3.834,0,0,0,.343,1.339,3.386,3.386,0,0,0,.737,1.038,3.213,3.213,0,0,0,1.026.681,3.016,3.016,0,0,0,1.215.246,3.3,3.3,0,0,0,.888-.122,3.825,3.825,0,0,0,.813-.328,2.812,2.812,0,0,0,.668-.513,2.076,2.076,0,0,0,.444-.675l1.433.4a3.612,3.612,0,0,1-.668,1,4.436,4.436,0,0,1-.985.786,4.936,4.936,0,0,1-1.235.52A5.427,5.427,0,0,1,3297.936,144.6Zm-2.561-12.277,1.9-1.7h1.21l1.9,1.7-.9.456-1.605-1.188-1.6,1.188Zm-3.211,11.6c-.1.048-.231.107-.4.176s-.348.139-.556.21a5.524,5.524,0,0,1-.679.176,4.407,4.407,0,0,1-.765.065,2.475,2.475,0,0,1-1.562-.5,1.816,1.816,0,0,1-.664-1.558v-6.627H3286.2V134.55h1.342v-3.283h1.658v3.283h2.209v1.307H3289.2v6.119a1.043,1.043,0,0,0,.358.792,1.194,1.194,0,0,0,.754.246,2.441,2.441,0,0,0,.9-.16,3.515,3.515,0,0,0,.556-.257Zm-10.964.679a7.6,7.6,0,0,1-2.337-.37,5.643,5.643,0,0,1-1.983-1.065l.716-1.114a7.114,7.114,0,0,0,1.738.99,5.109,5.109,0,0,0,1.829.332,3.015,3.015,0,0,0,1.706-.428,1.356,1.356,0,0,0,.63-1.194,1.093,1.093,0,0,0-.166-.616,1.381,1.381,0,0,0-.507-.444,4.406,4.406,0,0,0-.872-.342c-.353-.1-.759-.2-1.224-.316-.594-.155-1.1-.3-1.53-.439a3.909,3.909,0,0,1-1.053-.488,1.7,1.7,0,0,1-.6-.679,2.247,2.247,0,0,1-.193-.984,2.848,2.848,0,0,1,.294-1.312,2.8,2.8,0,0,1,.8-.963,3.607,3.607,0,0,1,1.2-.584,5.28,5.28,0,0,1,1.481-.2,5.848,5.848,0,0,1,2.074.359,5.076,5.076,0,0,1,1.622.942l-.755,1a4.2,4.2,0,0,0-1.389-.82,4.786,4.786,0,0,0-1.589-.273,2.9,2.9,0,0,0-1.535.385,1.343,1.343,0,0,0-.637,1.238,1.179,1.179,0,0,0,.124.561,1.046,1.046,0,0,0,.407.4,3.138,3.138,0,0,0,.727.3c.294.091.652.181,1.065.284.657.155,1.225.309,1.711.466a4.833,4.833,0,0,1,1.2.557,2.136,2.136,0,0,1,.718.755,2.207,2.207,0,0,1,.235,1.053,2.62,2.62,0,0,1-1.053,2.19A4.575,4.575,0,0,1,3281.2,144.6Zm-7.792-11.9v-2.077h1.662V132.7Zm0,11.708V134.55h1.662v9.862Zm-5.868.187a7.6,7.6,0,0,1-2.337-.37,5.645,5.645,0,0,1-1.983-1.065l.716-1.114a7.114,7.114,0,0,0,1.738.99,5.112,5.112,0,0,0,1.83.332,3.015,3.015,0,0,0,1.706-.428,1.356,1.356,0,0,0,.63-1.194,1.093,1.093,0,0,0-.166-.616,1.39,1.39,0,0,0-.508-.444,4.437,4.437,0,0,0-.872-.342c-.353-.1-.758-.2-1.224-.316-.595-.155-1.1-.3-1.53-.439a3.918,3.918,0,0,1-1.053-.488,1.694,1.694,0,0,1-.6-.679,2.247,2.247,0,0,1-.193-.984,2.842,2.842,0,0,1,.294-1.312,2.8,2.8,0,0,1,.8-.963,3.609,3.609,0,0,1,1.2-.584,5.283,5.283,0,0,1,1.481-.2,5.86,5.86,0,0,1,2.075.359,5.05,5.05,0,0,1,1.62.942l-.753,1a4.207,4.207,0,0,0-1.39-.82,4.784,4.784,0,0,0-1.589-.273,2.9,2.9,0,0,0-1.534.385,1.343,1.343,0,0,0-.637,1.238,1.173,1.173,0,0,0,.124.561,1.039,1.039,0,0,0,.406.4,3.129,3.129,0,0,0,.727.3c.294.091.653.181,1.065.284.657.155,1.225.309,1.712.466a4.841,4.841,0,0,1,1.2.557,2.126,2.126,0,0,1,.717.755,2.207,2.207,0,0,1,.235,1.053,2.62,2.62,0,0,1-1.053,2.19A4.573,4.573,0,0,1,3267.541,144.6Zm-9.322,0a7.6,7.6,0,0,1-2.337-.37,5.643,5.643,0,0,1-1.983-1.065l.716-1.114a7.1,7.1,0,0,0,1.738.99,5.111,5.111,0,0,0,1.83.332,3.007,3.007,0,0,0,1.7-.428,1.353,1.353,0,0,0,.631-1.194,1.1,1.1,0,0,0-.166-.616,1.4,1.4,0,0,0-.508-.444,4.442,4.442,0,0,0-.872-.342c-.353-.1-.759-.2-1.225-.316-.594-.155-1.1-.3-1.529-.439a3.9,3.9,0,0,1-1.053-.488,1.7,1.7,0,0,1-.605-.679,2.265,2.265,0,0,1-.192-.984,2.845,2.845,0,0,1,.294-1.312,2.8,2.8,0,0,1,.8-.963,3.607,3.607,0,0,1,1.2-.584,5.294,5.294,0,0,1,1.482-.2,5.86,5.86,0,0,1,2.075.359,5.057,5.057,0,0,1,1.62.942l-.753,1a4.22,4.22,0,0,0-1.391-.82,4.778,4.778,0,0,0-1.588-.273,2.894,2.894,0,0,0-1.534.385,1.342,1.342,0,0,0-.637,1.238,1.173,1.173,0,0,0,.124.561,1.043,1.043,0,0,0,.406.4,3.152,3.152,0,0,0,.727.3c.294.091.653.181,1.065.284.656.155,1.225.309,1.711.466a4.843,4.843,0,0,1,1.2.557,2.126,2.126,0,0,1,.717.755,2.207,2.207,0,0,1,.235,1.053,2.622,2.622,0,0,1-1.054,2.19A4.575,4.575,0,0,1,3258.219,144.6Zm-8.6-5.44-2.412-6.194-2.493,6.194ZM3246.488,131h1.433l5.471,13.412h-1.813l-1.582-3.93h-5.622l-1.567,3.93H3241Zm-11.948,7.822a3.532,3.532,0,0,0-1.086-2.308,3.308,3.308,0,0,0-1.027-.648,3.424,3.424,0,0,0-2.492,0,3.155,3.155,0,0,0-1.027.658,3.373,3.373,0,0,0-.717,1.013,3.747,3.747,0,0,0-.332,1.285Zm-3.38,5.776a4.94,4.94,0,0,1-2.032-.406,4.756,4.756,0,0,1-1.583-1.1,4.948,4.948,0,0,1-1.032-1.631,5.355,5.355,0,0,1-.368-1.976,5.254,5.254,0,0,1,.368-1.965,5.061,5.061,0,0,1,1.038-1.629,4.929,4.929,0,0,1,1.593-1.1,5.059,5.059,0,0,1,2.038-.4,4.817,4.817,0,0,1,3.583,1.515,4.959,4.959,0,0,1,.995,1.606,5.4,5.4,0,0,1,.347,1.9c0,.141-.006.263-.01.376a2.139,2.139,0,0,1-.029.267H3227.9a3.834,3.834,0,0,0,.342,1.339,3.353,3.353,0,0,0,.738,1.038,3.2,3.2,0,0,0,1.027.681,3,3,0,0,0,1.214.246,3.308,3.308,0,0,0,.889-.122,3.832,3.832,0,0,0,.813-.328,2.871,2.871,0,0,0,.668-.513,2.1,2.1,0,0,0,.444-.675l1.434.4a3.593,3.593,0,0,1-.67,1,4.382,4.382,0,0,1-.983.786,4.957,4.957,0,0,1-1.236.52A5.421,5.421,0,0,1,3231.161,144.6Zm-11.771-1.435a2.816,2.816,0,0,0,.935-.172,3.541,3.541,0,0,0,.9-.471,3.307,3.307,0,0,0,.739-.706,2.055,2.055,0,0,0,.4-.862v-2.833a3.129,3.129,0,0,0-.5-.9,4.136,4.136,0,0,0-.764-.733,3.81,3.81,0,0,0-.91-.492,2.731,2.731,0,0,0-.952-.177,2.8,2.8,0,0,0-1.332.311,3.216,3.216,0,0,0-1.015.83,3.743,3.743,0,0,0-.652,1.188,4.313,4.313,0,0,0-.225,1.37,3.767,3.767,0,0,0,.263,1.409,3.629,3.629,0,0,0,.716,1.162,3.449,3.449,0,0,0,1.07.781A2.985,2.985,0,0,0,3219.389,143.164Zm-.4,1.435a4.29,4.29,0,0,1-1.887-.418,4.58,4.58,0,0,1-1.487-1.114,5.04,5.04,0,0,1-.973-1.622,5.5,5.5,0,0,1-.347-1.944,5.938,5.938,0,0,1,.331-1.976,5.134,5.134,0,0,1,.919-1.638,4.4,4.4,0,0,1,1.418-1.1,4.038,4.038,0,0,1,1.8-.4,3.768,3.768,0,0,1,2.122.62,4.941,4.941,0,0,1,1.477,1.511v-5.889h1.664v11.745c0,.391.176.589.529.606v1.435c-.176.027-.32.042-.427.059s-.208.015-.311.015a1.234,1.234,0,0,1-.855-.332.993.993,0,0,1-.37-.765v-.83a4.257,4.257,0,0,1-3.605,2.039Zm-16.321-1.247a4.129,4.129,0,0,0,1.653-.332,2.705,2.705,0,0,0,1.16-.872,1.055,1.055,0,0,0,.359-.74v-1.456a6.81,6.81,0,0,0-2.509-.471,3.545,3.545,0,0,0-2.027.53,1.6,1.6,0,0,0-.786,1.381,1.881,1.881,0,0,0,.16.771,1.8,1.8,0,0,0,.455.62,2.232,2.232,0,0,0,.691.418A2.3,2.3,0,0,0,3202.671,143.351Zm-.433,1.247a3.578,3.578,0,0,1-1.3-.235,3.208,3.208,0,0,1-1.049-.654,2.976,2.976,0,0,1-.7-.969,2.86,2.86,0,0,1-.257-1.221,2.533,2.533,0,0,1,.3-1.236,2.8,2.8,0,0,1,.857-.954,4.581,4.581,0,0,1,1.321-.626,5.858,5.858,0,0,1,1.668-.225,8.088,8.088,0,0,1,1.456.134,7.228,7.228,0,0,1,1.3.359v-.792a2.37,2.37,0,0,0-2.605-2.586,5.5,5.5,0,0,0-3.129,1.152l-.55-1.076a6.806,6.806,0,0,1,3.828-1.285,4.207,4.207,0,0,1,3.032,1.038,3.863,3.863,0,0,1,1.082,2.93v4.02c0,.391.176.589.529.606v1.435c-.177.027-.321.042-.433.059s-.235.015-.359.015a1.039,1.039,0,0,1-.781-.294,1.177,1.177,0,0,1-.353-.707l-.037-.7a4.223,4.223,0,0,1-1.67,1.345A5.1,5.1,0,0,1,3202.238,144.6Zm-4.172-8.593a4.3,4.3,0,0,0-2.2.643,3.258,3.258,0,0,0-1.349,1.681v6.083h-1.662V134.55h1.55v2.285a4.666,4.666,0,0,1,1.338-1.654,3.284,3.284,0,0,1,1.776-.706h.321a.854.854,0,0,1,.225.021Zm-9.547-3.3v-2.077h1.663V132.7Zm0,11.708V134.55h1.663v9.862Zm-3.411-5.589a3.643,3.643,0,0,0-.348-1.3,3.593,3.593,0,0,0-.739-1.011,3.3,3.3,0,0,0-1.028-.648,3.422,3.422,0,0,0-2.492,0,3.165,3.165,0,0,0-1.027.658,3.37,3.37,0,0,0-.716,1.013,3.747,3.747,0,0,0-.332,1.285Zm-3.382,5.776a4.948,4.948,0,0,1-2.032-.406,4.751,4.751,0,0,1-1.583-1.1,4.948,4.948,0,0,1-1.032-1.631,5.356,5.356,0,0,1-.37-1.976,5.255,5.255,0,0,1,.37-1.965,5.09,5.09,0,0,1,1.036-1.629,4.945,4.945,0,0,1,1.595-1.1,5.059,5.059,0,0,1,2.038-.4,4.8,4.8,0,0,1,4.578,3.121,5.4,5.4,0,0,1,.347,1.9c0,.141-.005.263-.011.376a2.319,2.319,0,0,1-.026.267h-8.172a3.807,3.807,0,0,0,.342,1.339,3.359,3.359,0,0,0,.739,1.038,3.185,3.185,0,0,0,1.027.681,3,3,0,0,0,1.214.246,3.283,3.283,0,0,0,.887-.122,3.772,3.772,0,0,0,.813-.328,2.865,2.865,0,0,0,.67-.513,2.079,2.079,0,0,0,.443-.675l1.433.4a3.564,3.564,0,0,1-.668,1,4.379,4.379,0,0,1-.984.786,4.949,4.949,0,0,1-1.235.52A5.422,5.422,0,0,1,3181.727,144.6Zm-9.711-13.973h1.656v11.237a1.19,1.19,0,0,0,.3.857,1.055,1.055,0,0,0,.818.311,2.3,2.3,0,0,0,.492-.065,3.916,3.916,0,0,0,.53-.16l.262,1.343a6.017,6.017,0,0,1-.979.284,5.268,5.268,0,0,1-1,.113,1.915,1.915,0,0,1-2.074-2.077Zm-4.381,2.077v-2.077h1.664V132.7Zm0,11.708V134.55h1.664v9.862Zm-5.866.187a7.6,7.6,0,0,1-2.337-.37,5.65,5.65,0,0,1-1.985-1.065l.717-1.114a7.107,7.107,0,0,0,1.739.99,5.1,5.1,0,0,0,1.828.332,3.007,3.007,0,0,0,1.706-.428,1.353,1.353,0,0,0,.632-1.194,1.093,1.093,0,0,0-.166-.616,1.408,1.408,0,0,0-.508-.444,4.418,4.418,0,0,0-.872-.342c-.353-.1-.759-.2-1.225-.316-.593-.155-1.1-.3-1.53-.439a3.923,3.923,0,0,1-1.053-.488,1.681,1.681,0,0,1-.6-.679,2.227,2.227,0,0,1-.193-.984,2.827,2.827,0,0,1,.294-1.312,2.79,2.79,0,0,1,.8-.963,3.621,3.621,0,0,1,1.2-.584,5.286,5.286,0,0,1,1.483-.2,5.861,5.861,0,0,1,2.074.359,5.083,5.083,0,0,1,1.621.942l-.754,1a4.22,4.22,0,0,0-1.391-.82,4.775,4.775,0,0,0-1.587-.273,2.9,2.9,0,0,0-1.536.385,1.342,1.342,0,0,0-.636,1.238,1.173,1.173,0,0,0,.122.561,1.035,1.035,0,0,0,.408.4,3.111,3.111,0,0,0,.727.3c.294.091.652.181,1.063.284.658.155,1.225.309,1.711.466a4.837,4.837,0,0,1,1.2.557,2.119,2.119,0,0,1,.716.755,2.213,2.213,0,0,1,.236,1.053,2.621,2.621,0,0,1-1.053,2.19A4.578,4.578,0,0,1,3161.768,144.6Zm-10.943-1.247a4.119,4.119,0,0,0,1.653-.332,2.708,2.708,0,0,0,1.162-.872,1.053,1.053,0,0,0,.357-.74v-1.456a6.8,6.8,0,0,0-2.507-.471,3.545,3.545,0,0,0-2.027.53,1.6,1.6,0,0,0-.786,1.381,1.869,1.869,0,0,0,.16.771,1.777,1.777,0,0,0,.454.62,2.226,2.226,0,0,0,.691.418A2.3,2.3,0,0,0,3150.825,143.351Zm-.432,1.247a3.6,3.6,0,0,1-1.3-.235,3.2,3.2,0,0,1-1.048-.654,2.99,2.99,0,0,1-.7-.969,2.874,2.874,0,0,1-.257-1.221,2.515,2.515,0,0,1,.305-1.236,2.8,2.8,0,0,1,.855-.954,4.6,4.6,0,0,1,1.321-.626,5.867,5.867,0,0,1,1.67-.225,8.057,8.057,0,0,1,1.454.134,7.18,7.18,0,0,1,1.3.359v-.792a2.368,2.368,0,0,0-2.6-2.586,5.5,5.5,0,0,0-3.129,1.152l-.552-1.076a6.812,6.812,0,0,1,3.83-1.285,4.209,4.209,0,0,1,3.032,1.038,3.861,3.861,0,0,1,1.081,2.93v4.02c0,.391.177.589.53.606v1.435c-.177.027-.321.042-.433.059s-.236.015-.359.015a1.038,1.038,0,0,1-.78-.294,1.173,1.173,0,0,1-.353-.707l-.038-.7a4.218,4.218,0,0,1-1.668,1.345A5.1,5.1,0,0,1,3150.393,144.6Zm-4.173-8.593a4.3,4.3,0,0,0-2.2.643,3.251,3.251,0,0,0-1.348,1.681v6.083h-1.662V134.55h1.55v2.285a4.67,4.67,0,0,1,1.337-1.654,3.281,3.281,0,0,1,1.777-.706H3146a.854.854,0,0,1,.225.021Zm-15.905-3.533v4.481h4.268a1.874,1.874,0,0,0,.828-.181,2.148,2.148,0,0,0,1.086-1.188,2.333,2.333,0,0,0,.16-.862,2.53,2.53,0,0,0-.15-.889,2.5,2.5,0,0,0-.406-.717,1.806,1.806,0,0,0-.624-.471,1.871,1.871,0,0,0-.782-.172Zm6.867,8.181a2.553,2.553,0,0,0-.156-.879,2.464,2.464,0,0,0-.433-.744,2.17,2.17,0,0,0-.652-.513,1.862,1.862,0,0,0-.834-.188h-4.792v4.61h4.663a1.948,1.948,0,0,0,.866-.193,2.416,2.416,0,0,0,.7-.5,2.318,2.318,0,0,0,.471-.729A2.251,2.251,0,0,0,3137.183,140.654Zm1.721.3a3.191,3.191,0,0,1-.309,1.418,3.285,3.285,0,0,1-.851,1.093,3.9,3.9,0,0,1-1.246.7,4.565,4.565,0,0,1-1.519.246h-6.36V131h6.66a2.7,2.7,0,0,1,1.267.3,3.273,3.273,0,0,1,.962.788,3.63,3.63,0,0,1,.616,1.091,3.755,3.755,0,0,1,.214,1.242,3.569,3.569,0,0,1-.5,1.848,3.112,3.112,0,0,1-1.428,1.269,3.384,3.384,0,0,1,1.824,1.253A3.6,3.6,0,0,1,3138.9,140.953Zm-17.911,3.458h-1.664V138.9a4.169,4.169,0,0,0-.5-2.287,1.681,1.681,0,0,0-1.482-.738,2.611,2.611,0,0,0-1.819.729,4.055,4.055,0,0,0-1.144,1.879v5.932h-1.658V138.9a4.217,4.217,0,0,0-.492-2.308,1.667,1.667,0,0,0-1.471-.717,2.691,2.691,0,0,0-1.813.707,3.859,3.859,0,0,0-1.149,1.885v5.948h-1.664V134.55h1.514v2.119a4.451,4.451,0,0,1,1.567-1.692,4.023,4.023,0,0,1,2.166-.594,2.816,2.816,0,0,1,1.974.669,2.872,2.872,0,0,1,.894,1.729,4.109,4.109,0,0,1,3.754-2.4,2.954,2.954,0,0,1,1.427.311,2.454,2.454,0,0,1,.916.866,4.107,4.107,0,0,1,.493,1.312,8.412,8.412,0,0,1,.149,1.644Zm-18.264-5.589a3.642,3.642,0,0,0-.347-1.3,3.6,3.6,0,0,0-.739-1.011,3.323,3.323,0,0,0-1.027-.648,3.427,3.427,0,0,0-2.494,0,3.181,3.181,0,0,0-1.027.658,3.379,3.379,0,0,0-.716,1.013,3.752,3.752,0,0,0-.332,1.285Zm-3.381,5.776a4.947,4.947,0,0,1-2.032-.406,4.764,4.764,0,0,1-1.583-1.1,4.952,4.952,0,0,1-1.032-1.631,5.356,5.356,0,0,1-.37-1.976,5.255,5.255,0,0,1,.37-1.965,5.065,5.065,0,0,1,1.038-1.629,4.923,4.923,0,0,1,1.593-1.1,5.06,5.06,0,0,1,2.038-.4,4.818,4.818,0,0,1,3.584,1.515,4.98,4.98,0,0,1,.994,1.606,5.413,5.413,0,0,1,.347,1.9c0,.141-.006.263-.011.376a2.2,2.2,0,0,1-.027.267h-8.171a3.8,3.8,0,0,0,.342,1.339,3.361,3.361,0,0,0,.738,1.038,3.2,3.2,0,0,0,1.027.681,3,3,0,0,0,1.214.246,3.286,3.286,0,0,0,.887-.122,3.763,3.763,0,0,0,.813-.328,2.843,2.843,0,0,0,.669-.513,2.07,2.07,0,0,0,.443-.675l1.433.4a3.591,3.591,0,0,1-.668,1,4.405,4.405,0,0,1-.983.786,4.982,4.982,0,0,1-1.236.52A5.425,5.425,0,0,1,3099.349,144.6Zm-11.771-1.435a2.819,2.819,0,0,0,.936-.172,3.557,3.557,0,0,0,.9-.471,3.358,3.358,0,0,0,.738-.706,2.062,2.062,0,0,0,.4-.862v-2.833a3.126,3.126,0,0,0-.5-.9,4.112,4.112,0,0,0-.764-.733,3.808,3.808,0,0,0-.91-.492,2.727,2.727,0,0,0-.952-.177,2.8,2.8,0,0,0-1.332.311,3.216,3.216,0,0,0-1.015.83,3.749,3.749,0,0,0-.653,1.188,4.285,4.285,0,0,0-.225,1.37,3.772,3.772,0,0,0,.263,1.409,3.637,3.637,0,0,0,.716,1.162,3.456,3.456,0,0,0,1.07.781A2.983,2.983,0,0,0,3087.578,143.164Zm-.4,1.435a4.3,4.3,0,0,1-1.887-.418,4.578,4.578,0,0,1-1.487-1.114,5.031,5.031,0,0,1-.973-1.622,5.5,5.5,0,0,1-.349-1.944,5.945,5.945,0,0,1,.332-1.976,5.136,5.136,0,0,1,.92-1.638,4.391,4.391,0,0,1,1.417-1.1,4.037,4.037,0,0,1,1.8-.4,3.77,3.77,0,0,1,2.122.62,4.965,4.965,0,0,1,1.477,1.511v-5.889h1.663v11.745c0,.391.176.589.529.606v1.435c-.177.027-.321.042-.428.059s-.209.015-.311.015a1.235,1.235,0,0,1-.855-.332.993.993,0,0,1-.37-.765v-.83a4.255,4.255,0,0,1-3.6,2.039Zm-5.7-8.593a4.3,4.3,0,0,0-2.2.643,3.257,3.257,0,0,0-1.349,1.681v6.083h-1.662V134.55h1.55v2.285a4.668,4.668,0,0,1,1.338-1.654,3.285,3.285,0,0,1,1.777-.706h.32a.844.844,0,0,1,.224.021Zm-18.111,1.7a6,6,0,0,0,.332,1.97,5.466,5.466,0,0,0,.931,1.692,4.478,4.478,0,0,0,1.454,1.172,4.057,4.057,0,0,0,1.882.435,3.959,3.959,0,0,0,1.927-.466,4.668,4.668,0,0,0,1.443-1.211,5.447,5.447,0,0,0,.91-1.686,6.055,6.055,0,0,0-.021-3.882,5.272,5.272,0,0,0-.943-1.681,4.682,4.682,0,0,0-1.454-1.162,4.276,4.276,0,0,0-3.782.015,4.725,4.725,0,0,0-1.443,1.188,5.513,5.513,0,0,0-.916,1.682A5.98,5.98,0,0,0,3063.37,137.709Zm4.583,6.8a5.7,5.7,0,0,1-2.578-.578,6.31,6.31,0,0,1-1.989-1.53,6.934,6.934,0,0,1-1.279-2.18,7.128,7.128,0,0,1-.454-2.51,6.979,6.979,0,0,1,.481-2.57,7.087,7.087,0,0,1,1.332-2.174,6.321,6.321,0,0,1,2.005-1.5,5.8,5.8,0,0,1,2.519-.557,5.493,5.493,0,0,1,2.567.595,6.529,6.529,0,0,1,1.979,1.558,7.238,7.238,0,0,1,1.284,2.179,7.063,7.063,0,0,1,.454,2.484,7.092,7.092,0,0,1-1.8,4.728,6.284,6.284,0,0,1-2,1.494A5.719,5.719,0,0,1,3067.953,144.507Z" transform="translate(-2878.149 53.089)" fill="#512e12"/>
    <path id="Caminho_5643" data-name="Caminho 5643" d="M3263.088,154.759a3.937,3.937,0,0,0,.256,1.436,3.543,3.543,0,0,0,.7,1.15,3.279,3.279,0,0,0,1.036.776,2.993,2.993,0,0,0,2.545,0,3.322,3.322,0,0,0,1.049-.786,3.709,3.709,0,0,0,.7-1.167,3.976,3.976,0,0,0,.258-1.446,3.922,3.922,0,0,0-.258-1.425,3.778,3.778,0,0,0-.7-1.172,3.373,3.373,0,0,0-1.049-.782,2.936,2.936,0,0,0-1.273-.284,2.863,2.863,0,0,0-1.272.29,3.391,3.391,0,0,0-1.036.792,3.775,3.775,0,0,0-.7,1.173,4.048,4.048,0,0,0-.256,1.444m3.261,5.081a4.814,4.814,0,0,1-2.026-.418,4.73,4.73,0,0,1-1.567-1.114,5.067,5.067,0,0,1-1.011-1.622,5.426,5.426,0,0,1,.011-3.908,5.213,5.213,0,0,1,1.021-1.627,4.788,4.788,0,0,1,3.572-1.526,4.864,4.864,0,0,1,3.6,1.526,5.2,5.2,0,0,1,1.021,1.627,5.369,5.369,0,0,1,.364,1.965,5.292,5.292,0,0,1-.358,1.944,4.883,4.883,0,0,1-2.594,2.735A4.814,4.814,0,0,1,3266.349,159.841Zm-15.318-5.135a5.375,5.375,0,0,1,.358-1.965,4.832,4.832,0,0,1,1.021-1.616,4.941,4.941,0,0,1,1.572-1.1,5.062,5.062,0,0,1,2.049-.4,4.8,4.8,0,0,1,2.541.647,4.224,4.224,0,0,1,1.611,1.751l-1.622.509a2.688,2.688,0,0,0-1.059-1.087,3.018,3.018,0,0,0-1.508-.385,3.067,3.067,0,0,0-2.321,1.039,3.68,3.68,0,0,0-.685,1.15,4,4,0,0,0-.257,1.456,3.956,3.956,0,0,0,.263,1.451,3.815,3.815,0,0,0,.706,1.179,3.167,3.167,0,0,0,1.036.786,2.942,2.942,0,0,0,1.273.284,3.172,3.172,0,0,0,.862-.124,3.257,3.257,0,0,0,.775-.332,2.719,2.719,0,0,0,.615-.481,1.613,1.613,0,0,0,.374-.595l1.62.492a3.462,3.462,0,0,1-.63,1,3.937,3.937,0,0,1-.952.776,5.194,5.194,0,0,1-1.22.509,5.276,5.276,0,0,1-1.406.187,4.924,4.924,0,0,1-3.616-1.532,4.964,4.964,0,0,1-1.032-1.633A5.3,5.3,0,0,1,3251.031,154.706Zm-3.679-6.761v-2.077h1.662v2.077Zm0,11.708v-9.862h1.662v9.862ZM3242,145.868h1.658v11.237a1.2,1.2,0,0,0,.294.857,1.061,1.061,0,0,0,.819.311,2.3,2.3,0,0,0,.492-.065,3.664,3.664,0,0,0,.528-.16l.263,1.343a5.976,5.976,0,0,1-.979.284,5.272,5.272,0,0,1-1,.113A1.917,1.917,0,0,1,3242,157.71Zm-7.156,12.538a3.065,3.065,0,0,0,1.364-.305,3.445,3.445,0,0,0,1.075-.809,3.771,3.771,0,0,0,.7-1.162,3.854,3.854,0,0,0,.244-1.371,4.2,4.2,0,0,0-.235-1.385,3.794,3.794,0,0,0-.658-1.184,3.391,3.391,0,0,0-1.021-.819,2.774,2.774,0,0,0-1.311-.311,2.726,2.726,0,0,0-1,.187,3.5,3.5,0,0,0-.878.5,3.9,3.9,0,0,0-.717.729,5.259,5.259,0,0,0-.54.889v2.854a2.033,2.033,0,0,0,.406.868,3.48,3.48,0,0,0,.739.691,3.652,3.652,0,0,0,.9.46A2.8,2.8,0,0,0,3234.841,158.406Zm.418,1.435a3.959,3.959,0,0,1-2.092-.567,4.24,4.24,0,0,1-1.492-1.473v1.852H3230.2V145.868h1.664v5.889a5.09,5.09,0,0,1,1.53-1.547,4.1,4.1,0,0,1,3.941-.15,4.562,4.562,0,0,1,1.391,1.141,5.3,5.3,0,0,1,.882,1.644,5.981,5.981,0,0,1,.311,1.916,5.368,5.368,0,0,1-.358,1.966,5.275,5.275,0,0,1-.979,1.616,4.6,4.6,0,0,1-1.48,1.093A4.224,4.224,0,0,1,3235.259,159.841Zm-13.36,0a2.76,2.76,0,0,1-2.337-1.038,5.044,5.044,0,0,1-.792-3.1v-5.915h1.658v5.595q0,3.019,2.1,3.02a3.209,3.209,0,0,0,1.915-.653,3.837,3.837,0,0,0,1.332-1.783v-6.178h1.656v7.821c0,.391.177.589.531.606v1.435c-.187.027-.338.042-.444.048s-.209.011-.31.011a1.172,1.172,0,0,1-.818-.3,1.017,1.017,0,0,1-.353-.727l-.037-1.152a4.545,4.545,0,0,1-1.734,1.709A4.836,4.836,0,0,1,3221.9,159.841Zm1.455-11.687-1.1-.38,1.1-1.906h1.662Zm-14.285,5.171h3.91a2.067,2.067,0,0,0,.951-.219,2.113,2.113,0,0,0,.728-.6,3.055,3.055,0,0,0,.47-.894,3.368,3.368,0,0,0,.172-1.076,2.991,2.991,0,0,0-.2-1.1,3.049,3.049,0,0,0-.529-.889,2.36,2.36,0,0,0-.776-.584,2.168,2.168,0,0,0-.936-.208h-3.792Zm-1.7,6.329V146.242h5.583a3.637,3.637,0,0,1,1.637.37,4.136,4.136,0,0,1,1.284.979,4.86,4.86,0,0,1,.84,1.383,4.28,4.28,0,0,1,.3,1.557,4.72,4.72,0,0,1-.284,1.606,4.329,4.329,0,0,1-.8,1.377,3.978,3.978,0,0,1-1.246.963,3.591,3.591,0,0,1-1.616.359h-4v4.818Zm-6.25-8.406a4.3,4.3,0,0,0-2.2.643,3.259,3.259,0,0,0-1.349,1.681v6.083h-1.662v-9.862h1.55v2.285a4.667,4.667,0,0,1,1.338-1.654,3.285,3.285,0,0,1,1.776-.706h.321a.858.858,0,0,1,.225.021Zm-15.468,3.512a3.907,3.907,0,0,0,.258,1.436,3.538,3.538,0,0,0,.694,1.15,3.27,3.27,0,0,0,1.038.776,2.993,2.993,0,0,0,2.545,0,3.335,3.335,0,0,0,1.048-.786,3.739,3.739,0,0,0,.706-1.167,3.986,3.986,0,0,0,.257-1.446,3.932,3.932,0,0,0-.257-1.425,3.809,3.809,0,0,0-.706-1.172,3.387,3.387,0,0,0-1.048-.782,2.942,2.942,0,0,0-1.273-.284,2.863,2.863,0,0,0-1.272.29,3.381,3.381,0,0,0-1.038.792,3.771,3.771,0,0,0-.694,1.173A4.017,4.017,0,0,0,3185.654,154.759Zm3.263,5.081a4.819,4.819,0,0,1-2.028-.418,4.725,4.725,0,0,1-1.567-1.114,5.046,5.046,0,0,1-1.01-1.622,5.318,5.318,0,0,1,1.031-5.536,4.941,4.941,0,0,1,7.167,0,5.209,5.209,0,0,1,1.021,1.627,5.462,5.462,0,0,1,.005,3.908,4.878,4.878,0,0,1-2.594,2.735A4.818,4.818,0,0,1,3188.917,159.841Zm-11.718-1.435a2.813,2.813,0,0,0,.935-.172,3.536,3.536,0,0,0,.9-.471,3.292,3.292,0,0,0,.739-.706,2.058,2.058,0,0,0,.4-.862v-2.833a3.153,3.153,0,0,0-.5-.9,4.23,4.23,0,0,0-.765-.733,3.824,3.824,0,0,0-.91-.492,2.731,2.731,0,0,0-.952-.177,2.821,2.821,0,0,0-1.332.311,3.251,3.251,0,0,0-1.015.83,3.792,3.792,0,0,0-.653,1.188,4.324,4.324,0,0,0-.223,1.37,3.771,3.771,0,0,0,.261,1.409,3.664,3.664,0,0,0,.716,1.162,3.472,3.472,0,0,0,1.07.782A3,3,0,0,0,3177.2,158.406Zm-.4,1.435a4.3,4.3,0,0,1-1.889-.418,4.56,4.56,0,0,1-1.487-1.114,5.058,5.058,0,0,1-.973-1.622,5.526,5.526,0,0,1-.347-1.944,5.939,5.939,0,0,1,.332-1.976,5.052,5.052,0,0,1,.92-1.637,4.381,4.381,0,0,1,1.417-1.1,4.038,4.038,0,0,1,1.8-.4,3.768,3.768,0,0,1,2.122.62,4.945,4.945,0,0,1,1.477,1.51v-5.889h1.664v11.745c0,.391.176.589.529.606v1.435c-.176.027-.321.042-.428.059s-.208.015-.311.015a1.237,1.237,0,0,1-.855-.332,1,1,0,0,1-.37-.765v-.83a4.255,4.255,0,0,1-3.6,2.039Zm-8.4-11.9v-2.077h1.662v2.077Zm0,11.708v-9.862h1.662v9.862Zm-7.3,0-3.889-9.862h1.718l3.118,8.4,3.128-8.4h1.589l-3.888,9.862Zm-4.494-8.406a4.311,4.311,0,0,0-2.2.643,3.258,3.258,0,0,0-1.347,1.681v6.083h-1.662v-9.862h1.549v2.285a4.672,4.672,0,0,1,1.338-1.654,3.285,3.285,0,0,1,1.776-.706h.321a.839.839,0,0,1,.223.021Zm-8.62,2.817a3.614,3.614,0,0,0-.349-1.3,3.565,3.565,0,0,0-.739-1.011,3.289,3.289,0,0,0-1.027-.648,3.423,3.423,0,0,0-2.492,0,3.164,3.164,0,0,0-1.026.658,3.371,3.371,0,0,0-.716,1.013,3.682,3.682,0,0,0-.332,1.285Zm-3.381,5.776a4.945,4.945,0,0,1-2.032-.406,4.789,4.789,0,0,1-1.584-1.1,4.969,4.969,0,0,1-1.031-1.633,5.356,5.356,0,0,1-.37-1.976,5.255,5.255,0,0,1,.37-1.965,5.039,5.039,0,0,1,1.036-1.627,4.957,4.957,0,0,1,1.594-1.1,5.067,5.067,0,0,1,2.038-.4,4.818,4.818,0,0,1,3.584,1.515,4.955,4.955,0,0,1,.994,1.606,5.371,5.371,0,0,1,.349,1.9c0,.141-.006.263-.011.376a2.2,2.2,0,0,1-.027.267h-8.173a3.835,3.835,0,0,0,.343,1.339,3.388,3.388,0,0,0,.738,1.039,3.217,3.217,0,0,0,1.027.679,3,3,0,0,0,1.214.246,3.29,3.29,0,0,0,.887-.122,3.824,3.824,0,0,0,.813-.328,2.825,2.825,0,0,0,.669-.513,2.084,2.084,0,0,0,.444-.675l1.433.4a3.635,3.635,0,0,1-.668,1,4.459,4.459,0,0,1-.985.788,4.941,4.941,0,0,1-1.235.519A5.43,5.43,0,0,1,3144.613,159.841Zm-7.713-10.782a2.781,2.781,0,0,0-.6-.509,5.346,5.346,0,0,0-.851-.444,6.008,6.008,0,0,0-1.032-.322,5.477,5.477,0,0,0-1.16-.122,3.625,3.625,0,0,0-2.29.584,1.945,1.945,0,0,0-.727,1.606,1.8,1.8,0,0,0,.208.9,1.679,1.679,0,0,0,.649.616,4.72,4.72,0,0,0,1.107.444c.439.124.956.257,1.561.4a15.522,15.522,0,0,1,1.877.519,5.646,5.646,0,0,1,1.438.729,2.927,2.927,0,0,1,.9,1.053,3.385,3.385,0,0,1,.311,1.532,3.514,3.514,0,0,1-.374,1.671,3.308,3.308,0,0,1-1.032,1.172,4.416,4.416,0,0,1-1.536.681,8.087,8.087,0,0,1-1.925.219,8.833,8.833,0,0,1-2.929-.482,8.223,8.223,0,0,1-2.525-1.408l.813-1.435a4.379,4.379,0,0,0,.781.643,6.066,6.066,0,0,0,1.1.572,8.068,8.068,0,0,0,1.322.418,6.658,6.658,0,0,0,1.481.16,4.068,4.068,0,0,0,2.225-.513,1.688,1.688,0,0,0,.792-1.526,1.746,1.746,0,0,0-.252-.958,2.174,2.174,0,0,0-.742-.669,5.657,5.657,0,0,0-1.22-.5c-.487-.145-1.037-.3-1.652-.444a17.6,17.6,0,0,1-1.792-.53,4.868,4.868,0,0,1-1.3-.681,2.5,2.5,0,0,1-.78-.963,3.188,3.188,0,0,1-.262-1.36,3.8,3.8,0,0,1,.359-1.7,3.534,3.534,0,0,1,1-1.247,4.414,4.414,0,0,1,1.529-.766,7.069,7.069,0,0,1,1.921-.252,6.72,6.72,0,0,1,4.4,1.526Zm-23.168,5.7a3.9,3.9,0,0,0,.258,1.436,3.552,3.552,0,0,0,.695,1.15,3.271,3.271,0,0,0,1.038.776,2.994,2.994,0,0,0,2.546,0,3.337,3.337,0,0,0,1.048-.786,3.72,3.72,0,0,0,.706-1.167,3.976,3.976,0,0,0,.258-1.446,3.922,3.922,0,0,0-.258-1.425,3.79,3.79,0,0,0-.706-1.172,3.389,3.389,0,0,0-1.048-.782,2.937,2.937,0,0,0-1.273-.284,2.865,2.865,0,0,0-1.273.29,3.382,3.382,0,0,0-1.038.792,3.785,3.785,0,0,0-.695,1.173A4.012,4.012,0,0,0,3113.732,154.759Zm3.263,5.081a4.811,4.811,0,0,1-2.027-.418,4.721,4.721,0,0,1-1.568-1.114,5.062,5.062,0,0,1-1.01-1.622,5.431,5.431,0,0,1,.01-3.908,5.2,5.2,0,0,1,1.022-1.627,4.787,4.787,0,0,1,3.573-1.526,4.917,4.917,0,0,1,2.015.412,4.858,4.858,0,0,1,1.578,1.114,5.191,5.191,0,0,1,1.021,1.627,5.462,5.462,0,0,1,.006,3.908,4.878,4.878,0,0,1-2.594,2.735A4.814,4.814,0,0,1,3116.995,159.841Zm-11.793-1.247a4.125,4.125,0,0,0,1.653-.332,2.711,2.711,0,0,0,1.16-.872,1.057,1.057,0,0,0,.358-.74v-1.456a6.811,6.811,0,0,0-2.509-.471,3.544,3.544,0,0,0-2.027.53,1.6,1.6,0,0,0-.786,1.381,1.881,1.881,0,0,0,.16.771,1.833,1.833,0,0,0,.455.622,2.293,2.293,0,0,0,.691.418A2.333,2.333,0,0,0,3105.2,158.593Zm-.433,1.247a3.577,3.577,0,0,1-1.3-.235,3.2,3.2,0,0,1-1.048-.654,2.966,2.966,0,0,1-.7-.969,2.867,2.867,0,0,1-.257-1.221,2.528,2.528,0,0,1,.305-1.236,2.785,2.785,0,0,1,.856-.954,4.587,4.587,0,0,1,1.321-.626,5.862,5.862,0,0,1,1.669-.225,8.093,8.093,0,0,1,1.455.134,7.222,7.222,0,0,1,1.3.359v-.792a2.371,2.371,0,0,0-2.605-2.586,5.492,5.492,0,0,0-3.127,1.152l-.552-1.076a6.809,6.809,0,0,1,3.828-1.285,4.216,4.216,0,0,1,3.034,1.038,3.868,3.868,0,0,1,1.08,2.93v4.02c0,.391.176.589.529.606v1.435c-.176.027-.321.042-.434.059s-.235.015-.358.015a1.039,1.039,0,0,1-.781-.294,1.192,1.192,0,0,1-.353-.707l-.038-.7a4.217,4.217,0,0,1-1.668,1.345A5.1,5.1,0,0,1,3104.769,159.841Z" transform="translate(-2861.968 59.283)" fill="#512e12"/>
    <rect id="Retângulo_1266" data-name="Retângulo 1266" width="344.897" height="4.185" transform="translate(151.55 166.029)" fill="#c79010"/>
  </g>
</svg>
