<svg xmlns="http://www.w3.org/2000/svg" width="341.189" height="123.025" viewBox="0 0 341.189 123.025">
  <g id="Grupo_786" data-name="Grupo 786" transform="translate(-99.815 -97.05)">
    <path id="Caminho_3886" data-name="Caminho 3886" d="M338.688,88.058H355.1a8.707,8.707,0,0,0,4-.922A8.943,8.943,0,0,0,362.15,84.6a12.7,12.7,0,0,0,1.974-3.754,14.2,14.2,0,0,0,.719-4.516,12.539,12.539,0,0,0-.831-4.608,12.857,12.857,0,0,0-2.223-3.73,9.851,9.851,0,0,0-3.256-2.45,9.115,9.115,0,0,0-3.929-.877H338.688Zm-7.118,26.564v-56.3H355.01a15.271,15.271,0,0,1,6.87,1.55,17.412,17.412,0,0,1,5.389,4.113,20.164,20.164,0,0,1,3.524,5.8,17.907,17.907,0,0,1,1.258,6.54,19.746,19.746,0,0,1-1.191,6.742,18.08,18.08,0,0,1-3.367,5.775,16.543,16.543,0,0,1-5.231,4.046,15.034,15.034,0,0,1-6.78,1.505H338.688v20.227ZM308.46,70.145a11.719,11.719,0,0,0-2.514-2.134,22.189,22.189,0,0,0-3.57-1.866,24.394,24.394,0,0,0-4.332-1.348,23,23,0,0,0-4.872-.518c-4.378,0-7.588.81-9.608,2.45a8.168,8.168,0,0,0-3.054,6.742,7.5,7.5,0,0,0,.875,3.8,7.042,7.042,0,0,0,2.717,2.585,19.736,19.736,0,0,0,4.647,1.864c1.841.518,4.019,1.08,6.556,1.664a65.614,65.614,0,0,1,7.88,2.18,23.753,23.753,0,0,1,6.04,3.055,12.338,12.338,0,0,1,3.794,4.429,14.264,14.264,0,0,1,1.3,6.428,14.692,14.692,0,0,1-1.572,7.011,13.866,13.866,0,0,1-4.332,4.922,18.52,18.52,0,0,1-6.443,2.854,34.036,34.036,0,0,1-8.083.922,37.192,37.192,0,0,1-12.3-2.023,34.614,34.614,0,0,1-10.6-5.91l3.413-6.023a18.235,18.235,0,0,0,3.278,2.7,25.2,25.2,0,0,0,4.6,2.4,34.04,34.04,0,0,0,5.544,1.753,27.92,27.92,0,0,0,6.219.675c4.019,0,7.118-.719,9.34-2.158a7.073,7.073,0,0,0,3.322-6.406,7.353,7.353,0,0,0-1.055-4.022,9.1,9.1,0,0,0-3.121-2.809,24.089,24.089,0,0,0-5.119-2.09c-2.044-.607-4.356-1.237-6.937-1.866a73.879,73.879,0,0,1-7.521-2.225,20.55,20.55,0,0,1-5.433-2.855,10.548,10.548,0,0,1-3.278-4.044,13.338,13.338,0,0,1-1.1-5.708,16.053,16.053,0,0,1,1.5-7.125,14.923,14.923,0,0,1,4.2-5.237A18.567,18.567,0,0,1,285.268,59a31.432,31.432,0,0,1,18.365.675,29.079,29.079,0,0,1,8.149,4.675ZM244.951,92.574l-10.126-26-10.461,26Zm-13.134-34.25h6.017l22.968,56.3H253.19l-6.645-16.5h-23.6l-6.578,16.5h-7.61ZM161.962,64.5v18.81h17.916a7.805,7.805,0,0,0,3.48-.764,9,9,0,0,0,4.558-4.989,9.768,9.768,0,0,0,.673-3.619,10.774,10.774,0,0,0-.628-3.73,10.643,10.643,0,0,0-1.707-3.012,7.66,7.66,0,0,0-2.627-1.977,7.834,7.834,0,0,0-3.278-.719Zm28.828,34.34a10.821,10.821,0,0,0-.651-3.686,10.5,10.5,0,0,0-1.818-3.123,9.129,9.129,0,0,0-2.739-2.158,7.85,7.85,0,0,0-3.5-.786H161.962v19.35h19.577a8.15,8.15,0,0,0,3.638-.81,10.019,10.019,0,0,0,2.94-2.09,9.683,9.683,0,0,0,1.976-3.057A9.466,9.466,0,0,0,190.789,98.845Zm7.229,1.259a13.4,13.4,0,0,1-1.3,5.956,13.781,13.781,0,0,1-3.57,4.584,16.381,16.381,0,0,1-5.231,2.944,19.151,19.151,0,0,1-6.376,1.034H154.845v-56.3H182.8a11.34,11.34,0,0,1,5.32,1.258,13.749,13.749,0,0,1,4.042,3.3,15.31,15.31,0,0,1,2.582,4.584,15.659,15.659,0,0,1,.9,5.215,14.982,14.982,0,0,1-2.088,7.754,13.047,13.047,0,0,1-5.994,5.326,14.188,14.188,0,0,1,7.656,5.259A15.091,15.091,0,0,1,198.018,100.1ZM91.255,86.484a25.167,25.167,0,0,0,1.393,8.27,22.937,22.937,0,0,0,3.907,7.1,18.8,18.8,0,0,0,6.106,4.921,17.037,17.037,0,0,0,7.9,1.821,16.542,16.542,0,0,0,8.082-1.956,19.457,19.457,0,0,0,6.062-5.078,22.921,22.921,0,0,0,3.816-7.08,25.321,25.321,0,0,0-.089-16.293,22.161,22.161,0,0,0-3.951-7.057,19.726,19.726,0,0,0-6.108-4.877,17.907,17.907,0,0,0-15.872.067,19.822,19.822,0,0,0-6.062,4.989A23.083,23.083,0,0,0,92.6,78.37,25.092,25.092,0,0,0,91.255,86.484ZM110.5,115.027A23.922,23.922,0,0,1,99.675,112.6a26.481,26.481,0,0,1-8.352-6.428,29.161,29.161,0,0,1-5.366-9.146,29.952,29.952,0,0,1-1.907-10.54A29.322,29.322,0,0,1,86.069,75.7a29.778,29.778,0,0,1,5.59-9.124,26.533,26.533,0,0,1,8.419-6.293,24.269,24.269,0,0,1,10.574-2.337,23.079,23.079,0,0,1,10.777,2.495,27.488,27.488,0,0,1,8.307,6.54,30.442,30.442,0,0,1,5.387,9.146,29.744,29.744,0,0,1-5.657,30.273,26.378,26.378,0,0,1-8.4,6.271A23.994,23.994,0,0,1,110.5,115.027Z" transform="translate(40.37 39.108)" fill="#fff"/>
    <path id="Caminho_3887" data-name="Caminho 3887" d="M358.116,133.778a4.08,4.08,0,0,0,1.635-.328,2.675,2.675,0,0,0,1.148-.863,1.044,1.044,0,0,0,.355-.732v-1.44a6.736,6.736,0,0,0-2.482-.466,3.506,3.506,0,0,0-2,.525,1.587,1.587,0,0,0-.778,1.366,1.858,1.858,0,0,0,.159.762,1.785,1.785,0,0,0,.449.615,2.271,2.271,0,0,0,.683.413,2.3,2.3,0,0,0,.836.147m-.428,1.234a3.541,3.541,0,0,1-1.286-.232,3.186,3.186,0,0,1-1.038-.647,2.95,2.95,0,0,1-.687-.959,2.829,2.829,0,0,1-.255-1.208,2.5,2.5,0,0,1,.3-1.223,2.771,2.771,0,0,1,.847-.943,4.53,4.53,0,0,1,1.306-.619,5.793,5.793,0,0,1,1.65-.223,8,8,0,0,1,1.44.132,7.129,7.129,0,0,1,1.286.355v-.783a2.346,2.346,0,0,0-2.577-2.559,5.438,5.438,0,0,0-3.1,1.139l-.544-1.064a6.747,6.747,0,0,1,3.787-1.272,4.169,4.169,0,0,1,3,1.028,3.823,3.823,0,0,1,1.068,2.9v3.978c0,.387.174.582.523.6v1.419c-.174.026-.317.042-.428.058s-.232.015-.355.015a1.029,1.029,0,0,1-.772-.291,1.171,1.171,0,0,1-.349-.7l-.036-.687a4.188,4.188,0,0,1-1.651,1.329A5.044,5.044,0,0,1,357.687,135.013Zm-6.794-11.768V121.19h1.646v2.055Zm0,11.583v-9.756h1.646v9.756Zm-10.988-4.893a5.3,5.3,0,0,1,.355-1.944,4.785,4.785,0,0,1,1.01-1.6,4.879,4.879,0,0,1,1.555-1.085,4.982,4.982,0,0,1,2.027-.4,4.733,4.733,0,0,1,2.513.641,4.152,4.152,0,0,1,1.593,1.731l-1.6.5a2.653,2.653,0,0,0-1.048-1.075,2.985,2.985,0,0,0-1.491-.381,3.034,3.034,0,0,0-2.3,1.028,3.636,3.636,0,0,0-.678,1.138,3.957,3.957,0,0,0-.255,1.441,3.907,3.907,0,0,0,.26,1.434,3.8,3.8,0,0,0,.7,1.166,3.116,3.116,0,0,0,1.025.778,2.892,2.892,0,0,0,1.26.281,3.132,3.132,0,0,0,.852-.121,3.333,3.333,0,0,0,.767-.328,2.7,2.7,0,0,0,.608-.477,1.6,1.6,0,0,0,.371-.589l1.6.487a3.448,3.448,0,0,1-.625.991,3.893,3.893,0,0,1-.942.768,5.086,5.086,0,0,1-1.206.5,5.161,5.161,0,0,1-1.391.185,4.87,4.87,0,0,1-3.576-1.514,4.915,4.915,0,0,1-1.023-1.617A5.266,5.266,0,0,1,339.905,129.934Zm-1.9,4.893H336.36v-5.455a4.225,4.225,0,0,0-.476-2.282,1.625,1.625,0,0,0-1.444-.711,2.715,2.715,0,0,0-1,.2,4,4,0,0,0-.953.536,3.643,3.643,0,0,0-.783.8,3.364,3.364,0,0,0-.508,1.028v5.884h-1.645v-9.756h1.5v2.1a4.3,4.3,0,0,1,1.671-1.647,4.76,4.76,0,0,1,2.376-.615,2.86,2.86,0,0,1,1.4.307,2.4,2.4,0,0,1,.9.858,3.85,3.85,0,0,1,.476,1.3,9.18,9.18,0,0,1,.138,1.626ZM326.17,129.3a3.555,3.555,0,0,0-.344-1.283,3.51,3.51,0,0,0-.73-1,3.229,3.229,0,0,0-1.016-.64,3.367,3.367,0,0,0-2.465,0,3.085,3.085,0,0,0-1.016.651,3.323,3.323,0,0,0-.708,1,3.655,3.655,0,0,0-.328,1.272Zm-3.343,5.714a4.886,4.886,0,0,1-2.01-.4,4.713,4.713,0,0,1-1.567-1.091,4.928,4.928,0,0,1-1.021-1.615,5.33,5.33,0,0,1-.365-1.955,5.229,5.229,0,0,1,.365-1.944,5.02,5.02,0,0,1,1.027-1.61,4.888,4.888,0,0,1,1.578-1.091,4.978,4.978,0,0,1,2.015-.4,4.739,4.739,0,0,1,4.529,3.087,5.316,5.316,0,0,1,.345,1.881c0,.138-.006.259-.011.37a2.575,2.575,0,0,1-.026.264H319.6a3.79,3.79,0,0,0,.339,1.325,3.349,3.349,0,0,0,.73,1.028,3.177,3.177,0,0,0,1.016.672,2.969,2.969,0,0,0,1.2.243,3.254,3.254,0,0,0,.878-.121,3.615,3.615,0,0,0,.8-.324,2.741,2.741,0,0,0,.661-.508,2.034,2.034,0,0,0,.44-.668l1.418.392a3.589,3.589,0,0,1-.661.985,4.369,4.369,0,0,1-.974.779,4.891,4.891,0,0,1-1.222.513A5.3,5.3,0,0,1,322.827,135.013Zm-2.534-12.143,1.882-1.679h1.2l1.882,1.679-.893.449-1.587-1.176-1.587,1.176Zm-3.176,11.471c-.1.047-.228.106-.391.175s-.345.136-.551.206a5.487,5.487,0,0,1-.672.174,4.35,4.35,0,0,1-.757.064,2.452,2.452,0,0,1-1.544-.5,1.8,1.8,0,0,1-.657-1.54v-6.557h-1.327v-1.293h1.327v-3.246h1.64v3.246h2.186v1.293h-2.186v6.054a1.027,1.027,0,0,0,.355.783,1.179,1.179,0,0,0,.746.243,2.416,2.416,0,0,0,.889-.159,3.6,3.6,0,0,0,.551-.255Zm-10.847.672a7.52,7.52,0,0,1-2.312-.365A5.607,5.607,0,0,1,302,133.593l.708-1.1a7.129,7.129,0,0,0,1.72.981,5.086,5.086,0,0,0,1.81.327,2.983,2.983,0,0,0,1.688-.423,1.342,1.342,0,0,0,.625-1.181,1.082,1.082,0,0,0-.164-.609,1.4,1.4,0,0,0-.5-.44,4.443,4.443,0,0,0-.863-.338c-.348-.1-.75-.2-1.21-.313-.587-.153-1.091-.3-1.514-.434a3.914,3.914,0,0,1-1.042-.481,1.684,1.684,0,0,1-.6-.673,2.221,2.221,0,0,1-.191-.974,2.816,2.816,0,0,1,.291-1.3,2.781,2.781,0,0,1,.794-.953,3.581,3.581,0,0,1,1.185-.577,5.223,5.223,0,0,1,1.465-.2,5.8,5.8,0,0,1,2.054.355,5.031,5.031,0,0,1,1.6.932l-.746.991a4.15,4.15,0,0,0-1.376-.81,4.7,4.7,0,0,0-1.572-.271,2.869,2.869,0,0,0-1.518.381,1.328,1.328,0,0,0-.629,1.224,1.163,1.163,0,0,0,.121.555,1.032,1.032,0,0,0,.4.4,3.107,3.107,0,0,0,.719.3c.291.09.646.181,1.053.281.651.153,1.212.307,1.693.461a4.786,4.786,0,0,1,1.19.551,2.088,2.088,0,0,1,.71.747,2.19,2.19,0,0,1,.232,1.043,2.6,2.6,0,0,1-1.042,2.166A4.532,4.532,0,0,1,306.271,135.013Zm-7.708-11.768V121.19h1.645v2.055Zm0,11.583v-9.756h1.645v9.756Zm-5.8.185a7.5,7.5,0,0,1-2.311-.365,5.6,5.6,0,0,1-1.963-1.055l.708-1.1a7.1,7.1,0,0,0,1.72.981,5.086,5.086,0,0,0,1.81.327,2.983,2.983,0,0,0,1.688-.423,1.342,1.342,0,0,0,.625-1.181,1.093,1.093,0,0,0-.164-.609,1.4,1.4,0,0,0-.5-.44,4.428,4.428,0,0,0-.861-.338c-.351-.1-.751-.2-1.212-.313-.589-.153-1.091-.3-1.514-.434a3.914,3.914,0,0,1-1.042-.481,1.684,1.684,0,0,1-.6-.673,2.221,2.221,0,0,1-.191-.974,2.816,2.816,0,0,1,.291-1.3,2.781,2.781,0,0,1,.794-.953,3.568,3.568,0,0,1,1.185-.577,5.223,5.223,0,0,1,1.465-.2,5.788,5.788,0,0,1,2.052.355,5.022,5.022,0,0,1,1.6.932l-.746.991a4.15,4.15,0,0,0-1.376-.81,4.693,4.693,0,0,0-1.571-.271,2.87,2.87,0,0,0-1.519.381,1.328,1.328,0,0,0-.629,1.224,1.162,1.162,0,0,0,.121.555,1.031,1.031,0,0,0,.4.4,3.107,3.107,0,0,0,.719.3c.291.09.646.181,1.053.281.651.153,1.212.307,1.693.461a4.822,4.822,0,0,1,1.191.551,2.1,2.1,0,0,1,.708.747,2.19,2.19,0,0,1,.232,1.043,2.6,2.6,0,0,1-1.042,2.166A4.533,4.533,0,0,1,292.758,135.013Zm-9.221,0a7.5,7.5,0,0,1-2.311-.365,5.6,5.6,0,0,1-1.963-1.055l.708-1.1a7.1,7.1,0,0,0,1.72.981,5.086,5.086,0,0,0,1.81.327,2.983,2.983,0,0,0,1.688-.423,1.341,1.341,0,0,0,.623-1.181,1.092,1.092,0,0,0-.163-.609,1.4,1.4,0,0,0-.5-.44,4.463,4.463,0,0,0-.861-.338c-.351-.1-.753-.2-1.212-.313-.589-.153-1.091-.3-1.514-.434a3.914,3.914,0,0,1-1.042-.481,1.684,1.684,0,0,1-.6-.673,2.221,2.221,0,0,1-.191-.974,2.816,2.816,0,0,1,.291-1.3,2.781,2.781,0,0,1,.794-.953A3.567,3.567,0,0,1,282,125.1a5.223,5.223,0,0,1,1.465-.2,5.788,5.788,0,0,1,2.052.355,5.023,5.023,0,0,1,1.6.932l-.746.991a4.15,4.15,0,0,0-1.376-.81,4.7,4.7,0,0,0-1.572-.271,2.869,2.869,0,0,0-1.518.381,1.328,1.328,0,0,0-.629,1.224,1.163,1.163,0,0,0,.121.555,1.032,1.032,0,0,0,.4.4,3.107,3.107,0,0,0,.719.3c.291.09.646.181,1.053.281.651.153,1.212.307,1.693.461a4.822,4.822,0,0,1,1.191.551,2.1,2.1,0,0,1,.708.747,2.19,2.19,0,0,1,.232,1.043,2.6,2.6,0,0,1-1.042,2.166A4.533,4.533,0,0,1,283.537,135.013Zm-8.509-5.38-2.386-6.129-2.465,6.129Zm-3.1-8.072h1.418l5.412,13.267h-1.793L275.4,130.94h-5.561l-1.55,3.887H266.5ZM260.113,129.3a3.5,3.5,0,0,0-1.074-2.283,3.23,3.23,0,0,0-1.016-.64,3.367,3.367,0,0,0-2.465,0,3.071,3.071,0,0,0-1.016.651,3.352,3.352,0,0,0-.71,1,3.717,3.717,0,0,0-.328,1.272Zm-3.343,5.714a4.887,4.887,0,0,1-2.01-.4,4.7,4.7,0,0,1-1.567-1.091,4.905,4.905,0,0,1-1.021-1.615,5.3,5.3,0,0,1-.365-1.955,5.2,5.2,0,0,1,.365-1.944,5,5,0,0,1,1.027-1.61,4.882,4.882,0,0,1,1.576-1.091,4.985,4.985,0,0,1,2.016-.4,4.766,4.766,0,0,1,3.545,1.5,4.9,4.9,0,0,1,.984,1.589,5.315,5.315,0,0,1,.344,1.881c0,.138-.006.259-.01.37a2.566,2.566,0,0,1-.026.264h-8.085a3.789,3.789,0,0,0,.338,1.325,3.372,3.372,0,0,0,.73,1.028,3.192,3.192,0,0,0,1.016.672,2.97,2.97,0,0,0,1.2.243,3.272,3.272,0,0,0,.879-.121,3.642,3.642,0,0,0,.8-.324,2.8,2.8,0,0,0,.661-.508,2.08,2.08,0,0,0,.44-.668l1.418.392a3.563,3.563,0,0,1-.662.985,4.361,4.361,0,0,1-.973.779,4.9,4.9,0,0,1-1.223.513A5.3,5.3,0,0,1,256.77,135.013Zm-11.645-1.419a2.782,2.782,0,0,0,.925-.17,3.472,3.472,0,0,0,.895-.466,3.255,3.255,0,0,0,.73-.7,2.029,2.029,0,0,0,.4-.853v-2.8a3.072,3.072,0,0,0-.5-.889,4.093,4.093,0,0,0-.755-.726,3.791,3.791,0,0,0-.9-.487,2.7,2.7,0,0,0-.942-.175,2.783,2.783,0,0,0-1.316.307,3.206,3.206,0,0,0-1.006.821,3.745,3.745,0,0,0-.646,1.176,4.284,4.284,0,0,0-.223,1.357,3.73,3.73,0,0,0,.26,1.393,3.622,3.622,0,0,0,.708,1.149,3.42,3.42,0,0,0,1.059.774A2.956,2.956,0,0,0,245.125,133.593Zm-.391,1.419a4.254,4.254,0,0,1-1.868-.413,4.542,4.542,0,0,1-1.471-1.1,5.024,5.024,0,0,1-.963-1.606,5.435,5.435,0,0,1-.344-1.923,5.877,5.877,0,0,1,.328-1.955,5.031,5.031,0,0,1,.91-1.619,4.345,4.345,0,0,1,1.4-1.091,3.977,3.977,0,0,1,1.784-.4,3.722,3.722,0,0,1,2.1.615,4.886,4.886,0,0,1,1.459,1.493V121.19h1.646v11.62c0,.387.174.582.523.6v1.419c-.174.026-.317.042-.423.058s-.206.015-.307.015a1.221,1.221,0,0,1-.846-.328.982.982,0,0,1-.365-.757V133a4.206,4.206,0,0,1-3.566,2.017Zm-16.147-1.234a4.08,4.08,0,0,0,1.635-.328,2.675,2.675,0,0,0,1.148-.863,1.044,1.044,0,0,0,.355-.732v-1.44a6.735,6.735,0,0,0-2.482-.466,3.506,3.506,0,0,0-2,.525,1.587,1.587,0,0,0-.778,1.366,1.858,1.858,0,0,0,.159.762,1.785,1.785,0,0,0,.449.615,2.27,2.27,0,0,0,.683.413A2.3,2.3,0,0,0,228.586,133.778Zm-.429,1.234a3.541,3.541,0,0,1-1.286-.232,3.166,3.166,0,0,1-1.037-.647,2.933,2.933,0,0,1-.689-.959,2.828,2.828,0,0,1-.255-1.208,2.505,2.505,0,0,1,.3-1.223,2.757,2.757,0,0,1,.847-.943,4.531,4.531,0,0,1,1.306-.619,5.793,5.793,0,0,1,1.65-.223,8,8,0,0,1,1.44.132,7.128,7.128,0,0,1,1.286.355v-.783a2.346,2.346,0,0,0-2.577-2.559,5.441,5.441,0,0,0-3.1,1.139l-.544-1.064a6.747,6.747,0,0,1,3.787-1.272,4.168,4.168,0,0,1,3,1.028,3.823,3.823,0,0,1,1.069,2.9v3.978c0,.387.174.582.523.6v1.419c-.174.026-.317.042-.429.058s-.232.015-.355.015a1.027,1.027,0,0,1-.772-.291,1.171,1.171,0,0,1-.349-.7l-.036-.687a4.188,4.188,0,0,1-1.651,1.329A5.044,5.044,0,0,1,228.158,135.013Zm-4.127-8.5a4.256,4.256,0,0,0-2.175.636,3.226,3.226,0,0,0-1.334,1.664v6.016h-1.645v-9.756h1.535v2.262a4.608,4.608,0,0,1,1.322-1.638,3.262,3.262,0,0,1,1.757-.7h.317a.908.908,0,0,1,.223.021Zm-9.444-3.267V121.19h1.646v2.055Zm0,11.583v-9.756h1.646v9.756Zm-3.375-5.529a3.611,3.611,0,0,0-.344-1.283,3.565,3.565,0,0,0-.73-1,3.245,3.245,0,0,0-1.016-.64,3.367,3.367,0,0,0-2.465,0,3.091,3.091,0,0,0-1.017.651,3.323,3.323,0,0,0-.708,1,3.717,3.717,0,0,0-.328,1.272Zm-3.345,5.714a4.9,4.9,0,0,1-2.01-.4,4.708,4.708,0,0,1-1.565-1.091,4.9,4.9,0,0,1-1.021-1.615,5.3,5.3,0,0,1-.366-1.955,5.2,5.2,0,0,1,.366-1.944,5,5,0,0,1,1.027-1.61,4.882,4.882,0,0,1,1.576-1.091,4.98,4.98,0,0,1,2.016-.4,4.739,4.739,0,0,1,4.529,3.087,5.346,5.346,0,0,1,.344,1.881c0,.138-.006.259-.011.37a1.967,1.967,0,0,1-.026.264h-8.083a3.789,3.789,0,0,0,.338,1.325,3.349,3.349,0,0,0,.73,1.028,3.177,3.177,0,0,0,1.016.672,2.969,2.969,0,0,0,1.2.243,3.254,3.254,0,0,0,.878-.121,3.588,3.588,0,0,0,.8-.324,2.776,2.776,0,0,0,.662-.508,2.08,2.08,0,0,0,.44-.668l1.418.392a3.564,3.564,0,0,1-.662.985,4.361,4.361,0,0,1-.973.779,4.923,4.923,0,0,1-1.223.513A5.3,5.3,0,0,1,207.867,135.013ZM198.26,121.19h1.64v11.116a1.174,1.174,0,0,0,.291.847,1.045,1.045,0,0,0,.808.307,2.18,2.18,0,0,0,.487-.064,3.617,3.617,0,0,0,.525-.159l.259,1.33a6.03,6.03,0,0,1-.968.28,5.1,5.1,0,0,1-.989.111,1.894,1.894,0,0,1-2.052-2.055Zm-4.332,2.055V121.19h1.645v2.055Zm0,11.583v-9.756h1.645v9.756Zm-5.8.185a7.513,7.513,0,0,1-2.312-.365,5.626,5.626,0,0,1-1.963-1.055l.71-1.1a7.077,7.077,0,0,0,1.72.981,5.078,5.078,0,0,0,1.809.327,2.977,2.977,0,0,0,1.688-.423,1.339,1.339,0,0,0,.625-1.181,1.082,1.082,0,0,0-.164-.609,1.392,1.392,0,0,0-.5-.44,4.48,4.48,0,0,0-.863-.338c-.349-.1-.751-.2-1.212-.313-.587-.153-1.089-.3-1.514-.434a3.9,3.9,0,0,1-1.041-.481,1.673,1.673,0,0,1-.6-.673,2.221,2.221,0,0,1-.191-.974,2.739,2.739,0,0,1,1.084-2.251,3.581,3.581,0,0,1,1.185-.577,5.226,5.226,0,0,1,1.466-.2,5.793,5.793,0,0,1,2.052.355,5.015,5.015,0,0,1,1.6.932l-.746.991a4.136,4.136,0,0,0-1.376-.81,4.687,4.687,0,0,0-1.571-.271,2.865,2.865,0,0,0-1.518.381,1.326,1.326,0,0,0-.63,1.224,1.162,1.162,0,0,0,.121.555,1.036,1.036,0,0,0,.4.4,3.107,3.107,0,0,0,.719.3c.291.09.646.181,1.052.281.651.153,1.212.307,1.693.461a4.774,4.774,0,0,1,1.191.551,2.113,2.113,0,0,1,.71.747,2.19,2.19,0,0,1,.232,1.043,2.6,2.6,0,0,1-1.042,2.166A4.533,4.533,0,0,1,188.123,135.013ZM177.3,133.778a4.085,4.085,0,0,0,1.635-.328,2.675,2.675,0,0,0,1.148-.863,1.044,1.044,0,0,0,.355-.732v-1.44a6.741,6.741,0,0,0-2.482-.466,3.506,3.506,0,0,0-2,.525,1.584,1.584,0,0,0-.778,1.366,1.858,1.858,0,0,0,.159.762,1.766,1.766,0,0,0,.449.615,2.253,2.253,0,0,0,.683.413A2.3,2.3,0,0,0,177.3,133.778Zm-.429,1.234a3.554,3.554,0,0,1-1.287-.232,3.165,3.165,0,0,1-1.037-.647,2.95,2.95,0,0,1-.687-.959,2.829,2.829,0,0,1-.255-1.208,2.5,2.5,0,0,1,.3-1.223,2.767,2.767,0,0,1,.846-.943,4.539,4.539,0,0,1,1.308-.619,5.793,5.793,0,0,1,1.65-.223,8,8,0,0,1,1.44.132,7.13,7.13,0,0,1,1.286.355v-.783a2.346,2.346,0,0,0-2.577-2.559,5.437,5.437,0,0,0-3.1,1.139l-.545-1.064a6.751,6.751,0,0,1,3.789-1.272,4.165,4.165,0,0,1,3,1.028,3.818,3.818,0,0,1,1.068,2.9v3.978c0,.387.175.582.525.6v1.419c-.175.026-.317.042-.429.058s-.232.015-.355.015a1.027,1.027,0,0,1-.772-.291,1.164,1.164,0,0,1-.349-.7l-.038-.687a4.184,4.184,0,0,1-1.65,1.329A5.048,5.048,0,0,1,176.87,135.013Zm-4.127-8.5a4.256,4.256,0,0,0-2.175.636,3.226,3.226,0,0,0-1.334,1.664v6.016H167.59v-9.756h1.533v2.262a4.611,4.611,0,0,1,1.323-1.638,3.262,3.262,0,0,1,1.757-.7h.317a.916.916,0,0,1,.223.021Zm-15.736-3.495v4.433h4.223a1.847,1.847,0,0,0,.819-.179,2.126,2.126,0,0,0,1.074-1.176,2.3,2.3,0,0,0,.159-.853,2.456,2.456,0,0,0-.55-1.589,1.806,1.806,0,0,0-.619-.466,1.849,1.849,0,0,0-.774-.17Zm6.794,8.093a2.528,2.528,0,0,0-.154-.87,2.48,2.48,0,0,0-.427-.736,2.17,2.17,0,0,0-.646-.508,1.848,1.848,0,0,0-.826-.185h-4.74v4.559h4.614a1.927,1.927,0,0,0,.857-.191,2.332,2.332,0,0,0,.693-.493,2.272,2.272,0,0,0,.466-.721A2.222,2.222,0,0,0,163.8,131.11Zm1.7.3a3.166,3.166,0,0,1-.306,1.4,3.254,3.254,0,0,1-.842,1.08,3.852,3.852,0,0,1-1.233.694,4.514,4.514,0,0,1-1.5.243h-6.29V121.56h6.586a2.683,2.683,0,0,1,1.254.3,3.261,3.261,0,0,1,.953.779,3.585,3.585,0,0,1,.608,1.081,3.67,3.67,0,0,1,.211,1.229,3.528,3.528,0,0,1-.493,1.827,3.069,3.069,0,0,1-1.412,1.255,3.347,3.347,0,0,1,1.8,1.24A3.554,3.554,0,0,1,165.5,131.406Zm-17.718,3.421h-1.645v-5.455a4.1,4.1,0,0,0-.493-2.261,1.661,1.661,0,0,0-1.466-.732,2.585,2.585,0,0,0-1.8.721,4,4,0,0,0-1.133,1.859v5.868h-1.64v-5.455a4.162,4.162,0,0,0-.487-2.282,1.65,1.65,0,0,0-1.455-.711,2.661,2.661,0,0,0-1.793.7,3.82,3.82,0,0,0-1.137,1.864v5.884h-1.646v-9.756h1.5v2.1a4.383,4.383,0,0,1,1.55-1.674,3.97,3.97,0,0,1,2.144-.589,2.786,2.786,0,0,1,1.952.662,2.841,2.841,0,0,1,.883,1.71,4.065,4.065,0,0,1,3.713-2.372,2.921,2.921,0,0,1,1.412.307,2.426,2.426,0,0,1,.906.858,4.012,4.012,0,0,1,.487,1.3,8.326,8.326,0,0,1,.147,1.626ZM129.719,129.3a3.5,3.5,0,0,0-1.074-2.283,3.229,3.229,0,0,0-1.016-.64,3.367,3.367,0,0,0-2.465,0,3.07,3.07,0,0,0-1.016.651,3.327,3.327,0,0,0-.71,1,3.717,3.717,0,0,0-.328,1.272Zm-3.345,5.714a4.885,4.885,0,0,1-2.009-.4,4.7,4.7,0,0,1-1.567-1.091,4.905,4.905,0,0,1-1.021-1.615,5.3,5.3,0,0,1-.365-1.955,5.2,5.2,0,0,1,.365-1.944,5,5,0,0,1,1.027-1.61,4.882,4.882,0,0,1,1.576-1.091,4.98,4.98,0,0,1,2.016-.4,4.739,4.739,0,0,1,4.529,3.087,5.346,5.346,0,0,1,.344,1.881c0,.138-.006.259-.011.37a1.964,1.964,0,0,1-.026.264h-8.083a3.789,3.789,0,0,0,.338,1.325,3.372,3.372,0,0,0,.73,1.028,3.177,3.177,0,0,0,1.016.672,2.969,2.969,0,0,0,1.2.243,3.272,3.272,0,0,0,.879-.121,3.643,3.643,0,0,0,.8-.324,2.8,2.8,0,0,0,.661-.508,2.079,2.079,0,0,0,.44-.668l1.418.392a3.563,3.563,0,0,1-.662.985,4.361,4.361,0,0,1-.973.779,4.9,4.9,0,0,1-1.223.513A5.3,5.3,0,0,1,126.375,135.013Zm-11.644-1.419a2.788,2.788,0,0,0,.925-.17,3.494,3.494,0,0,0,.895-.466,3.285,3.285,0,0,0,.73-.7,2.029,2.029,0,0,0,.4-.853v-2.8a3.072,3.072,0,0,0-.5-.889,4.094,4.094,0,0,0-.755-.726,3.818,3.818,0,0,0-.9-.487,2.7,2.7,0,0,0-.942-.175,2.788,2.788,0,0,0-1.318.307,3.2,3.2,0,0,0-1,.821,3.718,3.718,0,0,0-.646,1.176,4.243,4.243,0,0,0-.221,1.357,3.729,3.729,0,0,0,.259,1.393,3.6,3.6,0,0,0,.708,1.149,3.42,3.42,0,0,0,1.059.774A2.952,2.952,0,0,0,114.731,133.593Zm-.391,1.419a4.25,4.25,0,0,1-1.869-.413A4.528,4.528,0,0,1,111,133.5a5.025,5.025,0,0,1-.963-1.606,5.436,5.436,0,0,1-.344-1.923,5.842,5.842,0,0,1,.328-1.955,5.027,5.027,0,0,1,.909-1.619,4.35,4.35,0,0,1,1.4-1.091,3.977,3.977,0,0,1,1.784-.4,3.721,3.721,0,0,1,2.1.615,4.891,4.891,0,0,1,1.461,1.493V121.19h1.646v11.62c0,.387.174.582.523.6v1.419c-.175.026-.317.042-.423.058s-.206.015-.307.015a1.221,1.221,0,0,1-.846-.328.984.984,0,0,1-.366-.757V133a4.2,4.2,0,0,1-3.565,2.017Zm-5.64-8.5a4.256,4.256,0,0,0-2.175.636,3.226,3.226,0,0,0-1.334,1.664v6.016h-1.645v-9.756h1.535v2.262A4.608,4.608,0,0,1,106.4,125.7a3.262,3.262,0,0,1,1.757-.7h.317a.908.908,0,0,1,.223.021ZM90.782,128.2a5.93,5.93,0,0,0,.328,1.949,5.416,5.416,0,0,0,.921,1.674,4.423,4.423,0,0,0,1.439,1.159,4.015,4.015,0,0,0,1.863.43,3.913,3.913,0,0,0,1.9-.461,4.585,4.585,0,0,0,1.427-1.2,5.368,5.368,0,0,0,.9-1.668,5.945,5.945,0,0,0,.307-1.885,6.005,6.005,0,0,0-.328-1.955,5.214,5.214,0,0,0-.932-1.663,4.673,4.673,0,0,0-1.439-1.149,4.226,4.226,0,0,0-3.74.015,4.662,4.662,0,0,0-1.429,1.177,5.419,5.419,0,0,0-.9,1.663A5.919,5.919,0,0,0,90.782,128.2Zm4.534,6.727a5.644,5.644,0,0,1-2.55-.573,6.228,6.228,0,0,1-1.967-1.514,6.858,6.858,0,0,1-1.265-2.157,7.046,7.046,0,0,1-.449-2.483,6.907,6.907,0,0,1,.476-2.542,7.01,7.01,0,0,1,1.318-2.151,6.254,6.254,0,0,1,1.984-1.483,5.73,5.73,0,0,1,2.492-.55,5.428,5.428,0,0,1,2.539.587,6.468,6.468,0,0,1,1.958,1.542,7.172,7.172,0,0,1,1.27,2.155,7.006,7.006,0,0,1-1.334,7.135,6.216,6.216,0,0,1-1.978,1.478A5.657,5.657,0,0,1,95.317,134.923Z" transform="translate(42.341 63.856)" fill="#fff"/>
    <path id="Caminho_3888" data-name="Caminho 3888" d="M288.781,145.229a3.887,3.887,0,0,0,.253,1.419,3.525,3.525,0,0,0,.689,1.138,3.224,3.224,0,0,0,1.025.768,2.964,2.964,0,0,0,2.52,0,3.277,3.277,0,0,0,1.037-.778,3.688,3.688,0,0,0,.7-1.155,3.968,3.968,0,0,0,.253-1.43,3.9,3.9,0,0,0-.253-1.408,3.78,3.78,0,0,0-.7-1.16,3.348,3.348,0,0,0-1.037-.774,2.911,2.911,0,0,0-1.26-.281,2.837,2.837,0,0,0-1.259.287,3.377,3.377,0,0,0-1.025.783,3.757,3.757,0,0,0-.689,1.16,4.007,4.007,0,0,0-.253,1.43m3.226,5.025a4.768,4.768,0,0,1-2-.413,4.693,4.693,0,0,1-1.55-1.1,5.019,5.019,0,0,1-1-1.606,5.366,5.366,0,0,1,.011-3.866,5.163,5.163,0,0,1,1.01-1.61,4.743,4.743,0,0,1,3.534-1.51,4.811,4.811,0,0,1,3.556,1.51,5.163,5.163,0,0,1,1.01,1.61,5.311,5.311,0,0,1,.36,1.944,5.235,5.235,0,0,1-.355,1.923,4.826,4.826,0,0,1-2.566,2.706A4.77,4.77,0,0,1,292.007,150.255Zm-15.154-5.078a5.3,5.3,0,0,1,.355-1.944,4.786,4.786,0,0,1,1.01-1.6,4.879,4.879,0,0,1,1.555-1.085,4.982,4.982,0,0,1,2.027-.4,4.733,4.733,0,0,1,2.513.641,4.151,4.151,0,0,1,1.593,1.731l-1.6.5a2.665,2.665,0,0,0-1.049-1.075,2.985,2.985,0,0,0-1.491-.381,3.047,3.047,0,0,0-2.3,1.028,3.635,3.635,0,0,0-.678,1.138,3.956,3.956,0,0,0-.255,1.441,3.906,3.906,0,0,0,.26,1.434,3.8,3.8,0,0,0,.7,1.166,3.115,3.115,0,0,0,1.025.778,2.89,2.89,0,0,0,1.259.281,3.134,3.134,0,0,0,.853-.121,3.335,3.335,0,0,0,.767-.328,2.7,2.7,0,0,0,.608-.477,1.586,1.586,0,0,0,.371-.589l1.6.487a3.448,3.448,0,0,1-.625.991,3.893,3.893,0,0,1-.942.768,5.086,5.086,0,0,1-1.206.5,5.161,5.161,0,0,1-1.391.185,4.869,4.869,0,0,1-3.576-1.514,4.937,4.937,0,0,1-1.023-1.617A5.267,5.267,0,0,1,276.853,145.176Zm-3.64-6.689v-2.055h1.646v2.055Zm0,11.583v-9.756h1.646v9.756Zm-5.3-13.637h1.64v11.116a1.175,1.175,0,0,0,.292.847,1.038,1.038,0,0,0,.808.307,2.189,2.189,0,0,0,.487-.064,3.662,3.662,0,0,0,.525-.159l.259,1.33a6.069,6.069,0,0,1-.968.28,5.1,5.1,0,0,1-.989.111,1.9,1.9,0,0,1-2.054-2.055Zm-7.079,12.4a3.033,3.033,0,0,0,1.35-.3,3.414,3.414,0,0,0,1.063-.8,3.707,3.707,0,0,0,.689-1.149,3.772,3.772,0,0,0,.243-1.355,4.125,4.125,0,0,0-.234-1.372,3.761,3.761,0,0,0-.65-1.17,3.338,3.338,0,0,0-1.011-.811,2.742,2.742,0,0,0-1.3-.307,2.705,2.705,0,0,0-.989.185,3.418,3.418,0,0,0-.868.494,3.818,3.818,0,0,0-.71.719,5.238,5.238,0,0,0-.534.879v2.823a2.012,2.012,0,0,0,.4.858,3.487,3.487,0,0,0,.73.683,3.64,3.64,0,0,0,.895.455A2.782,2.782,0,0,0,260.838,148.835Zm.413,1.419a3.916,3.916,0,0,1-2.069-.561,4.2,4.2,0,0,1-1.476-1.457v1.832h-1.459V136.432h1.645v5.825a5.029,5.029,0,0,1,1.514-1.53,4.052,4.052,0,0,1,3.9-.149,4.52,4.52,0,0,1,1.376,1.128,5.265,5.265,0,0,1,.872,1.626,5.923,5.923,0,0,1,.307,1.9,5.309,5.309,0,0,1-1.323,3.542,4.535,4.535,0,0,1-1.465,1.081A4.177,4.177,0,0,1,261.251,150.255Zm-13.216,0a2.73,2.73,0,0,1-2.312-1.027,5,5,0,0,1-.783-3.061v-5.853h1.64v5.535q0,2.986,2.074,2.987a3.173,3.173,0,0,0,1.894-.646,3.785,3.785,0,0,0,1.318-1.764v-6.112h1.64v7.738c0,.387.174.582.523.6v1.419c-.185.026-.333.043-.438.047s-.207.011-.307.011a1.167,1.167,0,0,1-.81-.291,1.017,1.017,0,0,1-.349-.721l-.036-1.139a4.491,4.491,0,0,1-1.714,1.69A4.792,4.792,0,0,1,248.035,150.255Zm1.439-11.562-1.084-.376,1.084-1.885h1.646Zm-14.131,5.117h3.868a2.045,2.045,0,0,0,.94-.218,2.091,2.091,0,0,0,.721-.6,2.944,2.944,0,0,0,.465-.885,3.332,3.332,0,0,0,.17-1.064,2.953,2.953,0,0,0-.2-1.085,3.02,3.02,0,0,0-.523-.879,2.32,2.32,0,0,0-.768-.577,2.144,2.144,0,0,0-.925-.206h-3.751Zm-1.677,6.259V136.8h5.522a3.6,3.6,0,0,1,1.619.366,4.078,4.078,0,0,1,1.27.97,4.751,4.751,0,0,1,.831,1.366,4.207,4.207,0,0,1,.3,1.54,4.65,4.65,0,0,1-.281,1.589,4.263,4.263,0,0,1-.793,1.362,3.9,3.9,0,0,1-1.233.953,3.549,3.549,0,0,1-1.6.355h-3.957v4.767Zm-6.184-8.316a4.256,4.256,0,0,0-2.175.636,3.216,3.216,0,0,0-1.333,1.664v6.016h-1.646v-9.756h1.535v2.262a4.608,4.608,0,0,1,1.322-1.638,3.262,3.262,0,0,1,1.757-.7h.317a.908.908,0,0,1,.223.021Zm-15.3,3.475a3.858,3.858,0,0,0,.255,1.419,3.521,3.521,0,0,0,.687,1.138,3.214,3.214,0,0,0,1.027.768,2.961,2.961,0,0,0,2.518,0,3.277,3.277,0,0,0,1.037-.778,3.664,3.664,0,0,0,.7-1.155,3.939,3.939,0,0,0,.255-1.43,3.873,3.873,0,0,0-.255-1.408,3.754,3.754,0,0,0-.7-1.16,3.348,3.348,0,0,0-1.037-.774,2.905,2.905,0,0,0-1.259-.281,2.833,2.833,0,0,0-1.259.287,3.366,3.366,0,0,0-1.027.783,3.753,3.753,0,0,0-.687,1.16A3.977,3.977,0,0,0,212.18,145.229Zm3.228,5.025a4.759,4.759,0,0,1-2-.413,4.7,4.7,0,0,1-1.551-1.1,5.04,5.04,0,0,1-1-1.606,5.376,5.376,0,0,1,.01-3.866,5.168,5.168,0,0,1,1.011-1.61,4.737,4.737,0,0,1,3.534-1.51,4.866,4.866,0,0,1,1.994.408,4.811,4.811,0,0,1,1.561,1.1,5.164,5.164,0,0,1,1.01,1.61,5.4,5.4,0,0,1,.006,3.866,4.814,4.814,0,0,1-2.566,2.706A4.763,4.763,0,0,1,215.408,150.255Zm-11.592-1.419a2.8,2.8,0,0,0,.927-.17,3.487,3.487,0,0,0,.893-.466,3.225,3.225,0,0,0,.73-.7,2.029,2.029,0,0,0,.4-.853v-2.8a3.119,3.119,0,0,0-.5-.889,4.143,4.143,0,0,0-.757-.726,3.809,3.809,0,0,0-.9-.487,2.713,2.713,0,0,0-.942-.175,2.784,2.784,0,0,0-1.318.307,3.206,3.206,0,0,0-1.006.821,3.773,3.773,0,0,0-.646,1.176,4.281,4.281,0,0,0-.221,1.357,3.729,3.729,0,0,0,.259,1.393,3.623,3.623,0,0,0,.708,1.149,3.421,3.421,0,0,0,1.059.774A2.956,2.956,0,0,0,203.816,148.835Zm-.391,1.419a4.254,4.254,0,0,1-1.869-.413,4.543,4.543,0,0,1-1.471-1.1,5.049,5.049,0,0,1-.963-1.606,5.467,5.467,0,0,1-.344-1.923,5.863,5.863,0,0,1,.328-1.953,5.023,5.023,0,0,1,.91-1.621,4.346,4.346,0,0,1,1.4-1.091,3.977,3.977,0,0,1,1.784-.4,3.733,3.733,0,0,1,2.1.615,4.886,4.886,0,0,1,1.459,1.493v-5.825h1.646v11.62c0,.387.174.582.523.6v1.419c-.174.026-.317.043-.423.058a2.891,2.891,0,0,1-.306.015,1.225,1.225,0,0,1-.847-.328.982.982,0,0,1-.365-.757v-.821a4.206,4.206,0,0,1-3.566,2.017Zm-8.306-11.768v-2.055h1.645v2.055Zm0,11.583v-9.756h1.645v9.756Zm-7.222,0-3.847-9.756h1.7l3.085,8.316,3.1-8.316H193.5l-3.847,9.756Zm-4.444-8.316a4.256,4.256,0,0,0-2.175.636,3.225,3.225,0,0,0-1.334,1.664v6.016H178.3v-9.756h1.533v2.262a4.611,4.611,0,0,1,1.323-1.638,3.261,3.261,0,0,1,1.757-.7h.317a.908.908,0,0,1,.223.021Zm-8.529,2.787a3.569,3.569,0,0,0-.345-1.281,3.521,3.521,0,0,0-.729-1,3.251,3.251,0,0,0-1.017-.64,3.367,3.367,0,0,0-2.465,0,3.084,3.084,0,0,0-1.016.651,3.323,3.323,0,0,0-.708,1,3.686,3.686,0,0,0-.328,1.272Zm-3.345,5.714a4.9,4.9,0,0,1-2.01-.4A4.694,4.694,0,0,1,168,148.762a4.9,4.9,0,0,1-1.021-1.615,5.3,5.3,0,0,1-.366-1.955,5.2,5.2,0,0,1,.366-1.944,5.017,5.017,0,0,1,1.025-1.61,4.888,4.888,0,0,1,1.578-1.091,4.98,4.98,0,0,1,2.016-.4,4.739,4.739,0,0,1,4.527,3.087,5.316,5.316,0,0,1,.345,1.881c0,.138-.006.259-.011.37a2.288,2.288,0,0,1-.026.266h-8.083a3.759,3.759,0,0,0,.338,1.323,3.348,3.348,0,0,0,.73,1.028,3.177,3.177,0,0,0,1.016.672,2.969,2.969,0,0,0,1.2.243,3.253,3.253,0,0,0,.878-.121,3.682,3.682,0,0,0,.8-.323,2.819,2.819,0,0,0,.662-.509,2.052,2.052,0,0,0,.438-.668l1.418.392a3.528,3.528,0,0,1-.661.985,4.337,4.337,0,0,1-.974.779,4.894,4.894,0,0,1-1.222.513A5.3,5.3,0,0,1,171.579,150.255Zm-7.628-10.666a2.785,2.785,0,0,0-.593-.5,5.246,5.246,0,0,0-.842-.44,5.734,5.734,0,0,0-1.021-.317,5.416,5.416,0,0,0-1.148-.122,3.589,3.589,0,0,0-2.265.577,1.924,1.924,0,0,0-.719,1.589,1.759,1.759,0,0,0,.207.895,1.654,1.654,0,0,0,.64.609,4.662,4.662,0,0,0,1.095.44c.434.122.947.255,1.544.392a15.263,15.263,0,0,1,1.857.513,5.585,5.585,0,0,1,1.423.721,2.885,2.885,0,0,1,.893,1.043,3.344,3.344,0,0,1,.307,1.514,3.459,3.459,0,0,1-.37,1.653,3.272,3.272,0,0,1-1.021,1.16,4.392,4.392,0,0,1-1.518.672,8.023,8.023,0,0,1-1.9.217,8.777,8.777,0,0,1-2.9-.476,8.189,8.189,0,0,1-2.5-1.393l.8-1.421a4.326,4.326,0,0,0,.772.636,5.969,5.969,0,0,0,1.085.566,7.928,7.928,0,0,0,1.306.413,6.586,6.586,0,0,0,1.465.16,4.022,4.022,0,0,0,2.2-.509,1.666,1.666,0,0,0,.783-1.51,1.728,1.728,0,0,0-.249-.947,2.127,2.127,0,0,0-.735-.662,5.726,5.726,0,0,0-1.206-.492c-.481-.143-1.027-.292-1.635-.44a17.468,17.468,0,0,1-1.773-.525,4.841,4.841,0,0,1-1.28-.672,2.487,2.487,0,0,1-.774-.954,3.154,3.154,0,0,1-.259-1.345,3.784,3.784,0,0,1,.355-1.678,3.518,3.518,0,0,1,.989-1.234,4.336,4.336,0,0,1,1.514-.757,6.855,6.855,0,0,1,6.248,1.259Zm-22.92,5.64a3.858,3.858,0,0,0,.255,1.419,3.521,3.521,0,0,0,.687,1.138,3.23,3.23,0,0,0,1.027.768,2.961,2.961,0,0,0,2.518,0,3.261,3.261,0,0,0,1.037-.778,3.663,3.663,0,0,0,.7-1.155,3.939,3.939,0,0,0,.255-1.43,3.873,3.873,0,0,0-.255-1.408,3.753,3.753,0,0,0-.7-1.16,3.332,3.332,0,0,0-1.037-.774,2.905,2.905,0,0,0-1.259-.281,2.833,2.833,0,0,0-1.259.287,3.383,3.383,0,0,0-1.027.783,3.753,3.753,0,0,0-.687,1.16A3.977,3.977,0,0,0,141.031,145.229Zm3.228,5.025a4.759,4.759,0,0,1-2-.413,4.692,4.692,0,0,1-1.55-1.1,5.02,5.02,0,0,1-1-1.606,5.376,5.376,0,0,1,.01-3.866,5.167,5.167,0,0,1,1.011-1.61,4.737,4.737,0,0,1,3.534-1.51,4.877,4.877,0,0,1,2,.408,4.82,4.82,0,0,1,1.56,1.1,5.167,5.167,0,0,1,1.011,1.61,5.425,5.425,0,0,1,.006,3.866,4.962,4.962,0,0,1-1.006,1.606,4.9,4.9,0,0,1-1.561,1.1A4.759,4.759,0,0,1,144.259,150.255Zm-11.666-1.234a4.08,4.08,0,0,0,1.635-.328,2.676,2.676,0,0,0,1.148-.863,1.036,1.036,0,0,0,.355-.732v-1.44a6.73,6.73,0,0,0-2.482-.466,3.5,3.5,0,0,0-2,.525,1.585,1.585,0,0,0-.778,1.366,1.835,1.835,0,0,0,.159.762,1.766,1.766,0,0,0,.449.615,2.263,2.263,0,0,0,.682.413A2.309,2.309,0,0,0,132.592,149.02Zm-.429,1.234a3.541,3.541,0,0,1-1.286-.232,3.165,3.165,0,0,1-1.037-.647,2.953,2.953,0,0,1-.689-.959,2.849,2.849,0,0,1-.253-1.208,2.49,2.49,0,0,1,.3-1.223,2.752,2.752,0,0,1,.846-.943,4.529,4.529,0,0,1,1.306-.619,5.8,5.8,0,0,1,1.651-.223,8,8,0,0,1,1.439.132,7.132,7.132,0,0,1,1.286.355V143.9a2.346,2.346,0,0,0-2.577-2.559,5.434,5.434,0,0,0-3.094,1.139l-.545-1.064a6.748,6.748,0,0,1,3.788-1.272,4.165,4.165,0,0,1,3,1.028,3.823,3.823,0,0,1,1.069,2.9v3.978c0,.387.174.582.523.6v1.419c-.174.026-.317.043-.429.058s-.232.015-.355.015a1.029,1.029,0,0,1-.772-.291,1.172,1.172,0,0,1-.349-.7l-.036-.687a4.193,4.193,0,0,1-1.65,1.329A5.054,5.054,0,0,1,132.164,150.255Z" transform="translate(57.92 69.821)" fill="#fff"/>
    <rect id="Retângulo_787" data-name="Retângulo 787" width="341.189" height="4.14" transform="translate(99.815 167.551)" fill="#c89110"/>
  </g>
</svg>
